<?xml version="1.0" encoding="UTF-8" standalone="no"?>
<svg
   xmlns:dc="http://purl.org/dc/elements/1.1/"
   xmlns:cc="http://creativecommons.org/ns#"
   xmlns:rdf="http://www.w3.org/1999/02/22-rdf-syntax-ns#"
   xmlns:svg="http://www.w3.org/2000/svg"
   xmlns="http://www.w3.org/2000/svg"
   xmlns:sodipodi="http://sodipodi.sourceforge.net/DTD/sodipodi-0.dtd"
   xmlns:inkscape="http://www.inkscape.org/namespaces/inkscape"
   sodipodi:docname="auto.svg"
   inkscape:version="1.0 (4035a4fb49, 2020-05-01)"
   id="svg2165"
   version="1.1"
   viewBox="0 0 210 297"
   height="297mm"
   width="210mm">
  <defs
     id="defs2159" />
  <sodipodi:namedview
     inkscape:window-maximized="0"
     inkscape:window-y="0"
     inkscape:window-x="0"
     inkscape:window-height="728"
     inkscape:window-width="1350"
     showgrid="true"
     inkscape:document-rotation="0"
     inkscape:current-layer="layer1"
     inkscape:document-units="mm"
     inkscape:cy="327.43177"
     inkscape:cx="350.43142"
     inkscape:zoom="0.7"
     inkscape:pageshadow="2"
     inkscape:pageopacity="0.0"
     borderopacity="1.0"
     bordercolor="#666666"
     pagecolor="#ffffff"
     id="base">
    <inkscape:grid
       id="grid2750"
       type="xygrid" />
  </sodipodi:namedview>
  <metadata
     id="metadata2162">
    <rdf:RDF>
      <cc:Work
         rdf:about="">
        <dc:format>image/svg+xml</dc:format>
        <dc:type
           rdf:resource="http://purl.org/dc/dcmitype/StillImage" />
        <dc:title></dc:title>
      </cc:Work>
    </rdf:RDF>
  </metadata>
  <g
     id="layer1"
     inkscape:groupmode="layer"
     inkscape:label="Laag 1">
    <path
       id="path2748"
       d="m 19.916308,89.324985 c -0.0959,-0.1552 -0.12086,-0.33572 -0.0554,-0.40116 0.0654,-0.0654 5.94118,-0.12326 13.05722,-0.12849 l 12.93824,-0.01 -1.83911,-0.97454 c -1.08617,-0.57555 -2.54852,-1.68218 -3.57187,-2.70299 -1.53149,-1.52768 -1.82497,-1.71218 -2.52652,-1.58834 -0.71354,0.12595 -0.78505,0.22669 -0.70766,0.997 l 0.0861,0.85689 -1.93816,-0.0264 c -2.46103,-0.0335 -3.24035,-0.25003 -3.33924,-0.92784 -0.0729,-0.49958 -0.42032,-0.56353 -5.15938,-0.94966 -5.73429,-0.46722 -7.23148,-0.86782 -6.97344,-1.86587 0.92987,-3.59645 1.01764,-4.24498 0.99203,-7.33027 -0.015,-1.81214 -0.14607,-3.41354 -0.29118,-3.55865 -0.14511,-0.14509 -0.26384,-0.58205 -0.26384,-0.97101 0,-0.53424 0.46923,-1.15223 1.91855,-2.52677 7.30778,-6.93077 10.48564,-8.74504 19.12659,-10.91959 5.49135,-1.38193 7.77406,-1.67553 13.74757,-1.76824 3.09062,-0.048 9.07858,-0.39991 13.49375,-0.79309 4.36563,-0.38876 9.72394,-0.72718 11.90736,-0.75203 l 3.96987,-0.0452 6.74576,-3.34421 c 10.266192,-5.08945 19.787102,-8.96942 24.472852,-9.97318 8.35105,-1.78894 19.62545,-1.64859 31.45853,0.39162 2.80006,0.48278 14.62648,3.46529 21.32584,5.37819 5.68918,1.62445 14.99721,4.44484 15.31276,4.63987 0.12774,0.079 1.28877,-0.0807 2.58006,-0.3548 5.37453,-1.1408 5.68824,-1.06622 5.13283,1.22029 -0.56769,2.33709 -0.47727,3.95943 0.31416,5.63724 1.20726,2.55934 1.34433,3.4939 1.14475,7.80521 -0.10105,2.18281 -0.33348,4.6885 -0.51651,5.56819 -0.18303,0.8797 -0.24175,1.8322 -0.13047,2.11667 0.24786,0.63367 0.29005,2.68288 0.072,3.49668 -0.09,0.33591 -0.43966,0.66832 -0.79743,0.75812 -0.41502,0.10416 -0.81147,0.5426 -1.13722,1.25768 -0.92941,2.04018 -2.01496,2.73805 -5.36966,3.45199 -1.63857,0.34871 -3.27687,0.62975 -3.64067,0.62453 -0.36381,-0.005 -1.59476,0.19821 -2.73545,0.45208 -1.62924,0.3626 -2.21618,0.39679 -2.73711,0.15944 -0.38973,-0.17758 -1.1709,-0.23451 -1.89476,-0.1381 -1.10643,0.14737 -1.32288,0.29659 -2.12909,1.46779 -1.10287,1.60216 -2.79803,3.04384 -5.03376,4.28105 l -1.69788,0.93957 13.98686,0.027 c 7.69276,0.0149 14.0349,0.0751 14.09364,0.13383 0.0587,0.0587 0.0283,0.23377 -0.0676,0.38897 -0.24658,0.39898 -173.077262,0.39898 -173.323842,0 z m 133.360882,-1.50895 c -1.02227,-0.54039 -2.62186,-1.72536 -3.57017,-2.64477 l -1.71808,-1.66572 -4.94337,0.31804 c -3.96907,0.25536 -5.4556,0.25069 -7.54233,-0.0237 -2.1067,-0.27703 -7.76072,-0.28537 -29.85105,-0.044 -35.770542,0.39081 -40.712022,0.39652 -40.828462,0.0472 -0.0516,-0.15472 -0.55789,-0.28131 -1.12515,-0.28131 -0.91188,0 -1.22356,0.19162 -2.68993,1.65373 -0.95237,0.9496 -2.44713,2.07319 -3.51063,2.63889 l -1.85208,0.98516 49.741662,-0.002 49.74167,-0.002 -1.85208,-0.97905 z m -98.499942,0.20754 c 3.56869,-1.10225 6.71709,-3.89255 8.3635,-7.41223 0.83299,-1.78077 0.94055,-2.27152 1.04828,-4.78282 0.19255,-4.48824 -1.01968,-7.63784 -4.06532,-10.56241 -5.31626,-5.10494 -13.42887,-5.10494 -18.74513,0 -2.80619,2.69464 -4.12119,5.82455 -4.12119,9.80913 0,6.0169 3.73492,11.12854 9.47148,12.96274 2.12363,0.67901 5.82482,0.67238 8.04838,-0.0144 z m -6.90884,-2.01011 c -4.30668,-1.15813 -7.5373,-4.7437 -8.3033,-9.21558 -0.95853,-5.59586 2.75661,-11.25664 8.36827,-12.7508 8.18404,-2.17909 15.93521,5.53804 13.79923,13.73861 -0.55454,2.12903 -1.30996,3.49616 -2.80574,5.07773 -2.8347,2.99728 -7.1041,4.21343 -11.05846,3.15004 z m 5.40683,-0.78556 c 0.86732,-0.22579 1.69601,-0.54097 1.84153,-0.7004 0.18838,-0.20639 0.11218,-0.23008 -0.26458,-0.0823 -0.29105,0.11419 -1.00542,0.32234 -1.5875,0.46256 -2.27936,0.54906 -2.65912,0.67593 -2.10611,0.70361 0.29685,0.0149 1.24935,-0.15773 2.11666,-0.38351 z m -5.16352,-0.27822 c -0.79683,-0.21413 -1.98746,-0.6915 -2.64583,-1.06084 -0.93096,-0.52225 -1.05001,-0.55008 -0.53558,-0.1252 0.82732,0.6833 3.09073,1.58381 3.96875,1.579 0.3638,-0.002 0.01,-0.17883 -0.78734,-0.39296 z m 5.4837,-0.94808 c 0.69129,-0.17461 1.12447,-0.43556 1.12447,-0.67738 0,-0.2817 -0.16897,-0.34529 -0.59531,-0.22403 -0.32742,0.0931 -1.18154,0.28644 -1.89805,0.4296 -1.46708,0.29312 -1.60063,0.36901 -1.35337,0.76908 0.17503,0.2832 0.61403,0.23527 2.72226,-0.29727 z m -4.16719,-0.083 c 0,-0.21828 -0.20836,-0.39804 -0.46302,-0.39946 -0.25466,-10e-4 -1.10812,-0.30288 -1.89657,-0.6699 -0.82934,-0.38605 -1.53203,-0.56881 -1.66723,-0.43362 -0.27538,0.27538 0.74534,0.99624 2.13367,1.50687 1.2956,0.47652 1.89315,0.47529 1.89315,-0.004 z m 10.03269,-2.96101 c 0.44837,-0.67692 0.81523,-1.35705 0.81523,-1.5114 0,-0.15435 -0.31345,0.19348 -0.69655,0.77297 -0.38311,0.57948 -1.24631,1.63981 -1.91823,2.35629 l -1.22168,1.30269 1.103,-0.84489 c 0.60666,-0.4647 1.46986,-1.39874 1.91823,-2.07566 z m -5.74003,1.28772 c 0.21504,-0.21504 -0.43262,-1.77102 -0.84266,-2.02444 -0.12136,-0.075 -0.59007,-0.0625 -1.04158,0.0278 -0.7798,0.15596 -0.82092,0.2271 -0.82092,1.41987 v 1.25569 l 1.24587,-0.23276 c 0.68523,-0.12801 1.34191,-0.32879 1.45929,-0.44617 z m -4.46242,-0.40857 c -0.10205,-0.31019 -0.17312,-0.7644 -0.15795,-1.00935 0.0152,-0.24496 -0.1378,-0.58263 -0.33993,-0.75038 -0.42604,-0.35358 -1.01373,-0.0962 -0.751,0.32888 0.0976,0.15794 0.0573,0.21292 -0.0895,0.12216 -0.14685,-0.0908 -0.5409,0.12653 -0.87565,0.48286 l -0.60865,0.64787 1.14036,0.51056 c 1.34667,0.60292 1.9508,0.48348 1.68234,-0.3326 z m 7.4458,0.36207 c -0.0899,-0.14553 -0.28258,-0.26459 -0.4281,-0.26459 -0.14552,0 -0.191,0.11906 -0.10107,0.26459 0.0899,0.14552 0.28259,0.26458 0.42811,0.26458 0.14552,0 0.191,-0.11906 0.10106,-0.26458 z m -14.1308,-0.99219 c -0.43685,-0.54571 -0.97984,-1.43867 -1.20664,-1.98438 -0.47287,-1.13775 -0.79652,-1.36205 -0.38179,-0.26458 0.39589,1.0476 1.83962,3.24115 2.13324,3.24115 0.13721,0 -0.10795,-0.44649 -0.54481,-0.99219 z m 1.54787,-0.20505 c -0.15284,-0.71803 -1.67058,-3.0361 -1.98786,-3.0361 -0.47175,0 -0.1023,1.0441 0.86889,2.45557 0.62212,0.90415 1.25809,1.23409 1.11897,0.58053 z m 11.4816,-1.15409 c -0.12187,-0.0892 -0.23349,-0.31104 -0.24805,-0.49295 -0.0944,-1.17953 -0.10143,-1.19292 -0.46869,-0.88812 -0.3039,0.25221 -0.27166,0.50054 0.19844,1.52849 0.46855,1.02453 0.57605,1.12716 0.65059,0.62107 0.0491,-0.33345 -0.0104,-0.67928 -0.13229,-0.76849 z m 2.55654,-0.064 c 0,-0.11354 -0.29766,0.0912 -0.66146,0.45502 -0.3638,0.36381 -0.66146,0.73634 -0.66146,0.82785 0,0.0915 0.29766,-0.11325 0.66146,-0.45502 0.3638,-0.34178 0.66146,-0.71431 0.66146,-0.82785 z m -11.86977,-1.86258 c -0.40739,-0.73125 -0.50471,-0.76759 -1.62398,-0.60647 -0.65485,0.0943 -1.22917,0.20872 -1.27628,0.25435 -0.12428,0.12036 0.7422,1.7735 1.20851,2.30567 0.37118,0.42362 0.45495,0.39965 1.26135,-0.36097 0.85097,-0.80265 0.85734,-0.82624 0.4304,-1.59258 z m 5.78435,1.09561 c 0,-0.13236 -0.17791,-0.17239 -0.39535,-0.089 -0.21745,0.0834 -0.32828,0.26024 -0.24631,0.39289 0.17147,0.27744 0.64166,0.0547 0.64166,-0.30394 z m 5.40683,0.035 c 0.0805,-0.13027 -0.0315,-0.30513 -0.24897,-0.38857 -0.24015,-0.0922 -0.39536,7.9e-4 -0.39536,0.23686 0,0.42793 0.41344,0.52528 0.64433,0.15171 z m 3.77546,-3.47203 c 0.086,-1.02612 0.0496,-1.84736 -0.0819,-1.84736 -0.13025,0 -0.23682,0.56555 -0.23682,1.25677 0,0.69122 -0.0841,1.73302 -0.18696,2.3151 -0.13677,0.77425 -0.11478,0.93278 0.0819,0.59059 0.14789,-0.25726 0.33859,-1.29905 0.42377,-2.3151 z m -14.04952,1.3993 c -0.26895,-0.26896 -0.49087,0.13596 -0.2702,0.49302 0.1667,0.26972 0.22902,0.26993 0.31864,10e-4 0.0613,-0.18383 0.0395,-0.40617 -0.0484,-0.49408 z m 11.05047,-0.40239 c 0.0877,-0.32742 0.16116,-1.02118 0.16315,-1.54168 0.003,-0.90161 -0.0339,-0.94085 -0.79014,-0.82986 -0.75587,0.11093 -0.79375,0.17727 -0.79375,1.38998 0,1.24478 0.0822,1.36093 1.09362,1.54618 0.0922,0.0169 0.23937,-0.2372 0.32712,-0.56462 z m -8.03532,0.0661 c 0,-0.14553 -0.0525,-0.26459 -0.11668,-0.26459 -0.0642,0 -0.19026,0.11906 -0.2802,0.26459 -0.0899,0.14552 -0.0374,0.26458 0.11668,0.26458 0.15411,0 0.2802,-0.11906 0.2802,-0.26458 z m -8.1032,-2.29926 c 0.0949,-1.08445 0.0607,-1.96773 -0.0795,-2.05437 -0.44607,-0.27568 -0.9318,2.18315 -0.688,3.48273 0.25488,1.35858 0.5759,0.7611 0.76746,-1.42836 z m -1.76146,-0.0159 c -0.0606,-0.40018 -0.11022,-0.0728 -0.11022,0.7276 0,0.80037 0.0496,1.12779 0.11022,0.72761 0.0606,-0.40019 0.0606,-1.05503 0,-1.45521 z m 11.98132,1.93385 c 0,-0.0642 -0.11906,-0.19027 -0.26458,-0.2802 -0.14552,-0.0899 -0.26458,-0.0374 -0.26458,0.11667 0,0.15411 0.11906,0.2802 0.26458,0.2802 0.14552,0 0.26458,-0.0525 0.26458,-0.11667 z m -8.01609,-0.73784 c 0.82376,-0.36214 1.12684,-0.68969 1.13288,-1.22432 0.002,-0.21638 -0.1591,-0.29643 -0.40657,-0.20146 -0.22584,0.0867 -0.35,0.0595 -0.27592,-0.0604 0.0741,-0.11987 -0.2922,-0.42153 -0.81398,-0.67035 -0.93117,-0.44404 -0.94607,-0.44241 -0.80725,0.0884 0.0778,0.29745 0.0335,0.6075 -0.0983,0.68899 -0.27786,0.17173 -0.32331,1.2681 -0.0634,1.52806 0.24888,0.24887 0.48852,0.22208 1.33252,-0.14896 z m 6.83972,-0.22687 c 0.27266,-0.44118 -0.34058,-0.94708 -0.70557,-0.58209 -0.30531,0.30531 -0.11423,0.86972 0.29444,0.86972 0.12835,0 0.31335,-0.12943 0.41113,-0.28763 z m 4.08679,0.023 c 0,-0.14552 -0.11906,-0.26458 -0.26458,-0.26458 -0.14552,0 -0.26459,0.11906 -0.26459,0.26458 0,0.14552 0.11907,0.26458 0.26459,0.26458 0.14552,0 0.26458,-0.11906 0.26458,-0.26458 z m -5.89249,-0.42444 c -0.0879,-0.0879 -0.31612,-0.0973 -0.50712,-0.0209 -0.21106,0.0845 -0.14837,0.14715 0.15986,0.15985 0.27891,0.0115 0.43518,-0.051 0.34726,-0.13897 z m 3.11437,-0.63389 c 0.0899,-0.14553 -0.0291,-0.26459 -0.26459,-0.26459 -0.23545,0 -0.35452,0.11906 -0.26458,0.26459 0.0899,0.14552 0.209,0.26458 0.26458,0.26458 0.0556,0 0.17465,-0.11906 0.26459,-0.26458 z m -1.8887,-0.92605 c -0.0838,-0.21828 -0.19909,-0.39687 -0.25628,-0.39687 -0.0572,0 -0.10398,0.17859 -0.10398,0.39687 0,0.21828 0.11532,0.39688 0.25628,0.39688 0.14095,0 0.18774,-0.1786 0.10398,-0.39688 z m -9.66565,-1.4552 c 0.005,-0.24315 -0.0803,-0.19191 -0.21961,0.13229 -0.12507,0.29104 -0.22389,0.76729 -0.21961,1.05833 0.006,0.42539 0.0493,0.39945 0.21961,-0.13229 0.11651,-0.3638 0.21533,-0.84005 0.21961,-1.05833 z m 6.85796,0.1102 c -0.25214,-0.25214 -0.75764,0.15627 -0.56973,0.4603 0.11168,0.18071 0.25968,0.17614 0.44969,-0.0139 0.15578,-0.15577 0.2098,-0.35666 0.12004,-0.44642 z m 9.14756,-0.17635 c -0.29473,-0.32742 -0.63156,-0.83344 -0.74853,-1.12448 -0.19813,-0.49301 -0.2205,-0.4961 -0.32744,-0.0452 -0.2344,0.98835 0.16572,1.76501 0.90929,1.76501 h 0.70254 z m -10.16545,-0.30334 0.59568,-0.63407 -0.6157,-0.95015 c -0.7205,-1.11189 -0.82985,-1.13944 -1.57297,-0.39632 -0.45795,0.45795 -0.49423,0.60762 -0.19844,0.81871 0.27971,0.19962 0.25833,0.22508 -0.0941,0.11206 -0.26816,-0.086 -0.55617,0.0327 -0.69913,0.28815 -0.18961,0.33881 -0.0602,0.53684 0.58831,0.89986 1.10591,0.61912 1.29727,0.60587 1.99632,-0.13824 z m 13.49974,-0.99981 c -0.70272,-1.38673 -2.0424,-3.12862 -2.40622,-3.12862 -0.14566,0 0.21544,0.54563 0.80246,1.21251 0.58701,0.66688 1.2754,1.75744 1.52976,2.42347 0.25436,0.66603 0.50553,1.0818 0.55815,0.92392 0.0526,-0.15787 -0.16524,-0.80195 -0.48415,-1.43128 z m -7.65317,0.57555 c 0,-0.14553 -0.12609,-0.26459 -0.2802,-0.26459 -0.15411,0 -0.20661,0.11906 -0.11668,0.26459 0.0899,0.14552 0.21603,0.26458 0.2802,0.26458 0.0642,0 0.11668,-0.11906 0.11668,-0.26458 z m -9.26042,-0.49192 c 0,-0.12503 0.48455,-0.77781 1.07678,-1.45062 1.23136,-1.3989 1.17433,-2.23915 -0.0717,-1.05572 -1.12298,1.0666 -1.85973,2.15658 -1.6677,2.46728 0.20105,0.32531 0.66257,0.35252 0.66257,0.0391 z m 14.60059,-0.35916 c -0.18985,-0.18986 -0.31309,-0.20548 -0.31309,-0.0397 0,0.35316 0.3129,0.66606 0.48948,0.48948 0.0752,-0.0752 -0.004,-0.27759 -0.17639,-0.44979 z m -3.51094,-0.70758 0.81537,-1.02948 -1.22158,-0.57421 c -0.67186,-0.31581 -1.366,-0.51879 -1.54252,-0.45105 -0.17651,0.0677 -0.33981,0.60483 -0.36288,1.19354 -0.036,0.91821 0.0612,1.12471 0.68324,1.45247 0.39885,0.21015 0.74494,0.39472 0.76909,0.41015 0.0242,0.0154 0.41083,-0.4352 0.85928,-1.00142 z m -10.56048,-2.07291 c 0.50932,-0.4751 0.78733,-0.86439 0.6178,-0.86509 -0.35093,-10e-4 -2.39391,2.24123 -2.77064,3.04145 -0.13701,0.29104 0.083,0.11478 0.48884,-0.39168 0.40587,-0.50647 1.15467,-1.30957 1.664,-1.78468 z m 5.99299,1.92025 c -0.082,-0.21362 -0.0352,-0.45878 0.10398,-0.54478 0.33653,-0.20799 0.32638,-1.71265 -0.0116,-1.71265 -0.14552,0 -0.26458,0.10255 -0.26458,0.22789 0,0.12534 -0.27886,0.17458 -0.6197,0.10943 -0.34779,-0.0665 -0.79833,0.0602 -1.02683,0.28867 -0.22393,0.22393 -0.50554,0.32351 -0.62582,0.2213 -0.12027,-0.10221 0.13345,0.25205 0.56382,0.78725 0.79291,0.98604 2.19871,1.45165 1.88069,0.62289 z m 6.17784,-2.00309 c 0,-0.31704 -1.74427,-1.19628 -2.84427,-1.4337 -0.68553,-0.14797 -0.8599,-0.10087 -0.8599,0.23229 0,0.22985 0.20836,0.42125 0.46303,0.42535 0.25466,0.004 0.9988,0.28568 1.65364,0.62574 1.16222,0.60352 1.5875,0.6438 1.5875,0.15032 z m -6.90075,-0.83308 c 1.91491,-0.46763 2.21625,-1.1595 0.38606,-0.8864 -0.70978,0.10592 -1.67747,0.35377 -2.15041,0.55077 -0.98239,0.40922 -1.18839,1.05615 -0.26459,0.83089 0.32743,-0.0798 1.24045,-0.3027 2.02894,-0.49526 z m 7.6945,-0.0783 c 0,-0.24837 -2.52605,-1.39675 -3.43958,-1.56367 -0.58723,-0.10731 -0.30978,0.0663 0.75834,0.47439 0.92641,0.35397 1.81343,0.77264 1.97115,0.93036 0.29408,0.29408 0.71009,0.38719 0.71009,0.15892 z m -9.84194,-0.93479 c 0.77157,-0.29326 2.02172,-0.64635 2.77812,-0.78465 l 1.37528,-0.25145 -1.58027,0.13256 c -0.86916,0.0729 -2.17884,0.41613 -2.91042,0.76273 -1.65243,0.78285 -1.50923,0.84263 0.33729,0.14081 z m 116.461672,22.73745 c 4.17595,-0.96225 8.01736,-4.33451 9.72269,-8.53527 0.90508,-2.22948 1.13869,-6.5118 0.47976,-8.79424 -2.04173,-7.0722 -9.14652,-11.50552 -16.14822,-10.07634 -3.00619,0.61362 -5.18784,1.77249 -7.28516,3.86982 -8.75515,8.75515 -2.64417,23.80645 9.66641,23.80833 1.30969,2e-4 2.91372,-0.12234 3.56452,-0.2723 z m -5.15202,-2.12276 c -6.15246,-0.9019 -10.73661,-7.16985 -9.72198,-13.29295 0.44699,-2.6975 1.39918,-4.49201 3.45508,-6.51155 2.06828,-2.03168 4.21052,-3.0566 6.98232,-3.34058 4.74011,-0.48564 9.4202,2.18169 11.59579,6.60881 0.77747,1.58206 0.91113,2.14964 1.00348,4.26125 0.11783,2.69399 -0.32004,4.75278 -1.40658,6.61358 -2.39715,4.10534 -7.14028,6.36036 -11.90811,5.66144 z m 5.11136,-1.17377 c 0.75401,-0.22392 1.37094,-0.5155 1.37094,-0.64796 0,-0.13245 -0.44649,-0.0539 -0.99219,0.1746 -0.54571,0.22849 -1.82563,0.50391 -2.84427,0.61204 l -1.85209,0.1966 1.47334,0.0359 c 0.81033,0.0198 2.09025,-0.14728 2.84427,-0.3712 z m -6.93988,-0.41336 c -0.71465,-0.28988 -1.64424,-0.77262 -2.06576,-1.07277 -0.42151,-0.30015 -0.82533,-0.48678 -0.89737,-0.41475 -0.2811,0.28111 3.06199,2.02688 3.86561,2.01864 0.21828,-0.002 -0.18783,-0.24125 -0.90248,-0.53112 z m 6.08148,-0.53497 c 0.649,-0.16342 1.24453,-0.40155 1.32341,-0.52917 0.32193,-0.5209 -0.20423,-0.68028 -1.14158,-0.3458 -0.54736,0.19531 -1.42895,0.36034 -1.95908,0.36673 -0.6044,0.007 -1.02068,0.15963 -1.11618,0.40849 -0.18976,0.4945 1.14321,0.54046 2.89343,0.0998 z m -4.65769,-0.29819 c -0.0104,-0.4391 -3.30674,-2.02671 -3.70147,-1.78275 -0.38639,0.23881 0.9012,1.19124 2.30888,1.70787 1.27964,0.46964 1.40213,0.47623 1.39259,0.0749 z m 10.16319,-1.80721 c 0.67196,-0.74738 1.22175,-1.47575 1.22175,-1.6186 0,-0.14285 -0.45621,0.31651 -1.01381,1.0208 -0.5576,0.70429 -1.33151,1.44948 -1.71979,1.65597 -0.38829,0.20649 -0.70598,0.47857 -0.70598,0.60462 0,0.43965 1.00501,-0.31384 2.21783,-1.66279 z m -5.43638,0.25633 c 0.0488,-0.1311 0.20952,-0.16371 0.35713,-0.0725 0.1614,0.0998 0.1511,-0.0533 -0.0258,-0.3839 -0.16182,-0.30237 -0.48203,-0.65486 -0.71156,-0.78332 -0.22954,-0.12845 -0.40355,-0.33547 -0.38669,-0.46004 0.0169,-0.12456 -0.28521,-0.26878 -0.67126,-0.32048 -0.53388,-0.0715 -0.66577,1.5e-4 -0.55097,0.29932 0.083,0.21633 0.053,0.43078 -0.0666,0.47656 -0.11965,0.0458 -0.30206,0.47496 -0.40536,0.95373 l -0.18782,0.8705 1.28012,-0.17077 c 0.70407,-0.0939 1.32006,-0.27803 1.36887,-0.40912 z m 4.37297,-0.75289 c 1.20513,-1.28839 1.38586,-1.61619 1.06691,-1.93514 -0.23093,-0.23093 -3.04525,2.71928 -2.86785,3.00631 0.26674,0.43159 0.55648,0.25926 1.80094,-1.07117 z m -8.78593,0.45169 c 0.0228,-0.32743 0.0643,-0.90115 0.0922,-1.27496 0.0368,-0.49294 -0.14794,-0.79369 -0.67263,-1.09481 -0.70416,-0.40414 -0.74669,-0.39049 -1.59902,0.51315 -0.85133,0.90257 -0.86134,0.93922 -0.36097,1.32116 0.53791,0.4106 1.95876,1.10257 2.30058,1.12041 0.10914,0.006 0.21708,-0.25753 0.23985,-0.58495 z m -6.5165,-0.90439 c -0.5187,-0.67932 -1.14741,-1.81041 -1.39714,-2.51355 -0.24973,-0.70313 -0.54223,-1.27842 -0.64999,-1.27842 -0.62597,0 2.12858,4.96718 2.77965,5.01245 0.11581,0.008 -0.21383,-0.54117 -0.73252,-1.22048 z m 13.44122,-0.44851 c -0.0945,-0.16541 -0.0717,-0.20979 0.0507,-0.0986 0.12238,0.11118 0.55819,-0.11945 0.96846,-0.51252 0.78407,-0.75118 0.94088,-1.14483 0.45607,-1.14483 -0.15944,0 -0.64254,-0.25111 -1.07357,-0.55803 -0.43102,-0.30691 -0.80659,-0.51527 -0.8346,-0.46302 -0.028,0.0523 -0.32889,0.41108 -0.66864,0.79739 l -0.61773,0.70237 0.61295,1.06503 c 0.45898,0.79749 0.6965,0.99569 0.94555,0.789 0.18293,-0.15182 0.25529,-0.41137 0.1608,-0.57678 z m -10.49827,-2.48285 c -0.0355,-0.88672 -0.12136,-1.00222 -0.80308,-1.08007 l -0.76334,-0.0872 0.56491,0.71816 c 0.31069,0.395 0.5649,0.94726 0.5649,1.22727 0,0.28 0.10718,0.44286 0.23817,0.3619 0.13099,-0.081 0.22029,-0.594 0.19844,-1.14009 z m 4.06131,0.62291 c 0,-0.0572 -0.1786,-0.17252 -0.39688,-0.25628 -0.21828,-0.0838 -0.39687,-0.037 -0.39687,0.10398 0,0.14096 0.17859,0.25628 0.39687,0.25628 0.21828,0 0.39688,-0.0468 0.39688,-0.10398 z m 11.89498,-1.16212 c 0.15009,-0.54044 0.25646,-1.75653 0.23636,-2.70242 l -0.0366,-1.71979 -0.19616,2.11667 c -0.10789,1.16416 -0.32854,2.45089 -0.49035,2.85939 -0.16425,0.41468 -0.182,0.67339 -0.0402,0.58575 0.13969,-0.0863 0.37679,-0.59916 0.52689,-1.1396 z m -7.11264,0.13524 c -0.0327,-0.31636 -0.39563,-0.2551 -0.50932,0.086 -0.0582,0.17462 0.037,0.26987 0.21167,0.21166 0.17462,-0.0582 0.30857,-0.19215 0.29765,-0.29765 z m 6.05166,-0.65485 c 0.15155,-0.5457 0.27621,-1.55399 0.27702,-2.24065 0.001,-1.0014 -0.0771,-1.21833 -0.3954,-1.09617 -0.26455,0.10152 -0.39687,0.51836 -0.39687,1.25021 0,0.60386 -0.10818,1.47513 -0.2404,1.93615 -0.13222,0.46103 -0.17191,0.90673 -0.0882,0.99045 0.34137,0.34136 0.58241,0.10143 0.84385,-0.83999 z m -17.44859,0.19844 c 0,-0.14552 -0.11906,-0.26458 -0.26458,-0.26458 -0.14552,0 -0.26458,0.11906 -0.26458,0.26458 0,0.14552 0.11906,0.26459 0.26458,0.26459 0.14552,0 0.26458,-0.11907 0.26458,-0.26459 z m 15.77231,-0.67975 c -0.0763,-0.1989 -0.0218,-0.43394 0.1212,-0.52231 0.14298,-0.0884 0.23367,-0.55123 0.20152,-1.02857 -0.0492,-0.73023 -0.1447,-0.84691 -0.60225,-0.73563 -0.2991,0.0727 -0.69264,0.24872 -0.87455,0.39104 -0.1819,0.14232 -0.33072,0.17008 -0.33072,0.0617 0,-0.1084 -0.1786,-0.0489 -0.39688,0.13229 -0.57472,0.47697 -0.52877,1.43015 0.0581,1.20495 0.25023,-0.096 0.36833,-0.088 0.26245,0.0179 -0.24305,0.24306 1.15187,1.17899 1.46694,0.98426 0.12814,-0.0792 0.17053,-0.30672 0.0942,-0.50562 z m -7.30564,-0.26191 c 0,-0.22687 -0.121,-0.3377 -0.2689,-0.2463 -0.14789,0.0914 -0.2004,0.27703 -0.11667,0.41249 0.22681,0.36699 0.38557,0.29856 0.38557,-0.16619 z m -1.5875,-0.76251 c 0,-0.27927 -0.50776,-0.39659 -0.65879,-0.15223 -0.0914,0.1479 0.0194,0.2689 0.2463,0.2689 0.22687,0 0.41249,-0.0525 0.41249,-0.11667 z m -9.31299,-1.62253 c 0.0438,-0.81002 0.19601,-1.77861 0.33814,-2.15243 0.14212,-0.37382 0.19888,-0.73921 0.12612,-0.81197 -0.23132,-0.23131 -0.6382,1.15982 -0.82681,2.82684 -0.10059,0.88912 -0.0781,1.61176 0.0502,1.61125 0.12794,-5.3e-4 0.26849,-0.66367 0.31233,-1.47369 z m 4.1476,-0.0327 c 0.15381,-1.02564 0.104,-1.30297 -0.28511,-1.5875 -0.7066,-0.51668 -0.84916,-0.43643 -1.15017,0.64744 -0.48115,1.73254 -0.38106,2.18282 0.48521,2.18282 0.70704,0 0.77754,-0.0922 0.95007,-1.24276 z m 6.75289,0.8615 c 0,-0.2097 -0.12943,-0.46126 -0.28763,-0.55903 -0.3736,-0.2309 -0.88355,0.27905 -0.65266,0.65265 0.25935,0.41963 0.94029,0.35183 0.94029,-0.0936 z m 1.85209,0.27727 c 0,-0.25099 -0.792,-0.37748 -0.93319,-0.14904 -0.086,0.13916 0.0888,0.25303 0.3884,0.25303 0.29963,0 0.54479,-0.0468 0.54479,-0.10399 z m -6.45473,-1.14727 c -0.26896,-0.26896 -0.49087,0.13596 -0.2702,0.49301 0.16669,0.26973 0.22902,0.26994 0.31863,0.001 0.0613,-0.18383 0.0395,-0.40617 -0.0484,-0.49408 z m 3.27973,-0.33624 c 0,-0.14553 -0.11907,-0.26459 -0.26459,-0.26459 -0.14552,0 -0.26458,0.11906 -0.26458,0.26459 0,0.14552 0.11906,0.26458 0.26458,0.26458 0.14552,0 0.26459,-0.11906 0.26459,-0.26458 z m 1.85208,-0.4125 c 0,-0.22687 -0.11906,-0.3389 -0.26458,-0.24896 -0.14553,0.0899 -0.26459,0.27556 -0.26459,0.41249 0,0.13693 0.11906,0.24897 0.26459,0.24897 0.14552,0 0.26458,-0.18563 0.26458,-0.4125 z m 3.07027,-0.83876 c -0.26896,-0.26896 -0.49087,0.13596 -0.2702,0.49301 0.1667,0.26973 0.22902,0.26994 0.31864,10e-4 0.0613,-0.18383 0.0395,-0.40617 -0.0484,-0.49408 z m 2.88285,0.30307 c 0.29105,-0.0363 0.61239,-0.076 0.71411,-0.0881 0.25186,-0.03 -0.53695,-1.89663 -1.0414,-2.46431 -0.38141,-0.42922 -0.46337,-0.40301 -1.30957,0.41891 l -0.9027,0.87679 0.47603,0.83357 c 0.36718,0.64296 0.59704,0.7942 1.0052,0.66139 0.29104,-0.0947 0.76729,-0.20192 1.05833,-0.23825 z m 2.51355,-0.52341 c 0,-0.36917 -1.37495,-3.00471 -1.71461,-3.2866 -0.69402,-0.57598 -0.97608,-0.0167 -0.39976,0.79267 0.29757,0.41791 0.71804,1.18346 0.93438,1.70122 0.21634,0.51776 0.57033,0.94139 0.78666,0.94139 0.21633,0 0.39333,-0.0669 0.39333,-0.14868 z m 0.46257,-1.75261 c -0.35753,-0.7733 -0.91725,-1.70366 -1.24382,-2.06746 l -0.59376,-0.66146 0.57328,0.92604 c 0.3153,0.50932 0.82031,1.49439 1.12224,2.18905 0.30193,0.69465 0.60368,1.20829 0.67055,1.14142 0.0669,-0.0669 -0.17095,-0.75428 -0.52849,-1.52759 z m -13.6029,-0.10091 c -0.0794,-0.20681 -0.23977,-0.317 -0.35648,-0.24488 -0.1167,0.0721 -0.15805,-0.0774 -0.0919,-0.33224 0.0662,-0.25487 -0.0714,-0.70151 -0.30566,-0.99256 -0.40468,-0.50274 -0.41782,-0.47632 -0.26315,0.52917 0.27527,1.78947 0.3975,2.05056 0.80257,1.71438 0.19739,-0.16382 0.29397,-0.46707 0.21461,-0.67387 z m -2.39928,-0.13683 c -0.10966,-0.41933 -0.19788,-0.4669 -0.36805,-0.19844 -0.32593,0.51417 -0.28186,0.74997 0.14018,0.74997 0.24687,0 0.32356,-0.18562 0.22787,-0.55153 z m 5.75002,0.28695 c 0,-0.14553 -0.17859,-0.26459 -0.39687,-0.26459 -0.21828,0 -0.39688,0.11906 -0.39688,0.26459 0,0.14552 0.1786,0.26458 0.39688,0.26458 0.21828,0 0.39687,-0.11906 0.39687,-0.26458 z m -6.6335,-3.43706 c 1.54744,-1.52835 1.18529,-1.65562 -0.47221,-0.16595 -0.71192,0.63983 -2.16163,2.66405 -2.14083,2.98922 0.008,0.1193 0.20748,-0.0808 0.44411,-0.44455 0.23662,-0.3638 1.21264,-1.43423 2.16893,-2.37872 z m 10.20538,2.46329 c 0,-0.16778 0.10838,-0.40427 0.24086,-0.52554 0.13993,-0.1281 0.1611,-0.0819 0.0505,0.11024 -0.29745,0.51687 0.23639,0.38782 0.75185,-0.18176 0.45488,-0.50264 0.34896,-1.23082 -0.13548,-0.93142 -0.13547,0.0837 -0.2463,0.0453 -0.2463,-0.0855 0,-0.30422 -1.29387,-0.90102 -1.57574,-0.72682 -0.32487,0.20078 -0.50367,1.46248 -0.20726,1.46248 0.15536,0 0.1431,0.1412 -0.0304,0.35025 -0.21264,0.25622 -0.20506,0.43588 0.0283,0.66919 0.38166,0.38165 1.12369,0.28847 1.12369,-0.14112 z m -9.14116,-0.92849 c 0.23951,-0.0733 0.2796,-0.18195 0.10663,-0.28885 -0.15246,-0.0942 -0.62285,0.21096 -1.0453,0.6782 -0.61596,0.68127 -0.63708,0.73848 -0.10663,0.28885 0.3638,-0.30837 0.83419,-0.61356 1.0453,-0.6782 z m 6.14436,-0.66787 0.0951,-1.19532 -1.38661,0.14311 c -0.76263,0.0787 -1.49496,0.21008 -1.6274,0.29193 -0.13244,0.0819 -0.001,0.66957 0.29157,1.30603 l 0.53237,1.15721 0.99997,-0.25382 c 0.95011,-0.24117 1.0047,-0.31341 1.09503,-1.44914 z m 5.77492,-0.59891 c 0,-0.31794 -1.56621,-1.25149 -2.8733,-1.71266 -1.04253,-0.36783 -1.09545,-0.3615 -1.09545,0.13093 0,0.31558 0.18063,0.51827 0.46302,0.51959 0.25466,10e-4 1.05834,0.34568 1.78594,0.76554 1.25713,0.72542 1.71979,0.80522 1.71979,0.2966 z m -11.1125,-0.27055 c 0,-0.14552 -0.12609,-0.26458 -0.2802,-0.26458 -0.15411,0 -0.20661,0.11906 -0.11667,0.26458 0.0899,0.14552 0.21602,0.26459 0.2802,0.26459 0.0642,0 0.11667,-0.11907 0.11667,-0.26459 z m 11.64419,-0.83033 c -0.93661,-0.77914 -2.88543,-1.7211 -3.97127,-1.91951 -0.59564,-0.10884 -0.3331,0.0575 0.73586,0.46624 0.91404,0.34951 2.10467,0.93961 2.64583,1.31133 1.19258,0.8192 1.48972,0.89073 0.58958,0.14194 z m -7.60929,-0.16429 c 1.05552,-0.0883 1.52135,-0.2391 1.52135,-0.49239 0,-0.25443 -0.34886,-0.36507 -1.15114,-0.36507 -1.47329,0 -2.81761,0.46768 -2.81761,0.98023 0,0.27909 0.13939,0.33988 0.46302,0.20192 0.25466,-0.10856 1.14763,-0.25467 1.98438,-0.32469 z m -0.23875,-1.68055 c 1.04081,-0.15989 1.95192,-0.35354 2.02469,-0.43034 0.27471,-0.28994 -3.3048,0.24876 -4.08203,0.61432 -0.44702,0.21026 -0.59278,0.32029 -0.32391,0.24451 0.26887,-0.0758 1.34043,-0.2686 2.38125,-0.42849 z M 36.331348,84.315525 c -0.0899,-0.14552 -0.96016,-0.25621 -1.93384,-0.24598 -1.23437,0.013 -1.61012,0.0874 -1.24116,0.24598 0.75993,0.32656 3.37682,0.32656 3.175,0 z m 39.89098,-1.49647 c -0.17913,-0.0725 -0.53632,-0.0769 -0.79375,-0.01 -0.25744,0.0671 -0.11087,0.12638 0.32569,0.13177 0.43656,0.005 0.64719,-0.0495 0.46806,-0.12197 z m 47.530332,-0.11761 c 5.20747,-0.0197 6.76002,-0.0943 5.97661,-0.28738 -1.08978,-0.26856 -23.94101,0.2072 -24.20832,0.50401 -0.0733,0.0814 2.41593,0.072 5.53171,-0.021 3.11578,-0.093 8.83078,-0.18102 12.7,-0.19563 z m 20.86296,-0.40206 c -0.3124,-0.68564 -0.3391,-0.69147 -2.44173,-0.53321 -1.16923,0.088 -3.64623,0.23889 -5.50445,0.3353 -1.85823,0.0964 -3.32278,0.23109 -3.25458,0.2993 0.37132,0.37131 2.37668,0.54051 6.69364,0.56475 l 4.82297,0.0271 z m -79.361352,-0.29896 c 1.64969,-4.28959 0.70044,-11.25633 -2.08545,-15.30548 -1.97064,-2.86423 -5.65203,-5.41231 -9.12736,-6.31751 -3.3613,-0.87551 -7.50091,-0.34395 -10.80366,1.38729 -6.16481,3.23149 -9.02197,10.4062 -7.34717,18.44976 0.4396,2.11129 0.443,2.11688 1.33656,2.20226 1.01425,0.0969 1.02713,0.36146 -0.13944,-2.86372 -0.59079,-1.63333 -0.71784,-2.42903 -0.71822,-4.49791 -5.3e-4,-2.8037 0.40034,-4.4352 1.67925,-6.83468 2.99211,-5.61378 9.70948,-8.75859 15.69583,-7.34819 9.18702,2.16449 13.98246,11.73737 10.11333,20.18867 -0.36926,0.80656 -0.67138,1.51162 -0.67138,1.56679 0,0.0552 0.40228,0.10032 0.89394,0.10032 0.73099,0 0.94496,-0.13263 1.17377,-0.7276 z m 24.32254,0.46366 c 4.33031,-0.14517 13.588292,-0.45243 20.573302,-0.6828 13.00853,-0.42904 25.96293,-1.06998 22.88645,-1.13235 -3.67399,-0.0745 -42.817552,1.28124 -51.858332,1.7961 -5.59906,0.31886 -0.86481,0.32959 8.39858,0.019 z m 57.747252,-0.1017 c 0,-0.12835 -0.23958,-0.62101 -0.5324,-1.09479 -0.75452,-1.22085 -1.58426,-4.68243 -1.58426,-6.60936 0,-2.04652 0.81857,-5.3052 1.78015,-7.0867 0.94095,-1.74326 3.42437,-4.40639 5.12922,-5.50039 8.21278,-5.27013 19.21421,-1.20141 22.23007,8.22147 0.40552,1.26702 0.55081,2.41635 0.55187,4.36562 0.001,2.48601 -0.21914,3.59533 -1.2386,6.23169 -0.12873,0.33292 0.0118,0.39094 0.74079,0.30583 0.89028,-0.10393 0.9028,-0.12395 1.19892,-1.91703 0.41613,-2.51977 0.36695,-6.67268 -0.10329,-8.72153 -1.08404,-4.7232 -3.74401,-8.30422 -7.71454,-10.38582 -2.41264,-1.26486 -4.57188,-1.78502 -7.4098,-1.78502 -4.44756,0 -7.87952,1.45951 -11.19883,4.7625 -3.58528,3.56766 -4.92718,7.45172 -4.69552,13.59093 0.16389,4.34335 0.6843,5.85595 2.01472,5.85595 0.45733,0 0.8315,-0.10501 0.8315,-0.23335 z M 25.708958,82.072955 c 0.12398,-0.32308 0.58564,-0.36187 2.67414,-0.22468 1.77704,0.11673 2.52429,0.0786 2.52429,-0.12875 0,-0.16201 -0.24668,-0.95388 -0.54817,-1.7597 -0.64248,-1.71718 -0.70119,-1.73061 -4.19926,-0.96116 -2.05893,0.45289 -2.31217,0.58192 -3.23325,1.64735 -0.54965,0.63578 -1.00291,1.23736 -1.00725,1.33683 -0.009,0.21107 0.99347,0.3849 2.54348,0.44096 0.75012,0.0271 1.14348,-0.0836 1.24602,-0.35085 z m 9.69635,0.14232 c 0,-0.13649 -0.19067,-1.05922 -0.42371,-2.05052 -0.58383,-2.48344 -0.38614,-8.06164 0.35945,-10.14268 0.8426,-2.35178 1.78646,-4.02569 3.08326,-5.46804 0.90734,-1.00919 1.11569,-1.38641 0.82694,-1.49722 -0.45929,-0.17624 -1.89834,1.42196 -3.17995,3.53163 -1.79661,2.95741 -2.70345,7.14698 -2.4053,11.1125 0.20747,2.75954 0.53176,4.2404 0.99257,4.53257 0.46328,0.29374 0.74674,0.28681 0.74674,-0.0182 z m -13.75833,-1.20704 c 0.57643,-0.61358 0.58456,-0.66131 0.11226,-0.65939 -0.28316,0.001 -0.64488,0.29473 -0.81497,0.66145 -0.39125,0.84355 -0.0909,0.84267 0.70271,-0.002 z m 11.45944,-0.59531 c -0.11806,-0.69123 -0.20927,-2.74505 -0.20269,-4.56406 0.018,-4.97771 1.16157,-8.45268 3.84272,-11.67682 l 1.01934,-1.22578 -0.81644,-0.16328 c -0.44904,-0.0898 -1.50818,-0.16329 -2.35364,-0.16329 -0.84546,0 -1.83611,-0.11365 -2.20144,-0.25254 -0.97819,-0.37191 -1.88177,0.39803 -1.54222,1.31414 0.32388,0.87384 0.15921,1.25235 -0.74917,1.72209 -0.95862,0.49572 -1.57674,0.49966 -1.57674,0.0101 0,-0.69118 -0.39192,-0.64643 -2.25688,0.25771 -1.01429,0.49173 -1.9682,0.89928 -2.1198,0.90568 -0.1516,0.006 -0.79759,0.54345 -1.43553,1.19346 -1.06774,1.08795 -1.13518,1.23609 -0.84884,1.86454 0.42694,0.93703 0.38851,4.27517 -0.0822,7.14008 -0.21519,1.30968 -0.39333,2.47054 -0.39587,2.57968 -0.009,0.39129 1.25934,0.18868 1.88122,-0.30048 0.62157,-0.48893 4.22238,-1.36663 5.78944,-1.41119 1.07923,-0.0307 1.66692,0.57841 2.20496,2.2853 0.27673,0.87789 0.63216,1.48783 0.90942,1.56061 1.10807,0.29089 1.15799,0.23341 0.93437,-1.0759 z m -9.02351,-8.31938 c -0.37962,-0.37962 -0.42047,-1.17799 -0.0713,-1.39378 0.44297,-0.27377 4.6053,-0.70632 5.24698,-0.54528 0.4916,0.12339 0.60629,0.30667 0.54102,0.86456 -0.0923,0.78858 -0.509,0.92827 -3.66617,1.22891 -1.19607,0.11389 -1.82995,0.0662 -2.05052,-0.15441 z m 4.93839,-1.14956 c 0.20515,-0.20516 -3.77238,0.18293 -4.00371,0.39064 -0.11069,0.0994 0.71441,0.0826 1.83356,-0.0373 1.11916,-0.11991 2.09572,-0.27892 2.17015,-0.35334 z m -6.53079,-0.84677 c 0.13282,-0.6897 1.00855,-0.76662 1.00855,-0.0886 0,0.37865 -0.16992,0.54857 -0.54857,0.54857 -0.37864,0 -0.52112,-0.14248 -0.45998,-0.45998 z m 44.97771,10.97717 c 0.21892,-0.39311 0.32261,-1.67372 0.30528,-3.77032 -0.0651,-7.87881 -3.46138,-13.74044 -9.74506,-16.81903 -3.10158,-1.51957 -4.99241,-1.92183 -8.33232,-1.77265 -2.07458,0.0927 -3.30778,0.30364 -4.85255,0.83019 -2.31134,0.78784 -5.05697,2.40978 -4.79548,2.83287 0.11133,0.18013 0.36724,0.13572 0.74025,-0.12846 2.94202,-2.08366 5.34413,-2.86975 9.19534,-3.00916 2.8615,-0.10359 3.22139,-0.0586 5.32283,0.66576 5.58484,1.92501 9.42672,6.02898 10.97187,11.72032 0.4964,1.82843 0.65266,6.83395 0.27849,8.92131 -0.16244,0.90624 -0.12574,1.12448 0.18913,1.12448 0.21488,0 0.53988,-0.26789 0.72222,-0.59531 z m 110.075902,-0.1323 c 0.52279,-1.23082 0.41994,-9.11597 -0.1458,-11.17864 -0.75873,-2.7663 -2.42627,-5.86558 -4.19376,-7.79448 -1.83827,-2.00615 -2.34147,-2.33722 -3.11657,-2.0505 -0.51457,0.19036 -0.46172,0.2793 0.66738,1.12325 2.3763,1.77617 4.72781,5.60749 5.52974,9.00965 0.47173,2.00125 0.54012,7.36525 0.1227,9.62327 -0.22785,1.23259 -0.21459,1.58635 0.0661,1.76434 0.56391,0.3575 0.74248,0.27459 1.07016,-0.49689 z m -98.132202,-0.17866 c 5.50421,-0.34776 10.06761,-0.69225 10.14089,-0.76553 0.12093,-0.12093 -0.23637,-3.90358 -0.59622,-6.31213 -0.14107,-0.94417 -0.19916,-0.98883 -1.99673,-1.53482 -3.72634,-1.13184 -7.08935,-3.18291 -15.06982,-9.19093 -5.11247,-3.84887 -7.88002,-5.5799 -10.95244,-6.85046 -1.79867,-0.74382 -1.97798,-0.76519 -6.21771,-0.74129 -5.45949,0.0308 -10.35959,0.77875 -12.64225,1.92978 -0.83212,0.4196 -2.28686,1.08261 -3.23275,1.47336 -2.91267,1.20325 -5.82083,2.59938 -5.82083,2.79443 0,0.10208 0.98227,0.20845 2.18281,0.23637 1.20055,0.0279 2.44792,0.11643 2.77195,0.19668 0.40234,0.0996 0.90566,-0.0987 1.5875,-0.62568 3.47508,-2.68568 8.6941,-4.11838 12.88098,-3.53604 5.87414,0.81701 11.20593,4.41314 13.76581,9.2846 1.89538,3.60692 2.96143,9.50381 2.33104,12.89428 -0.24536,1.31965 -0.23032,1.38883 0.30093,1.38437 0.30755,-0.003 5.06263,-0.28922 10.56684,-0.63699 z m -5.01718,-11.92602 c -0.23746,-0.61882 0.0978,-1.19063 0.69807,-1.19063 0.67316,0 0.966,0.66428 0.52637,1.19399 -0.42013,0.50624 -1.02953,0.50457 -1.22444,-0.003 z m 12.1413,12.38098 c -0.32742,-0.0631 -0.8632,-0.0631 -1.19062,0 -0.32743,0.0631 -0.0595,0.11466 0.59531,0.11466 0.65484,0 0.92273,-0.0516 0.59531,-0.11466 z m 5.16637,-0.27018 c -0.54186,-0.0568 -1.49436,-0.0576 -2.11667,-0.002 -0.62231,0.0559 -0.17897,0.10241 0.9852,0.10337 1.16416,10e-4 1.67333,-0.0448 1.13147,-0.10162 z m 90.470902,-0.76995 c 0.79646,-0.35223 1.90159,-0.6841 2.45584,-0.73748 1.10693,-0.10662 2.36702,-0.65856 1.53752,-0.67345 -0.71813,-0.0129 -1.27177,-1.07514 -1.27177,-2.44008 0,-0.69078 0.48639,-4.86124 1.08086,-9.2677 0.86423,-6.40604 1.02332,-8.17457 0.79375,-8.82426 -0.15791,-0.4469 -0.28711,-1.01244 -0.28711,-1.25677 0,-0.24433 -0.14056,-0.44424 -0.31236,-0.44424 -0.24353,0 -6.62596,1.33243 -13.39917,2.79728 -0.58352,0.1262 -0.54332,0.21071 0.79375,1.66869 2.47568,2.69954 4.09541,5.92828 4.88193,9.7315 0.32889,1.59034 0.4008,3.04939 0.30835,6.25707 l -0.12056,4.18311 1.04543,-0.17662 c 0.57499,-0.0971 1.69708,-0.46481 2.49354,-0.81705 z m -3.86937,-12.75193 c -0.18866,-0.3525 -0.17231,-0.63065 0.0553,-0.942 0.27827,-0.38056 0.7995,-0.43148 3.76006,-0.36728 l 3.43701,0.0745 v 0.79375 0.79375 l -3.49236,0.0737 c -3.19666,0.0675 -3.51503,0.0314 -3.76006,-0.42647 z m 5.2019,-0.50424 c -0.83675,-0.0525 -2.20597,-0.0525 -3.04271,0 -0.83675,0.0525 -0.15214,0.0955 1.52135,0.0955 1.67349,0 2.3581,-0.043 1.52136,-0.0955 z m -71.50365,13.03201 c 6.83948,-0.37186 14.63807,-0.77491 17.33021,-0.89566 l 4.89479,-0.21956 -4.60666,-0.0398 c -4.62223,-0.0399 -17.21087,0.60804 -30.053762,1.54696 -8.93209,0.653 -3.82071,0.4919 12.435422,-0.39194 z m -10.18646,-0.65956 c 16.90778,-1.08541 22.1777,-1.36068 26.99685,-1.4102 l 4.97332,-0.0511 1.91127,-3.83646 c 3.33047,-6.6852 5.27689,-11.91493 5.27689,-14.17818 0,-1.13019 -0.0268,-1.17194 -0.56626,-0.88321 -0.94324,0.50481 -4.84078,-0.17303 -5.65044,-0.98269 -0.38297,-0.38298 -0.38303,-0.47563 -5.3e-4,-1.05921 0.51429,-0.7849 1.4951,-0.98055 -9.52535,1.90009 -21.32081,5.57305 -28.581422,7.21105 -33.032542,7.45219 l -2.87005,0.15548 0.18797,2.67328 c 0.10338,1.47031 0.25099,2.77865 0.32802,2.90742 0.53355,0.89188 15.761252,-1.47837 38.972272,-6.06618 3.2818,-0.64867 6.10953,-1.1794 6.28385,-1.1794 0.17432,0 0.31694,0.17859 0.31694,0.39687 0,0.21828 -0.0436,0.39688 -0.0969,0.39688 -0.0533,0 -1.86899,0.35111 -4.0349,0.78025 -19.76754,3.91665 -34.082092,6.3628 -38.348332,6.5532 l -3.18949,0.14234 0.36196,3.20742 c 0.19908,1.76407 0.41468,3.36785 0.47911,3.56393 0.0886,0.26978 0.48691,0.31745 1.6369,0.19593 0.83587,-0.0883 5.15117,-0.39372 9.589552,-0.67865 z m 32.72014,-17.90956 c -0.31321,-0.31321 -0.18737,-1.0857 0.20114,-1.23479 0.48385,-0.18567 1.05144,0.48859 0.851,1.01093 -0.15813,0.41209 -0.74009,0.5359 -1.05214,0.22386 z m 9.26572,18.33366 c -0.36175,-0.94269 -0.46929,-4.72686 -0.19138,-6.7341 0.61189,-4.41951 2.12976,-7.63801 4.93242,-10.45876 3.93264,-3.95804 9.2556,-5.74903 14.42897,-4.85485 1.25735,0.21732 3.00541,0.71794 3.8846,1.1125 1.27935,0.57414 1.74714,0.66783 2.34291,0.46924 0.73283,-0.24428 0.71724,-0.26109 -1.00395,-1.08254 -2.70065,-1.2889 -4.76945,-1.75118 -7.77422,-1.73718 -4.06592,0.0189 -6.827,0.93064 -10.31875,3.40716 -5.24019,3.71659 -7.80521,9.33299 -7.80521,17.09036 v 3.15173 h 0.82206 c 0.58853,0 0.78242,-0.10328 0.68255,-0.36356 z m -2.39851,-1.59181 c -0.37645,-3.67433 0.89047,-9.77651 2.67023,-12.8613 2.67457,-4.63573 7.72872,-8.36433 12.77576,-9.42503 4.06005,-0.85328 9.28691,0.0252 12.8246,2.15552 l 1.41368,0.85127 7.2345,-1.55677 c 3.97898,-0.85623 7.43413,-1.62003 7.67811,-1.69734 0.27815,-0.0881 0.54953,-0.63452 0.72764,-1.46504 0.15623,-0.72845 0.4714,-1.68677 0.70039,-2.12958 0.22899,-0.44282 0.3778,-0.83694 0.33069,-0.87583 -0.0471,-0.0389 -1.2435,0.099 -2.65863,0.30644 -2.47917,0.36339 -2.72418,0.35172 -6.71981,-0.32011 -2.4702,-0.41535 -4.21126,-0.59721 -4.30619,-0.4498 -0.0876,0.1361 -0.42699,0.33097 -0.7541,0.43305 -0.56677,0.17687 -2.18338,2.21254 -2.18338,2.74936 0,0.14011 0.18614,0.32618 0.41364,0.41348 0.79602,0.30546 0.0722,0.6916 -1.28916,0.68773 -1.51302,-0.004 -2.64867,-0.44756 -2.77075,-1.08147 -0.11475,-0.59582 1.51603,-2.90387 2.5332,-3.58527 l 0.87131,-0.58367 -0.73902,-0.0889 c -1.23191,-0.14814 -2.83849,1.01151 -4.08359,2.94759 -0.89756,1.39568 -0.92682,1.60184 -0.2273,1.60184 0.29398,0 0.52917,0.17639 0.52917,0.39688 0,0.31711 -0.39447,0.39687 -1.96274,0.39687 -2.45542,0 -2.79976,-0.13042 -2.79976,-1.06042 0,-0.93443 2.12034,-3.80994 3.26948,-4.43391 l 0.83156,-0.45154 -0.72068,-0.0867 c -0.88235,-0.10612 -1.08365,0.0428 -3.8626,2.85755 -1.74774,1.77026 -2.11575,2.2691 -1.72895,2.34358 0.27027,0.052 0.64586,0.22012 0.83465,0.37352 0.55093,0.44765 -0.13348,0.71382 -1.84739,0.71843 -3.38315,0.009 -3.71521,-0.97717 -1.32449,-3.93407 0.51584,-0.638 1.48237,-1.50737 2.14784,-1.93194 l 1.20995,-0.77194 -2.11667,0.16917 c -4.8627,0.38864 -10.12781,1.48542 -14.64587,3.0509 -2.41562,0.837 -2.94892,0.92781 -2.94892,0.50211 0,-0.6627 6.89452,-2.80212 11.90625,-3.6946 6.62425,-1.17962 11.31915,-0.97211 21.82813,0.96481 5.2253,0.96308 8.60101,1.42147 8.5961,1.16727 -0.003,-0.15611 -14.49154,-4.48673 -19.44402,-5.81182 -12.64,-3.38197 -17.65292,-4.42802 -24.87083,-5.18979 -4.64236,-0.48995 -14.00588,-0.56501 -17.4625,-0.13997 -4.05298,0.49837 -7.01146,1.10595 -7.01146,1.43994 0,0.17222 -1.33946,0.83919 -2.97657,1.48216 -6.47481,2.54296 -21.493852,10.60504 -20.120362,10.80042 0.37465,0.0533 2.07818,-0.8414 4.76251,-2.50128 8.492152,-5.25118 16.409592,-8.72308 22.205922,-9.73756 4.29944,-0.75249 10.62494,-1.03821 15.44308,-0.69757 7.11915,0.50333 14.78256,1.72573 15.53481,2.47798 0.48904,0.48904 0.28895,0.91513 -1.65626,3.52688 -1.68048,2.25632 -3.68135,3.67764 -6.47153,4.59707 -1.09068,0.35941 -2.03486,0.68779 -2.09816,0.72974 -0.0633,0.0419 0.31777,0.52057 0.84684,1.06361 3.64545,3.74168 2.86152,9.23042 -3.00976,21.07316 -1.14818,2.31596 -2.08761,4.23538 -2.08761,4.26539 0,0.03 0.56899,0.13004 1.26442,0.22229 0.69544,0.0923 2.21348,0.4527 3.37344,0.80099 1.15996,0.3483 2.15523,0.64535 2.2117,0.66011 0.0565,0.0148 0.0247,-0.73401 -0.0705,-1.66394 z m 46.97268,-2.68446 c 0.917,-2.49911 2.33997,-6.79102 2.33997,-7.05773 0,-0.23597 -2.5409,-1.00244 -3.32315,-1.00244 -0.51949,0 -0.61097,0.20386 -0.86069,1.91823 -1.09518,7.51838 -1.03932,8.8133 0.36398,8.438 0.59185,-0.15828 0.83246,-0.5316 1.47989,-2.29606 z m 0.88476,1.20025 c 0.0899,-0.14553 0.0374,-0.26459 -0.11667,-0.26459 -0.15411,0 -0.2802,0.11906 -0.2802,0.26459 0,0.14552 0.0525,0.26458 0.11668,0.26458 0.0642,0 0.19026,-0.11906 0.28019,-0.26458 z m 1.93206,-2.69119 c -0.12755,-2.1823 -0.81327,-1.85225 -1.65379,0.796 -0.16336,0.51469 -0.0853,0.57227 0.77606,0.57227 h 0.9577 z M 88.665408,69.168135 c -0.0656,-1.34607 -0.15915,-2.57839 -0.20785,-2.73849 -0.0487,-0.1601 -0.67537,-0.36059 -1.39258,-0.44553 -0.71722,-0.0849 -1.97855,-0.38216 -2.80296,-0.66048 -1.19753,-0.40429 -1.55484,-0.43866 -1.777,-0.17097 -0.15295,0.18429 -1.19415,0.41245 -2.31379,0.50702 -3.00376,0.25372 -3.03433,0.29584 -1.10602,1.52377 3.90789,2.4885 7.88049,4.408 9.15741,4.42471 0.54155,0.007 0.55773,-0.0821 0.44279,-2.44003 z m 103.606902,-6.87917 c 0.0263,-1.29452 -0.0394,-1.52136 -0.44058,-1.52136 -0.50026,0 -2.79917,-0.59011 -3.54405,-0.90972 -0.36888,-0.15828 -0.47387,0.025 -0.62277,1.08728 -0.32048,2.28639 -0.36493,2.18205 1.19799,2.81209 1.34696,0.54298 1.47154,0.66733 1.68572,1.68263 0.15189,0.71998 0.42463,1.18324 0.79451,1.34951 0.53263,0.23943 0.57233,0.1654 0.73074,-1.36295 0.0921,-0.88887 0.18143,-2.30074 0.19844,-3.13748 z m -2.66348,3.31671 c -0.065,-0.55731 -0.31112,-0.80438 -1.09885,-1.10297 -1.16452,-0.44141 -1.48713,-0.20533 -1.49436,1.09355 -0.004,0.69854 0.0495,0.72761 1.33644,0.72761 1.30226,0 1.3381,-0.0205 1.25677,-0.71819 z m -90.880302,-1.16148 c 4.827232,-0.97233 32.296202,-7.89328 32.101372,-8.08811 -0.0436,-0.0436 -1.85684,0.0929 -4.0295,0.30327 -9.12424,0.88342 -24.26173,2.30977 -30.612382,2.88448 -3.75008,0.33937 -6.88352,0.68223 -6.9632,0.76191 -0.0797,0.0797 -0.0598,1.30357 0.0441,2.71976 l 0.18901,2.5749 2.67315,-0.18288 c 1.47023,-0.10058 4.43907,-0.53858 6.59741,-0.97333 z m -18.80707,0.40815 c 1.12778,-0.098 2.05052,-0.26865 2.05052,-0.37926 0,-0.53398 -0.92753,-0.66946 -3.96875,-0.57969 l -3.30729,0.0976 0.79375,0.64634 c 0.57745,0.47022 1.01004,0.61184 1.5875,0.51974 0.43656,-0.0696 1.71648,-0.20677 2.84427,-0.30476 z m 8.48329,-1.90192 c -0.0858,-1.27331 -0.18818,-2.3538 -0.22745,-2.4011 -0.12145,-0.14626 -8.32263,0.57685 -8.31167,0.73284 0.006,0.0808 0.55256,0.56362 1.21531,1.07294 0.66274,0.50933 1.48832,1.15525 1.83461,1.43539 0.65857,0.53275 3.70106,1.43354 4.93053,1.45978 l 0.71472,0.0153 -0.15605,-2.3151 z m -60.20934,0.66986 c 0.61847,-0.41878 1.12448,-0.88217 1.12448,-1.02974 0,-0.29042 -2.20192,1.20761 -2.72392,1.85316 -0.38339,0.47413 -0.10546,0.33105 1.59944,-0.82342 z m 1.82693,0.70779 c 0.24637,-0.64202 -0.0423,-0.7042 -0.56869,-0.1225 -0.43835,0.48437 -0.44134,0.53079 -0.0342,0.53079 0.2454,0 0.51669,-0.18373 0.60286,-0.40829 z m 50.35182,-1.42021 c -0.006,-0.0857 -0.55538,-0.5571 -1.22156,-1.04748 -0.88651,-0.65256 -1.26576,-0.80339 -1.4146,-0.56256 -0.1405,0.22733 -0.73549,0.29516 -1.9249,0.21942 -1.63379,-0.10403 -1.88455,-0.21697 -4.91959,-2.21556 -1.75893,-1.15828 -3.16153,-2.22501 -3.11688,-2.37053 0.0447,-0.14552 0.66726,-0.33074 1.38358,-0.41159 l 1.30239,-0.147 -1.05833,-0.48523 c -1.14678,-0.52578 -1.42216,-0.55098 -5.1058,-0.46729 l -2.45997,0.0559 1.94976,1.02686 c 1.07237,0.56477 3.83576,2.29839 6.14086,3.85249 l 4.19111,2.82562 3.13212,-0.0586 c 1.72267,-0.0322 3.12749,-0.12873 3.12181,-0.21446 z m -49.86364,-0.81734 c 0.0899,-0.14552 0.0374,-0.26458 -0.11668,-0.26458 -0.15411,0 -0.2802,0.11906 -0.2802,0.26458 0,0.14552 0.0525,0.26458 0.11668,0.26458 0.0642,0 0.19026,-0.11906 0.2802,-0.26458 z m 2.79126,-1.72658 c 1.14814,-0.59373 0.94992,-0.7163 -0.34387,-0.21262 -1.35377,0.52702 -1.48281,0.61628 -0.89085,0.61628 0.24976,0 0.80539,-0.18165 1.23472,-0.40366 z m 41.26187,-0.25779 c 0,-0.25492 0.26026,-0.39932 0.7276,-0.4037 0.61434,-0.006 0.38386,-0.22808 -1.48069,-1.42827 -2.17713,-1.4014 -2.21882,-1.41542 -2.95357,-0.99374 l -0.74527,0.42773 2.02752,1.38151 c 2.22601,1.51675 2.42441,1.59993 2.42441,1.01647 z m 10.05416,-0.21768 3.57188,-0.31149 0.0699,-0.79375 c 0.15483,-1.75901 0.37018,-2.50332 0.98749,-3.41297 l 0.64649,-0.95266 -2.704,0.004 c -1.84357,0.003 -2.57772,0.0857 -2.30713,0.26054 0.21828,0.14106 0.68044,0.2583 1.02702,0.26053 0.58074,0.004 0.61915,0.0861 0.48986,1.04999 -0.16504,1.23043 -1.03012,2.55205 -1.83839,2.80859 -0.44636,0.14166 -0.76852,-0.0324 -1.46355,-0.79082 -0.73225,-0.79902 -0.87669,-1.14718 -0.80985,-1.95195 0.0739,-0.89024 0.16572,-0.99437 1.00741,-1.14308 1.18531,-0.20941 -3.66398,-0.20888 -9.12813,10e-4 l -4.23333,0.16261 1.90975,1.0205 c 1.05036,0.56128 3.01293,1.77277 4.36126,2.6922 2.30226,1.56992 2.52426,1.66367 3.6465,1.53994 0.65724,-0.0725 2.80233,-0.27193 4.76686,-0.44324 z m 107.420842,-0.29427 c 0,-0.2088 -0.11612,-0.68505 -0.25804,-1.05833 -0.21623,-0.56873 -0.42555,-0.67868 -1.29207,-0.67868 -0.91777,0 -1.04975,0.0818 -1.17381,0.7276 -0.0769,0.40018 -0.10719,0.76077 -0.0674,0.80131 0.0601,0.0612 1.89825,0.45729 2.59286,0.55876 0.10914,0.016 0.19844,-0.14185 0.19844,-0.35066 z m -96.907992,-0.81865 c 2.43986,-0.2225 10.746422,-1.00055 18.459032,-1.72899 16.09284,-1.51995 22.76952,-2.09118 24.50147,-2.09624 0.92946,-0.003 1.38405,0.15021 1.91823,0.64528 0.38505,0.35685 0.70009,0.5307 0.70009,0.38633 0,-0.62388 -1.10136,-2.33537 -2.06038,-3.20179 -1.01283,-0.91503 -1.0781,-0.93421 -2.46655,-0.72462 -3.00957,0.4543 -24.80643,1.68802 -39.790782,2.25219 -3.2155,0.12107 -4.99739,0.29841 -5.48562,0.54596 -0.88541,0.44892 -1.48149,1.5478 -1.69853,3.13125 l -0.16382,1.19518 h 0.82537 c 0.45395,0 2.82162,-0.18204 5.26149,-0.40455 z m 44.996892,-1.226 c 0.0439,-0.3664 -0.10711,-0.81859 -0.33713,-1.00948 -0.57079,-0.47372 -0.67958,-0.27949 -0.49176,0.87796 0.17746,1.09354 0.70362,1.17703 0.82889,0.13152 z m -54.811322,-0.82216 c 0.21941,-0.4243 0.35303,-0.81736 0.29693,-0.87346 -0.13713,-0.13714 -0.9662,-0.20655 -1.85524,-0.15533 -0.90076,0.0519 -0.96715,0.72436 -0.1714,1.73599 0.63345,0.80531 1.03177,0.64245 1.72971,-0.7072 z m 53.151472,0.66732 c -0.10037,-0.39988 -0.23616,-0.78074 -0.30177,-0.84635 -0.12461,-0.1246 -2.5139,0.45725 -2.71873,0.66208 -0.30541,0.30541 1.20945,0.82481 2.57899,0.88425 0.55201,0.024 0.60294,-0.0568 0.44151,-0.69998 z m 49.10761,-0.88613 c -0.235,-1.41568 -0.2376,-1.41884 -0.26823,-0.32668 -0.017,0.60656 0.0433,1.29631 0.13405,1.53277 0.30828,0.80338 0.37227,0.22822 0.13418,-1.20609 z m 3.40501,0.3592 c 0,-0.41077 -0.93546,-2.44824 -1.12448,-2.44918 -0.10914,-5.5e-4 -0.19844,0.59432 -0.19844,1.32192 0,1.23472 0.0441,1.32292 0.66146,1.32292 0.3638,0 0.66146,-0.088 0.66146,-0.19566 z m -31.35371,-4.83073 c 0.97068,-1.16379 1.96322,-2.23173 2.20564,-2.3732 0.32836,-0.19163 0.34548,-0.25929 0.0671,-0.26528 -0.77393,-0.0167 -2.69109,1.37758 -3.84927,2.79937 -1.32815,1.63045 -1.44351,1.95508 -0.69472,1.95508 0.3094,0 1.19278,-0.82301 2.27121,-2.11597 z m -78.514532,1.669 c -0.25466,-0.0666 -0.67138,-0.0666 -0.92604,0 -0.25466,0.0665 -0.0463,0.121 0.46302,0.121 0.50933,0 0.71768,-0.0545 0.46302,-0.121 z m 83.700532,-0.8098 c 0.3291,-0.5457 0.94413,-1.43867 1.36673,-1.98437 0.77769,-1.00424 0.63555,-1.23947 -0.41798,-0.69173 -0.67022,0.34845 -1.11048,0.78839 -2.10728,2.10576 -0.88765,1.17312 -0.90752,1.56253 -0.0797,1.56253 0.45665,0 0.81122,-0.28411 1.23825,-0.99219 z m 6.13797,-0.50424 c 0.54202,-0.82304 0.94117,-1.54075 0.88701,-1.59491 -0.29514,-0.29514 -1.58211,0.57064 -2.27969,1.53363 -0.9618,1.32773 -0.99099,1.55771 -0.19769,1.55771 0.44268,0 0.86918,-0.40131 1.59037,-1.49643 z m 19.23599,0.54834 c 0,-0.82887 -0.62137,-0.73815 -0.74601,0.10892 -0.0562,0.38158 0.0549,0.57458 0.33073,0.57458 0.27014,0 0.41528,-0.23887 0.41528,-0.6835 z m -98.599332,-1.25928 c 3.9505,-2.46654 5.99613,-3.62391 9.831612,-5.56248 1.89178,-0.95616 3.35396,-1.74222 3.24931,-1.74681 -0.72103,-0.0316 -18.027302,8.23224 -18.356902,8.76553 -0.0755,0.12208 0.47601,0.22196 1.22547,0.22196 1.21474,0 1.6544,-0.18215 4.05051,-1.6782 z m 5.00297,1.23839 c -0.1819,-0.0734 -0.47956,-0.0734 -0.66146,0 -0.1819,0.0734 -0.0331,0.13345 0.33073,0.13345 0.3638,0 0.51263,-0.0601 0.33073,-0.13345 z m 3.505732,-0.35394 c -0.751932,-0.32311 -2.316372,-0.32311 -2.116672,0 0.0899,0.14552 0.72204,0.25622 1.40468,0.24599 0.936802,-0.014 1.111392,-0.0744 0.711992,-0.24599 z m 20.24062,-0.40627 c 8.24256,-0.42346 15.14321,-0.9156 15.3368,-1.0938 0.13994,-0.12881 1.02628,-8.63739 0.91433,-8.77722 -0.04,-0.05 -1.71857,-0.19554 -3.73016,-0.32352 -3.75343,-0.23878 -10.06759,0.0255 -13.31472,0.55734 -3.60934,0.59115 -8.09739,2.04663 -12.22814,3.96562 l -0.71878,0.33391 0.6421,0.76309 c 1.03845,1.23413 1.11735,2.69745 0.25895,4.80252 -0.18565,0.45527 -0.0385,0.4738 2.551,0.3213 1.5114,-0.089 6.14128,-0.33617 10.28862,-0.54924 z m -13.55989,-0.33845 c 0.51654,-0.64776 0.39824,-0.84278 -0.51125,-0.84278 -1.47832,0 -5.50802,0.59063 -5.50802,0.80731 0,0.1149 0.80367,0.28684 1.78593,0.3821 0.98227,0.0953 1.905,0.20959 2.05052,0.25407 0.53945,0.1649 1.86269,-0.19925 2.18282,-0.6007 z m 83.62156,-0.63111 c 0.57935,-0.57934 0.32882,-0.76028 -0.47625,-0.34396 -0.43656,0.22576 -0.79375,0.46694 -0.79375,0.53596 0,0.25894 0.96495,0.11305 1.27,-0.192 z m -50.35021,-0.93429 c 1.90403,-0.58759 3.17896,-1.27959 4.4175,-2.39769 1.21843,-1.09996 3.24332,-3.72686 3.03406,-3.93612 -0.16604,-0.16604 -5.23828,-1.03893 -7.5177,-1.29373 -1.07149,-0.11978 -1.65365,-0.0896 -1.65365,0.0859 0,0.34927 -0.47756,5.37846 -0.66321,6.98433 -0.16143,1.39635 -0.26057,1.37316 2.383,0.55734 z m -36.77708,-0.43413 c 0.87312,0.0186 1.97299,0.12123 2.44415,0.22799 1.33418,0.30233 1.67448,0.0615 1.37878,-0.9756 -0.46657,-1.63641 -1.60292,-1.92018 -4.01144,-1.00175 -0.76945,0.2934 -1.81571,0.88727 -2.32503,1.31969 l -0.926052,0.78623 0.926052,-0.19522 c 0.50932,-0.10737 1.64041,-0.17997 2.51354,-0.16134 z"
       style="fill:#000000;stroke-width:0.264583;stroke:none;stroke-opacity:1" />
    <path
       sodipodi:nodetypes="ccccccccc"
       id="path2752"
       d="m 59.795833,105.83333 v 15.875 H 142.875 v -15.875 h 58.20833 V 31.75 H 10.583333 v 74.08333 z"
       style="fill:none;stroke:#0000ff;stroke-width:0.264583px;stroke-linecap:butt;stroke-linejoin:miter;stroke-opacity:1" />
  </g>
</svg>
