<?xml version="1.0" encoding="UTF-8" standalone="no"?>
<svg
   xmlns:dc="http://purl.org/dc/elements/1.1/"
   xmlns:cc="http://creativecommons.org/ns#"
   xmlns:rdf="http://www.w3.org/1999/02/22-rdf-syntax-ns#"
   xmlns:svg="http://www.w3.org/2000/svg"
   xmlns="http://www.w3.org/2000/svg"
   xmlns:sodipodi="http://sodipodi.sourceforge.net/DTD/sodipodi-0.dtd"
   xmlns:inkscape="http://www.inkscape.org/namespaces/inkscape"
   sodipodi:docname="deadpool.svg"
   inkscape:version="1.0 (4035a4fb49, 2020-05-01)"
   id="svg856"
   version="1.1"
   viewBox="0 0 210 297"
   height="297mm"
   width="210mm">
  <defs
     id="defs850" />
  <sodipodi:namedview
     inkscape:window-maximized="0"
     inkscape:window-y="0"
     inkscape:window-x="0"
     inkscape:window-height="728"
     inkscape:window-width="1350"
     showguides="false"
     showgrid="true"
     inkscape:document-rotation="0"
     inkscape:current-layer="layer1"
     inkscape:document-units="mm"
     inkscape:cy="557.61149"
     inkscape:cx="-392.27222"
     inkscape:zoom="0.7"
     inkscape:pageshadow="2"
     inkscape:pageopacity="0.0"
     borderopacity="1.0"
     bordercolor="#666666"
     pagecolor="#ffffff"
     id="base">
    <sodipodi:guide
       id="guide1499"
       orientation="0,-1"
       position="-37.952272,237.93344" />
    <inkscape:grid
       id="grid1503"
       type="xygrid" />
  </sodipodi:namedview>
  <metadata
     id="metadata853">
    <rdf:RDF>
      <cc:Work
         rdf:about="">
        <dc:format>image/svg+xml</dc:format>
        <dc:type
           rdf:resource="http://purl.org/dc/dcmitype/StillImage" />
        <dc:title></dc:title>
      </cc:Work>
    </rdf:RDF>
  </metadata>
  <g
     id="layer1"
     inkscape:groupmode="layer"
     inkscape:label="Laag 1">
    <path
       id="path842"
       d="m -79.907283,339.59773 v 148.59813 l 11.85762,0.53452 v 14.9667 h 81.678647 v -14.9667 l 13.49091,-0.53452 V 339.59773 H -79.907283"
       style="fill:none;stroke:#ff0000;stroke-width:0.271604px;stroke-linecap:butt;stroke-linejoin:miter;stroke-opacity:1" />
    <g
       id="g1507">
      <path
         style="fill:#000000;stroke-width:0.264583"
         d="m -166.68346,214.46879 c -0.47329,-4.36229 -3.5686,-20.28304 -4.97967,-25.61299 -0.44305,-1.67349 -0.84804,-3.63802 -0.89998,-4.36562 -0.50184,-7.03008 -0.6258,-10.14169 -0.42557,-10.68207 0.31893,-0.86075 -0.10639,-3.7249 -0.64085,-4.31547 -0.26203,-0.28954 -0.80206,-0.48059 -1.35845,-0.48059 h -0.92353 l 0.14541,-3.24114 c 0.0909,-2.02544 0.31652,-3.73736 0.6016,-4.56406 0.3607,-1.046 0.4246,-1.84907 0.3053,-3.83646 -0.14983,-2.49579 -3.68513,-26.3612 -6.27104,-42.33333 -0.74214,-4.58391 -1.40889,-9.28688 -1.48166,-10.45104 -0.11737,-1.8776 -0.0627,-2.23573 0.48429,-3.17076 0.73596,-1.2581 1.65312,-1.655044 3.02572,-1.30949 0.79266,0.19955 1.09333,0.47129 1.56764,1.41676 0.32279,0.64342 0.66078,1.59592 0.75111,2.11667 0.43587,2.51293 4.29332,28.81042 5.84402,39.84056 0.96155,6.83948 1.88172,12.91167 2.04482,13.49375 l 0.29656,1.05834 0.20278,-1.05834 c 0.11153,-0.58208 0.13475,-6.23755 0.0516,-12.5677 -0.0832,-6.33016 -0.16558,-22.02676 -0.18316,-34.88134 l -0.0319,-23.371964 0.62877,-0.51004 c 0.34582,-0.28052 0.92215,-0.58368 1.28074,-0.67368 0.86743,-0.21771 2.54129,0.30599 3.43497,1.07471 l 0.72165,0.62074 0.18592,35.358564 0.18591,35.35855 0.84679,1.51588 c 0.46574,0.83372 1.02776,1.72181 1.24893,1.97351 0.37579,0.42766 0.43012,0.40675 0.82902,-0.31899 1.41223,-2.56933 4.96187,-6.33689 10.43754,-11.07832 3.13943,-2.71846 5.55017,-5.55769 6.44295,-7.58815 1.71556,-3.90169 2.61795,-6.07562 3.51158,-8.45968 0.54546,-1.45521 1.38136,-3.5388 1.85756,-4.63021 0.47619,-1.09141 1.07158,-2.63922 1.32308,-3.43958 0.69581,-2.21431 1.79871,-2.66169 4.83057,-1.95943 0.5623,0.13025 0.7616,0.0574 0.89101,-0.32546 0.0917,-0.27128 0.45036,-1.22792 0.79705,-2.12587 0.34668,-0.89794 0.63033,-2.11247 0.63033,-2.69895 0,-1.52734 0.49629,-3.643 1.24931,-5.32571 0.64304,-1.43696 0.64719,-1.49462 0.33046,-4.59833 -0.74869,-7.3366 0.9186,-19.047954 3.43228,-24.108964 0.66293,-1.33472 2.64152,-4.16927 5.35593,-7.67292 6.21583,-8.02315 7.31312,-9.01501 10.65723,-9.6332 1.74791,-0.32312 6.12701,-0.34158 8.343539,-0.0352 1.22413,0.16923 0.95104,0.20838 -1.719789,0.24659 -4.55121,0.0651 -6.80245,0.41035 -8.35245,1.2809 -0.71737,0.40291 -1.30443,0.86603 -1.30457,1.02916 -1.7e-4,0.18381 0.92466,0.36896 2.43189,0.48687 4.11368,0.32181 7.21486,1.33491 10.135539,3.3111 0.58209,0.39384 1.71318,1.01293 2.51355,1.37575 0.80036,0.36282 2.943115,1.59133 4.761673,2.73003 4.288917,2.68553 6.182907,3.57314 7.624987,3.5734 1.447207,2.6e-4 2.007899,-0.30366 2.427052,-1.31559 0.701516,-1.69361 -0.482145,-4.94979 -2.525348,-6.94706 -2.090012,-2.04304 -5.278212,-3.47286 -10.269071,-4.60539 -1.144953,-0.25982 -1.946133,-0.5176 -1.780393,-0.57285 0.36332,-0.1211 5.186996,0.86951 7.037137,1.44518 3.425994,1.066 9.32349,4.85635 12.958011,8.32817 2.64936,2.53076 3.917724,4.47152 7.757411,11.86983 l 2.128422,4.10104 -0.235969,5.29167 c -0.483682,10.846704 -1.294461,13.733344 -4.957141,17.649044 l -1.241893,1.32768 -0.176501,2.62707 c -0.204681,3.0465 -0.936204,4.86116 -3.493164,8.66535 -0.821912,1.22283 -1.494385,2.40352 -1.494385,2.62377 0,0.58263 3.952147,12.44011 4.528746,13.58742 l 0.48849,0.97199 1.745421,-1.17043 c 2.416278,-1.62029 3.906761,-1.60495 5.693606,0.0586 l 0.682305,0.63523 1.516078,-0.69409 c 1.841553,-0.84309 2.948112,-0.72465 4.112987,0.44022 0.759476,0.75948 0.845056,0.78203 1.83841,0.48442 1.479635,-0.44332 2.067732,-0.21069 4.458462,1.76358 l 2.119309,1.75012 0.12808,4.14104 0.128079,4.14105 1.106303,2.63357 c 0.677333,1.6124 1.214834,3.40776 1.38621,4.63021 0.15395,1.09815 0.490069,2.29659 0.746929,2.66321 0.781669,1.11568 0.873903,1.78377 0.412906,2.99087 -0.36599,0.95833 -0.396293,1.60323 -0.197223,4.19711 0.218498,2.84706 0.29482,3.14586 1.074222,4.20569 0.982924,1.33657 1.040339,2.21757 0.463581,7.11348 -0.317576,2.6958 -0.427212,3.07935 -0.983188,3.43958 -0.911879,0.59083 -2.08484,1.89298 -2.391048,2.6544 -0.146304,0.3638 -0.546904,2.52503 -0.890222,4.80272 -0.740087,4.90997 -2.205942,12.22257 -3.227218,16.09937 l -0.731851,2.77812 -4.7625,0.20397 c -5.74381,0.246 -19.971699,8e-4 -21.387114,-0.36845 -0.839419,-0.21904 -1.096047,-0.45565 -1.489154,-1.373 -0.56678,-1.32264 -0.868505,-3.09273 -0.527179,-3.09273 0.133921,0 0.57292,0.62508 0.975553,1.38906 l 0.732062,1.38907 0.132292,-1.5875 0.132291,-1.5875 0.921711,1.52135 c 0.506941,0.83675 1.012957,1.52136 1.124479,1.52136 0.432247,0 0.153675,-1.53676 -0.598138,-3.29966 -0.432626,-1.01445 -0.786593,-1.89223 -0.786593,-1.95063 0,-0.35832 1.046956,0.89992 2.434568,2.92589 1.9006,2.77495 2.470703,3.19402 3.1701,2.33031 0.938004,-1.15839 0.422495,-3.97506 -1.229659,-6.7187 -0.514485,-0.85437 -0.935426,-1.62421 -0.935426,-1.71075 0,-0.0865 0.659905,0.49343 1.466458,1.28882 0.949981,0.93684 1.991217,2.40375 2.956428,4.16506 1.042162,1.90173 1.573601,2.63525 1.768237,2.44062 0.413514,-0.41352 -0.45094,-2.64949 -2.018311,-5.2205 l -1.327576,-2.17767 0.429467,-0.90503 c 0.483713,-1.01935 0.562149,-2.16703 0.16488,-2.41256 -0.145521,-0.0899 -0.264583,-0.28229 -0.264583,-0.42744 0,-0.47985 1.625332,0.67033 2.82876,2.00179 0.651098,0.72036 1.788549,2.29937 2.527668,3.50889 0.739116,1.20952 1.518648,2.3442 1.732288,2.52151 0.334066,0.27725 0.36032,0.19348 0.187568,-0.59848 -0.325233,-1.49097 -1.334121,-3.56399 -2.914364,-5.9883 -0.813517,-1.24804 -1.432676,-2.31561 -1.37591,-2.37238 0.135062,-0.13506 2.944784,1.7446 4.26611,2.85397 l 1.034415,0.86848 -0.136298,-0.71299 c -0.19667,-1.02881 0.16469,-0.67751 1.372839,1.33465 0.585438,0.97504 1.31101,2.07046 1.612384,2.43426 l 0.547949,0.66146 -0.166851,-1.19052 c -0.09177,-0.65478 -0.63694,-2.2908 -1.211496,-3.63558 -1.143627,-2.67674 -1.277326,-3.23701 -0.647771,-2.71452 0.308208,0.25579 0.481862,0.25884 0.777274,0.0137 0.310931,-0.25804 0.46228,-0.15524 0.82877,0.56292 1.17315,2.29886 2.067436,3.83273 2.49713,4.28303 0.457451,0.47939 0.476895,0.46889 0.657884,-0.35513 0.583718,-2.65766 -1.587614,-7.5011 -4.742537,-10.57885 -0.66503,-0.64876 -1.209146,-1.2808 -1.209146,-1.40453 0,-0.51072 3.357287,2.40995 4.98975,4.34082 0.966417,1.14309 1.862,2.07865 1.99018,2.07904 0.128183,2.6e-4 0.163566,-0.42752 0.07863,-0.95091 -0.204439,-1.2598 -1.819397,-3.36035 -5.06281,-6.58511 -2.013331,-2.00176 -2.400763,-2.48767 -1.598877,-2.00531 1.886598,1.13487 3.409603,2.33025 4.885753,3.83475 0.795393,0.81067 1.599065,1.47394 1.785938,1.47394 0.542043,0 0.405378,-1.71777 -0.247568,-3.11173 -0.323035,-0.68964 -1.602957,-2.31971 -2.844271,-3.62237 -2.239888,-2.3506 -2.245942,-2.36064 -0.801727,-1.33011 0.800364,0.5711 2.031447,1.48809 2.735738,2.03775 1.729642,1.34989 2.026762,1.30892 2.026762,-0.27944 0,-1.47885 0.199495,-1.81126 0.698854,-1.16446 0.301366,0.39034 0.344805,0.0241 0.290743,-2.45151 l -0.06356,-2.91042 h -4.7625 c -4.670536,0 -4.788817,0.0139 -6.125461,0.71884 -1.447215,0.76327 -2.3848,1.74606 -2.64151,2.76887 -0.274113,1.09216 0.386308,2.0758 2.247514,3.34751 1.634209,1.11661 3.258471,2.55749 2.882971,2.55749 -0.08627,0 -1.010377,-0.40904 -2.053574,-0.90898 -1.378384,-0.66057 -2.0531,-0.85125 -2.468954,-0.69774 -0.939014,0.34662 -0.832294,1.03795 0.331071,2.14463 l 1.081725,1.02902 -1.118341,0.30114 c -1.998808,0.53821 -3.115648,2.20839 -3.115648,4.65928 0,0.90237 -0.0028,0.90443 -0.992188,0.71918 -0.87712,-0.16424 -0.952741,-0.13816 -0.652058,0.22488 0.306385,0.36993 0.231154,0.37312 -0.758277,0.0322 -2.609286,-0.89898 -4.304506,-0.69157 -3.311937,0.4052 0.232537,0.25695 0.422793,0.59499 0.422793,0.7512 0,0.37536 -1.44164,0.86495 -2.546924,0.86495 -1.263221,0 -1.795663,0.88958 -1.559629,2.60576 0.174382,1.2679 0.161619,1.30012 -0.569513,1.43728 -1.491064,0.27973 -2.816791,0.92927 -3.153968,1.54528 -0.18947,0.34616 -0.91509,2.05023 -1.612484,3.78682 -1.44204,3.59084 -2.559288,5.08167 -3.574288,4.76944 -0.335079,-0.10307 -0.663035,-0.23634 -0.728792,-0.29614 -0.290534,-0.26424 3.688561,-7.6474 5.075044,-9.41667 0.738018,-0.94178 0.749075,-0.99219 0.217622,-0.99219 -1.082227,0 -2.370552,0.76451 -3.198217,1.89787 -0.459822,0.62966 -1.720167,2.64697 -2.800765,4.48291 -1.908397,3.24238 -2.843601,4.45773 -3.1751,4.12623 -0.158091,-0.15809 1.823114,-4.0317 3.699854,-7.23387 1.404778,-2.39689 3.338435,-3.87967 6.316704,-4.84382 1.766718,-0.57194 1.490866,-0.88005 -0.689351,-0.76995 -1.110419,0.0561 -2.018942,0.0145 -2.018942,-0.0923 0,-0.33815 0.994785,-0.74346 2.245513,-0.9149 2.211639,-0.30313 1.768369,-0.65531 -1.319472,-1.04831 l -1.5875,-0.20205 1.058334,-0.19919 c 0.582083,-0.10955 1.772708,-0.21974 2.645833,-0.24486 1.555192,-0.0447 1.56596,-0.0501 0.529166,-0.26459 -1.670034,-0.34543 -7.472314,-0.26671 -9.706379,0.13169 -1.118407,0.19944 -3.975908,1.01975 -6.350008,1.8229 -2.374089,0.80315 -4.554659,1.53491 -4.845699,1.62612 -1.01555,0.31828 4.217389,-2.30521 6.108529,-3.06246 2.72913,-1.09279 5.211511,-1.54894 10.011082,-1.83957 2.317345,-0.14033 4.264128,-0.30591 4.326186,-0.36797 0.06206,-0.0621 -0.405204,-0.25288 -1.038358,-0.42405 -0.755988,-0.20437 -2.513644,-0.26728 -5.119936,-0.18323 -3.471185,0.11194 -4.317044,0.23289 -6.746874,0.96476 -7.547189,2.27323 -7.249609,2.21086 -8.917099,1.86909 -1.42256,-0.29157 -1.68764,-0.47213 -3.65061,-2.48672 -1.16417,-1.19478 -2.54463,-2.81909 -3.06768,-3.60958 -0.52306,-0.79049 -1.63009,-2.47626 -2.46007,-3.74616 -0.98362,-1.50496 -2.3288,-3.06488 -3.86337,-4.4801 -1.29488,-1.19417 -2.29418,-2.26852 -2.22068,-2.38745 0.0735,-0.11894 1.23108,-0.21625 2.57238,-0.21625 4.63703,0 8.36053,-0.73555 8.74087,-1.7267 0.22555,-0.58776 -0.2406,-1.38676 -2.85167,-4.88789 -2.6905,-3.60762 -3.99101,-6.11016 -4.55598,-8.76694 -1.1945,-5.61714 1.01955,-10.43301 5.90698,-12.84851 1.94651,-0.96202 2.08512,-0.99003 4.81214,-0.97249 1.64373,0.0106 3.55518,0.19925 4.61027,0.45508 0.991289,0.24037 1.976619,0.43703 2.189599,0.43703 1.33044,0 -3.326979,-4.86082 -6.256629,-6.52986 -1.549,-0.88248 -5.00337,-2.1245 -7.26033,-2.61044 -1.56526,-0.33702 -3.42626,-0.45938 -7.14375,-0.46973 -4.85714,-0.0135 -5.10201,0.0116 -7.24349,0.74314 -2.41643,0.82545 -4.21843,2.01648 -7.48646,4.94817 -2.1038,1.88727 -5.06695,5.25113 -6.52906,7.41196 -1.38666,2.04933 -1.35619,2.39042 0.45604,5.10572 0.8741,1.30969 2.18527,3.03609 2.9137,3.83646 l 1.32442,1.4552 0.67762,-0.79375 c 0.37269,-0.43656 1.70319,-2.25021 2.95665,-4.03033 2.51689,-3.57439 4.2062,-5.59388 6.22704,-7.44413 3.38246,-3.09693 8.67311,-6.20819 11.97553,-7.04244 0.86231,-0.21783 1.61045,-0.35344 1.66253,-0.30135 0.0521,0.0521 -0.95109,0.53809 -2.22928,1.08002 -5.6279,2.38609 -10.17438,5.84636 -14.15963,10.7767 -2.97922,3.68574 -6.02373,8.47164 -6.02373,9.46917 0,0.15195 0.57607,1.19771 1.28015,2.32391 2.23705,3.5782 6.19996,10.54099 10.4731,18.40113 4.85177,8.9245 7.08115,12.74551 8.00335,13.71722 0.56558,0.59594 0.78504,0.6679 1.45288,0.47636 0.72535,-0.20802 3.06252,-1.41013 5.64572,-2.90383 1.39579,-0.8071 0.98826,-0.42041 -1.62909,1.54579 -2.24544,1.6868 -3.50737,3.00956 -3.02467,3.17046 0.15344,0.0511 1.26331,-0.49635 2.46638,-1.21666 4.02675,-2.41094 4.37857,-2.44935 1.45978,-0.15937 -2.49714,1.95916 -4.96094,4.35571 -4.96094,4.82553 0,0.30924 -0.0703,0.31306 -0.42003,0.0228 -0.86572,-0.71848 -5.65757,-8.2332 -8.42348,-13.20994 -7.33145,-13.19161 -9.68984,-17.24446 -15.82775,-27.19973 -2.1804,-3.53646 -3.9176,-6.47669 -3.86044,-6.53385 0.10541,-0.10541 5.81931,7.47223 7.28146,9.65649 1.60384,2.39595 4.20825,6.90853 8.61684,14.93016 2.48056,4.51349 5.15963,9.34071 5.95348,10.72716 1.68166,2.93698 5.23784,8.36905 5.64274,8.6193 0.67024,0.41422 0.5348,-0.25106 -0.28626,-1.40615 -2.63963,-3.71351 -4.25223,-6.38538 -7.54288,-12.49755 -6.77086,-12.57644 -9.98445,-18.1027 -14.23191,-24.47396 -3.47573,-5.21365 -5.10919,-7.30526 -6.39234,-8.18526 -0.43195,-0.29624 -0.47045,-0.46013 -0.23018,-0.98002 0.49795,-1.07752 5.16666,-6.33885 7.8909,-8.89253 1.43596,-1.34607 2.49359,-2.4474 2.35027,-2.4474 -0.957,0 -7.44644,5.29 -8.88784,7.24512 -0.44168,0.59909 -1.03607,1.60483 -1.32085,2.23499 -0.28478,0.63015 -1.11108,1.80086 -1.83622,2.60158 -2.29283,2.53183 -4.20063,6.00663 -8.65171,15.75794 -2.63327,5.76891 -3.3607,7.7936 -3.13013,8.71227 0.26937,1.07323 4.41486,5.35695 4.79359,4.95344 0.0506,-0.0539 -0.0715,-0.87195 -0.27127,-1.81784 -0.19981,-0.94588 -0.35574,-2.49369 -0.3465,-3.43958 l 0.0168,-1.71979 0.48251,2.38125 c 0.52985,2.61483 0.88545,3.69711 1.29865,3.95248 0.29297,0.18107 0.92357,-0.7252 2.65817,-3.82019 1.20156,-2.1439 1.22613,-1.97866 0.15036,1.01116 -1.02869,2.85894 -0.93848,3.11302 1.58341,4.46022 1.9373,1.0349 7.55361,3.45409 9.11939,3.92811 0.5563,0.16842 0.45447,-0.0325 -0.68934,-1.35979 -0.73814,-0.85658 -1.95476,-2.54936 -2.7036,-3.76175 -0.74884,-1.21238 -2.18319,-3.29598 -3.18744,-4.63021 -1.00425,-1.33422 -2.08808,-2.93267 -2.40852,-3.5521 -0.5559,-1.07455 -0.56822,-1.91647 -0.0281,-1.91647 0.13823,0 1.49574,1.87523 3.0167,4.16718 2.6672,4.01925 3.89234,5.54624 3.89234,4.85135 0,-0.17814 -1.05241,-1.95276 -2.33868,-3.94361 -1.28627,-1.99084 -2.48958,-3.90347 -2.67401,-4.25029 -0.32126,-0.60411 -0.24905,-1.99171 0.16219,-3.11661 0.16844,-0.46076 0.14775,-0.45983 -0.3963,0.0179 -0.47281,0.41514 -0.57404,0.43252 -0.57404,0.0985 0,-0.22302 0.1786,-0.5537 0.39688,-0.73486 0.21828,-0.18116 0.39687,-0.52765 0.39687,-0.76998 0,-0.68255 1.7811,-4.80671 2.34292,-5.42507 1.17119,-1.28905 1.17364,-1.54379 0.0397,-4.12067 -0.58282,-1.32441 -1.05766,-2.49198 -1.05521,-2.59459 0.005,-0.2045 -0.0349,-0.26657 3.3544,5.23739 1.29934,2.11005 3.05309,4.90802 3.89721,6.21771 l 1.53477,2.38125 -1.42718,-1.38906 c -0.78494,-0.76399 -1.57226,-1.38907 -1.74958,-1.38907 -0.19877,0 -0.33256,0.43124 -0.34888,1.12448 -0.0222,0.94271 -0.10737,0.74436 -0.52696,-1.227 -0.53979,-2.53614 -0.78332,-2.99024 -1.81369,-3.38198 -0.55088,-0.20945 -0.75142,-0.15267 -1.13535,0.32146 -0.5875,0.72553 -0.63252,3.41909 -0.0832,4.97611 0.48576,1.37681 2.5862,4.49254 2.73257,4.05342 0.0605,-0.18157 -0.32771,-1.74415 -0.86275,-3.4724 -0.53503,-1.72824 -0.92768,-3.42041 -0.87254,-3.76036 0.0905,-0.55776 0.14226,-0.52277 0.53052,0.35844 0.23664,0.5371 0.92794,2.62069 1.53622,4.63021 1.22597,4.05012 1.57995,4.73047 1.57995,3.03662 0,-1.50622 0.6242,-2.95484 1.27321,-2.95484 1.56765,0 5.4005,5.82075 13.15385,19.97604 3.73645,6.82164 7.62528,12.84687 8.27867,12.82672 0.0994,-0.003 1.32795,-0.9258 2.7301,-2.05052 1.40215,-1.12472 3.54528,-2.55657 4.7625,-3.18189 1.21722,-0.62532 1.9196,-0.92298 1.56085,-0.66146 -0.35875,0.26152 -1.59444,1.14724 -2.74598,1.96827 -3.76767,2.6863 -6.25903,5.52585 -6.25903,7.13378 v 0.57785 l -9.06713,-0.13394 c -10.40904,-0.15376 -9.32698,0.0846 -14.08391,-3.10217 -1.45521,-0.97487 -3.33045,-2.15974 -4.16719,-2.63304 -0.83675,-0.47331 -1.52136,-0.90347 -1.52136,-0.95592 0,-0.0524 1.2204,0.31776 2.71198,0.82269 3.17077,1.07337 8.66198,2.57784 8.82262,2.41719 0.0611,-0.0611 -0.87205,-0.37913 -2.07371,-0.70669 -2.23523,-0.60929 -13.42964,-4.22626 -13.42964,-4.33919 0,-0.0344 0.25099,-0.77276 0.55775,-1.64085 0.75035,-2.12337 0.62682,-6.46251 -0.23933,-8.40659 -0.507,-1.13795 -0.51878,-1.25777 -0.11184,-1.13682 6.55204,1.94739 10.57191,2.96333 10.8046,2.73064 0.0693,-0.0693 -0.207,-0.20576 -0.61396,-0.30328 -1.94596,-0.46634 -9.17043,-2.69208 -11.00742,-3.3912 -1.68929,-0.64291 -2.17637,-0.96184 -2.67473,-1.75129 -0.33513,-0.53087 -1.54882,-1.60983 -2.69709,-2.39767 -3.86421,-2.65129 -5.65964,-4.45926 -5.65964,-5.69915 0,-0.25208 0.87859,-2.44068 1.95243,-4.86356 1.07384,-2.42288 2.33873,-5.29821 2.81086,-6.38961 1.50418,-3.47708 4.42505,-9.18382 5.51212,-10.76947 0.57828,-0.84351 1.59339,-2.05944 2.2558,-2.70206 0.6624,-0.64262 1.27195,-1.47606 1.35454,-1.85209 0.22588,-1.02837 2.55065,-3.98695 4.42752,-5.63462 5.17745,-4.54517 8.87661,-6.39246 17.33933,-8.65892 1.28941,-0.34533 1.43018,-0.7068 0.4242,-1.08927 -0.38515,-0.14644 -1.60554,-1.14107 -2.71198,-2.21029 -2.24156,-2.16617 -2.87976,-2.55268 -5.49334,-3.32689 l -1.81002,-0.53618 2.01387,0.0916 c 2.23402,0.10156 3.69068,0.67044 7.67969,2.99924 1.21698,0.71047 2.54011,1.43484 2.94029,1.6097 0.68133,0.29772 0.7276,0.27707 0.7276,-0.32482 0,-2.21928 -2.20038,-8.23373 -3.51184,-9.59914 -1.47991,-1.54079 -5.05352,-2.44675 -9.65129,-2.44675 -2.69337,0 -3.00379,0.15463 -3.71798,1.85208 -0.76826,1.82595 -1.69627,4.98611 -1.53896,5.24065 0.0773,0.12505 0.47319,0.17948 0.87978,0.12095 0.40659,-0.0585 1.03334,0.003 1.39278,0.13763 0.5869,0.21918 0.51946,0.26295 -0.66146,0.42935 -2.60036,0.3664 -2.90941,0.56862 -4.88394,3.19567 -2.35594,3.13449 -4.101,5.96171 -4.74931,7.69448 -0.27887,0.74533 -0.63786,2.53455 -0.79777,3.97602 -0.34084,3.0724 -0.2882,2.98241 -4.33766,7.41584 -3.17445,3.47546 -6.14077,7.29277 -7.03043,9.04737 -0.31857,0.62828 -0.91804,2.77141 -1.33216,4.7625 -0.7735,3.71898 -1.0012,3.51289 -0.54236,-0.49089 0.58023,-5.0631 2.00624,-8.88728 5.01699,-13.4543 3.22546,-4.8927 3.97513,-6.37943 3.21679,-6.37943 -0.3756,0 -3.41182,3.35825 -5.12395,5.6674 -2.71563,3.66256 -4.40154,7.63273 -5.3384,12.57148 -0.53848,2.83865 -0.53408,2.89595 0.24555,3.19236 l 0.66146,0.25149 v 5.14216 5.14217 l 1.0299,1.30292 c 0.56644,0.7166 1.99964,2.18281 3.18489,3.25824 2.07036,1.87855 2.66483,2.78097 2.26167,3.4333 -0.11726,0.18972 -0.4226,-0.0894 -0.81182,-0.74209 -0.90638,-1.51994 -3.33729,-3.2361 -4.58386,-3.2361 -0.91664,0 -1.08078,0.83681 -1.08078,5.51005 v 4.48651 l 2.27189,2.15053 c 2.33792,2.21303 3.71769,3.14517 4.08284,2.75823 0.11468,-0.12152 0.34426,-2.66173 0.51018,-5.64491 0.31881,-5.73224 0.47164,-6.31181 1.57225,-5.96249 0.56555,0.1795 0.78094,0.67083 0.29409,0.67083 -0.69295,0 -0.11828,0.59594 1.25677,1.30328 l 1.52135,0.78261 -1.34845,-0.14895 c -1.14197,-0.12614 -1.37674,-0.0753 -1.53311,0.33223 -0.28361,0.73907 -0.67587,5.26276 -0.68349,7.88227 l -0.007,2.34623 1.04755,1.04755 c 0.79377,0.79377 1.21915,1.0266 1.75585,0.96106 0.63025,-0.077 0.74522,0.0382 1.0434,1.04545 0.38672,1.30629 1.14737,2.36335 3.47981,4.83586 0.91807,0.9732 1.66922,1.90381 1.66922,2.06802 0,0.19451 -0.67543,0.29855 -1.93825,0.29855 -2.24467,0 -2.32574,-0.058 -4.26199,-3.0472 -0.65822,-1.01617 -1.19932,-1.77693 -1.20243,-1.69057 -0.003,0.0864 0.2139,0.80073 0.48225,1.5875 0.26836,0.78676 0.57439,1.78767 0.68007,2.22423 l 0.19214,0.79375 -1.01079,-0.95431 c -0.55593,-0.52488 -1.6061,-1.34608 -2.33371,-1.82489 -0.7276,-0.47882 -1.64909,-1.17179 -2.04776,-1.53994 -0.39866,-0.36815 -0.79399,-0.60021 -0.87851,-0.5157 -0.0845,0.0845 0.0502,1.18013 0.29934,2.43469 0.24915,1.25456 0.36693,2.36736 0.26173,2.47288 -0.1052,0.10552 -2.66581,0.22817 -5.69024,0.27255 l -5.49895,0.0807 z m 115.723986,-9.36482 c 0.299056,-1.38032 0.958125,-4.6781 1.464599,-7.3284 0.506471,-2.6503 1.092798,-5.45596 1.302946,-6.23481 0.408469,-1.51384 0.258032,-2.35349 -0.594871,-3.32022 -0.615402,-0.69754 -3.484557,-2.53974 -3.955544,-2.53974 -0.212405,0 0.359568,0.79722 1.271053,1.77161 l 1.657246,1.77159 -0.171667,4.11538 c -0.201977,4.84199 -0.649388,8.13346 -1.746244,12.84663 -0.440259,1.89177 -0.793181,3.61818 -0.784273,3.83646 0.02922,0.71604 1.001604,-2.35617 1.556755,-4.9185 z m -26.428248,-6.61061 c 0.473778,-0.42876 0.72818,-0.44392 2.799717,-0.16675 1.25322,0.16768 2.365838,0.25095 2.472481,0.18504 0.106643,-0.0659 0.260691,-0.45381 0.342326,-0.86199 0.08164,-0.40818 0.722095,-1.57152 1.423238,-2.58519 l 1.274805,-1.84304 0.03829,-5.69652 c 0.03081,-4.58295 0.121889,-5.8966 0.465937,-6.72003 0.352777,-0.84431 0.372335,-1.17646 0.11172,-1.89717 -0.242898,-0.67173 -0.243946,-1.03166 -0.0045,-1.55713 0.336859,-0.73933 0.341262,-0.73506 -1.079669,-1.04674 -1.54399,-0.33866 -4.210717,-4.87936 -5.214766,-8.87929 -0.310488,-1.23692 -1.082529,-3.8563 -1.715645,-5.82083 -1.100442,-3.41462 -1.163535,-3.78737 -1.433063,-8.46666 -0.258628,-4.48997 -0.377828,-5.24491 -1.441278,-9.12813 -0.637632,-2.32833 -1.239692,-4.56562 -1.337905,-4.97176 -0.09821,-0.40613 -0.290907,-0.66899 -0.428207,-0.58414 -0.1373,0.0849 -1.162021,1.78637 -2.277152,3.78113 -3.785706,6.77193 -4.726988,8.07695 -6.818254,9.45304 -0.745289,0.49041 -1.920616,1.03138 -2.61184,1.20217 -0.691224,0.17078 -1.256774,0.34805 -1.256774,0.39394 0,0.0459 0.638681,0.93242 1.419289,1.97007 1.980311,2.63239 4.421899,6.78683 6.968702,11.85746 4.434313,8.82863 5.385474,12.44117 3.951305,15.00717 l -0.692369,1.23879 0.799203,2.26432 c 0.829281,2.34953 1.941658,8.33475 1.774981,9.55041 l -0.09539,0.69573 -0.19639,-0.79375 c -1.079921,-4.36471 -3.053236,-8.73297 -3.667532,-8.11867 -0.154186,0.15419 -0.289079,0.91287 -0.299763,1.68596 -0.01564,1.13175 0.193353,1.84383 1.0726,3.65459 1.415666,2.91546 2.695914,4.70639 3.005868,4.20488 0.325104,-0.52603 0.892804,0.31494 1.488908,2.20562 0.349046,1.10708 0.499737,1.34633 0.558948,0.8874 0.04459,-0.34557 0.315576,-0.84054 0.6022,-1.09993 z m -90.792248,-6.42825 c 0.29836,-0.55749 -0.0784,-4.66718 -1.18229,-12.89767 -0.74533,-5.55693 -0.93897,-6.50297 -1.35977,-6.64324 -0.40276,-0.13425 -0.57349,0.73984 -0.43399,2.22188 0.64606,6.86336 1.88536,17.25318 2.09924,17.59925 0.22283,0.36055 0.59806,0.24063 0.87681,-0.28022 z m 6.77743,-6.0101 c 0.28037,-2.61804 0.0183,-10.63605 -0.36006,-11.01437 -0.24173,-0.24173 -0.31359,0.50693 -0.31359,3.26711 0,1.96938 -0.0877,3.66842 -0.19494,3.77564 -0.10722,0.10721 -0.38965,-0.2599 -0.62763,-0.81581 l -0.43268,-1.01074 -0.19942,1.2785 c -0.21536,1.38062 0.40993,5.24403 0.95505,5.90086 0.64555,0.77784 0.98483,0.37844 1.17327,-1.38119 z m 23.52097,0.708 c 0.29229,-0.47293 -0.1889,-1.08073 -1.48887,-1.88061 -1.4194,-0.87336 -1.42266,-0.74399 -0.0251,0.99684 0.90936,1.13275 1.24061,1.32611 1.51399,0.88377 z m 87.988706,-4.91867 c -0.642681,-0.65484 -1.020834,-1.19062 -0.84034,-1.19062 0.180493,0 0.770829,-0.18668 1.311859,-0.41485 l 0.983689,-0.41484 -0.625488,-0.5119 c -0.344017,-0.28154 -1.653704,-0.83529 -2.910417,-1.23054 -2.005208,-0.63068 -2.722197,-0.71967 -5.856803,-0.72691 -3.594068,-0.008 -5.895313,0.34479 -7.077603,1.08596 -0.499473,0.31311 -0.595313,0.60649 -0.595313,1.8223 0,0.98737 0.105384,1.44644 0.330729,1.44073 0.181901,-0.005 1.580886,-0.17943 3.108854,-0.38849 5.025459,-0.6876 7.723608,-0.43965 11.244791,1.03334 0.873125,0.36524 1.701586,0.66911 1.841027,0.67527 0.139438,0.006 -0.272304,-0.5246 -0.914985,-1.17945 z m -12.056094,-5.14462 c 2.220397,-0.39506 5.721578,-0.34579 8.351927,0.11754 2.611697,0.46005 3.265004,0.49197 3.053152,0.14919 -0.683115,-1.1053 -11.272043,-1.70429 -13.041172,-0.73771 -0.90673,0.49541 -1.184844,1.11606 -0.396875,0.88569 0.254662,-0.0745 1.169498,-0.26107 2.032968,-0.41471 z m 6.632136,-1.60225 c 0.443447,-0.19056 0.389871,-0.2304 -0.330729,-0.24599 -1.150581,-0.0249 -1.095796,-0.47953 0.08446,-0.70095 0.635931,-0.1193 1.910521,0.0503 3.902604,0.51945 1.627034,0.38314 3.077307,0.69075 3.222828,0.68359 0.145521,-0.007 -0.143756,-0.36213 -0.642837,-0.78882 -0.891963,-0.76258 -0.899056,-0.78504 -0.416356,-1.31841 0.971378,-1.07337 0.325866,-1.17338 -5.347745,-0.82857 -7.50267,0.45597 -9.313833,-0.0377 -3.238164,-0.88266 7.32785,-1.01908 8.747138,-1.38697 9.441979,-2.44743 0.412678,-0.62983 0.409406,-0.69008 -0.05598,-1.03038 -0.889105,-0.65013 -2.049608,-0.6838 -3.709646,-0.10762 -0.873125,0.30305 -3.584577,0.95937 -6.025451,1.4585 -4.937077,1.00956 -6.539674,1.59599 -7.226625,2.64441 -0.647517,0.98824 -0.181954,1.21479 2.139577,1.04115 l 1.852083,-0.13852 -0.992187,0.54828 c -1.182712,0.65356 -1.234374,0.90502 -0.264584,1.28778 1.320406,0.52115 6.610951,0.73411 7.606771,0.30619 z m -113.263298,-3.60018 c 1.07033,-0.41073 -0.32119,-6.62673 -1.81871,-8.12424 -0.62058,-0.62059 -1.91612,-0.58607 -2.12006,0.0565 -0.23337,0.73527 0.86572,7.7671 1.25239,8.0127 0.3891,0.24715 2.09471,0.2821 2.68638,0.0551 z m 7.23082,-6.60904 c -0.0671,-0.0671 -0.31762,-0.0469 -0.55673,0.0448 -0.33598,0.12893 -0.43,0.50603 -0.41386,1.65988 l 0.0209,1.49304 0.53584,-1.53789 c 0.29471,-0.84584 0.48095,-1.59278 0.41386,-1.65987 z m 105.900186,-2.0846 c 0,-1.48022 -1.422707,-1.83012 -4.365625,-1.07367 l -1.322916,0.34004 1.684861,0.0314 c 1.471332,0.0274 1.799437,0.13202 2.588895,0.82518 1.163547,1.02161 1.414785,0.99977 1.414785,-0.12299 z m -104.638206,-0.14887 c 0.20083,-0.32495 -0.66457,-1.88844 -1.1314,-2.04406 -0.18819,-0.0627 -0.3283,0.11578 -0.3283,0.41826 0,0.29024 -0.36633,0.83594 -0.81405,1.21268 l -0.81405,0.68498 h 1.45989 c 0.80294,0 1.5355,-0.12234 1.62791,-0.27186 z m -4.80147,-0.58804 c 0.0877,-0.32742 0.16117,-16.79912 0.16315,-36.60378 l 0.004,-36.008474 0.55625,-0.5034 c 0.30594,-0.27688 0.71654,-0.81336 0.91244,-1.19219 0.30208,-0.58416 0.29784,-0.77207 -0.0279,-1.23715 -0.86956,-1.24147 -3.67302,-1.40109 -4.47589,-0.25484 -0.61618,0.87973 -0.49581,1.4154 0.58771,2.6153 l 0.99219,1.09876 -0.10135,35.762994 c -0.0763,26.93726 -0.0251,35.90552 0.20774,36.34054 0.40011,0.74761 0.97927,0.73891 1.18205,-0.0178 z m -4.16238,-1.71275 c 0.42796,-1.24483 0.11256,-1.66068 -1.2595,-1.66068 -0.56427,0 -1.02594,0.0654 -1.02594,0.14543 0,0.27637 0.85895,1.84052 1.26501,2.30358 0.48688,0.55524 0.58445,0.47987 1.02043,-0.78833 z m 113.337473,-2.52785 c 0,-0.18591 -0.185346,-0.60263 -0.411877,-0.92604 -0.335886,-0.47955 -0.665401,-0.58789 -1.785937,-0.5872 -1.426192,7.9e-4 -4.806834,0.53886 -7.327186,1.16603 -1.93236,0.48085 -1.025652,0.48989 2.38125,0.0238 3.941397,-0.53927 5.361075,-0.51064 6.122252,0.12349 0.73275,0.61044 1.021498,0.66696 1.021498,0.19996 z m -114.734423,-2.05101 c -0.0206,-1.08714 -1.11943,-8.82271 -2.44173,-17.19016 -1.32229,-8.36744 -3.00273,-19.26166 -3.7343,-24.20937 -1.50497,-10.17835 -1.76444,-11.60982 -2.29007,-12.63386 -0.41653,-0.81148 -1.15403,-0.98073 -1.15292,-0.26458 3.9e-4,0.25466 0.34865,1.83937 0.77391,3.52157 0.8745,3.45922 1.54756,7.3877 3.44242,20.09249 2.58851,17.35555 3.18397,21.89451 3.55346,27.08645 0.38076,5.3504 0.50723,5.82982 1.48991,5.64765 0.3149,-0.0584 0.38912,-0.48184 0.35932,-2.05019 z m 100.182899,-1.05497 c 3.642756,-1.04676 7.587461,-1.84769 9.100144,-1.84769 0.666803,0 1.838725,0.23807 2.60427,0.52904 1.798439,0.68355 2.05336,0.66714 2.05336,-0.13216 0,-0.83774 -0.867122,-1.71979 -1.690666,-1.71979 -1.870774,0 -14.847636,3.23526 -15.485202,3.86061 -0.280099,0.27474 0.865645,0.0435 3.418094,-0.69001 z m 0.849442,-1.57209 c 1.413383,-0.4528 2.643751,-0.94294 2.734145,-1.0892 0.186844,-0.30232 -0.306419,-0.20221 -3.451854,0.70056 -2.090293,0.59993 -4.101042,1.35384 -4.101042,1.53764 0,0.2012 2.362682,-0.36217 4.818751,-1.149 z m -3.430172,-0.73189 c 0.485029,-0.43895 0.675679,-2.82093 0.246988,-3.08587 -0.222533,-0.13754 -2.164733,3.24106 -2.164733,3.7657 0,0.36957 1.246399,-0.0723 1.917745,-0.67983 z m 9.149815,-1.89158 c 0.382212,-0.24231 2.211707,-4.56939 2.015077,-4.76602 -0.332624,-0.33262 -2.835624,2.61897 -3.432648,4.04785 l -0.396674,0.94938 0.731154,-0.004 c 0.402135,-0.002 0.889527,-0.10445 1.083091,-0.22716 z m 7.982439,-0.28433 c 0,-0.13802 0.297656,-0.57213 0.661458,-0.96468 0.74867,-0.80782 0.826995,-1.36726 0.293569,-2.09677 -0.546122,-0.74686 -1.497513,-0.20108 -2.291633,1.31462 -0.63672,1.21528 -0.639009,1.24286 -0.134178,1.61708 0.580747,0.43048 1.470784,0.509 1.470784,0.12975 z m -20.002319,-1.02944 c 0.07548,-0.12214 -0.499811,-2.24753 -1.278432,-4.7231 -0.778622,-2.47557 -1.800093,-5.9933 -2.269937,-7.81717 -0.888355,-3.44848 -1.161037,-4.15372 -1.48194,-3.83282 -0.104814,0.10481 0.54037,2.89933 1.433738,6.21005 0.893368,3.31071 1.815351,6.85187 2.048848,7.86925 0.506167,2.20541 1.078296,3.05333 1.547723,2.29379 z m -19.183775,-0.43762 c 3.137879,-0.35718 4.274155,-1.48904 7.173409,-7.14553 1.193395,-2.32833 2.747666,-5.18583 3.453937,-6.35 0.706271,-1.16417 1.397521,-2.6312 1.53611,-3.26008 0.327083,-1.4842 0.925512,-2.11627 2.097802,-2.21572 0.79068,-0.0671 1.100309,-0.29272 1.863875,-1.35823 l 0.915681,-1.27779 0.0569,-4.14617 c 0.0313,-2.2804 0.149942,-5.08103 0.26366,-6.22362 l 0.206756,-2.07745 -0.830604,0.42952 c -0.530135,0.27414 -1.48777,1.40851 -2.647246,3.13578 -2.254522,3.35857 -5.05407,6.06567 -7.348876,7.10618 -1.822127,0.82619 -4.863504,1.69393 -6.679534,1.90573 -1.65155,0.19262 -1.01746,-0.20287 1.156516,-0.72133 5.342964,-1.27423 8.265094,-3.28025 11.988686,-8.23015 1.09469,-1.45521 2.494216,-3.19343 3.110061,-3.86272 1.105005,-1.2009 1.116584,-1.23363 0.881533,-2.4918 -0.307152,-1.6441 -0.502155,-1.82146 -0.502155,-0.45672 0,0.8181 -0.213763,1.3615 -0.876012,2.22691 -5.288068,6.91028 -6.434293,8.19596 -8.49595,9.52961 -1.58256,1.02373 -4.591653,2.11068 -6.752729,2.43924 -1.1226,0.17067 -1.15614,0.1571 -0.74215,-0.30035 1.05845,-1.16958 1.509224,-2.77873 1.515198,-5.40895 0.005,-2.20114 -0.125217,-2.97601 -0.933148,-5.5529 -0.51644,-1.64713 -0.87334,-3.25628 -0.79312,-3.57588 0.21076,-0.83974 1.452458,-1.62432 4.343941,-2.74478 1.56654,-0.60704 2.72169,-1.22611 3.006754,-1.61141 0.301594,-0.40763 0.554191,-1.50159 0.724853,-3.13921 0.299889,-2.87767 0.329763,-12.059574 0.04162,-12.791804 -0.230339,-0.58533 -0.187899,-0.63076 -2.241219,2.39953 -1.633199,2.41028 -3.614703,4.98567 -3.614703,4.69809 0,-0.25262 2.458606,-4.335 3.984871,-6.61667 1.826085,-2.72987 1.878578,-2.75823 3.515915,-1.89982 1.702459,0.89256 5.490821,4.09773 6.515933,5.51285 1.071541,1.47923 1.348658,3.15626 1.561449,9.449514 0.170482,5.04194 0.202256,5.30254 0.409512,3.35887 0.292015,-2.73857 -0.210445,-10.342884 -0.772258,-11.687494 -0.660813,-1.58155 -2.0814,-3.10365 -5.125863,-5.49218 -3.21991,-2.52616 -3.680894,-3.06499 -5.388475,-6.29837 -1.835486,-3.47558 -3.038136,-5.18841 -5.041198,-7.17971 -1.959562,-1.94806 -2.791802,-2.24096 -1.078512,-0.37957 1.116628,1.21314 2.465349,3.10042 2.981908,4.17259 l 0.31868,0.66146 -0.561549,-0.66146 c -0.308853,-0.3638 -1.161809,-1.39393 -1.895461,-2.28919 -4.083028,-4.9824 -9.279447,-7.74684 -14.587477,-7.76038 -4.05387,-0.0103 -5.64088,1.11511 -8.0403,5.70188 -1.7466,3.33882 -2.3459,4.13533 -4.08955,5.43533 -0.77821,0.5802 -1.67143,1.4791 -1.98494,1.99757 -1.56128,2.58192 -3.17274,9.66981 -3.53941,15.56792 -0.23815,3.830724 -0.004,9.940904 0.3492,9.128124 0.095,-0.21828 0.31174,-0.75406 0.48172,-1.19062 0.29373,-0.75436 0.33996,-0.65272 0.93157,2.04814 0.47095,2.14998 1.1058,3.88433 2.60747,7.12344 1.09173,2.35485 1.93538,4.33112 1.87479,4.39172 -0.0606,0.0606 -0.56583,-0.68674 -1.12275,-1.66074 -4.47326,-7.82341 -4.76306,-8.12952 -5.76081,-6.08487 -0.38228,0.7834 -0.51302,1.60121 -0.50757,3.175 0.0155,4.4756 0.0984,4.93166 1.12923,6.21362 0.52337,0.65087 1.24924,1.62112 1.61304,2.15611 0.72616,1.06785 6.02625,5.93599 6.2352,5.72704 0.2213,-0.2213 -2.08974,-3.10895 -4.88774,-6.10722 -1.46871,-1.57383 -2.67037,-2.90905 -2.67037,-2.96716 0,-0.0581 0.53578,0.12401 1.19062,0.40471 0.65485,0.2807 1.19063,0.40292 1.19063,0.2716 0,-0.37955 -0.73531,-3.41073 -1.31324,-5.41364 -0.29118,-1.00911 -0.48288,-1.88129 -0.426,-1.93817 0.0569,-0.0569 0.18937,0.17345 0.29441,0.51183 0.47523,1.53088 3.49383,7.53357 5.29886,10.53713 2.82123,4.69453 5.31908,7.96687 6.50591,8.52315 0.69683,0.32661 1.20542,0.88138 1.81918,1.98437 2.56979,4.61816 5.73941,9.71405 6.25031,10.04881 0.80472,0.52728 1.40042,0.16018 2.54047,-1.56556 1.79226,-2.71299 3.702739,-7.18028 5.007509,-11.70908 0.41836,-1.4521 0.89168,-2.76178 1.05182,-2.91041 0.2091,-0.19407 0.24333,-0.0671 0.12144,0.45032 -0.1351,0.5736 -0.0883,0.68932 0.2294,0.5674 0.32525,-0.12481 0.36802,0.0111 0.23108,0.73465 -0.5714,3.01892 -3.56897,10.71176 -5.383349,13.81559 -0.58363,0.9984 -1.06114,1.85918 -1.06114,1.91285 0,0.0537 0.50602,0.36126 1.12448,0.68355 1.127089,0.58734 3.043649,0.99294 4.034899,0.8539 0.29104,-0.0408 1.17151,-0.14735 1.95661,-0.23672 z m -4.94398,-29.13457 c -1.644059,-5.60239 -1.942649,-7.35399 -2.092389,-12.2745 l -0.14092,-4.63021 1.43014,-1.32291 c 0.786569,-0.72761 2.342189,-2.129604 3.456919,-3.115544 1.71654,-1.51822 3.864966,-3.97247 6.768832,-7.73238 0.517495,-0.67005 0.496776,-0.5753 -0.132967,0.608 -1.215212,2.28343 -3.781285,5.51839 -7.265425,9.159284 l -3.270159,3.41727 v 4.52023 c 0,4.75577 0.2384,6.43006 1.617849,11.36256 0.36061,1.28944 0.61474,2.46718 0.56473,2.61721 -0.05,0.15003 -0.47148,-1.02402 -0.93661,-2.60901 z m 1.94126,-0.16981 c -0.0569,-0.1819 -0.29045,-0.92604 -0.51901,-1.65365 -0.88983,-2.83275 -1.49296,-6.22087 -1.652089,-9.28072 -0.23976,-4.61024 -0.19052,-4.76232 2.095359,-6.4724 4.493631,-3.361724 4.709161,-3.313764 0.72129,0.16048 l -2.37757,2.07134 v 1.3748 c 0,3.11218 0.74241,8.60732 1.70357,12.60952 0.20095,0.83675 0.31284,1.52136 0.24864,1.52136 -0.0642,0 -0.16329,-0.14883 -0.22019,-0.33073 z m -2.705699,24.33931 c 1.603899,-2.87473 3.512609,-7.85628 4.256909,-11.11015 0.33655,-1.47127 -0.10275,-0.67037 -0.65305,1.19063 -0.86222,2.91584 -2.82246,7.77217 -4.021499,9.96296 -0.58979,1.07762 -0.9444,1.88024 -0.78801,1.78358 0.15639,-0.0966 0.69893,-0.91881 1.20565,-1.82702 z m -8.12202,0.74087 c 0.23271,-0.60643 -0.39661,-2.17816 -1.03798,-2.59234 -0.86446,-0.55825 -3.08355,-1.35516 -3.26588,-1.17283 -0.0872,0.0872 -0.0121,0.93488 0.16691,1.88368 0.32101,1.7013 0.33878,1.72724 1.28897,1.8816 0.52991,0.0861 1.14207,0.1943 1.36035,0.24049 0.91383,0.19337 1.34805,0.12314 1.48763,-0.2406 z m -14.20313,-15.64845 c -0.79184,-0.80809 -1.7969,-1.72581 -2.23346,-2.0394 l -0.79375,-0.57014 0.84339,1.07098 c 1.11357,1.41406 3.25516,3.37616 3.4607,3.17062 0.0896,-0.0896 -0.48504,-0.82398 -1.27688,-1.63206 z m 2.13217,0.47769 c 0,-0.39004 -2.065,-2.23168 -2.38335,-2.12556 -0.18033,0.0601 0.16201,0.58202 0.80071,1.22073 1.06648,1.06647 1.58264,1.36158 1.58264,0.90483 z m -5.24498,-1.4233 c -0.62742,-0.58525 -1.22131,-0.98356 -1.31975,-0.88511 -0.0984,0.0984 0.33436,0.65782 0.96179,1.24307 0.62742,0.58526 1.2213,0.98356 1.31975,0.88512 0.0984,-0.0984 -0.33437,-0.65783 -0.96179,-1.24308 z m 53.444871,-7.97962 c 0.383259,-0.71121 0.135736,-0.78786 -1.004991,-0.31124 -0.728474,0.30438 -0.915958,0.48682 -0.661741,0.64393 0.235032,0.14526 0.289436,0.43123 0.161242,0.84757 l -0.193468,0.62834 0.718616,-0.66146 c 0.39524,-0.3638 0.836393,-0.88001 0.980342,-1.14714 z m -0.385765,-1.73809 c 0.630129,-0.93505 0.780499,-1.61268 0.357865,-1.61268 -0.135716,0 -0.322535,0.23876 -0.415158,0.53059 -0.09262,0.29183 -0.479232,0.89999 -0.859129,1.35148 -0.598072,0.71076 -0.623485,0.80793 -0.18946,0.72434 0.275696,-0.0531 0.773343,-0.50027 1.105882,-0.99373 z m -11.813825,-3.48317 c 0.334676,-0.52886 0.321574,-0.58728 -0.357942,-1.59612 -0.859557,-1.27612 -2.547062,-2.12754 -4.532672,-2.28693 -1.710407,-0.13729 -2.799276,0.18492 -2.799276,0.82836 0,0.87442 1.584622,2.5065 2.960481,3.04913 1.630757,0.64317 4.323911,0.64633 4.729409,0.006 z m 14.557557,-0.51261 c 0.861845,-0.23941 1.052271,-0.48187 2.084667,-2.6543 0.624899,-1.31496 1.070063,-2.45695 0.989251,-2.53777 -0.08081,-0.0808 -0.349131,0.25109 -0.596262,0.73756 -0.671034,1.32089 -2.180535,3.09029 -3.373792,3.95468 -1.147154,0.83099 -0.864182,0.98883 0.896136,0.49983 z m -24.241099,94.3258 c 0.78506,-3.80244 1.720867,-5.09913 4.200134,-5.81987 2.042888,-0.59388 2.366592,-0.39433 0.954691,0.58853 -1.541933,1.07339 -3.425986,3.05247 -4.476382,4.70217 -0.725963,1.14018 -0.819683,1.21327 -0.678443,0.52917 z"
         id="path1449" />
      <path
         style="fill:none;stroke:#ff0000;stroke-width:0.264583px;stroke-linecap:butt;stroke-linejoin:miter;stroke-opacity:1"
         d="m -154.64499,218.78816 v 14.9667 h 81.678649 v -14.9667 l 35.265222,0.10558 0.27264,-165.974375 H -195.64129 l -0.53454,165.963625 z"
         id="path1501"
         sodipodi:nodetypes="ccccccccc" />
    </g>
  </g>
</svg>
