<?xml version="1.0" encoding="UTF-8" standalone="no"?>
<svg
   xmlns:dc="http://purl.org/dc/elements/1.1/"
   xmlns:cc="http://creativecommons.org/ns#"
   xmlns:rdf="http://www.w3.org/1999/02/22-rdf-syntax-ns#"
   xmlns:svg="http://www.w3.org/2000/svg"
   xmlns="http://www.w3.org/2000/svg"
   xmlns:sodipodi="http://sodipodi.sourceforge.net/DTD/sodipodi-0.dtd"
   xmlns:inkscape="http://www.inkscape.org/namespaces/inkscape"
   sodipodi:docname="laserendeksel.svg"
   inkscape:version="1.0 (4035a4fb49, 2020-05-01)"
   id="svg943"
   version="1.1"
   viewBox="0 0 440 297"
   height="297mm"
   width="440mm">
  <defs
     id="defs937">
    <marker
       style="overflow:visible"
       refY="0"
       refX="0"
       orient="auto"
       id="DistanceX">
      <path
         id="path8819"
         style="stroke:#000000;stroke-width:0.5"
         d="M 3,-3 -3,3 M 0,-5 V 5" />
    </marker>
    <pattern
       y="0"
       x="0"
       height="8"
       width="8"
       patternUnits="userSpaceOnUse"
       id="Hatch">
      <path
         id="path8822"
         linecap="square"
         stroke-width="0.25"
         stroke="#000000"
         d="M8 4 l-4,4" />
      <path
         id="path8824"
         linecap="square"
         stroke-width="0.25"
         stroke="#000000"
         d="M6 2 l-4,4" />
      <path
         id="path8826"
         linecap="square"
         stroke-width="0.25"
         stroke="#000000"
         d="M4 0 l-4,4" />
    </pattern>
    <rect
       x="64.144684"
       y="65.213768"
       width="34.210499"
       height="11.759859"
       id="rect8778" />
    <marker
       style="overflow:visible"
       refY="0"
       refX="0"
       orient="auto"
       id="DistanceX-2">
      <path
         id="path8819-0"
         style="stroke:#000000;stroke-width:0.5"
         d="M 3,-3 -3,3 M 0,-5 V 5" />
    </marker>
    <pattern
       y="0"
       x="0"
       height="8"
       width="8"
       patternUnits="userSpaceOnUse"
       id="Hatch-3">
      <path
         id="path8822-7"
         linecap="square"
         stroke-width="0.25"
         stroke="#000000"
         d="M8 4 l-4,4" />
      <path
         id="path8824-9"
         linecap="square"
         stroke-width="0.25"
         stroke="#000000"
         d="M6 2 l-4,4" />
      <path
         id="path8826-0"
         linecap="square"
         stroke-width="0.25"
         stroke="#000000"
         d="M4 0 l-4,4" />
    </pattern>
    <rect
       x="64.144684"
       y="65.213768"
       width="34.210499"
       height="11.759859"
       id="rect8778-3" />
  </defs>
  <sodipodi:namedview
     inkscape:window-maximized="1"
     inkscape:window-y="-8"
     inkscape:window-x="-8"
     inkscape:window-height="705"
     inkscape:window-width="1366"
     showgrid="false"
     inkscape:document-rotation="0"
     inkscape:current-layer="g3051"
     inkscape:document-units="mm"
     inkscape:cy="200.27288"
     inkscape:cx="1075.8799"
     inkscape:zoom="0.7"
     inkscape:pageshadow="2"
     inkscape:pageopacity="0.0"
     borderopacity="1.0"
     bordercolor="#666666"
     pagecolor="#ffffff"
     id="base" />
  <metadata
     id="metadata940">
    <rdf:RDF>
      <cc:Work
         rdf:about="">
        <dc:format>image/svg+xml</dc:format>
        <dc:type
           rdf:resource="http://purl.org/dc/dcmitype/StillImage" />
        <dc:title></dc:title>
      </cc:Work>
    </rdf:RDF>
  </metadata>
  <g
     id="layer1"
     inkscape:groupmode="layer"
     inkscape:label="Laag 1">
    <g
       transform="matrix(0.26458333,0,0,0.26458333,103.46428,-238.61309)"
       id="g1559">
      <g
         inkscape:label="0"
         id="g1536" />
      <g
         id="g3051">
        <text
           xml:space="preserve"
           style="font-size:192px;line-height:1.25;font-family:'Trebuchet MS';-inkscape-font-specification:'Trebuchet MS';stroke-width:0.999999"
           x="1381.3573"
           y="296.66846"
           id="text6926"
           transform="rotate(90)"><tspan
             x="1381.3573"
             y="296.66846"
             style="stroke-width:0.999999"
             id="tspan6930"
             sodipodi:role="line" /></text>
        <text
           xml:space="preserve"
           style="font-size:26.6667px;line-height:1.25;font-family:'Trebuchet MS';-inkscape-font-specification:'Trebuchet MS';stroke-width:0.999999"
           x="824.02161"
           y="-158.47874"
           id="text6958"
           transform="rotate(90)"><tspan
             sodipodi:role="line"
             id="tspan6956"
             x="824.02161"
             y="-158.47874"
             style="stroke-width:0.999999" /></text>
        <text
           transform="matrix(0,3.7795276,-3.7795276,0,243.33157,644.21442)"
           xml:space="preserve"
           id="text8776"
           style="font-size:7.05556px;line-height:1.25;font-family:'Trebuchet MS';-inkscape-font-specification:'Trebuchet MS';white-space:pre;shape-inside:url(#rect8778);" />
        <path
           sodipodi:nodetypes="ccccccccccccccccccccc"
           d="m 253.6195,981.70316 h -34.88794 v 38.40004 h 11.33858 c -0.43683,100.9623 0,166.0304 0,263.9622 h -11.33858 v 37.7953 h 35.49267 v -11.3386 c 141.53813,2.3777 280.60403,0 383.16267,0 v 11.3386 h 34.888 v -38.4 h -11.3386 c 1.447,-103.9928 0,-166.0303 0,-263.9622 h 11.3386 v -37.79534 h -35.4927 v 11.3386 c -136.51294,-0.4111 -245.6396,0 -383.1627,0 z"
           style="fill:none;stroke:#ff0000;stroke-opacity:1"
           id="path1526" />
        <path
           d="m 293.50301,1075.0601 h 303.29114 v 11.1785 H 293.50301 Z"
           style="fill:none;stroke:#ff0000;stroke-width:0.770293;stroke-opacity:1"
           id="path1530" />
        <path
           style="fill:#000000;stroke-width:0.55381"
           d="m 291.51365,1234.8576 c -0.72451,-0.1015 -2.20246,0.02 -3.28432,0.2707 -2.32441,0.5379 -8.19114,-0.2752 -10.87912,-1.5077 -1.04517,-0.4793 -1.83112,-0.7112 -1.74653,-0.5153 0.0856,0.1956 -0.29297,0.022 -0.83901,-0.3867 -0.54609,-0.4085 -1.16084,-0.5543 -1.36616,-0.3239 -0.20533,0.2304 -0.49502,0.1677 -0.64387,-0.1396 -0.1488,-0.3072 -0.44752,-0.3599 -0.66376,-0.1173 -0.21629,0.2427 -0.41225,0.1087 -0.43604,-0.299 -0.0235,-0.4071 -1.10371,-1.2045 -2.40035,-1.772 -1.29663,-0.5674 -2.48146,-1.2876 -2.63299,-1.6004 -0.15155,-0.3129 -1.17865,-0.9531 -2.28237,-1.4228 -2.44172,-1.039 -9.30348,-6.0174 -9.85063,-7.1469 -0.71922,-1.4847 0.16036,-1.5073 5.18271,-0.1327 9.8484,2.6954 12.15135,3.199 13.30504,2.9089 0.6447,-0.1621 1.49286,0.022 1.88481,0.4096 0.39198,0.3874 1.40427,0.7609 2.24962,0.8301 1.98575,0.1625 8.59221,-2.4982 9.80532,-3.9489 0.4979,-0.5955 1.42456,-1.0652 2.0593,-1.0439 0.68329,0.023 1.37701,-0.4253 1.70091,-1.0985 0.30084,-0.6255 0.79519,-1.2336 1.09858,-1.3514 0.30331,-0.1178 0.84685,-0.3175 1.20785,-0.4437 0.36092,-0.1263 0.44601,-0.6635 0.18909,-1.1939 -0.30016,-0.6197 -0.0547,-1.1322 0.68682,-1.434 0.95951,-0.3902 0.998,-0.7373 0.22882,-2.0578 -0.76901,-1.3202 -0.73386,-1.6364 0.20746,-1.8731 1.71457,-0.431 2.80256,-1.7408 2.3029,-2.7722 -0.26875,-0.5549 0.0939,-1.337 0.91227,-1.9677 1.36784,-1.0541 2.09979,-3.321 0.98145,-3.0398 -1.33119,0.3347 -1.04104,-1.2546 0.56633,-3.1014 1.90448,-2.188 2.85786,-4.1154 1.74956,-3.5366 -1.58866,0.8295 -1.49602,-0.932 0.15932,-3.0311 1.3392,-1.6982 1.54938,-2.2989 0.78652,-2.2482 -1.56966,0.1042 -1.52375,-0.3373 0.37993,-3.6514 1.56438,-2.7235 1.60321,-2.9775 0.36822,-2.4089 -1.74471,0.8033 -1.84851,0.5492 -1.10917,-2.7149 0.33196,-1.4656 0.49085,-3.3792 0.35312,-4.2525 -0.24256,-1.5376 -0.30978,-1.5729 -2.12789,-1.1158 -1.03256,0.2597 -1.99063,0.2383 -2.12905,-0.048 -0.13842,-0.2857 0.27759,-1.7142 0.92446,-3.1744 0.64685,-1.4602 1.54963,-3.5173 2.00613,-4.5713 l 0.83001,-1.9164 -2.38188,-0.6406 c -4.62128,-1.2428 -3.82291,-2.2409 3.83032,-4.7886 2.52319,-0.8399 4.62477,-1.7534 4.67027,-2.0298 0.0456,-0.2764 -0.95294,-0.8925 -2.21888,-1.3691 -1.26595,-0.4766 -2.44801,-1.1686 -2.62684,-1.5378 -0.39456,-0.8145 0.11617,-1.1355 5.77525,-3.6298 2.44047,-1.0757 4.61262,-2.1526 4.82699,-2.3931 0.21445,-0.2405 -0.0965,-1.4413 -0.69084,-2.6682 -0.92685,-1.9134 -0.92036,-2.3461 0.0453,-3.0408 0.61922,-0.4455 2.79393,-1.0762 4.83252,-1.4016 4.12376,-0.6582 4.37662,-1.042 2.81344,-4.269 -0.96277,-1.9875 0.0438,-2.6652 3.63301,-2.446 3.36879,0.2057 4.47124,-0.4928 3.49292,-2.213 -1.39124,-2.4464 1.96504,-2.5297 10.08395,-0.2503 1.05689,0.2967 1.30289,0.1826 1.40334,-0.6515 0.19005,-1.578 1.48967,-1.5576 5.78893,0.091 3.45042,1.3232 4.02325,1.403 4.30104,0.5997 0.51173,-1.4798 1.46181,-1.3996 6.51836,0.5507 2.62518,1.0125 4.80792,1.5749 4.861,1.2525 0.0832,-0.5054 1.44191,0.3783 2.07128,1.3472 0.11494,0.1766 0.44834,0.4311 0.7413,0.5655 0.74259,0.3404 -0.15866,-0.9125 -1.17429,-1.6327 -0.4595,-0.3258 1.18706,-0.1724 3.65904,0.3409 2.47194,0.5133 4.65427,0.8931 4.84957,0.844 0.19535,-0.049 -0.30108,-1.0591 -1.1034,-2.2443 -1.28511,-1.8992 -1.33706,-2.1853 -0.43743,-2.4097 0.56135,-0.1402 1.95775,-0.032 3.10282,0.241 1.14513,0.2726 3.49983,0.8126 5.23269,1.2 l 3.15066,0.7045 -0.96466,-1.4346 c -1.11152,-1.6531 -0.64096,-1.9253 2.38847,-1.3815 2.2506,0.4041 2.22586,0.212 -0.27908,-2.1698 -0.75384,-0.7168 -0.67073,-0.8519 0.56211,-0.9139 0.7957,-0.04 2.00232,-0.012 2.68138,0.062 1.33475,0.146 1.51483,0.5149 -2.62901,-5.3842 -1.87984,-2.6768 -0.57206,-2.5734 5.93586,0.4689 9.74156,4.554 23.7065,13.2234 38.76831,24.0672 6.6338,4.776 6.84608,5.0847 8.67559,12.6172 0.67023,2.7595 1.25528,5.1005 1.30014,5.2022 0.0443,0.1017 -0.5447,0.1755 -1.31016,0.1639 -0.76545,-0.012 -1.91966,0.03 -2.56495,0.092 -4.03555,0.3884 -9.86097,0 -18.14243,-1.1953 -9.41062,-1.3636 -9.48771,-1.3645 -13.80861,-0.1618 -6.01617,1.6747 -13.97232,2.0079 -22.23737,0.9315 l -6.81082,-0.887 -2.14216,1.9709 -2.14217,1.971 -3.99029,-0.4835 c -3.98522,-0.4829 -3.99359,-0.4814 -6.54872,1.1192 -1.40709,0.8815 -3.25778,2.1455 -4.11259,2.809 l -1.55412,1.2063 2.26976,1.9337 2.26982,1.9337 1.17738,-1.6834 c 0.64756,-0.9259 1.88647,-1.8616 2.75309,-2.0795 1.58274,-0.398 6.61787,0.1476 7.5576,0.8188 0.70964,0.5069 0.56645,3.2931 -0.17917,3.4858 -0.34039,0.087 -0.52944,0.6419 -0.42066,1.2309 0.24329,1.3182 -1.31044,1.79 -2.8157,0.855 -0.91101,-0.5659 -1.79025,-0.4911 -4.78815,0.4074 -3.49315,1.0469 -3.82961,1.0457 -6.89699,-0.024 -3.15322,-1.0998 -8.80143,-4.0807 -9.16868,-4.8388 -0.10166,-0.2099 0.78077,-1.3826 1.96094,-2.6062 1.18017,-1.2235 2.67599,-3.1263 3.32406,-4.2283 l 1.1783,-2.0037 -1.43856,0.8327 c -2.38437,1.3799 -10.44506,8.8333 -9.22002,8.5253 1.54296,-0.388 3.11323,-0.2186 3.39657,0.3663 0.12824,0.2647 -0.21296,1.7735 -0.75818,3.3529 -0.54525,1.5793 -1.02667,3.4018 -1.06974,4.0499 -0.0718,1.0794 0.0478,1.1263 1.42511,0.5587 0.84581,-0.3487 1.61425,-0.3909 1.75658,-0.097 0.13922,0.2874 0.81485,0.5414 1.50137,0.5645 1.35955,0.046 2.36373,1.3617 1.26117,1.6528 -0.49255,0.1305 -0.41404,0.2478 0.28515,0.426 1.61802,0.413 0.87595,1.5094 -1.33928,1.9791 -1.65089,0.35 -2.79478,1.251 -5.42028,4.2695 -1.83032,2.1043 -3.99268,4.831 -4.80529,6.0592 -0.8126,1.2283 -1.62075,2.2692 -1.79586,2.3132 -0.17511,0.044 -0.7338,-0.7775 -1.24157,-1.8257 -0.62041,-1.2808 -0.82059,-3.7001 -0.61037,-7.3764 l 0.31282,-5.4705 -1.66419,2.2043 c -0.91536,1.2124 -1.88208,2.9672 -2.14832,3.8995 -0.53698,1.8804 -4.97321,12.3212 -7.78232,18.3158 -1.77156,3.7806 -4.2613,7.9598 -6.05869,10.1699 -0.49461,0.6082 -1.61751,2.1245 -2.49526,3.3697 -2.04304,2.898 -6.71835,6.8867 -9.07343,7.7409 -5.60459,2.0329 -9.93844,3.2307 -11.10037,3.0681 z m 1.49425,-2.0909 c 0.42643,-0.1073 0.89939,0.061 1.05102,0.3741 0.18679,0.3857 1.06999,0.2673 2.7386,-0.367 3.43677,-1.3064 5.08741,-2.6213 4.85702,-3.8691 -0.25335,-1.3724 0.65412,-1.5969 1.64314,-0.4064 1.05596,1.271 1.3451,1.1076 3.57294,-2.0191 1.07015,-1.502 2.2602,-2.8099 2.64462,-2.9065 0.45287,-0.1139 0.35101,-0.8938 -0.28925,-2.2155 -1.15574,-2.3859 -0.0192,-2.8068 1.574,-0.583 0.98227,1.3711 1.00093,1.3475 1.80658,-2.291 0.44778,-2.022 0.53589,-4.2506 0.19587,-4.9525 -0.96456,-1.9912 0.70924,-1.9234 2.17262,0.088 l 1.27075,1.7466 0.34095,-1.9132 c 0.21971,-1.2327 0.58,-1.7425 1.0129,-1.4332 0.46599,0.3329 0.65587,0.203 0.61967,-0.4236 -0.0307,-0.528 -0.21567,-0.7201 -0.44544,-0.4623 -0.21623,0.2427 -0.4645,0.2941 -0.55166,0.1142 -0.29367,-0.6062 0.31004,-3.6999 0.74324,-3.8088 0.23614,-0.059 0.21797,-0.5443 -0.0403,-1.0776 -0.67243,-1.3881 0.22684,-2.1059 1.18837,-0.9486 0.44494,0.5355 1.02155,0.9203 1.28135,0.855 0.81543,-0.205 1.25911,-6.1265 0.56705,-7.5677 -0.42373,-0.8873 -0.36883,-1.4483 0.16064,-1.5814 0.5239,-0.1317 1.07198,0.2881 1.51465,1.1602 0.65535,1.2909 0.69051,1.251 0.63754,-0.7207 -0.0309,-1.148 0.1638,-2.1426 0.43261,-2.2102 0.26886,-0.068 0.32549,-0.4601 0.12584,-0.8722 -0.20685,-0.427 0.12896,-0.873 0.78077,-1.0369 0.62901,-0.1581 1.9836,-1.7822 3.01009,-3.6089 2.79891,-4.9809 7.27599,-9.2648 8.03819,-7.6914 0.10537,0.2176 -0.46307,1.6844 -1.26315,3.2596 -0.89174,1.7556 -1.48838,4.3908 -1.54153,6.8086 -0.15211,6.9132 -0.16709,6.9053 3.77572,1.9934 1.93764,-2.4139 3.909,-5.1164 4.38071,-6.0055 0.47173,-0.8892 0.59131,-1.2344 0.26579,-0.7673 -0.71394,1.0244 -1.78256,1.3606 -2.1187,0.6667 -0.49558,-1.0231 -0.0803,-5.3808 0.80739,-8.4739 0.50247,-1.7507 0.86825,-3.2767 0.81283,-3.3911 -0.0554,-0.1144 -0.93331,-0.078 -1.95085,0.082 -1.2283,0.1923 -2.05605,0.01 -2.46274,-0.5495 -0.47826,-0.6549 0.47537,-1.7863 4.34529,-5.1553 2.7268,-2.3739 5.3367,-4.4115 5.79967,-4.5279 0.46304,-0.1165 0.8852,-0.4748 0.93815,-0.7963 0.0529,-0.3215 0.82061,-0.7667 1.70593,-0.9893 3.55846,-0.8947 2.26778,2.9996 -2.8207,8.5109 -0.83061,0.8995 -1.42914,1.8027 -1.33017,2.007 0.40099,0.8278 9.17343,4.4767 10.28767,4.2791 4.99257,-0.8851 8.79865,-2.9344 6.49878,-3.4992 -0.56529,-0.1388 -0.57593,-0.3731 -0.0348,-0.7652 0.42896,-0.3108 0.54617,-0.7322 0.26044,-0.9362 -0.81837,-0.5846 -1.58563,-0.1868 -1.19499,0.6196 0.46764,0.9654 -1.19521,2.6173 -2.03257,2.0192 -0.38963,-0.2784 -0.81908,-0.1943 -1.19059,0.2328 -0.31961,0.3675 -0.86717,0.7441 -1.21682,0.8367 -0.83826,0.2208 -4.26296,-2.2481 -5.59101,-4.0317 -1.04966,-1.4098 -1.04681,-1.4135 3.5,-4.5983 2.50279,-1.7531 4.95465,-3.2891 5.44861,-3.4133 0.49395,-0.1242 2.49238,-0.023 4.4409,0.2253 l 3.5428,0.451 2.95193,-2.9502 c 1.62358,-1.6227 3.26655,-2.873 3.65116,-2.7786 0.38453,0.094 0.48968,-0.1041 0.23408,-0.4402 -0.25588,-0.3365 0.0517,-0.8284 0.68328,-1.093 1.93298,-0.8098 1.95658,0.7632 0.0369,2.4572 l -1.77575,1.567 4.92528,0.7631 c 5.74943,0.8907 13.55538,0.8095 19.50283,-0.2029 l 4.20444,-0.7156 -5.51127,-1.2375 c -3.03119,-0.6806 -6.94503,-1.488 -8.69738,-1.7942 -3.80742,-0.6654 -4.54046,-1.69 -2.8518,-3.986 0.70995,-0.9653 1.06079,-1.206 0.85599,-0.5873 -0.19088,0.5767 -0.21135,1.1048 -0.0455,1.1737 1.17305,0.4866 10.61814,1.7561 15.10271,2.0298 l 5.44369,0.3323 -4.50671,-4.5662 c -2.47869,-2.5114 -5.08827,-5.1299 -5.79903,-5.8188 -2.2587,-2.1893 -2.16447,-2.5333 1.0278,-3.751 1.63887,-0.6252 3.22108,-1.5499 3.51603,-2.0548 0.47495,-0.8131 1.87755,-0.287 12.26247,4.6002 9.94723,4.6811 11.74414,5.6973 11.84443,6.6983 0.065,0.6489 0.69054,2.6121 1.38996,4.3625 1.21863,3.0497 1.21096,3.1983 -0.18346,3.556 -1.16291,0.299 -0.44926,0.579 3.55862,1.3989 2.75762,0.5641 5.11756,0.7869 5.24431,0.4952 0.2768,-0.6369 -1.57097,-8.3031 -2.42746,-10.0712 -0.95617,-1.9738 -17.33502,-13.5693 -31.0528,-21.9838 -6.36155,-3.9023 -19.32507,-10.2446 -17.99472,-8.8038 0.42388,0.459 1.50226,1.9891 2.39648,3.4002 1.48017,2.3357 1.53507,2.6227 0.6128,3.2033 -0.73753,0.4642 -1.46088,0.3957 -2.65974,-0.252 -1.49165,-0.8058 -1.43745,-0.7186 0.57569,0.9264 3.19349,2.6093 2.83891,2.8848 -2.91579,2.2653 -1.01828,-0.1097 -1.06827,0.024 -0.31776,0.8465 1.53933,1.6881 0.89491,2.2587 -1.84219,1.6309 -1.39116,-0.3191 -4.1257,-0.9189 -6.07673,-1.3328 l -3.54732,-0.7527 1.65893,2.6975 c 1.09532,1.7811 1.45792,2.7481 1.06733,2.8463 -0.32538,0.082 -0.85695,-0.041 -1.1813,-0.2725 -0.32441,-0.2317 -0.75633,-0.2343 -0.96,-0.01 -0.20366,0.2284 -0.49198,0.1642 -0.64081,-0.143 -0.14879,-0.3072 -0.43339,-0.3758 -0.63242,-0.1525 -0.55418,0.6219 -2.4039,0.3157 -2.28952,-0.3789 0.0556,-0.3376 -0.0872,-0.4023 -0.31751,-0.144 -0.50947,0.5717 -6.71241,0.3997 -6.8214,-0.1892 -0.0919,-0.4965 -7.9092,-3.5833 -8.62137,-3.4043 -0.27001,0.068 0.0437,0.5987 0.69718,1.1796 0.72947,0.6486 2.44674,1.1922 4.44931,1.4086 1.79373,0.1937 3.18591,0.5096 3.09373,0.7019 -0.0921,0.1924 -1.25605,0.2302 -2.58629,0.084 -3.49249,-0.383 -3.43629,-0.2277 0.28528,0.7889 3.47202,0.9483 4.58162,1.5384 2.00264,1.065 -2.93802,-0.5393 -5.47481,-1.4567 -5.39345,-1.9506 0.0453,-0.2747 -0.2723,-0.5862 -0.70389,-0.6925 -0.43236,-0.1062 -0.85109,0.1707 -0.93039,0.6155 -0.0889,0.498 -0.255,0.5874 -0.43268,0.2326 -0.15944,-0.3165 -1.89555,-0.6141 -3.85989,-0.6609 -1.96438,-0.047 -4.0992,-0.2854 -4.74404,-0.5302 -0.64484,-0.2448 -2.0696,-0.3342 -3.1661,-0.1986 -1.09653,0.1355 -3.84251,0.098 -6.10219,-0.084 l -4.10859,-0.3305 -2.27678,1.7248 c -1.25217,0.9486 -3.01307,2.6326 -3.91304,3.7421 -1.45675,1.7958 -2.06263,2.1118 -5.52145,2.8794 -2.13682,0.4742 -3.94379,0.9849 -4.01565,1.1346 -0.0718,0.1498 0.32971,1.364 0.89224,2.6981 0.93321,2.213 0.89994,2.4841 -0.37903,3.093 -0.77106,0.3671 -1.30023,0.8774 -1.17592,1.134 0.12431,0.2566 -0.0842,0.3904 -0.46343,0.2972 -0.60701,-0.149 -5.84303,1.9782 -7.66027,3.1121 -0.46931,0.2927 0.0983,0.7048 1.89404,1.375 2.47961,0.9254 2.54775,0.9973 2.06869,2.1802 -0.38626,0.9538 -1.45669,1.5368 -4.85802,2.646 -2.39947,0.7825 -4.74484,1.7 -5.21187,2.0388 -0.73346,0.532 -0.48975,0.701 1.78705,1.2391 l 2.63635,0.6231 -1.19949,2.192 c -0.65967,1.2056 -1.10345,2.3902 -0.98614,2.6324 0.11731,0.2421 -0.21298,1.414 -0.73392,2.6041 -0.83959,1.9182 -0.82424,2.0989 0.13548,1.5913 2.12764,-1.1254 3.56978,2.7058 2.45895,6.5327 -0.5256,1.8106 -0.49111,1.9445 0.37708,1.4634 1.64308,-0.9106 1.92061,1.0322 0.53114,3.7173 -0.70498,1.3623 -1.02515,2.4125 -0.71143,2.3336 1.29518,-0.3256 1.20346,1.4913 -0.16505,3.269 -1.07191,1.3926 -1.28635,2.2274 -0.79773,3.1063 0.50001,0.8992 0.23396,1.8081 -1.05615,3.6093 -0.99953,1.3955 -1.40936,2.4848 -0.97493,2.5915 0.95268,0.2339 0.0828,3.705 -1.11789,4.4608 -0.47084,0.2963 -0.65349,0.957 -0.4059,1.4681 0.29321,0.6053 -0.16857,1.4321 -1.32452,2.3715 -1.19859,0.974 -1.56347,1.6509 -1.12397,2.0853 0.73088,0.7223 0.0711,2.8683 -0.96161,3.128 -0.36977,0.093 -0.58356,0.6498 -0.47512,1.2374 0.10838,0.5876 -0.19363,1.3138 -0.6713,1.6137 -0.47773,0.2999 -1.39778,1.0617 -2.04455,1.6927 -0.64677,0.631 -1.68833,1.1532 -2.31462,1.1603 -0.62626,0.01 -1.47913,0.4522 -1.89515,0.9891 -0.41609,0.5369 -2.59834,1.7091 -4.84951,2.6049 -3.4937,1.3903 -4.39923,1.5738 -6.18495,1.2532 -1.15061,-0.2065 -2.1981,-0.5945 -2.32778,-0.8622 -0.12967,-0.2677 -0.81184,-0.3419 -1.51593,-0.1648 -0.70409,0.177 -2.39353,-0.031 -3.75437,-0.4625 -6.49005,-2.0573 -13.99899,-3.8288 -13.05985,-3.081 2.03605,1.6212 6.77126,4.7085 8.71728,5.6837 1.10017,0.5513 2.5335,1.4517 3.18515,2.001 0.65166,0.5493 1.84205,1.0824 2.6454,1.1847 0.80334,0.1022 1.57737,0.4269 1.72007,0.7215 0.44186,0.9121 8.33952,3.717 11.51785,4.0905 1.65925,0.195 4.10468,0.081 5.43434,-0.2533 1.54613,-0.3887 2.54211,-0.3867 2.7632,0.01 0.2764,0.4909 0.34049,0.4748 0.31929,-0.08 -0.0146,-0.3816 0.3225,-0.7816 0.74893,-0.8888 z m 12.39448,-58.5943 c 0.32249,-0.3799 0.83268,-0.7526 1.13372,-0.8283 0.30099,-0.076 0.28334,0.1732 -0.0391,0.553 -0.32249,0.3799 -0.83268,0.7526 -1.13372,0.8283 -0.30104,0.076 -0.28334,-0.1732 0.0391,-0.553 z m -1.52543,-1.701 c 0.51807,-2.2334 1.3358,-3.4586 1.18644,-1.7776 -0.0527,0.5933 -0.44119,1.6671 -0.86337,2.3862 l -0.76754,1.3075 z m 3.37759,0.4546 c -0.0523,-0.108 0.22228,-0.4263 0.6102,-0.7074 0.4044,-0.2931 0.66468,-0.2645 0.61011,0.067 -0.0915,0.5555 -1.02433,1.0452 -1.22031,0.6406 z m 4.55096,-2.5257 c 0.56099,-1.4251 0.79408,-1.6499 1.08584,-1.0476 0.10108,0.2087 -0.21993,0.8294 -0.71323,1.3795 -0.89384,0.9965 -0.89516,0.9953 -0.3725,-0.332 z m 5.36114,-7.447 c -0.17245,-0.3699 1.38458,-2.3824 4.05381,-5.2412 2.34108,-2.5074 1.60645,-1.0453 -1.17227,2.333 -1.48768,1.8087 -2.78437,3.1174 -2.88154,2.9082 z m -8.11669,-0.8371 c 0.64131,-1.4318 1.25594,-2.6259 1.36581,-2.6536 0.57258,-0.1439 -0.8203,3.6615 -1.60947,4.3971 -0.58595,0.5462 -0.49706,-0.09 0.24366,-1.7435 z m 13.72683,-7.3025 c 0.17265,-0.2746 0.38879,-0.7703 0.48037,-1.1015 0.095,-0.3437 0.35188,-0.2278 0.59835,0.2699 0.24086,0.4845 0.0267,0.9739 -0.48036,1.1014 -0.50172,0.1261 -0.77096,0 -0.59836,-0.2698 z m 2.22603,-0.9252 c 0.19939,-0.5833 0.95668,-1.5866 1.68278,-2.2298 l 1.32025,-1.1693 -0.86286,1.3874 c -0.47463,0.7631 -1.23186,1.7665 -1.68284,2.2298 -0.74629,0.7667 -0.78733,0.7471 -0.45733,-0.2181 z m -10.66272,1.9778 c -0.18427,-0.3804 0.69075,-1.9009 3.32423,-5.7764 0.72195,-1.0623 0.83692,-1.1163 0.56554,-0.265 -0.52515,1.6472 -3.65994,6.516 -3.88977,6.0414 z m 36.83547,-9.4783 c -0.30528,-0.218 -0.17093,-0.4929 0.29833,-0.6109 0.46932,-0.118 0.74441,-0.4394 0.61131,-0.7141 -0.13309,-0.2748 -0.003,-0.5595 0.28815,-0.6328 0.75473,-0.1898 0.74587,1.3479 -0.0109,1.8962 -0.34762,0.252 -0.88172,0.2797 -1.18692,0.062 z m 5.55387,-2.4986 c -1.26008,-0.6045 -2.0431,-1.1616 -1.74009,-1.2378 0.63099,-0.1586 4.33592,1.7011 4.15231,2.0842 -0.0668,0.139 -1.15218,-0.2417 -2.41222,-0.8464 z m 3.022,0.5223 c -0.30447,-0.6285 0.65642,-2.2678 1.18677,-2.0246 0.2093,0.096 0.084,0.7068 -0.27822,1.3574 -0.36231,0.6507 -0.77112,0.9509 -0.90855,0.6672 z m -13.50236,1.2781 c -0.94276,-0.2034 -1.46783,-0.4318 -1.16684,-0.5075 0.30104,-0.076 1.3187,0.029 2.26146,0.2323 0.9428,0.2034 1.46781,0.4318 1.16682,0.5074 -0.30104,0.076 -1.3187,-0.029 -2.26144,-0.2322 z m -18.04445,4.5763 c -0.0666,-0.1374 0.25503,-0.6142 0.7146,-1.0597 0.45963,-0.4454 0.89012,-0.6975 0.95666,-0.5601 0.0666,0.1374 -0.25504,0.6142 -0.71466,1.0597 -0.45957,0.4454 -0.89006,0.6975 -0.9566,0.5601 z m 8.9244,-3.1239 c -1.30866,-0.2615 -2.00986,-0.5684 -1.55835,-0.6819 0.45156,-0.1136 1.89165,0.01 3.20025,0.2691 1.30863,0.2616 2.00988,0.5684 1.55832,0.682 -0.45151,0.1135 -1.89165,-0.01 -3.20022,-0.2692 z m 16.36752,-8.038 c -1.04232,-0.6625 -1.68513,-1.2574 -1.42851,-1.3219 0.25663,-0.064 1.2297,0.4473 2.16243,1.1374 0.93274,0.6901 1.57559,1.285 1.42857,1.322 -0.14708,0.037 -1.12016,-0.4749 -2.16249,-1.1375 z m -29.03943,7.8618 c -0.82107,-0.097 -0.99908,-0.2304 -0.48163,-0.3605 0.45151,-0.1135 1.40714,-0.1371 2.1236,-0.052 0.82103,0.097 0.99908,0.2304 0.48158,0.3605 -0.45151,0.1135 -1.40713,0.1371 -2.12355,0.052 z m -7.97402,0.6497 c -0.14489,-0.2991 2.48942,-3.1934 3.03032,-3.3293 0.24875,-0.062 -0.11012,0.658 -0.79743,1.6014 -1.15864,1.5903 -1.98847,2.2324 -2.23289,1.7279 z m 20.82911,-5.1652 c -0.0447,-0.092 0.35369,-1.0174 0.88531,-2.0558 0.56714,-1.1078 0.98891,-1.5026 1.02058,-0.9554 0.0458,0.7919 -1.66873,3.5008 -1.90589,3.0112 z m -14.30124,2.3353 c 0.81852,-0.656 1.64849,-1.2241 1.84438,-1.2625 0.72964,-0.1427 -1.72098,2.0542 -2.51056,2.2508 -0.45194,0.1127 -0.15179,-0.3323 0.66618,-0.9883 z m 21.76521,-6.8896 c -1.39229,-0.2601 -2.58555,-0.5845 -2.65161,-0.7208 -0.10782,-0.2226 5.10852,0.5344 5.88864,0.8546 0.88185,0.3618 -1.00021,0.284 -3.23703,-0.1338 z m -41.84412,91.1492 c -0.36771,-0.3546 -0.44007,-0.2036 -0.18446,0.3849 0.23161,0.5326 0.50352,0.7952 0.60511,0.5834 0.10148,-0.2117 -0.0878,-0.6475 -0.42065,-0.9683 z m 7.16334,-8.0003 c -0.31814,-0.3053 -0.30633,0.01 0.0264,0.6938 0.33273,0.6869 0.59298,0.9367 0.57856,0.555 -0.0146,-0.3816 -0.28683,-0.9435 -0.60497,-1.2488 z m 4.87732,-3.0342 c -0.054,-0.1114 -0.4844,-0.287 -0.95641,-0.3901 -0.47202,-0.103 -0.58895,-0.05 -0.2598,0.1171 0.3291,0.1674 0.32412,0.7273 -0.0112,1.2443 -0.54694,0.8436 -0.5102,0.8524 0.35811,0.086 0.5322,-0.4698 0.92339,-0.9455 0.86939,-1.057 z m 0.49483,-2.4377 c -0.26228,-0.1202 -0.74293,-0.019 -1.0681,0.2243 -0.35931,0.2693 -0.17236,0.355 0.47685,0.2187 0.58748,-0.1233 0.85346,-0.3229 0.59125,-0.443 z m -1.92361,-2.6452 c -0.36771,-0.3545 -0.44012,-0.2035 -0.18445,0.385 0.2316,0.5325 0.50352,0.7951 0.6051,0.5834 0.10149,-0.2117 -0.0878,-0.6475 -0.42065,-0.9684 z m 5.91364,-3.4034 c -0.20028,-0.4135 -1.37629,-0.38 -1.44561,0.041 -0.045,0.2731 0.27685,0.4065 0.71508,0.2963 0.43829,-0.1102 0.76701,-0.2621 0.73054,-0.3373 z m -0.40179,-2.9647 c -0.38235,-0.9739 -0.44649,-1.0077 -0.30211,-0.1603 0.10053,0.5911 -0.007,1.3308 -0.23816,1.6436 -0.27811,0.3758 -0.17563,0.4302 0.30212,0.1603 0.39768,-0.2246 0.50484,-0.9642 0.23815,-1.6436 z m 3.9807,-5.0197 c 0.10127,-1.1688 0.0578,-1.2037 -0.46681,-0.3744 -0.31812,0.5029 -0.48288,1.1118 -0.36609,1.3529 0.36963,0.763 0.71735,0.3545 0.8329,-0.9785 z m -1.13328,-3.0423 c -0.36772,-0.3546 -0.44009,-0.2037 -0.18446,0.3849 0.23159,0.5325 0.50351,0.7951 0.60504,0.5834 0.10155,-0.2117 -0.0878,-0.6475 -0.42064,-0.9683 z m 3.94567,-4.5879 c -0.26233,-0.1202 -0.74293,-0.019 -1.06815,0.2243 -0.35932,0.2693 -0.1723,0.355 0.47684,0.2187 0.58753,-0.1234 0.85346,-0.3229 0.59132,-0.443 z m 18.91971,-6.915 c -0.18671,-0.3855 -1.96585,-0.2859 -2.03167,0.1136 -0.0398,0.2408 0.41927,0.3508 1.01984,0.2447 0.60055,-0.1061 1.05594,-0.2673 1.01181,-0.3584 z m 80.09162,-23.5152 c -3.30774,-0.763 -5.47931,-1.5651 -5.99972,-2.2162 -0.66041,-0.8262 -1.93628,-1.0478 -6.70386,-1.1645 -6.78453,-0.166 -14.92036,-0.6356 -18.4606,-1.0654 -4.54277,-0.5515 -2.27446,0.1372 5.75891,1.7487 13.4556,2.699 27.39464,4.5601 30.0318,4.0097 0.30679,-0.064 -1.77523,-0.6546 -4.62653,-1.3123 z m -80.19406,21.7194 c -0.73504,0.051 -1.43762,-0.1161 -1.56145,-0.3717 -0.12384,-0.2557 -0.5946,-0.3719 -1.04616,-0.2584 -0.85467,0.2149 -0.79969,0.8638 0.10853,1.2803 0.28945,0.1327 1.27079,0.02 2.1808,-0.2511 1.26409,-0.376 1.3392,-0.4704 0.31828,-0.3991 z m 80.95793,-26.4798 -0.87957,-1.8158 -0.49676,1.6014 c -0.27323,0.8808 -0.90824,1.7088 -1.41114,1.84 -0.78916,0.2067 -0.77028,0.2764 0.14122,0.5162 0.58057,0.1529 1.61136,0.142 2.29072,-0.024 1.05633,-0.2572 1.10753,-0.5654 0.3556,-2.1177 z m -3.64832,-2.6497 c -1.42827,-2.4516 -3.34755,-4.2931 -2.42962,-2.3311 0.36828,0.789 0.19856,1.2109 -0.5668,1.4034 -1.24468,0.3129 -0.96592,1.2161 0.88257,2.8595 0.87401,0.777 1.607,0.9969 2.33462,0.7002 0.92485,-0.3772 0.89666,-0.7138 -0.22077,-2.632 z m -6.77624,2.1241 c -0.86358,-0.4764 -2.61055,-1.3901 -3.88212,-2.0307 -1.27155,-0.6404 -3.14783,-2.06 -4.1695,-3.1545 -1.67598,-1.7955 -1.74695,-1.8261 -0.72609,-0.3131 0.81051,1.2012 0.87573,1.5027 0.23027,1.0629 -1.21393,-0.8271 -2.06067,-2.6503 -1.93794,-4.1728 0.13603,-1.6878 0.65188,-2.2169 2.60478,-2.6715 1.42121,-0.3308 1.52988,-0.2857 0.7686,0.3192 -0.85837,0.682 -0.84826,0.6961 0.31706,0.4412 0.66203,-0.1448 1.72966,-0.2223 2.37249,-0.1722 0.64289,0.05 -1.14031,-0.9684 -3.96254,-2.2633 -2.82224,-1.2949 -5.29891,-2.1299 -5.50373,-1.8556 -0.2048,0.2743 -1.65209,0.9939 -3.21622,1.5991 -1.56412,0.6052 -2.87501,1.1607 -2.91309,1.2344 -0.0712,0.1375 8.04814,8.2272 11.07982,11.0392 1.41846,1.3157 2.22268,1.5896 4.92729,1.678 4.35366,0.1424 5.05866,0.1611 5.34035,0.142 0.13236,-0.01 -0.46579,-0.406 -1.32939,-0.8823 z m 2.52708,-0.5282 c -1.3784,-1.0976 -2.0809,-3.9271 -1.04004,-4.1888 1.17943,-0.2965 0.53685,-1.0829 -2.51956,-3.0834 -3.59303,-2.3518 -5.69612,-2.6928 -6.59954,-1.0702 -0.36189,0.65 -0.53126,1.426 -0.37637,1.7246 0.154,0.2988 0.34213,0.086 0.416,-0.4717 0.0739,-0.5579 0.47985,-1.1013 0.90205,-1.2074 0.51647,-0.1299 0.541,0.3428 0.075,1.4446 -0.66217,1.5653 -0.62217,1.6952 0.9063,2.9423 1.44724,1.1809 8.59206,4.9741 9.11936,4.8415 0.11997,-0.03 -0.27766,-0.4493 -0.88317,-0.9315 z m 4.19667,-5.0098 c -1.02583,-0.6311 -1.91296,-1.1354 -1.97138,-1.1207 -0.0582,0.015 0.63172,0.7868 1.53368,1.7158 0.90192,0.929 1.88964,2.1307 2.19491,2.6703 0.41184,0.7277 0.4973,0.5809 0.33147,-0.5684 -0.17618,-1.2212 -0.61894,-1.7929 -2.08868,-2.697 z m -57.27525,13.9051 c -0.31917,-0.228 -0.82653,-0.3526 -1.12757,-0.2769 -0.30104,0.076 -0.28623,0.3242 0.0329,0.5521 0.31918,0.228 0.82653,0.3526 1.12757,0.2769 0.30104,-0.076 0.28624,-0.3241 -0.0329,-0.5521 z m 25.94839,-7.9054 c -0.0618,-0.1277 -0.78536,-0.338 -1.60779,-0.4673 -1.43591,-0.2257 -1.43816,-0.2148 -0.0567,0.2747 1.51222,0.5358 1.84952,0.5748 1.66436,0.1926 z m -46.11416,-24.5838 c -3.70355,-1.5942 -4.8581,-1.6336 -3.3849,-0.1156 0.9092,0.9368 4.85697,2.0165 6.11003,1.6711 0.29816,-0.082 -0.92839,-0.7822 -2.72513,-1.5555 z m -19.89889,3.7691 1.16377,-0.8864 -2.03163,-0.053 c -2.36666,-0.062 -2.34723,-0.086 -1.75404,2.1787 0.42239,1.6128 0.49203,1.6632 0.95682,0.6932 0.27573,-0.5753 1.02499,-1.445 1.66508,-1.9325 z m 12.9688,-3.1334 c -1.1675,-0.3188 -2.39434,-0.5131 -2.72632,-0.4316 -0.33191,0.082 -1.95315,-0.2707 -3.6025,-0.7826 -2.07753,-0.6447 -2.89216,-0.7105 -2.65162,-0.2139 0.46438,0.9587 2.60134,1.9012 3.76451,1.6603 0.51515,-0.1067 2.12347,-0.025 3.57397,0.1806 3.50281,0.4974 4.2695,0.3047 1.64196,-0.4128 z"
           id="path1416" />
        <path
           inkscape:transform-center-y="-10.205357"
           inkscape:transform-center-x="-11.717262"
           id="path1416-4"
           d="m 592.98556,1266.9044 c 0.67323,-0.2863 2.13196,-0.5532 3.2418,-0.5923 2.38433,-0.085 7.83805,-2.3949 10.11327,-4.2837 0.88467,-0.7345 1.58332,-1.1627 1.55256,-0.9516 -0.0318,0.2112 0.28862,-0.055 0.70966,-0.5915 0.42113,-0.5364 0.97686,-0.8369 1.23501,-0.6678 0.25816,0.1691 0.52159,0.033 0.58545,-0.3022 0.0638,-0.3353 0.33859,-0.4638 0.61045,-0.2858 0.27194,0.1782 0.42634,0 0.34334,-0.402 -0.0831,-0.3993 0.75268,-1.45 1.85724,-2.3351 1.10458,-0.8849 2.06148,-1.8883 2.1265,-2.2297 0.065,-0.3416 0.8904,-1.2268 1.83409,-1.9672 2.08772,-1.638 7.41959,-8.2288 7.65434,-9.4617 0.30858,-1.6206 -0.54664,-1.4138 -5.03906,1.219 -8.80927,5.1626 -10.90216,6.2475 -12.0916,6.2673 -0.66467,0.011 -1.43583,0.4093 -1.71355,0.8854 -0.27781,0.476 -1.15822,1.0998 -1.95653,1.3863 -1.87526,0.6731 -8.94623,-0.1789 -10.49472,-1.2644 -0.63558,-0.4456 -1.65248,-0.6583 -2.25986,-0.4728 -0.65383,0.1998 -1.44023,-0.053 -1.92798,-0.6186 -0.45309,-0.5258 -1.08851,-0.9845 -1.41209,-1.0194 -0.3235,-0.035 -0.90027,-0.087 -1.28166,-0.1145 -0.38135,-0.028 -0.60315,-0.5248 -0.49292,-1.1037 0.12876,-0.6764 -0.24148,-1.1075 -1.03596,-1.2062 -1.02795,-0.1274 -1.15534,-0.4525 -0.75584,-1.9276 0.39942,-1.4747 0.28329,-1.7709 -0.6872,-1.7548 -1.76767,0.03 -3.15872,-0.9525 -2.94432,-2.0783 0.11527,-0.6057 -0.4382,-1.2666 -1.39238,-1.6629 -1.59482,-0.6624 -2.89084,-2.6611 -1.73785,-2.6802 1.37243,-0.023 0.67915,-1.4821 -1.35301,-2.8476 -2.40775,-1.6178 -3.82935,-3.2311 -2.60869,-2.9603 1.74966,0.388 1.20234,-1.2888 -0.94172,-2.8855 -1.73458,-1.2917 -2.09368,-1.8171 -1.34386,-1.9665 1.54279,-0.3074 1.3837,-0.7218 -1.31598,-3.4271 -2.21853,-2.2233 -2.32205,-2.4585 -0.98171,-2.2304 1.89354,0.3222 1.92772,0.05 0.36536,-2.9099 -0.7015,-1.3289 -1.35234,-3.1355 -1.44634,-4.0145 -0.16544,-1.5478 -0.10971,-1.5994 1.76472,-1.6306 1.06457,-0.018 1.98415,-0.2873 2.04339,-0.5997 0.0594,-0.3119 -0.71362,-1.5832 -1.7178,-2.825 -1.00417,-1.2419 -2.41062,-2.9936 -3.12539,-3.8928 l -1.29962,-1.6347 2.1335,-1.2377 c 4.1394,-2.4013 3.10903,-3.1576 -4.94336,-3.6284 -2.65478,-0.1552 -4.92157,-0.491 -5.03735,-0.7461 -0.11588,-0.2551 0.6882,-1.1095 1.78674,-1.8988 1.09856,-0.7893 2.06011,-1.7648 2.13683,-2.1677 0.16929,-0.8891 -0.40733,-1.0663 -6.52023,-2.0039 -2.6362,-0.4044 -5.0136,-0.8797 -5.28312,-1.0562 -0.26959,-0.1765 -0.28145,-1.4168 -0.0264,-2.756 0.39764,-2.0886 0.2789,-2.5047 -0.83414,-2.9245 -0.71373,-0.2693 -2.97763,-0.313 -5.03073,-0.097 -4.1531,0.4364 -4.49703,0.1315 -3.82638,-3.3909 0.41307,-2.1695 -0.73506,-2.5622 -4.14392,-1.4176 -3.19953,1.0743 -4.44564,0.6863 -3.94808,-1.229 0.70752,-2.724 -2.55505,-1.932 -9.8024,2.3794 -0.94344,0.5612 -1.21065,0.515 -1.52445,-0.2643 -0.59369,-1.4744 -1.84333,-1.1169 -5.5663,1.5925 -2.98788,2.1746 -3.52028,2.4006 -3.99732,1.6971 -0.87878,-1.2959 -1.77536,-0.9715 -6.15116,2.2261 -2.27177,1.6601 -4.2333,2.7705 -4.36835,2.473 -0.21171,-0.4664 -1.29402,0.7401 -1.64991,1.8392 -0.0651,0.2005 -0.32087,0.5329 -0.56883,0.7388 -0.62859,0.5217 -0.084,-0.9224 0.70954,-1.8818 0.35902,-0.4341 -1.19107,0.1421 -3.44466,1.2803 -2.25355,1.1381 -4.26215,2.0721 -4.4635,2.0755 -0.20137,0 0.0154,-1.101 0.48211,-2.454 0.74728,-2.1679 0.72308,-2.4577 -0.20395,-2.4405 -0.5785,0.011 -1.89878,0.4779 -2.93353,1.0392 -1.03491,0.5609 -3.16831,1.6944 -4.74091,2.5189 l -2.85925,1.4992 0.55861,-1.636 c 0.64362,-1.8852 0.11849,-2.0257 -2.66546,-0.7132 -2.06821,0.9752 -2.09425,0.7833 -0.29451,-2.1678 0.54161,-0.8881 0.42624,-0.9969 -0.78034,-0.7363 -0.77875,0.1682 -1.93662,0.5088 -2.5731,0.7568 -1.25092,0.4879 -1.32892,0.891 1.13913,-5.8825 1.11944,-3.0734 -0.11651,-2.6336 -5.60995,1.9957 -8.223,6.9296 -19.45449,18.9309 -31.17995,33.317 -5.16435,6.3362 -5.2891,6.6894 -5.0978,14.4386 0.0701,2.8388 0.11364,5.2514 0.0968,5.3613 -0.0163,0.1097 0.57159,0.028 1.30773,-0.1823 0.73602,-0.2105 1.86147,-0.47 2.5007,-0.5778 3.99779,-0.674 9.52202,-2.5632 17.20813,-5.87 8.73271,-3.7629 8.80692,-3.7838 13.29192,-3.7455 6.24468,0.053 14.01397,-1.693 21.71514,-4.8807 l 6.34615,-2.6269 2.58083,1.3464 2.58086,1.3464 3.72745,-1.5041 c 3.72272,-1.5022 3.73119,-1.5029 6.61454,-0.6214 1.58786,0.4854 3.70348,1.2249 4.70138,1.6434 l 1.81425,0.7609 -1.68912,2.4572 -1.68917,2.4572 -1.57448,-1.3195 c -0.86597,-0.7257 -2.30551,-1.3072 -3.19898,-1.2924 -1.63179,0.027 -6.35203,1.8627 -7.08499,2.7551 -0.55349,0.674 0.30899,3.3272 1.07907,3.3194 0.35131,0 0.67809,0.4822 0.72615,1.0793 0.10771,1.3361 1.73067,1.3878 2.94116,0.094 0.7326,-0.7832 1.60106,-0.9396 4.72946,-0.8512 3.6452,0.103 3.96979,0.014 6.65369,-1.8159 2.75896,-1.8816 7.4382,-6.2282 7.59578,-7.0557 0.0436,-0.2291 -1.11332,-1.1321 -2.57097,-2.0069 -1.45763,-0.8747 -3.39663,-2.3233 -4.30887,-3.2189 l -1.65862,-1.6286 1.60556,0.4302 c 2.66109,0.7127 12.38208,5.8147 11.11908,5.8357 -1.59077,0.026 -3.06304,0.5981 -3.1846,1.2365 -0.055,0.289 0.66662,1.6572 1.60363,3.0406 0.93702,1.3833 1.87562,3.018 2.08567,3.6327 0.3499,1.0236 0.2466,1.1 -1.23091,0.9099 -0.90737,-0.1169 -1.66037,0.042 -1.72141,0.3629 -0.0597,0.3137 -0.64612,0.7346 -1.30303,0.9354 -1.30087,0.3978 -1.92854,1.9293 -0.78821,1.9238 0.50954,0 0.46422,0.1316 -0.16462,0.4854 -1.45505,0.8194 -0.4535,1.6852 1.80767,1.563 1.68512,-0.091 3.02389,0.4815 6.34375,2.7138 2.31437,1.5563 5.11116,3.6272 6.21508,4.6019 1.10395,0.9749 2.15488,1.77 2.33541,1.7669 0.18052,0 0.50648,-0.9415 0.72434,-2.0856 0.26616,-1.3981 -0.16939,-3.7863 -1.32796,-7.2816 l -1.72402,-5.2011 2.17995,1.696 c 1.19904,0.9328 2.58866,2.376 3.08808,3.207 1.00729,1.6762 8.00492,10.605 12.27565,15.6634 2.69336,3.1902 6.18382,6.5785 8.4939,8.2455 0.6357,0.4587 2.11413,1.631 3.28538,2.6053 2.72609,2.2673 8.27748,4.9036 10.77364,5.1163 5.94036,0.5063 10.43659,0.5364 11.51632,0.077 z m -1.98637,-1.6306 c -0.43967,0.01 -0.85262,0.2926 -0.91766,0.6344 -0.0801,0.421 -0.96373,0.5362 -2.73986,0.3575 -3.65821,-0.3682 -5.5939,-1.2089 -5.69577,-2.4737 -0.11208,-1.391 -1.04672,-1.372 -1.69229,0.035 -0.6893,1.5018 -1.01097,1.4192 -3.97496,-1.021 -1.42378,-1.1722 -2.91289,-2.1258 -3.3092,-2.1192 -0.46691,0.01 -0.57127,-0.7718 -0.29657,-2.2145 0.49585,-2.6043 -0.71103,-2.7153 -1.67144,-0.1538 -0.59211,1.5793 -0.61627,1.5613 -2.33998,-1.7427 -0.95797,-1.8361 -1.62233,-3.9652 -1.47644,-4.7313 0.41383,-2.1735 -1.18481,-1.673 -2.07507,0.6497 l -0.77308,2.0168 -0.82653,-1.7588 c -0.53257,-1.1332 -1.01299,-1.5318 -1.35061,-1.1206 -0.36344,0.4425 -0.58056,0.3665 -0.70848,-0.248 -0.1076,-0.5178 0.0211,-0.7514 0.30997,-0.5622 0.27188,0.1781 0.52497,0.1632 0.56238,-0.033 0.126,-0.6617 -1.2611,-3.4922 -1.70772,-3.4847 -0.24336,0 -0.35196,-0.4689 -0.24118,-1.051 0.2885,-1.5152 -0.76643,-1.9746 -1.3941,-0.6072 -0.29045,0.6328 -0.74722,1.1542 -1.01506,1.1587 -0.84069,0.014 -2.8083,-5.5886 -2.51464,-7.1602 0.17853,-0.9669 -0.0203,-1.4944 -0.56617,-1.4853 -0.54012,0.01 -0.96024,0.5569 -1.16101,1.5141 -0.29728,1.4168 -0.34161,1.3875 -0.80296,-0.5302 -0.26856,-1.1166 -0.7151,-2.0264 -0.99224,-2.0218 -0.27729,0 -0.4339,-0.3597 -0.34822,-0.8095 0.0888,-0.4661 -0.35145,-0.8095 -1.02346,-0.7983 -0.64848,0.011 -2.37867,-1.2054 -3.84469,-2.7025 -3.99739,-4.0822 -9.43409,-7.0551 -9.76112,-5.3376 -0.0452,0.2375 0.88498,1.5061 2.067,2.8192 1.31742,1.4635 2.57852,3.853 3.2583,6.1739 1.94384,6.636 1.95625,6.6245 -3.12779,2.9063 -2.49848,-1.8273 -5.10454,-3.9245 -5.79114,-4.6604 -0.68665,-0.736 -0.89185,-1.0383 -0.4561,-0.6719 0.95567,0.8037 2.07495,0.8505 2.21917,0.093 0.21261,-1.1167 -1.32109,-5.2167 -2.98226,-7.9728 -0.94026,-1.5599 -1.69012,-2.9383 -1.66634,-3.0632 0.0238,-0.1249 0.88095,-0.3179 1.90511,-0.4279 1.23606,-0.1336 1.98797,-0.5248 2.23525,-1.1708 0.2916,-0.7567 -0.92334,-1.6013 -5.53595,-3.8486 -3.25012,-1.5835 -6.29994,-2.8727 -6.77725,-2.8648 -0.47741,0.01 -0.97819,-0.2283 -1.11289,-0.525 -0.13465,-0.2967 -0.99169,-0.5271 -1.90444,-0.5119 -3.66871,0.061 -1.41015,3.486 4.93598,7.4852 1.03587,0.6526 1.8486,1.3692 1.80613,1.5922 -0.17203,0.9036 -7.69448,6.7073 -8.82179,6.8061 -5.05102,0.4431 -9.25895,-0.5465 -7.18494,-1.6897 0.50978,-0.2809 0.45915,-0.5099 -0.1653,-0.7479 -0.495,-0.1886 -0.71772,-0.5651 -0.49483,-0.8363 0.63828,-0.7773 1.48257,-0.5926 1.31496,0.2877 -0.20063,1.0537 1.83445,2.2166 2.48756,1.4214 0.30387,-0.3701 0.74042,-0.4005 1.21018,-0.085 0.40415,0.2718 1.03078,0.4932 1.39248,0.4917 0.86684,0 3.53208,-3.2789 4.35087,-5.3464 0.64713,-1.6342 0.64342,-1.637 -4.57493,-3.5305 -2.87245,-1.0423 -5.63929,-1.8882 -6.14855,-1.8797 -0.50926,0.01 -2.41269,0.6256 -4.22969,1.3719 l -3.3038,1.3564 -3.61731,-2.0815 c -1.98956,-1.1449 -3.90105,-1.9252 -4.2479,-1.7341 -0.34688,0.1907 -0.49991,0.027 -0.34046,-0.3642 0.15962,-0.3915 -0.26525,-0.7865 -0.9439,-0.8778 -2.07703,-0.2796 -1.69094,1.2455 0.60307,2.3823 l 2.12203,1.0516 -4.55764,2.0171 c -5.32028,2.3545 -12.87903,4.3051 -18.8852,4.8734 l -4.24593,0.4019 5.00017,-2.6275 c 2.75009,-1.4451 6.31953,-3.2421 7.93206,-3.9933 3.50359,-1.6322 3.94511,-2.8121 1.71769,-4.5902 -0.93645,-0.7476 -1.3378,-0.8889 -0.97922,-0.3447 0.33422,0.5073 0.49126,1.0119 0.34902,1.1216 -1.00625,0.7748 -9.79671,4.4557 -14.05599,5.8857 l -5.1702,1.7358 3.16491,-5.5807 c 1.7407,-3.0693 3.57996,-6.2761 4.08722,-7.1261 1.612,-2.7012 1.43159,-3.0088 -1.96747,-3.3549 -1.74505,-0.1777 -3.51323,-0.6594 -3.92928,-1.0703 -0.66997,-0.6617 -1.88761,0.2109 -10.64525,7.6295 -8.38855,7.1058 -9.85956,8.5541 -9.69621,9.5468 0.1059,0.6435 0.0122,2.7018 -0.20824,4.5738 -0.38403,3.2617 -0.338,3.4032 1.10147,3.3861 1.20065,-0.014 0.58431,0.4423 -3.07269,2.2758 -2.51621,1.2615 -4.73712,2.0901 -4.93533,1.8414 -0.43284,-0.5431 -0.64126,-8.4261 -0.27379,-10.356 0.41026,-2.1545 13.2121,-17.6088 24.27118,-29.2998 5.12857,-5.4217 15.99794,-14.9156 15.08783,-13.1785 -0.29001,0.5534 -0.9336,2.3112 -1.4303,3.9062 -0.82217,2.6402 -0.80058,2.9316 0.2409,3.2525 0.83284,0.2565 1.51352,0 2.50282,-0.9347 1.23092,-1.1658 1.20125,-1.0675 -0.31511,1.0442 -2.40548,3.3497 -1.99148,3.5236 3.40439,1.4295 0.95477,-0.3706 1.03779,-0.2545 0.52687,0.7349 -1.04763,2.0302 -0.27705,2.4136 2.20279,1.096 1.2604,-0.6698 3.74504,-1.9598 5.52142,-2.8666 l 3.22974,-1.6488 -0.90075,3.0359 c -0.5947,2.0046 -0.69349,3.0326 -0.2908,3.0259 0.33551,-0.01 0.81684,-0.2623 1.06987,-0.5701 0.25303,-0.3081 0.66943,-0.4229 0.9244,-0.2592 0.25603,0.1676 0.51775,0.031 0.58161,-0.3047 0.0638,-0.3353 0.32081,-0.4755 0.57104,-0.3116 0.69679,0.4564 2.40334,-0.32 2.11234,-0.961 -0.14144,-0.3116 -0.0204,-0.4112 0.26917,-0.2216 0.64056,0.4196 6.58558,-1.3588 6.53775,-1.9558 -0.0403,-0.5033 6.70593,-5.516 7.44015,-5.5282 0.2784,0 0.11342,0.5895 -0.3666,1.3202 -0.53581,0.816 -2.05275,1.7872 -3.93024,2.5167 -1.68173,0.6533 -2.94394,1.3202 -2.80495,1.482 0.13895,0.1618 1.27272,-0.1042 2.51923,-0.5912 3.27289,-1.2776 3.25899,-1.113 -0.0704,0.836 -3.10619,1.8181 -4.02427,2.6764 -1.65698,1.5489 2.69685,-1.2844 4.90798,-2.8297 4.70104,-3.2855 -0.11515,-0.2535 0.11057,-0.6368 0.49969,-0.8516 0.3899,-0.215 0.86621,-0.056 1.0584,0.3525 0.21529,0.4577 0.39892,0.5009 0.47827,0.1121 0.0717,-0.3471 1.67077,-1.0857 3.55543,-1.6415 1.88464,-0.556 3.88411,-1.3411 4.44316,-1.7451 0.55904,-0.404 1.91159,-0.8606 3.00565,-1.0147 1.09406,-0.1542 3.7359,-0.9042 5.8706,-1.6673 l 3.88147,-1.387 2.64684,1.0737 c 1.4557,0.5905 3.5938,1.7589 4.75123,2.5963 1.87346,1.3554 2.54065,1.5031 6.0801,1.3453 2.18663,-0.098 4.06424,-0.074 4.17254,0.052 0.10827,0.126 0.0362,1.4028 -0.16025,2.8372 -0.32591,2.3796 -0.22332,2.6327 1.16996,2.8882 0.83998,0.1541 1.4836,0.5093 1.43027,0.7894 -0.0533,0.2801 0.18278,0.3551 0.52475,0.1665 0.54741,-0.3017 6.15638,0.3914 8.20589,1.014 0.52926,0.1606 0.0883,0.7061 -1.47153,1.8201 -2.15384,1.5381 -2.20095,1.6252 -1.43088,2.6429 0.6209,0.8206 1.80608,1.1054 5.37881,1.2923 2.52039,0.1319 5.02363,0.4083 5.56267,0.614 0.84653,0.3231 0.65513,0.5496 -1.40355,1.661 l -2.38377,1.287 1.72803,1.8049 c 0.95037,0.9927 1.68681,2.0212 1.63649,2.2856 -0.0503,0.2642 0.5732,1.31 1.38557,2.3238 1.30933,1.634 1.34148,1.8125 0.28281,1.5718 -2.34704,-0.5337 -2.74376,3.5407 -0.67639,6.9473 0.97817,1.6118 0.97967,1.75 0.0163,1.5111 -1.8233,-0.4522 -1.5863,1.496 0.45335,3.7276 1.03485,1.1322 1.617,2.0631 1.29355,2.0685 -1.33529,0.022 -0.77446,1.7528 1.00909,3.1137 1.39704,1.0661 1.8211,1.8165 1.57773,2.7922 -0.24909,0.9982 0.24406,1.8067 1.95801,3.2107 1.32791,1.0877 2.0068,2.0331 1.61503,2.249 -0.85913,0.4735 0.88309,3.5992 2.23896,4.0169 0.53168,0.1637 0.87979,0.7542 0.77356,1.3121 -0.1258,0.6607 0.53502,1.3391 1.89541,1.9457 1.41057,0.629 1.93885,1.1878 1.62737,1.7215 -0.51801,0.8875 0.6769,2.7882 1.74162,2.7705 0.38123,-0.01 0.7324,0.4758 0.78043,1.0714 0.0481,0.5956 0.52847,1.2183 1.06767,1.3837 0.53926,0.1655 1.6257,0.6619 2.41426,1.1031 0.78855,0.4412 1.93005,0.6747 2.53666,0.5188 0.60733,-0.1531 1.54583,0.052 2.0871,0.4625 0.54135,0.4103 2.95328,0.975 5.35991,1.2548 3.735,0.4344 4.6571,0.3762 6.29811,-0.3975 1.05738,-0.4985 1.96801,-1.1454 2.02365,-1.4376 0.0556,-0.2922 0.69507,-0.5412 1.42099,-0.5532 0.7259,-0.012 2.3032,-0.6521 3.5051,-1.4225 5.73222,-3.6735 12.52259,-7.3359 11.81011,-6.3697 -1.54467,2.0947 -5.31463,6.3067 -6.94028,7.7542 -0.91906,0.8183 -2.06908,2.0603 -2.55555,2.7601 -0.48648,0.6998 -1.49738,1.524 -2.24653,1.8316 -0.74916,0.3075 -1.41219,0.8223 -1.47341,1.1438 -0.18959,0.9956 -7.08671,5.757 -10.0587,6.9438 -1.55154,0.6196 -3.94254,1.1451 -5.31339,1.1679 -1.59402,0.027 -2.55525,0.2874 -2.66562,0.7279 -0.1393,0.5459 -0.20538,0.547 -0.32911,0.01 -0.0851,-0.3723 -0.51458,-0.6709 -0.95422,-0.6636 z m -27.19888,-53.3586 c -0.41015,-0.283 -0.99968,-0.5103 -1.31005,-0.5051 -0.3104,0 -0.22858,0.2409 0.1815,0.5238 0.41015,0.283 0.99968,0.5103 1.31005,0.5051 0.31044,0 0.22858,-0.2409 -0.1815,-0.5238 z m 1.03085,-2.039 c -1.08079,-2.022 -2.18887,-2.9925 -1.60771,-1.4081 0.20511,0.5592 0.85936,1.4951 1.45394,2.0797 l 1.08102,1.0631 z m -3.14332,1.3169 c 0.0224,-0.1179 -0.32545,-0.3539 -0.7731,-0.5245 -0.46669,-0.1779 -0.71059,-0.083 -0.57173,0.2233 0.23275,0.5126 1.2608,0.743 1.34488,0.3014 z m -5.05104,-1.256 c -0.91214,-1.2303 -1.19565,-1.3868 -1.32082,-0.7293 -0.0434,0.2278 0.42795,0.7437 1.04729,1.1467 1.12213,0.7299 1.1231,0.7284 0.2734,-0.4174 z m -7.11257,-5.7975 c 0.0704,-0.402 -1.95624,-1.9406 -5.27681,-4.0073 -2.91236,-1.8127 -1.82294,-0.5918 1.73839,1.9481 1.90668,1.3598 3.49897,2.2865 3.53842,2.0592 z m 7.62012,-2.9181 c -0.99144,-1.2159 -1.89533,-2.2092 -2.00862,-2.2074 -0.5903,0.01 1.74384,3.3225 2.69709,3.8277 0.70778,0.3751 0.45658,-0.2162 -0.68847,-1.6203 z m -15.15315,-3.4835 c -0.23809,-0.2202 -0.57565,-0.6427 -0.75017,-0.9387 -0.18107,-0.3072 -0.399,-0.1285 -0.50763,0.4161 -0.10664,0.5305 0.22737,0.9474 0.75014,0.9387 0.51725,-0.01 0.74446,-0.2004 0.50766,-0.4161 z m -2.39,-0.3147 c -0.34416,-0.5115 -1.3362,-1.2834 -2.20453,-1.7158 l -1.57881,-0.7859 1.19383,1.1154 c 0.65667,0.6135 1.64868,1.3856 2.20459,1.7157 0.91993,0.5464 0.95446,0.5168 0.38492,-0.3294 z m 10.8103,-0.8618 c 0.0791,-0.4152 -1.16111,-1.656 -4.71143,-4.7138 -0.97325,-0.8381 -1.09831,-0.8604 -0.61498,-0.1089 0.93526,1.4541 5.22785,5.3407 5.32641,4.8227 z m -38.03303,0.4222 c 0.23812,-0.2899 0.0369,-0.5204 -0.44687,-0.5124 -0.48386,0.01 -0.83304,-0.2308 -0.77591,-0.5307 0.0571,-0.2999 -0.14254,-0.541 -0.44273,-0.5361 -0.77813,0.013 -0.36988,1.4954 0.5034,1.8282 0.40118,0.153 0.92412,0.041 1.16224,-0.2487 z m -6.01243,-0.9691 c 1.05964,-0.9113 1.67094,-1.6528 1.35853,-1.6476 -0.65052,0.011 -3.74471,2.7697 -3.46783,3.0919 0.10063,0.1168 1.04975,-0.5329 2.1093,-1.4443 z m -2.78237,1.2898 c 0.13064,-0.686 -1.22332,-2.0192 -1.67223,-1.6465 -0.17715,0.1471 0.10261,0.7043 0.62149,1.2384 0.51899,0.5342 0.99178,0.7178 1.05074,0.4081 z m 13.37047,-2.2755 c 0.85748,-0.4415 1.30514,-0.7985 0.99482,-0.7933 -0.31045,0 -1.26584,0.3707 -2.12335,0.8121 -0.85752,0.4415 -1.30512,0.7985 -0.99482,0.7932 0.31044,0 1.26583,-0.3707 2.12335,-0.812 z m 18.61373,-0.2713 c 0.0286,-0.15 -0.40591,-0.5268 -0.96548,-0.8375 -0.55961,-0.3106 -1.04083,-0.4422 -1.06937,-0.2922 -0.0286,0.15 0.40593,0.5268 0.96555,0.8375 0.55954,0.3106 1.04076,0.4422 1.0693,0.2922 z m -9.42964,-0.6968 c 1.19571,-0.5927 1.79303,-1.0713 1.32754,-1.0635 -0.46557,0.01 -1.82403,0.5013 -3.0203,1.0917 -1.19565,0.5927 -1.79305,1.0713 -1.32749,1.0636 0.4655,-0.01 1.82403,-0.5014 3.02025,-1.0918 z m -17.89424,-3.5073 c 0.83429,-0.9107 1.30037,-1.6522 1.0358,-1.6478 -0.26444,0 -1.07116,0.7516 -1.79245,1.6604 -0.72131,0.9088 -1.18743,1.6504 -1.03584,1.6479 0.15164,0 0.95821,-0.7497 1.79249,-1.6605 z m 30.08478,0.043 c 0.76764,-0.3071 0.90486,-0.4822 0.37138,-0.4733 -0.4655,0.01 -1.39441,0.2333 -2.06413,0.5017 -0.76759,0.3071 -0.90485,0.4822 -0.37132,0.4733 0.46549,-0.01 1.3944,-0.2334 2.06407,-0.5017 z m 7.86881,-1.4454 c 0.0622,-0.3264 -3.23391,-2.4365 -3.79154,-2.4272 -0.25632,0 0.27737,0.6068 1.18627,1.3391 1.53218,1.2345 2.50039,1.6388 2.60527,1.0881 z m -21.45575,0.4265 c 0.0193,-0.1005 -0.60598,-0.8905 -1.38924,-1.755 -0.8356,-0.9223 -1.34549,-1.1939 -1.23384,-0.6573 0.16161,0.7766 2.52134,2.9467 2.62308,2.4123 z m 14.41669,-1.4623 c -0.9609,-0.4207 -1.91001,-0.7535 -2.10915,-0.7397 -0.74165,0.052 2.19578,1.5363 3.00932,1.5209 0.4657,-0.01 0.0602,-0.3604 -0.90017,-0.7812 z m -22.8079,-0.9954 c 1.27682,-0.613 2.34475,-1.2364 2.37311,-1.3852 0.0462,-0.243 -4.79402,1.8439 -5.4641,2.3558 -0.75749,0.5786 1.03965,0.014 3.09099,-0.9706 z m 64.09826,77.1397 c 0.2629,-0.438 0.37202,-0.311 0.27816,0.3237 -0.0852,0.5745 -0.27951,0.8987 -0.43266,0.7206 -0.15302,-0.178 -0.0835,-0.6481 0.1545,-1.0443 z m -8.99664,-5.8634 c 0.22785,-0.3775 0.2984,-0.07 0.15485,0.6768 -0.14275,0.7498 -0.32912,1.0587 -0.41442,0.6863 -0.0851,-0.3722 0.0317,-0.9856 0.25958,-1.3631 z m -5.49835,-1.6621 c 0.0232,-0.1216 0.39315,-0.4031 0.82213,-0.6253 0.42902,-0.2222 0.55571,-0.2014 0.28131,0.046 -0.27428,0.2472 -0.12393,0.7866 0.33425,1.1986 0.74741,0.6725 0.71422,0.6905 -0.32345,0.1762 -0.636,-0.3152 -1.13739,-0.6729 -1.11423,-0.7946 z m -1.11146,-2.2253 c 0.22202,-0.1843 0.71246,-0.2115 1.08969,-0.061 0.41696,0.1667 0.25871,0.298 -0.40361,0.3352 -0.59934,0.034 -0.90806,-0.09 -0.68608,-0.2741 z m 1.16993,-3.0543 c 0.26292,-0.4379 0.37209,-0.3109 0.27818,0.3238 -0.0852,0.5744 -0.27954,0.8987 -0.43266,0.7207 -0.15303,-0.1781 -0.0835,-0.6481 0.15448,-1.0445 z m -6.59502,-1.7493 c 0.0859,-0.4513 1.23021,-0.7247 1.40657,-0.3361 0.11444,0.252 -0.16167,0.4644 -0.61348,0.4719 -0.45187,0.01 -0.80877,-0.054 -0.7931,-0.1358 z m -0.38264,-2.9672 c 0.11606,-1.0398 0.16921,-1.0891 0.25006,-0.2333 0.0566,0.5969 0.35267,1.2832 0.65719,1.5252 0.36624,0.2906 0.28142,0.3697 -0.25006,0.2333 -0.4424,-0.1135 -0.73812,-0.7998 -0.65719,-1.5252 z m -5.14864,-3.8125 c -0.4016,-1.1023 -0.3687,-1.1473 0.35344,-0.4828 0.43791,0.4029 0.75528,0.948 0.70517,1.2112 -0.1586,0.8329 -0.60055,0.5288 -1.05861,-0.7284 z m 0.30354,-3.2323 c 0.26291,-0.438 0.37201,-0.3111 0.27816,0.3238 -0.0852,0.5743 -0.27953,0.8986 -0.4326,0.7206 -0.15308,-0.1781 -0.0835,-0.6481 0.15449,-1.0444 z m -5.00258,-3.4046 c 0.22207,-0.1842 0.71245,-0.2114 1.08973,-0.061 0.41697,0.1666 0.25866,0.298 -0.4036,0.3351 -0.59941,0.034 -0.90806,-0.09 -0.68614,-0.2741 z m -20.06681,-1.7595 c 0.0801,-0.4208 1.82396,-0.787 1.99136,-0.4184 0.10103,0.2222 -0.31367,0.4477 -0.92118,0.5014 -0.60748,0.054 -1.08912,0.016 -1.07019,-0.083 z m -83.45098,-1.8887 c 2.99572,-1.5965 4.88416,-2.9355 5.21744,-3.6995 0.42296,-0.9695 1.59737,-1.5151 6.17074,-2.867 6.50818,-1.9238 14.2423,-4.492 17.54913,-5.8273 4.24328,-1.7133 2.23195,-0.4587 -5.10642,3.1855 -12.29154,6.1038 -25.2677,11.5241 -27.95728,11.6781 -0.31288,0.018 1.54406,-1.0935 4.12639,-2.4698 z m 83.08311,0.128 c 0.72304,-0.1418 1.35803,-0.4858 1.41117,-0.7648 0.0531,-0.2791 0.47749,-0.5136 0.94303,-0.5214 0.88115,-0.015 0.99673,0.6262 0.22799,1.2645 -0.24501,0.2034 -1.22191,0.3496 -2.17111,0.3244 -1.31837,-0.034 -1.41544,-0.1062 -0.41108,-0.3027 z m -85.05809,-4.5262 0.37735,-1.982 0.89594,1.4172 c 0.49279,0.7795 1.32119,1.414 1.84091,1.41 0.81576,-0.01 0.81565,0.067 -0.002,0.5351 -0.52087,0.2986 -1.51906,0.556 -2.21822,0.5723 -1.08688,0.026 -1.21643,-0.2581 -0.89383,-1.9525 z m 2.83418,-3.5069 c 0.74193,-2.7386 2.11658,-5.0157 1.74018,-2.8825 -0.15053,0.8576 0.12302,1.2209 0.91211,1.2078 1.28323,-0.021 1.24882,0.9232 -0.10897,2.9906 -0.642,0.9775 -1.29263,1.3804 -2.07237,1.283 -0.9911,-0.1238 -1.05137,-0.4562 -0.47095,-2.5989 z m 7.09544,0.2897 c 0.71007,-0.6845 2.15949,-2.0209 3.22084,-2.97 1.06139,-0.9489 2.50418,-2.8074 3.20624,-4.1298 1.15166,-2.1694 1.21224,-2.2174 0.61974,-0.4911 -0.47042,1.3706 -0.45503,1.6787 0.0539,1.0862 0.95721,-1.1142 1.30094,-3.0948 0.78669,-4.5331 -0.57007,-1.5944 -1.20571,-1.9712 -3.20965,-1.9026 -1.45835,0.05 -1.55156,0.1218 -0.65921,0.508 1.00614,0.4355 1.00004,0.4517 -0.19148,0.5085 -0.67692,0.032 -1.72799,0.2349 -2.3357,0.4504 -0.6078,0.2154 0.84939,-1.2315 3.23803,-3.2155 2.38865,-1.984 4.56315,-3.434 4.83223,-3.2224 0.26906,0.2116 1.85365,0.5303 3.52132,0.7081 1.66767,0.1779 3.07789,0.3735 3.13382,0.4348 0.10449,0.1143 -5.63301,10.0364 -7.82956,13.5397 -1.02771,1.6392 -1.73309,2.1127 -4.32176,2.9011 -4.167,1.2692 -4.84291,1.4705 -5.11988,1.5252 -0.13041,0.025 0.34425,-0.5131 1.05436,-1.1975 z m -2.57751,0.1468 c 1.04572,-1.4181 0.9886,-4.333 -0.0845,-4.3151 -1.21596,0.02 -0.79987,-0.9062 1.63149,-3.6324 2.85822,-3.2049 4.80039,-4.0808 6.09452,-2.7488 0.51841,0.5336 0.88366,1.2389 0.81171,1.5675 -0.071,0.3286 -0.30802,0.172 -0.52431,-0.3473 -0.21638,-0.5196 -0.74962,-0.9388 -1.18489,-0.9315 -0.53248,0.01 -0.4333,0.4717 0.30308,1.4145 1.04628,1.3393 1.04142,1.4752 -0.11036,3.0767 -1.09054,1.5165 -7.00381,7.0365 -7.54745,7.0455 -0.12364,0 0.15133,-0.506 0.61069,-1.1291 z m -5.35462,-3.7467 c 0.82653,-0.8761 1.55208,-1.5936 1.61231,-1.5946 0.0601,-7e-4 -0.40549,0.9239 -1.03497,2.0554 -0.62944,1.1316 -1.27086,2.5487 -1.42537,3.1491 -0.20854,0.8097 -0.32922,0.6902 -0.46783,-0.4627 -0.1473,-1.225 0.13164,-1.8922 1.31586,-3.1472 z m 58.92091,-1.4604 c 0.24893,-0.3032 0.70646,-0.5554 1.01683,-0.5605 0.31045,0 0.36066,0.2386 0.11174,0.5417 -0.24894,0.3031 -0.70647,0.5553 -1.01684,0.5604 -0.31044,0 -0.36064,-0.2385 -0.11173,-0.5416 z m -27.11133,-0.8889 c 0.0265,-0.1394 0.67051,-0.5306 1.43106,-0.8692 1.32789,-0.5912 1.33289,-0.5812 0.12615,0.2505 -1.32097,0.9105 -1.63654,1.0358 -1.55709,0.6186 z m 38.13902,-35.7253 c 3.16187,-2.5021 4.2665,-2.8402 3.23851,-0.9915 -0.63445,1.141 -4.16588,3.2097 -5.46565,3.2019 -0.30922,0 0.69317,-0.9967 2.22714,-2.2104 z m 20.19462,-1.5328 -1.35417,-0.5534 1.94802,-0.5793 c 2.2692,-0.675 2.2442,-0.6931 2.26006,1.6479 0.0113,1.6672 -0.0428,1.7339 -0.74375,0.9181 -0.41579,-0.4839 -1.36536,-1.1289 -2.11016,-1.4333 z m -13.33749,0.3453 c 1.0445,-0.6113 2.17867,-1.1178 2.52042,-1.1254 0.34181,-0.01 1.81565,-0.7691 3.27525,-1.6921 1.83854,-1.1626 2.60807,-1.4378 2.50488,-0.8958 -0.19923,1.0465 -2.01775,2.512 -3.20355,2.5817 -0.52518,0.031 -2.05698,0.5279 -3.40418,1.1034 -3.25312,1.3908 -4.04355,1.404 -1.69282,0.028 z"
           style="fill:#000000;stroke-width:0.55381" />
      </g>
    </g>
  </g>
</svg>
