<?xml version="1.0" encoding="UTF-8" standalone="no"?>
<svg
   xmlns:dc="http://purl.org/dc/elements/1.1/"
   xmlns:cc="http://creativecommons.org/ns#"
   xmlns:rdf="http://www.w3.org/1999/02/22-rdf-syntax-ns#"
   xmlns:svg="http://www.w3.org/2000/svg"
   xmlns="http://www.w3.org/2000/svg"
   xmlns:sodipodi="http://sodipodi.sourceforge.net/DTD/sodipodi-0.dtd"
   xmlns:inkscape="http://www.inkscape.org/namespaces/inkscape"
   sodipodi:docname="laserendeksel.2svg.svg"
   inkscape:version="1.0 (4035a4fb49, 2020-05-01)"
   id="svg943"
   version="1.1"
   viewBox="0 0 440 297"
   height="297mm"
   width="440mm">
  <defs
     id="defs937">
    <marker
       style="overflow:visible"
       refY="0"
       refX="0"
       orient="auto"
       id="DistanceX">
      <path
         id="path8819"
         style="stroke:#000000;stroke-width:0.5"
         d="M 3,-3 -3,3 M 0,-5 V 5" />
    </marker>
    <pattern
       y="0"
       x="0"
       height="8"
       width="8"
       patternUnits="userSpaceOnUse"
       id="Hatch">
      <path
         id="path8822"
         linecap="square"
         stroke-width="0.25"
         stroke="#000000"
         d="M8 4 l-4,4" />
      <path
         id="path8824"
         linecap="square"
         stroke-width="0.25"
         stroke="#000000"
         d="M6 2 l-4,4" />
      <path
         id="path8826"
         linecap="square"
         stroke-width="0.25"
         stroke="#000000"
         d="M4 0 l-4,4" />
    </pattern>
    <rect
       x="64.144684"
       y="65.213768"
       width="34.210499"
       height="11.759859"
       id="rect8778" />
    <marker
       style="overflow:visible"
       refY="0"
       refX="0"
       orient="auto"
       id="DistanceX-2">
      <path
         id="path8819-0"
         style="stroke:#000000;stroke-width:0.5"
         d="M 3,-3 -3,3 M 0,-5 V 5" />
    </marker>
    <pattern
       y="0"
       x="0"
       height="8"
       width="8"
       patternUnits="userSpaceOnUse"
       id="Hatch-3">
      <path
         id="path8822-7"
         linecap="square"
         stroke-width="0.25"
         stroke="#000000"
         d="M8 4 l-4,4" />
      <path
         id="path8824-9"
         linecap="square"
         stroke-width="0.25"
         stroke="#000000"
         d="M6 2 l-4,4" />
      <path
         id="path8826-0"
         linecap="square"
         stroke-width="0.25"
         stroke="#000000"
         d="M4 0 l-4,4" />
    </pattern>
    <rect
       x="64.144684"
       y="65.213768"
       width="34.210499"
       height="11.759859"
       id="rect8778-3" />
  </defs>
  <sodipodi:namedview
     inkscape:window-maximized="1"
     inkscape:window-y="-8"
     inkscape:window-x="-8"
     inkscape:window-height="705"
     inkscape:window-width="1366"
     showgrid="false"
     inkscape:document-rotation="0"
     inkscape:current-layer="g3051"
     inkscape:document-units="mm"
     inkscape:cy="200.27288"
     inkscape:cx="1075.8799"
     inkscape:zoom="0.7"
     inkscape:pageshadow="2"
     inkscape:pageopacity="0.0"
     borderopacity="1.0"
     bordercolor="#666666"
     pagecolor="#ffffff"
     id="base" />
  <metadata
     id="metadata940">
    <rdf:RDF>
      <cc:Work
         rdf:about="">
        <dc:format>image/svg+xml</dc:format>
        <dc:type
           rdf:resource="http://purl.org/dc/dcmitype/StillImage" />
        <dc:title></dc:title>
      </cc:Work>
    </rdf:RDF>
  </metadata>
  <g
     id="layer1"
     inkscape:groupmode="layer"
     inkscape:label="Laag 1">
    <g
       transform="matrix(0.26458333,0,0,0.26458333,103.46428,-238.61309)"
       id="g1559">
      <g
         inkscape:label="0"
         id="g1536" />
      <g
         id="g3051">
        <text
           xml:space="preserve"
           style="font-size:192px;line-height:1.25;font-family:'Trebuchet MS';-inkscape-font-specification:'Trebuchet MS';stroke-width:0.999999"
           x="1381.3573"
           y="296.66846"
           id="text6926"
           transform="rotate(90)"><tspan
             x="1381.3573"
             y="296.66846"
             style="stroke-width:0.999999"
             id="tspan6930"
             sodipodi:role="line" /></text>
        <text
           xml:space="preserve"
           style="font-size:26.6667px;line-height:1.25;font-family:'Trebuchet MS';-inkscape-font-specification:'Trebuchet MS';stroke-width:0.999999"
           x="824.02161"
           y="-158.47874"
           id="text6958"
           transform="rotate(90)"><tspan
             sodipodi:role="line"
             id="tspan6956"
             x="824.02161"
             y="-158.47874"
             style="stroke-width:0.999999" /></text>
        <text
           transform="matrix(0,3.7795276,-3.7795276,0,243.33157,644.21442)"
           xml:space="preserve"
           id="text8776"
           style="font-size:7.05556px;line-height:1.25;font-family:'Trebuchet MS';-inkscape-font-specification:'Trebuchet MS';white-space:pre;shape-inside:url(#rect8778);" />
        <path
           sodipodi:nodetypes="ccccccccccccccccccccc"
           d="m 253.6195,981.70316 h -34.88794 v 38.40004 h 11.33858 c -0.43683,100.9623 0,166.0304 0,263.9622 h -11.33858 v 37.7953 h 35.49267 v -11.3386 c 141.53813,2.3777 280.60403,0 383.16267,0 v 11.3386 h 34.888 v -38.4 h -11.3386 c 1.447,-103.9928 0,-166.0303 0,-263.9622 h 11.3386 v -37.79534 h -35.4927 v 11.3386 c -136.51294,-0.4111 -245.6396,0 -383.1627,0 z"
           style="fill:none;stroke:#ff0000;stroke-opacity:1"
           id="path1526" />
        <path
           d="m 293.50301,1075.0601 h 303.29114 v 11.1785 H 293.50301 Z"
           style="fill:none;stroke:#ff0000;stroke-width:0.770293;stroke-opacity:1"
           id="path1530" />
        <path
           style="fill:#000000;stroke-width:0.31217"
           d="m 352.91074,1199.6266 c -0.41821,-0.056 -1.27133,0.011 -1.89582,0.149 -1.34173,0.2961 -4.7282,-0.1514 -6.2798,-0.8299 -0.60331,-0.2638 -1.05698,-0.3914 -1.00815,-0.2836 0.0494,0.1077 -0.16912,0.012 -0.48431,-0.2129 -0.31522,-0.2248 -0.67008,-0.3051 -0.78859,-0.1782 -0.11853,0.1268 -0.28575,0.092 -0.37167,-0.077 -0.0859,-0.1691 -0.25832,-0.1981 -0.38314,-0.064 -0.12485,0.1335 -0.23797,0.06 -0.2517,-0.1646 -0.0136,-0.2241 -0.6371,-0.663 -1.38556,-0.9754 -0.74846,-0.3123 -1.43239,-0.7087 -1.51986,-0.8809 -0.0875,-0.1723 -0.68035,-0.5246 -1.31746,-0.7832 -1.40944,-0.5719 -5.37028,-3.3122 -5.68612,-3.9339 -0.41516,-0.8172 0.0926,-0.8297 2.99164,-0.073 5.68483,1.4836 7.01417,1.7608 7.68012,1.6011 0.37215,-0.089 0.86173,0.012 1.08798,0.2255 0.22626,0.2132 0.81059,0.4188 1.29856,0.4569 1.14624,0.089 4.95971,-1.3751 5.65996,-2.1736 0.28741,-0.3278 0.82231,-0.5863 1.1887,-0.5746 0.39442,0.013 0.79486,-0.2341 0.98182,-0.6047 0.17366,-0.3443 0.45902,-0.679 0.63414,-0.7438 0.17508,-0.065 0.48883,-0.1748 0.69721,-0.2443 0.20834,-0.069 0.25746,-0.3652 0.10915,-0.6571 -0.17326,-0.3411 -0.0316,-0.6232 0.39646,-0.7894 0.55386,-0.2147 0.57608,-0.4058 0.13208,-1.1326 -0.4439,-0.7267 -0.42361,-0.9008 0.11976,-1.0311 0.9897,-0.2372 1.61773,-0.9582 1.32931,-1.5259 -0.15513,-0.3054 0.0542,-0.7359 0.52659,-1.0831 0.78957,-0.5802 1.21207,-1.828 0.56653,-1.6732 -0.76841,0.1842 -0.60093,-0.6906 0.3269,-1.7071 1.09933,-1.2044 1.64966,-2.2653 1.00991,-1.9467 -0.91703,0.4566 -0.86356,-0.513 0.092,-1.6684 0.77304,-0.9348 0.89436,-1.2654 0.45401,-1.2375 -0.90606,0.057 -0.87956,-0.1857 0.21931,-2.0099 0.90301,-1.4991 0.92543,-1.6389 0.21255,-1.3259 -1.00711,0.4421 -1.06703,0.3023 -0.64025,-1.4944 0.19162,-0.8067 0.28333,-1.8601 0.20383,-2.3408 -0.14001,-0.8463 -0.17882,-0.8657 -1.22829,-0.6141 -0.59603,0.1429 -1.14906,0.1311 -1.22896,-0.026 -0.0799,-0.1572 0.16023,-0.9435 0.53363,-1.7473 0.37338,-0.8037 0.8945,-1.936 1.15801,-2.5162 l 0.47911,-1.0548 -1.37491,-0.3527 c -2.66756,-0.684 -2.20671,-1.2334 2.21099,-2.6358 1.45648,-0.4623 2.66958,-0.9651 2.69584,-1.1173 0.0263,-0.1521 -0.55007,-0.4912 -1.28081,-0.7536 -0.73075,-0.2623 -1.41307,-0.6432 -1.5163,-0.8464 -0.22775,-0.4483 0.0671,-0.625 3.33367,-1.998 1.40872,-0.5921 2.66256,-1.1849 2.7863,-1.3172 0.12379,-0.1324 -0.0557,-0.7934 -0.39877,-1.4687 -0.53501,-1.0532 -0.53127,-1.2914 0.0261,-1.6738 0.35743,-0.2452 1.61275,-0.5924 2.78949,-0.7715 2.38038,-0.3623 2.52634,-0.5735 1.62402,-2.3498 -0.55575,-1.094 0.0253,-1.467 2.09709,-1.3464 1.94458,0.1133 2.58095,-0.2712 2.01624,-1.2181 -0.80308,-1.3466 1.13428,-1.3924 5.8208,-0.1378 0.61007,0.1634 0.75207,0.1006 0.81005,-0.3586 0.1097,-0.8686 0.85989,-0.8573 3.34157,0.05 1.9917,0.7284 2.32236,0.7723 2.48271,0.3301 0.29538,-0.8145 0.8438,-0.7704 3.76262,0.3031 1.51534,0.5574 2.77529,0.8669 2.80593,0.6895 0.048,-0.2782 0.83232,0.2082 1.19562,0.7415 0.0663,0.097 0.25879,0.2373 0.4279,0.3113 0.42865,0.1874 -0.0916,-0.5023 -0.67784,-0.8987 -0.26524,-0.1793 0.68521,-0.095 2.11212,0.1876 1.42689,0.2826 2.68661,0.4916 2.79934,0.4646 0.11276,-0.027 -0.17379,-0.583 -0.63692,-1.2353 -0.74181,-1.0454 -0.7718,-1.2029 -0.2525,-1.3264 0.32403,-0.077 1.13008,-0.018 1.79105,0.1326 0.66101,0.1501 2.02022,0.4473 3.02049,0.6605 l 1.81867,0.3878 -0.55684,-0.7896 c -0.6416,-0.91 -0.36998,-1.0598 1.37871,-0.7605 1.29912,0.2225 1.28484,0.1167 -0.16109,-1.1943 -0.43515,-0.3945 -0.38717,-0.4689 0.32447,-0.503 0.4593,-0.022 1.1558,-0.01 1.54778,0.034 0.77046,0.08 0.87441,0.2834 -1.51755,-2.9637 -1.08511,-1.4734 -0.33022,-1.4165 3.42638,0.2581 5.62316,2.5067 13.6842,7.2787 22.37839,13.2475 3.82925,2.6289 3.95179,2.7988 5.00785,6.945 0.38688,1.5189 0.72459,2.8075 0.75048,2.8635 0.0256,0.056 -0.31442,0.097 -0.75627,0.09 -0.44184,-0.01 -1.10809,0.017 -1.48057,0.051 -2.32946,0.2138 -5.69209,0 -10.47244,-0.6579 -5.43213,-0.7506 -5.47663,-0.7511 -7.9708,-0.089 -3.47274,0.9218 -8.0653,1.1052 -12.83617,0.5128 l -3.93143,-0.4883 -1.23653,1.0849 -1.23654,1.0849 -2.30333,-0.2662 c -2.3004,-0.2658 -2.30523,-0.2649 -3.78014,0.6161 -0.81222,0.4852 -1.8805,1.181 -2.37393,1.5462 l -0.89709,0.664 1.31018,1.0643 1.31022,1.0644 0.67962,-0.9266 c 0.3738,-0.5096 1.08894,-1.0247 1.58918,-1.1446 0.91361,-0.2191 3.82006,0.081 4.36251,0.4507 0.40962,0.279 0.32697,1.8126 -0.10343,1.9187 -0.19648,0.048 -0.30561,0.3533 -0.24282,0.6775 0.14044,0.7256 -0.75643,0.9853 -1.62531,0.4707 -0.52587,-0.3115 -1.0334,-0.2704 -2.76389,0.2242 -2.01636,0.5763 -2.21058,0.5756 -3.98118,-0.013 -1.82014,-0.6054 -5.08048,-2.2462 -5.29247,-2.6635 -0.0587,-0.1155 0.45069,-0.761 1.13192,-1.4345 0.68123,-0.6735 1.54467,-1.7208 1.91876,-2.3274 l 0.68016,-1.1029 -0.83039,0.4583 c -1.37634,0.7596 -6.02924,4.8622 -5.32211,4.6927 0.89065,-0.2136 1.79706,-0.1204 1.96062,0.2016 0.074,0.1457 -0.12293,0.9762 -0.43765,1.8455 -0.31474,0.8693 -0.59263,1.8725 -0.61749,2.2293 -0.0414,0.5941 0.0276,0.6199 0.82262,0.3075 0.48823,-0.192 0.9318,-0.2152 1.01396,-0.053 0.0804,0.1582 0.47036,0.298 0.86664,0.3107 0.78478,0.025 1.36443,0.7495 0.72799,0.9098 -0.28432,0.072 -0.239,0.1364 0.1646,0.2345 0.93398,0.2273 0.50563,0.8308 -0.77308,1.0893 -0.95295,0.1927 -1.61324,0.6886 -3.12877,2.3501 -1.05652,1.1583 -2.30471,2.6592 -2.77378,3.3352 -0.46906,0.6761 -0.93555,1.2491 -1.03663,1.2733 -0.10108,0.024 -0.42357,-0.428 -0.71668,-1.0049 -0.35812,-0.705 -0.47367,-2.0367 -0.35232,-4.0603 l 0.18057,-3.0111 -0.96063,1.2133 c -0.52838,0.6673 -1.0864,1.6332 -1.24008,2.1464 -0.30997,1.0351 -2.87071,6.7821 -4.49222,10.0817 -1.02261,2.081 -2.45977,4.3814 -3.49729,5.5979 -0.2855,0.3348 -0.93368,1.1694 -1.44035,1.8548 -1.17931,1.5952 -3.87806,3.7907 -5.23749,4.2609 -3.23516,1.119 -5.73681,1.7783 -6.40751,1.6888 z m 0.86254,-1.1509 c 0.24615,-0.059 0.51915,0.034 0.60668,0.2059 0.10782,0.2123 0.61763,0.1472 1.58081,-0.202 1.98382,-0.7191 2.93663,-1.4428 2.80364,-2.1297 -0.14624,-0.7554 0.37758,-0.879 0.94848,-0.2237 0.60953,0.6996 0.77644,0.6097 2.06242,-1.1113 0.61773,-0.8268 1.30467,-1.5467 1.52657,-1.5999 0.26141,-0.063 0.20261,-0.492 -0.16697,-1.2195 -0.66713,-1.3133 -0.0111,-1.545 0.90857,-0.3209 0.567,0.7547 0.57777,0.7417 1.04282,-1.261 0.25847,-1.113 0.30933,-2.3397 0.11306,-2.7261 -0.55678,-1.096 0.4094,-1.0587 1.25411,0.048 l 0.73352,0.9613 0.19681,-1.053 c 0.12682,-0.6786 0.33479,-0.9592 0.58468,-0.7889 0.26898,0.1832 0.37859,0.1117 0.35769,-0.2332 -0.0177,-0.2906 -0.12449,-0.3964 -0.25712,-0.2545 -0.12481,0.1336 -0.26812,0.1619 -0.31844,0.063 -0.16951,-0.3337 0.17897,-2.0366 0.42903,-2.0965 0.13631,-0.033 0.12582,-0.2996 -0.0233,-0.5932 -0.38814,-0.764 0.13094,-1.1591 0.68597,-0.5221 0.25684,0.2948 0.58968,0.5066 0.73964,0.4706 0.4707,-0.1128 0.7268,-3.3722 0.32732,-4.1655 -0.24459,-0.4884 -0.2129,-0.7972 0.0927,-0.8705 0.30241,-0.072 0.61878,0.1586 0.87431,0.6386 0.37829,0.7106 0.39858,0.6886 0.36801,-0.3967 -0.0178,-0.6319 0.0946,-1.1793 0.24971,-1.2165 0.1552,-0.037 0.18789,-0.2533 0.0726,-0.4801 -0.1194,-0.2351 0.0744,-0.4806 0.45069,-0.5708 0.36309,-0.087 1.145,-0.981 1.73753,-1.9865 1.61562,-2.7416 4.19995,-5.0996 4.63991,-4.2336 0.0608,0.1198 -0.2673,0.9272 -0.72913,1.7942 -0.51474,0.9664 -0.85914,2.4169 -0.88982,3.7477 -0.0878,3.8053 -0.0964,3.801 2.17947,1.0973 1.11847,-1.3287 2.25641,-2.8163 2.5287,-3.3057 0.2723,-0.4894 0.34132,-0.6794 0.15342,-0.4223 -0.41211,0.5638 -1.02895,0.7489 -1.22299,0.3669 -0.28606,-0.5631 -0.0464,-2.9618 0.46606,-4.6643 0.29004,-0.9637 0.50118,-1.8036 0.46919,-1.8666 -0.032,-0.063 -0.53874,-0.043 -1.1261,0.045 -0.70901,0.1059 -1.18682,0.01 -1.42157,-0.3024 -0.27607,-0.3605 0.2744,-0.9833 2.50825,-2.8377 1.574,-1.3067 3.08052,-2.4282 3.34776,-2.4923 0.26729,-0.064 0.51097,-0.2614 0.54154,-0.4383 0.0305,-0.177 0.47368,-0.4221 0.98472,-0.5446 2.05406,-0.4925 1.30904,1.6511 -1.62821,4.6847 -0.47945,0.4952 -0.82495,0.9923 -0.76782,1.1048 0.23147,0.4556 5.29522,2.4641 5.9384,2.3553 2.88188,-0.4872 5.07888,-1.6152 3.75132,-1.9261 -0.32631,-0.076 -0.33245,-0.2053 -0.0201,-0.4211 0.24761,-0.1711 0.31527,-0.4031 0.15033,-0.5154 -0.47239,-0.3218 -0.91528,-0.1028 -0.68979,0.3411 0.26994,0.5314 -0.68991,1.4406 -1.17327,1.1114 -0.2249,-0.1532 -0.4728,-0.1069 -0.68724,0.1282 -0.18449,0.2023 -0.50057,0.4095 -0.70239,0.4605 -0.48388,0.1216 -2.46073,-1.2374 -3.22733,-2.2192 -0.6059,-0.776 -0.60425,-0.778 2.02032,-2.5311 1.4447,-0.9649 2.86,-1.8104 3.14513,-1.8788 0.28512,-0.068 1.43868,-0.013 2.56344,0.1241 l 2.04502,0.2482 1.70396,-1.6239 c 0.93718,-0.8932 1.88556,-1.5814 2.10757,-1.5294 0.22196,0.052 0.28266,-0.057 0.13512,-0.2423 -0.1477,-0.1853 0.0298,-0.456 0.39441,-0.6017 1.11578,-0.4457 1.12941,0.4201 0.0213,1.3526 l -1.02502,0.8625 2.84304,0.42 c 3.31876,0.4903 7.82463,0.4456 11.2577,-0.1116 l 2.42694,-0.3939 -3.18129,-0.6812 c -1.74971,-0.3746 -4.00891,-0.8191 -5.02042,-0.9876 -2.19778,-0.3663 -2.62091,-0.9302 -1.64616,-2.194 0.40981,-0.5314 0.61232,-0.6639 0.49411,-0.3233 -0.11019,0.3174 -0.122,0.6081 -0.0263,0.646 0.67713,0.2679 6.12915,0.9667 8.7178,1.1173 l 3.14229,0.1829 -2.60143,-2.5134 c -1.43079,-1.3824 -2.93712,-2.8237 -3.3474,-3.2029 -1.3038,-1.205 -1.24941,-1.3944 0.59328,-2.0647 0.94601,-0.3441 1.85932,-0.8531 2.02957,-1.131 0.27416,-0.4476 1.08379,-0.158 7.07832,2.5321 5.74188,2.5767 6.77912,3.136 6.83701,3.687 0.0375,0.3572 0.3986,1.4378 0.80233,2.4013 0.70344,1.6787 0.69901,1.7605 -0.1059,1.9574 -0.67127,0.1645 -0.25933,0.3187 2.05416,0.77 1.59179,0.3105 2.95403,0.4331 3.0272,0.2725 0.15977,-0.3505 -0.90682,-4.5703 -1.40122,-5.5435 -0.55193,-1.0865 -10.00636,-7.4691 -17.92473,-12.1007 -3.67211,-2.148 -11.15509,-5.639 -10.38717,-4.846 0.24468,0.2527 0.86715,1.0949 1.38333,1.8716 0.8544,1.2857 0.88609,1.4437 0.35373,1.7632 -0.42573,0.2556 -0.84327,0.2179 -1.5353,-0.1387 -0.86103,-0.4435 -0.82974,-0.3955 0.33231,0.51 1.84339,1.4362 1.63872,1.5879 -1.68309,1.2469 -0.58779,-0.06 -0.61664,0.013 -0.18342,0.4659 0.88855,0.9292 0.51657,1.2433 -1.06338,0.8977 -0.80302,-0.1756 -2.38149,-0.5058 -3.50769,-0.7336 l -2.04764,-0.4143 0.95759,1.4848 c 0.63226,0.9804 0.84156,1.5126 0.6161,1.5667 -0.18782,0.045 -0.49466,-0.023 -0.68188,-0.15 -0.18726,-0.1275 -0.43658,-0.129 -0.55415,-0.01 -0.11756,0.1257 -0.28399,0.09 -0.3699,-0.079 -0.0859,-0.1691 -0.25016,-0.2069 -0.36505,-0.084 -0.31989,0.3424 -1.38761,0.1738 -1.32159,-0.2085 0.0321,-0.1858 -0.0503,-0.2215 -0.18328,-0.079 -0.29408,0.3147 -3.87463,0.22 -3.93754,-0.1041 -0.0531,-0.2733 -4.56546,-1.9724 -4.97655,-1.8739 -0.15586,0.037 0.0252,0.3296 0.40243,0.6493 0.42108,0.357 1.41235,0.6563 2.5683,0.7754 1.0354,0.1066 1.83901,0.2805 1.7858,0.3863 -0.0532,0.1059 -0.72503,0.1267 -1.49289,0.046 -2.01598,-0.2109 -1.98354,-0.1254 0.16467,0.4342 2.00417,0.522 2.64467,0.8468 1.156,0.5862 -1.69593,-0.2968 -3.16025,-0.8018 -3.11329,-1.0737 0.0261,-0.1512 -0.15718,-0.3226 -0.40631,-0.3812 -0.24957,-0.058 -0.49128,0.094 -0.53705,0.3388 -0.0513,0.2742 -0.1472,0.3234 -0.24976,0.1281 -0.092,-0.1742 -1.09417,-0.338 -2.22806,-0.3638 -1.13391,-0.026 -2.3662,-0.1571 -2.73842,-0.2919 -0.37222,-0.1347 -1.19464,-0.1839 -1.82758,-0.1093 -0.63296,0.075 -2.21803,0.054 -3.52239,-0.046 l -2.37162,-0.1819 -1.31424,0.9494 c -0.72279,0.5221 -1.73924,1.4491 -2.25874,2.0598 -0.84088,0.9884 -1.19062,1.1624 -3.18717,1.5849 -1.23344,0.261 -2.27649,0.5421 -2.31797,0.6245 -0.0414,0.082 0.19032,0.7508 0.51503,1.4852 0.53868,1.2181 0.51948,1.3673 -0.21879,1.7025 -0.44508,0.202 -0.75053,0.4829 -0.67878,0.6241 0.0718,0.1413 -0.0486,0.2149 -0.2675,0.1636 -0.35039,-0.082 -3.3728,1.0889 -4.42177,1.7131 -0.27091,0.1611 0.0567,0.3879 1.0933,0.7568 1.43132,0.5094 1.47065,0.549 1.19412,1.2001 -0.22296,0.525 -0.84085,0.8459 -2.80422,1.4564 -1.38505,0.4307 -2.73888,0.9358 -3.00847,1.1223 -0.42337,0.2928 -0.2827,0.3858 1.03155,0.682 l 1.52179,0.343 -0.69238,1.2065 c -0.38079,0.6636 -0.63695,1.3157 -0.56924,1.449 0.0677,0.1333 -0.12294,0.7783 -0.42364,1.4334 -0.48464,1.0558 -0.47578,1.1553 0.0782,0.8759 1.22815,-0.6195 2.0606,1.4894 1.41939,3.5959 -0.30339,0.9966 -0.28348,1.0703 0.21767,0.8055 0.94844,-0.5013 1.10864,0.5681 0.30659,2.0461 -0.40694,0.7499 -0.59175,1.3279 -0.41066,1.2845 0.74762,-0.1792 0.69467,0.8209 -0.0953,1.7994 -0.61874,0.7665 -0.74252,1.226 -0.46047,1.7098 0.28862,0.495 0.13505,0.9952 -0.60965,1.9867 -0.57696,0.7681 -0.81353,1.3677 -0.56276,1.4265 0.54992,0.1287 0.0478,2.0393 -0.64529,2.4553 -0.27178,0.1631 -0.37721,0.5268 -0.2343,0.8081 0.16925,0.3332 -0.0973,0.7883 -0.76455,1.3054 -0.69187,0.5361 -0.90249,0.9087 -0.6488,1.1478 0.42189,0.3976 0.041,1.5788 -0.55507,1.7218 -0.21345,0.051 -0.33685,0.3577 -0.27426,0.6811 0.0626,0.3234 -0.11177,0.7232 -0.38749,0.8882 -0.27577,0.1651 -0.80685,0.5844 -1.18019,0.9318 -0.37334,0.3473 -0.97456,0.6347 -1.33608,0.6386 -0.3615,0.01 -0.8538,0.249 -1.09394,0.5445 -0.24018,0.2955 -1.49985,0.9407 -2.7993,1.4338 -2.01669,0.7653 -2.53939,0.8663 -3.57017,0.6898 -0.66417,-0.1136 -1.26882,-0.3272 -1.34367,-0.4746 -0.0748,-0.1473 -0.46863,-0.1882 -0.87505,-0.091 -0.40642,0.098 -1.38163,-0.017 -2.16715,-0.2546 -3.74628,-1.1324 -8.0807,-2.1075 -7.53859,-1.6958 1.17528,0.8923 3.9086,2.5917 5.03191,3.1285 0.63506,0.3034 1.46242,0.799 1.83858,1.1014 0.37616,0.3023 1.06329,0.5958 1.52701,0.6521 0.46372,0.056 0.91051,0.235 0.99289,0.3971 0.25505,0.5021 4.81385,2.046 6.64849,2.2516 0.95778,0.1073 2.36936,0.045 3.13689,-0.1394 0.89248,-0.214 1.46739,-0.2129 1.59501,0.01 0.15955,0.2702 0.19654,0.2613 0.18431,-0.044 -0.008,-0.21 0.18616,-0.4302 0.4323,-0.4892 z m 7.15451,-32.2525 c 0.18615,-0.2091 0.48065,-0.4142 0.65442,-0.4559 0.17375,-0.042 0.16356,0.095 -0.0226,0.3044 -0.18615,0.2091 -0.48065,0.4143 -0.65442,0.4559 -0.17377,0.042 -0.16355,-0.095 0.0226,-0.3044 z m -0.88053,-0.9362 c 0.29905,-1.2294 0.77107,-1.9038 0.68486,-0.9785 -0.0304,0.3266 -0.25467,0.9176 -0.49837,1.3135 l -0.44305,0.7196 z m 1.94966,0.2502 c -0.0302,-0.06 0.12831,-0.2347 0.35223,-0.3894 0.23343,-0.1613 0.38368,-0.1456 0.35218,0.037 -0.0528,0.3058 -0.59128,0.5753 -0.70441,0.3526 z m 2.62697,-1.3903 c 0.32382,-0.7844 0.45837,-0.9081 0.62679,-0.5766 0.0583,0.1149 -0.12695,0.4565 -0.4117,0.7593 -0.51596,0.5485 -0.51672,0.5479 -0.21502,-0.1827 z m 3.09464,-4.0991 c -0.0995,-0.2036 0.79922,-1.3113 2.33999,-2.8849 1.35135,-1.3802 0.9273,-0.5754 -0.67667,1.2842 -0.85874,0.9955 -1.60723,1.7159 -1.66332,1.6007 z m -4.68524,-0.4607 c 0.37019,-0.7881 0.72498,-1.4454 0.7884,-1.4607 0.33051,-0.079 -0.47351,2.0155 -0.92904,2.4204 -0.33823,0.3006 -0.28692,-0.05 0.14064,-0.9597 z m 7.9236,-4.0196 c 0.0997,-0.1511 0.22442,-0.424 0.27729,-0.6063 0.0548,-0.1892 0.20311,-0.1254 0.34538,0.1486 0.13904,0.2666 0.0154,0.536 -0.27728,0.6062 -0.28961,0.069 -0.44502,0 -0.34539,-0.1485 z m 1.28494,-0.5093 c 0.1151,-0.321 0.55223,-0.8733 0.97136,-1.2273 l 0.76209,-0.6437 -0.49807,0.7637 c -0.27397,0.4201 -0.71107,0.9724 -0.97139,1.2274 -0.43079,0.422 -0.45448,0.4112 -0.26399,-0.1201 z m -6.15489,1.0887 c -0.10636,-0.2094 0.39873,-1.0463 1.91886,-3.1796 0.41674,-0.5847 0.4831,-0.6144 0.32645,-0.1458 -0.30313,0.9067 -2.11264,3.5866 -2.24531,3.3254 z m 21.2627,-5.2172 c -0.17622,-0.12 -0.0987,-0.2713 0.1722,-0.3363 0.27091,-0.065 0.4297,-0.2418 0.35287,-0.393 -0.0768,-0.1513 -0.002,-0.308 0.16633,-0.3484 0.43566,-0.1044 0.43054,0.742 -0.006,1.0438 -0.20066,0.1387 -0.50896,0.1539 -0.68513,0.034 z m 3.20588,-1.3753 c -0.72736,-0.3328 -1.17935,-0.6394 -1.00444,-0.6814 0.36423,-0.087 2.50284,0.9364 2.39685,1.1473 -0.0385,0.077 -0.66507,-0.1331 -1.39241,-0.4659 z m 1.7444,0.2875 c -0.17575,-0.346 0.37891,-1.2483 0.68504,-1.1145 0.12082,0.053 0.0485,0.3891 -0.16059,0.7472 -0.20914,0.3582 -0.44512,0.5234 -0.52445,0.3673 z m -7.79402,0.7035 c -0.5442,-0.112 -0.84728,-0.2377 -0.67354,-0.2794 0.17377,-0.042 0.7612,0.016 1.30539,0.1279 0.54422,0.1119 0.84727,0.2377 0.67353,0.2793 -0.17377,0.042 -0.7612,-0.016 -1.30538,-0.1278 z m -10.41588,2.5189 c -0.0384,-0.076 0.14722,-0.338 0.4125,-0.5833 0.26531,-0.2451 0.5138,-0.3839 0.55221,-0.3083 0.0385,0.076 -0.14722,0.3381 -0.41252,0.5833 -0.26528,0.2452 -0.51378,0.384 -0.55219,0.3083 z m 5.15147,-1.7195 c -0.7554,-0.1439 -1.16016,-0.3128 -0.89953,-0.3753 0.26066,-0.062 1.09192,0.01 1.84729,0.1481 0.75539,0.144 1.16017,0.3129 0.89952,0.3754 -0.26063,0.062 -1.09193,-0.01 -1.84728,-0.1482 z m 9.44789,-4.4244 c -0.60166,-0.3647 -0.97271,-0.6921 -0.82458,-0.7276 0.14814,-0.035 0.70982,0.2462 1.24823,0.6261 0.53841,0.3798 0.90948,0.7073 0.82462,0.7276 -0.0849,0.02 -0.6466,-0.2614 -1.24827,-0.6261 z m -16.76255,4.3274 c -0.47395,-0.053 -0.5767,-0.1268 -0.27801,-0.1984 0.26063,-0.062 0.81225,-0.076 1.22581,-0.029 0.47393,0.053 0.57671,0.1268 0.27799,0.1984 -0.26063,0.062 -0.81224,0.075 -1.22579,0.029 z m -4.60287,0.3577 c -0.0836,-0.1647 1.43698,-1.7578 1.7492,-1.8326 0.14359,-0.034 -0.0636,0.3622 -0.4603,0.8815 -0.66881,0.8753 -1.14782,1.2288 -1.2889,0.9511 z m 12.02327,-2.8432 c -0.0258,-0.051 0.20416,-0.56 0.51103,-1.1316 0.32737,-0.6097 0.57083,-0.827 0.58912,-0.5258 0.0264,0.4359 -0.96325,1.9269 -1.10015,1.6574 z m -8.25516,1.2855 c 0.47247,-0.3611 0.95156,-0.6738 1.06464,-0.695 0.42117,-0.078 -0.99341,1.1308 -1.44919,1.239 -0.26087,0.062 -0.0876,-0.1829 0.38455,-0.544 z m 12.56362,-3.7923 c -0.80368,-0.1432 -1.49247,-0.3217 -1.5306,-0.3968 -0.0622,-0.1225 2.94881,0.2942 3.39912,0.4704 0.50904,0.1992 -0.57735,0.1564 -1.86852,-0.074 z m -24.15386,50.1719 c -0.21225,-0.1952 -0.25402,-0.1121 -0.10647,0.2118 0.13369,0.2932 0.29065,0.4378 0.34929,0.3212 0.0586,-0.1166 -0.0507,-0.3564 -0.24282,-0.533 z m 4.13493,-4.4037 c -0.18364,-0.168 -0.17683,0.01 0.0152,0.3819 0.19206,0.3781 0.34229,0.5156 0.33396,0.3055 -0.008,-0.21 -0.16557,-0.5193 -0.34921,-0.6874 z m 2.81535,-1.6701 c -0.0312,-0.061 -0.27961,-0.158 -0.55207,-0.2147 -0.27246,-0.057 -0.33996,-0.028 -0.14996,0.064 0.18996,0.092 0.18709,0.4003 -0.006,0.6849 -0.31571,0.4644 -0.2945,0.4692 0.20671,0.047 0.30721,-0.2586 0.53302,-0.5205 0.50185,-0.5818 z m 0.28564,-1.3418 c -0.1514,-0.066 -0.42885,-0.011 -0.61655,0.1234 -0.2074,0.1483 -0.0995,0.1955 0.27526,0.1204 0.33911,-0.068 0.49264,-0.1777 0.34129,-0.2438 z m -1.11038,-1.456 c -0.21225,-0.1952 -0.25405,-0.112 -0.10647,0.2119 0.13369,0.2931 0.29065,0.4376 0.34929,0.3211 0.0586,-0.1165 -0.0507,-0.3564 -0.24282,-0.533 z m 3.41356,-1.8734 c -0.11561,-0.2276 -0.79444,-0.2092 -0.83446,0.023 -0.026,0.1503 0.15981,0.2237 0.41277,0.1631 0.253,-0.061 0.44275,-0.1443 0.42169,-0.1857 z m -0.23193,-1.6319 c -0.2207,-0.536 -0.25773,-0.5546 -0.17439,-0.088 0.058,0.3254 -0.004,0.7325 -0.13747,0.9047 -0.16054,0.2068 -0.10138,0.2368 0.17439,0.088 0.22956,-0.1236 0.29141,-0.5307 0.13747,-0.9047 z m 2.2978,-2.763 c 0.0584,-0.6433 0.0334,-0.6626 -0.26946,-0.2061 -0.18363,0.2768 -0.27874,0.612 -0.21132,0.7447 0.21336,0.42 0.41408,0.1951 0.48078,-0.5386 z m -0.65417,-1.6746 c -0.21226,-0.1952 -0.25404,-0.1121 -0.10648,0.2119 0.13368,0.2931 0.29065,0.4376 0.34925,0.3211 0.0586,-0.1165 -0.0507,-0.3564 -0.24281,-0.533 z m 2.27758,-2.5253 c -0.15143,-0.066 -0.42885,-0.011 -0.61658,0.1234 -0.20741,0.1483 -0.0995,0.1954 0.27525,0.1204 0.33914,-0.068 0.49265,-0.1777 0.34133,-0.2438 z m 10.9211,-3.8063 c -0.10778,-0.2122 -1.13476,-0.1574 -1.17275,0.062 -0.023,0.1326 0.24202,0.1931 0.58868,0.1347 0.34666,-0.058 0.60953,-0.1471 0.58406,-0.1973 z m 46.23162,-12.9437 c -1.90934,-0.4199 -3.16285,-0.8614 -3.46325,-1.2198 -0.38121,-0.4548 -1.11768,-0.5768 -3.86969,-0.641 -3.91627,-0.091 -8.61255,-0.3499 -10.65609,-0.5865 -2.62224,-0.3035 -1.3129,0.076 3.32424,0.9626 7.76703,1.4856 15.81312,2.51 17.33538,2.2071 0.17709,-0.035 -1.02473,-0.3603 -2.67059,-0.7224 z m -46.29075,11.9552 c -0.42429,0.028 -0.82985,-0.064 -0.90133,-0.2046 -0.0715,-0.1407 -0.34322,-0.2047 -0.60388,-0.1422 -0.49334,0.1183 -0.4616,0.4754 0.0627,0.7047 0.16708,0.073 0.73355,0.011 1.25883,-0.1382 0.72968,-0.207 0.77304,-0.2589 0.18373,-0.2197 z m 46.73168,-14.5755 -0.50772,-0.9994 -0.28675,0.8814 c -0.15771,0.4849 -0.52426,0.9406 -0.81455,1.0128 -0.45553,0.1138 -0.44464,0.1522 0.0815,0.2842 0.33513,0.084 0.93013,0.078 1.32228,-0.013 0.60975,-0.1416 0.63931,-0.3113 0.20527,-1.1657 z m -2.10594,-1.4584 c -0.82444,-1.3495 -1.93232,-2.3631 -1.40246,-1.2832 0.21259,0.4343 0.11462,0.6666 -0.32717,0.7725 -0.71847,0.1722 -0.55756,0.6694 0.50945,1.574 0.50451,0.4277 0.92761,0.5487 1.34762,0.3854 0.53385,-0.2076 0.51758,-0.3929 -0.12744,-1.4487 z m -3.91147,1.1691 c -0.49849,-0.2622 -1.5069,-0.7651 -2.2409,-1.1177 -0.73398,-0.3525 -1.81703,-1.1339 -2.40677,-1.7364 -0.96744,-0.9883 -1.0084,-1.0051 -0.41913,-0.1723 0.46786,0.6612 0.5055,0.8271 0.13292,0.585 -0.70072,-0.4552 -1.18949,-1.4588 -1.11864,-2.2968 0.0785,-0.9291 0.37628,-1.2203 1.50356,-1.4705 0.82038,-0.1821 0.8831,-0.1573 0.44367,0.1757 -0.49548,0.3754 -0.48965,0.3831 0.18301,0.2428 0.38215,-0.08 0.99842,-0.1223 1.36949,-0.095 0.37109,0.028 -0.65823,-0.533 -2.28732,-1.2458 -1.62909,-0.7127 -3.05871,-1.1723 -3.17694,-1.0214 -0.11822,0.151 -0.95364,0.5471 -1.85651,0.8802 -0.90286,0.3332 -1.65955,0.6389 -1.68153,0.6795 -0.0411,0.076 4.64566,4.5286 6.39565,6.0764 0.81878,0.7242 1.283,0.875 2.8442,0.9236 2.51308,0.078 2.92003,0.089 3.08263,0.078 0.0764,-0.01 -0.26887,-0.2235 -0.76737,-0.4857 z m 1.45871,-0.2907 c -0.79566,-0.6042 -1.20116,-2.1616 -0.60034,-2.3057 0.6808,-0.1632 0.30988,-0.596 -1.45438,-1.6972 -2.07402,-1.2945 -3.28799,-1.4822 -3.80948,-0.5891 -0.20889,0.3578 -0.30666,0.7849 -0.21725,0.9493 0.0889,0.1645 0.19749,0.047 0.24013,-0.2596 0.0427,-0.3071 0.27698,-0.6062 0.52069,-0.6646 0.29812,-0.072 0.31228,0.1887 0.0433,0.7951 -0.38222,0.8616 -0.35913,0.9331 0.52315,1.6196 0.8354,0.65 4.95963,2.7379 5.26401,2.6649 0.0692,-0.017 -0.16028,-0.2473 -0.5098,-0.5127 z m 2.42246,-2.7576 c -0.59214,-0.3474 -1.10422,-0.625 -1.13794,-0.6169 -0.0336,0.01 0.36465,0.4331 0.88529,0.9445 0.52062,0.5113 1.09076,1.1728 1.26698,1.4698 0.23772,0.4006 0.28705,0.3198 0.19133,-0.3129 -0.1017,-0.6722 -0.35727,-0.9868 -1.20566,-1.4845 z m -33.06123,7.6539 c -0.18423,-0.1255 -0.4771,-0.1941 -0.65087,-0.1524 -0.17377,0.042 -0.16522,0.1784 0.019,0.3039 0.18424,0.1255 0.4771,0.1941 0.65087,0.1524 0.17378,-0.042 0.16523,-0.1784 -0.019,-0.3039 z m 14.9783,-4.3514 c -0.0357,-0.07 -0.45334,-0.1861 -0.92807,-0.2572 -0.82886,-0.1243 -0.83016,-0.1183 -0.0327,0.1512 0.87291,0.2949 1.06761,0.3163 0.96073,0.106 z m -26.61867,-13.5319 c -2.13781,-0.8775 -2.80426,-0.8992 -1.95388,-0.064 0.52482,0.5157 2.80361,1.11 3.52692,0.9198 0.17211,-0.045 -0.5359,-0.4305 -1.57304,-0.8562 z m -11.48632,2.0747 0.67177,-0.4879 -1.17272,-0.029 c -1.36612,-0.034 -1.35491,-0.047 -1.0125,1.1992 0.24382,0.8878 0.28402,0.9155 0.55231,0.3816 0.15916,-0.3167 0.59166,-0.7954 0.96114,-1.0637 z m 7.48604,-1.7248 c -0.67392,-0.1754 -1.3821,-0.2824 -1.57373,-0.2375 -0.19159,0.045 -1.12742,-0.149 -2.07948,-0.4308 -1.19922,-0.3549 -1.66946,-0.3911 -1.53061,-0.1177 0.26806,0.5277 1.50158,1.0465 2.17301,0.9139 0.29736,-0.059 1.22573,-0.014 2.06301,0.099 2.02194,0.2738 2.4645,0.1677 0.9478,-0.2273 z"
           id="path1416" />
        <path
           inkscape:transform-center-y="-5.5338106"
           inkscape:transform-center-x="-7.4097263"
           id="path1416-4"
           d="m 534.72018,1233.6246 c 0.42574,-0.1553 1.34821,-0.3 2.05004,-0.3212 1.5078,-0.046 4.95661,-1.2986 6.3954,-2.3228 0.55945,-0.3982 1.00126,-0.6304 0.98181,-0.516 -0.0201,0.1146 0.18251,-0.03 0.44877,-0.3207 0.26631,-0.2908 0.61774,-0.4538 0.78099,-0.3621 0.16325,0.092 0.32984,0.018 0.37023,-0.1639 0.0403,-0.1818 0.21411,-0.2514 0.38603,-0.1549 0.17197,0.097 0.26961,0 0.21712,-0.218 -0.0525,-0.2165 0.47598,-0.7862 1.17448,-1.2662 0.69851,-0.4798 1.30363,-1.0239 1.34475,-1.209 0.0411,-0.1852 0.56306,-0.6652 1.15983,-1.0667 1.32023,-0.8882 4.69198,-4.4619 4.84043,-5.1305 0.19514,-0.8787 -0.34568,-0.7666 -3.18658,0.661 -5.57078,2.7994 -6.89428,3.3876 -7.64645,3.3984 -0.42033,0.01 -0.90799,0.2219 -1.08361,0.4801 -0.17569,0.2581 -0.73244,0.5963 -1.23727,0.7517 -1.18587,0.365 -5.65739,-0.097 -6.63662,-0.6856 -0.40193,-0.2416 -1.04499,-0.357 -1.42908,-0.2564 -0.41347,0.1083 -0.91077,-0.029 -1.21921,-0.3354 -0.28653,-0.2851 -0.68835,-0.5339 -0.89298,-0.5528 -0.20457,-0.019 -0.56931,-0.047 -0.81049,-0.062 -0.24116,-0.015 -0.38142,-0.2845 -0.31171,-0.5984 0.0814,-0.3668 -0.15271,-0.6006 -0.65512,-0.6541 -0.65005,-0.069 -0.73061,-0.2453 -0.47797,-1.0452 0.25258,-0.7996 0.17914,-0.9602 -0.43457,-0.9515 -1.11784,0.016 -1.9975,-0.5165 -1.86192,-1.1269 0.0729,-0.3285 -0.27711,-0.6868 -0.88051,-0.9017 -1.00853,-0.3592 -1.8281,-1.443 -1.09898,-1.4533 0.86789,-0.012 0.42948,-0.8037 -0.85561,-1.5441 -1.52261,-0.8772 -2.42159,-1.752 -1.64968,-1.6052 1.10645,0.2104 0.76034,-0.6988 -0.59552,-1.5646 -1.09691,-0.7004 -1.32399,-0.9853 -0.84983,-1.0663 0.97563,-0.1667 0.87502,-0.3914 -0.83219,-1.8583 -1.40295,-1.2055 -1.46841,-1.3331 -0.62081,-1.2094 1.19743,0.1747 1.21904,0.027 0.23104,-1.5778 -0.44361,-0.7206 -0.85519,-1.7002 -0.91463,-2.1768 -0.10462,-0.8393 -0.0694,-0.8673 1.11597,-0.8842 0.67321,-0.01 1.25473,-0.1558 1.29219,-0.3252 0.0376,-0.1691 -0.45127,-0.8585 -1.08629,-1.5318 -0.63502,-0.6734 -1.52443,-1.6232 -1.97643,-2.1108 l -0.82185,-0.8864 1.34918,-0.6711 c 2.61766,-1.3021 1.96608,-1.7122 -3.12607,-1.9675 -1.67882,-0.084 -3.11229,-0.2662 -3.1855,-0.4045 -0.0733,-0.1384 0.4352,-0.6017 1.12989,-1.0296 0.6947,-0.428 1.30276,-0.957 1.35128,-1.1755 0.10706,-0.4821 -0.25759,-0.5781 -4.12324,-1.0865 -1.66708,-0.2193 -3.17049,-0.477 -3.34093,-0.5727 -0.17048,-0.096 -0.17798,-0.7683 -0.0167,-1.4944 0.25146,-1.1326 0.17637,-1.3582 -0.52749,-1.5858 -0.45135,-0.146 -1.88299,-0.1697 -3.18132,-0.053 -2.62633,0.2366 -2.84382,0.071 -2.41972,-1.8387 0.26122,-1.1764 -0.46483,-1.3893 -2.62052,-0.7687 -2.02331,0.5826 -2.81132,0.3722 -2.49667,-0.6664 0.44742,-1.477 -1.61576,-1.0476 -6.19881,1.2902 -0.59661,0.3043 -0.76559,0.2793 -0.96403,-0.1433 -0.37544,-0.7994 -1.16568,-0.6056 -3.52,0.8635 -1.88947,1.1792 -2.22615,1.3017 -2.52781,0.9203 -0.55573,-0.7027 -1.1227,-0.5268 -3.88986,1.207 -1.43661,0.9002 -2.67704,1.5023 -2.76244,1.341 -0.13388,-0.2529 -0.81831,0.4013 -1.04337,0.9973 -0.0412,0.1087 -0.20291,0.2889 -0.35971,0.4006 -0.39751,0.2828 -0.0531,-0.5002 0.4487,-1.0204 0.22703,-0.2354 -0.75321,0.077 -2.17833,0.6942 -1.42509,0.6171 -2.69528,1.1236 -2.82261,1.1254 -0.12735,0 0.01,-0.597 0.30487,-1.3306 0.47256,-1.1755 0.45726,-1.3327 -0.12897,-1.3234 -0.36583,0.01 -1.20075,0.2592 -1.8551,0.5635 -0.65445,0.3042 -2.00357,0.9188 -2.99804,1.3659 l -1.80813,0.8129 0.35326,-0.8871 c 0.40701,-1.0222 0.0749,-1.0984 -1.68558,-0.3867 -1.30789,0.5288 -1.32435,0.4247 -0.18624,-1.1755 0.3425,-0.4815 0.26954,-0.5405 -0.49347,-0.3992 -0.49246,0.091 -1.22467,0.2759 -1.62717,0.4103 -0.79105,0.2646 -0.84038,0.4832 0.72036,-3.1897 0.70791,-1.6665 -0.0737,-1.428 -3.5476,1.0822 -5.20004,3.7574 -12.30258,10.265 -19.71749,18.0656 -3.26581,3.4357 -3.3447,3.6273 -3.22373,7.8292 0.0443,1.5393 0.0719,2.8475 0.0612,2.907 -0.0103,0.059 0.36146,0.015 0.82698,-0.099 0.46545,-0.1141 1.17715,-0.2549 1.58139,-0.3133 2.52811,-0.3655 6.02151,-1.3899 10.88202,-3.1829 5.52237,-2.0404 5.5693,-2.0517 8.40551,-2.031 3.94899,0.029 8.86211,-0.918 13.73216,-2.6465 l 4.01316,-1.4244 1.63205,0.7301 1.63208,0.7301 2.35715,-0.8156 c 2.35417,-0.8146 2.35952,-0.8149 4.18289,-0.337 1.00412,0.2632 2.34199,0.6642 2.97304,0.8912 l 1.14729,0.4125 -1.06816,1.3324 -1.06819,1.3324 -0.99567,-0.7155 c -0.54762,-0.3935 -1.45795,-0.7088 -2.02296,-0.7008 -1.0319,0.015 -4.01688,1.0101 -4.48038,1.494 -0.35002,0.3654 0.1954,1.8041 0.68238,1.7999 0.22216,0 0.4288,0.2614 0.4592,0.5852 0.0681,0.7245 1.09443,0.7525 1.85992,0.051 0.46328,-0.4247 1.01247,-0.5095 2.9908,-0.4616 2.30514,0.056 2.51041,0.01 4.20764,-0.9846 1.7447,-1.0203 4.70375,-3.3772 4.8034,-3.8259 0.0276,-0.1242 -0.70404,-0.6139 -1.62582,-1.0882 -0.92178,-0.4743 -2.14795,-1.2598 -2.72483,-1.7454 l -1.04888,-0.8831 1.01532,0.2333 c 1.68281,0.3864 7.83015,3.1529 7.03145,3.1643 -1.00596,0.014 -1.93699,0.3243 -2.01386,0.6705 -0.0348,0.1567 0.42155,0.8986 1.01409,1.6487 0.59255,0.7501 1.1861,1.6365 1.31893,1.9698 0.22127,0.555 0.15595,0.5964 -0.7784,0.4934 -0.5738,-0.063 -1.04998,0.023 -1.08858,0.1967 -0.0378,0.1701 -0.40859,0.3984 -0.824,0.5072 -0.82264,0.2157 -1.21957,1.0462 -0.49845,1.0432 0.32222,0 0.29356,0.071 -0.1041,0.2632 -0.92014,0.4443 -0.28678,0.9138 1.14313,0.8475 1.06563,-0.049 1.91224,0.2611 4.01164,1.4715 1.46356,0.8439 3.23218,1.9668 3.93028,2.4953 0.69811,0.5287 1.36269,0.9598 1.47685,0.9581 0.11416,0 0.32029,-0.5105 0.45806,-1.1309 0.16831,-0.7581 -0.10712,-2.053 -0.83977,-3.9483 l -1.09023,-2.8202 1.37855,0.9196 c 0.75824,0.5058 1.63701,1.2884 1.95283,1.739 0.63699,0.9088 5.06213,5.7504 7.76284,8.4932 1.70322,1.7298 3.91051,3.5671 5.37135,4.471 0.402,0.2487 1.33692,0.8844 2.0776,1.4127 1.72391,1.2294 5.23448,2.6589 6.813,2.7742 3.75655,0.2746 6.59986,0.2909 7.28265,0.042 z m -1.25613,-0.8842 c -0.27804,0.01 -0.53918,0.1587 -0.58031,0.344 -0.0507,0.2283 -0.60944,0.2908 -1.73262,0.1939 -2.31337,-0.1997 -3.53746,-0.6556 -3.60188,-1.3414 -0.0709,-0.7542 -0.66192,-0.7439 -1.07016,0.019 -0.4359,0.8143 -0.63932,0.7695 -2.51368,-0.5536 -0.90036,-0.6356 -1.84204,-1.1527 -2.09266,-1.1491 -0.29526,0.01 -0.36126,-0.4185 -0.18754,-1.2008 0.31356,-1.4122 -0.44964,-1.4723 -1.05698,-0.083 -0.37444,0.8564 -0.38972,0.8466 -1.47975,-0.945 -0.6058,-0.9956 -1.02593,-2.15 -0.93367,-2.5654 0.2617,-1.1786 -0.74925,-0.9072 -1.31223,0.3523 l -0.48887,1.0935 -0.52268,-0.9536 c -0.33679,-0.6145 -0.64059,-0.8306 -0.8541,-0.6077 -0.22983,0.24 -0.36713,0.1988 -0.44802,-0.1345 -0.068,-0.2807 0.0133,-0.4074 0.19601,-0.3048 0.17193,0.097 0.33198,0.088 0.35564,-0.018 0.0797,-0.3588 -0.79749,-1.8936 -1.07992,-1.8895 -0.1539,0 -0.22257,-0.2543 -0.15252,-0.5699 0.18244,-0.8216 -0.48467,-1.0707 -0.8816,-0.3293 -0.18367,0.3432 -0.47252,0.6259 -0.6419,0.6283 -0.53163,0.01 -1.7759,-3.0303 -1.5902,-3.8825 0.1129,-0.5243 -0.0128,-0.8103 -0.35803,-0.8054 -0.34156,0.01 -0.60723,0.302 -0.7342,0.821 -0.18799,0.7683 -0.21602,0.7524 -0.50777,-0.2875 -0.16983,-0.6054 -0.45221,-1.0987 -0.62747,-1.0962 -0.17535,0 -0.27439,-0.1951 -0.22021,-0.439 0.0562,-0.2527 -0.22225,-0.4389 -0.64721,-0.4329 -0.41008,0.01 -1.50422,-0.6536 -2.43129,-1.4653 -2.52786,-2.2136 -5.96591,-3.8256 -6.17271,-2.8943 -0.0286,0.1288 0.55964,0.8167 1.30712,1.5287 0.83311,0.7935 1.6306,2.0892 2.06048,3.3477 1.22924,3.5983 1.23708,3.592 -1.97795,1.5759 -1.57998,-0.9908 -3.22799,-2.128 -3.66218,-2.527 -0.43422,-0.3991 -0.56399,-0.563 -0.28843,-0.3644 0.60435,0.4358 1.31215,0.4612 1.40335,0.051 0.13445,-0.6056 -0.83542,-2.8287 -1.88591,-4.3232 -0.5946,-0.8458 -1.06879,-1.5932 -1.05375,-1.661 0.0151,-0.068 0.55709,-0.1723 1.20474,-0.232 0.78166,-0.072 1.25715,-0.2845 1.41353,-0.6348 0.1844,-0.4103 -0.5839,-0.8683 -3.50081,-2.0869 -2.0553,-0.8586 -3.98394,-1.5577 -4.28578,-1.5534 -0.3019,0.01 -0.61858,-0.1238 -0.70377,-0.2846 -0.0851,-0.1609 -0.62712,-0.2859 -1.20432,-0.2776 -2.32001,0.033 -0.89175,1.8902 3.1214,4.0587 0.65506,0.3539 1.16901,0.7425 1.14216,0.8634 -0.10879,0.4899 -4.86582,3.6369 -5.5787,3.6905 -3.19415,0.2402 -5.85515,-0.2963 -4.54359,-0.9162 0.32237,-0.1523 0.29035,-0.2765 -0.10454,-0.4056 -0.31302,-0.1022 -0.45386,-0.3064 -0.31291,-0.4534 0.40363,-0.4215 0.93754,-0.3214 0.83155,0.156 -0.12688,0.5713 1.16006,1.2019 1.57307,0.7707 0.19216,-0.2007 0.46823,-0.2172 0.76529,-0.046 0.25558,0.1474 0.65184,0.2674 0.88057,0.2666 0.54817,0 2.23361,-1.7779 2.75139,-2.899 0.40923,-0.8861 0.40689,-0.8876 -2.89308,-1.9143 -1.81647,-0.5652 -3.56615,-1.0239 -3.8882,-1.0193 -0.32204,0.01 -1.52573,0.3392 -2.67476,0.7439 l -2.08924,0.7355 -2.28751,-1.1287 c -1.25815,-0.6208 -2.46693,-1.0439 -2.68627,-0.9403 -0.21936,0.1034 -0.31613,0.015 -0.2153,-0.1974 0.10094,-0.2123 -0.16774,-0.4265 -0.5969,-0.476 -1.31347,-0.1516 -1.06931,0.6753 0.38137,1.2917 l 1.34192,0.5703 -2.88215,1.0937 c -3.36442,1.2767 -8.1444,2.3344 -11.94257,2.6425 l -2.68502,0.218 3.16199,-1.4248 c 1.73909,-0.7835 3.99632,-1.7579 5.01605,-2.1653 2.21559,-0.885 2.4948,-1.5248 1.08623,-2.4889 -0.59219,-0.4054 -0.84599,-0.482 -0.61924,-0.1869 0.21136,0.275 0.31066,0.5486 0.22072,0.6081 -0.63633,0.4201 -6.19522,2.4161 -8.88869,3.1915 l -3.26952,0.9412 2.00142,-3.0261 c 1.10078,-1.6643 2.26388,-3.4031 2.58466,-3.864 1.0194,-1.4647 0.90531,-1.6315 -1.24418,-1.8192 -1.10353,-0.096 -2.22168,-0.3575 -2.48479,-0.5803 -0.42367,-0.3588 -1.19368,0.1143 -6.73181,4.137 -5.30472,3.853 -6.23496,4.6383 -6.13166,5.1766 0.067,0.3489 0.008,1.465 -0.13168,2.4801 -0.24286,1.7686 -0.21375,1.8453 0.69654,1.836 0.75926,-0.01 0.3695,0.2399 -1.9431,1.2341 -1.59119,0.684 -2.99564,1.1333 -3.12099,0.9984 -0.27372,-0.2945 -0.40552,-4.5689 -0.17314,-5.6154 0.25944,-1.1682 8.35503,-9.5481 15.34854,-15.8874 3.24319,-2.9398 10.11673,-8.0877 9.5412,-7.1458 -0.1834,0.3001 -0.59039,1.2532 -0.90449,2.1181 -0.51992,1.4316 -0.50627,1.5896 0.15234,1.7636 0.52667,0.1391 0.95711,0 1.58273,-0.5068 0.7784,-0.6322 0.75964,-0.5789 -0.19927,0.5662 -1.52117,1.8163 -1.25937,1.9106 2.15286,0.7751 0.60377,-0.201 0.65627,-0.138 0.33318,0.3985 -0.6625,1.1008 -0.1752,1.3087 1.39299,0.5943 0.79705,-0.3632 2.36828,-1.0627 3.49162,-1.5544 l 2.04241,-0.894 -0.56961,1.6461 c -0.37608,1.087 -0.43855,1.6444 -0.1839,1.6408 0.21217,-0.01 0.51655,-0.1422 0.67656,-0.3091 0.16001,-0.1671 0.42334,-0.2294 0.58457,-0.1406 0.16191,0.091 0.32742,0.017 0.3678,-0.1652 0.0403,-0.1818 0.20287,-0.2578 0.36111,-0.169 0.44064,0.2475 1.51982,-0.1735 1.3358,-0.5211 -0.0894,-0.1689 -0.0129,-0.2229 0.17022,-0.1201 0.40507,0.2275 4.16457,-0.7368 4.13432,-1.0605 -0.0255,-0.2729 4.24067,-2.991 4.70498,-2.9976 0.17605,0 0.0717,0.3196 -0.23183,0.7158 -0.33883,0.4425 -1.29811,0.9691 -2.48539,1.3647 -1.06349,0.3542 -1.86168,0.7158 -1.77379,0.8036 0.0879,0.088 0.80484,-0.057 1.5931,-0.3206 2.0697,-0.6927 2.06091,-0.6035 -0.0445,0.4533 -1.96428,0.9859 -2.54485,1.4513 -1.04783,0.8399 1.70542,-0.6965 3.10369,-1.5344 2.97283,-1.7815 -0.0728,-0.1375 0.0699,-0.3453 0.31599,-0.4618 0.24656,-0.1166 0.54777,-0.03 0.66931,0.1911 0.13614,0.2482 0.25227,0.2717 0.30244,0.061 0.0453,-0.1882 1.05656,-0.5887 2.24838,-0.89 1.1918,-0.3015 2.45622,-0.7272 2.80975,-0.9463 0.35352,-0.2191 1.20885,-0.4667 1.9007,-0.5502 0.69186,-0.084 2.3625,-0.4903 3.71244,-0.9041 l 2.45455,-0.7521 1.6738,0.5822 c 0.92055,0.3202 2.27264,0.9538 3.00457,1.4078 1.18473,0.735 1.60665,0.8151 3.84491,0.7295 1.38278,-0.053 2.57014,-0.04 2.63862,0.028 0.0685,0.068 0.0229,0.7607 -0.10134,1.5384 -0.20609,1.2903 -0.14122,1.4276 0.73986,1.5661 0.53118,0.084 0.93819,0.2762 0.90447,0.4281 -0.0337,0.1518 0.11559,0.1925 0.33184,0.09 0.34617,-0.1635 3.89315,0.2123 5.18922,0.5499 0.33469,0.087 0.0558,0.3828 -0.93057,0.9869 -1.36203,0.834 -1.39183,0.8812 -0.90485,1.4331 0.39264,0.4449 1.14212,0.5994 3.40143,0.7007 1.59384,0.072 3.17683,0.2214 3.51771,0.3329 0.53533,0.1752 0.41429,0.298 -0.88757,0.9007 l -1.50744,0.6978 1.09276,0.9787 c 0.60099,0.5383 1.0667,1.096 1.03488,1.2394 -0.0318,0.1432 0.36248,0.7103 0.8762,1.26 0.82799,0.886 0.84832,0.9828 0.17885,0.8523 -1.48422,-0.2894 -1.73509,1.9199 -0.42774,3.7671 0.61857,0.8739 0.61952,0.9489 0.0103,0.8193 -1.15301,-0.2452 -1.00314,0.8112 0.28669,2.0213 0.65441,0.6139 1.02255,1.1187 0.81801,1.1216 -0.84441,0.012 -0.48975,0.9504 0.63813,1.6884 0.88345,0.578 1.15162,0.9849 0.99772,1.514 -0.15752,0.5412 0.15433,0.9796 1.2382,1.7409 0.83974,0.5898 1.26905,1.1025 1.0213,1.2195 -0.54329,0.2568 0.55845,1.9516 1.41587,2.1781 0.33622,0.089 0.55636,0.409 0.48918,0.7115 -0.0795,0.3583 0.33834,0.7261 1.19862,1.055 0.89201,0.3411 1.22608,0.6441 1.02911,0.9335 -0.32758,0.4812 0.42805,1.5118 1.10136,1.5022 0.24108,-0.01 0.46315,0.258 0.49352,0.581 0.0304,0.323 0.3342,0.6606 0.67517,0.7503 0.34102,0.09 1.02806,0.3589 1.52673,0.5981 0.49866,0.2393 1.22052,0.3659 1.60412,0.2813 0.38406,-0.083 0.97755,0.028 1.31984,0.2508 0.34233,0.2225 1.86758,0.5287 3.38948,0.6804 2.36193,0.2356 2.94504,0.204 3.98278,-0.2155 0.66866,-0.2703 1.24453,-0.6211 1.27971,-0.7795 0.0352,-0.1585 0.43955,-0.2935 0.8986,-0.3 0.45904,-0.01 1.45649,-0.3536 2.21655,-0.7713 3.62492,-1.9919 7.919,-3.9778 7.46844,-3.4539 -0.97681,1.1358 -3.36085,3.4197 -4.38887,4.2046 -0.5812,0.4437 -1.30844,1.1172 -1.61608,1.4966 -0.30763,0.3795 -0.9469,0.8264 -1.42065,0.9932 -0.47375,0.1667 -0.89304,0.4459 -0.93175,0.6202 -0.11989,0.5398 -4.48147,3.1216 -6.36089,3.7652 -0.98116,0.3359 -2.49317,0.6209 -3.36007,0.6332 -1.00802,0.015 -1.61588,0.1559 -1.68567,0.3947 -0.0881,0.296 -0.12988,0.2966 -0.20813,0.01 -0.0538,-0.2019 -0.3254,-0.3638 -0.60342,-0.3599 z m -17.19995,-28.9329 c -0.25937,-0.1535 -0.63217,-0.2767 -0.82845,-0.2739 -0.19629,0 -0.14454,0.1306 0.11478,0.284 0.25937,0.1535 0.63218,0.2767 0.82845,0.2739 0.19631,0 0.14455,-0.1306 -0.11478,-0.284 z m 0.65189,-1.1056 c -0.68347,-1.0964 -1.3842,-1.6227 -1.01668,-0.7636 0.1297,0.3033 0.54344,0.8107 0.91944,1.1277 l 0.68361,0.5765 z m -1.98777,0.714 c 0.0142,-0.064 -0.2058,-0.1919 -0.48889,-0.2844 -0.29512,-0.096 -0.44936,-0.045 -0.36155,0.1211 0.14719,0.278 0.7973,0.4029 0.85047,0.1634 z m -3.19416,-0.681 c -0.57682,-0.6671 -0.7561,-0.752 -0.83526,-0.3955 -0.0274,0.1235 0.27063,0.4033 0.66229,0.6218 0.70961,0.3958 0.71022,0.395 0.17289,-0.2263 z m -4.49783,-3.1436 c 0.0445,-0.218 -1.23708,-1.0523 -3.33693,-2.1729 -1.84171,-0.9829 -1.15278,-0.3209 1.09932,1.0563 1.20574,0.7373 2.21267,1.2398 2.23761,1.1166 z m 4.81879,-1.5823 c -0.62696,-0.6593 -1.19856,-1.1979 -1.2702,-1.197 -0.37329,0.01 1.10276,1.8016 1.70558,2.0756 0.44758,0.2033 0.28873,-0.1173 -0.43538,-0.8786 z m -9.5825,-1.8889 c -0.15056,-0.1194 -0.36403,-0.3485 -0.47439,-0.509 -0.11451,-0.1666 -0.25232,-0.07 -0.32101,0.2256 -0.0674,0.2877 0.14378,0.5137 0.47437,0.509 0.32709,-0.01 0.47078,-0.1086 0.32103,-0.2256 z m -1.51138,-0.1706 c -0.21764,-0.2774 -0.84498,-0.696 -1.3941,-0.9304 l -0.9984,-0.4262 0.75495,0.6049 c 0.41526,0.3326 1.04259,0.7513 1.39413,0.9303 0.58175,0.2962 0.60358,0.2802 0.24342,-0.1786 z m 6.83618,-0.4673 c 0.05,-0.2252 -0.73426,-0.898 -2.9794,-2.556 -0.61546,-0.4545 -0.69454,-0.4666 -0.3889,-0.059 0.59144,0.7885 3.30598,2.8959 3.3683,2.6151 z m -24.05121,0.2289 c 0.15058,-0.1572 0.0233,-0.2822 -0.28259,-0.2779 -0.30598,0.01 -0.5268,-0.1251 -0.49067,-0.2877 0.0361,-0.1626 -0.0901,-0.2934 -0.27997,-0.2907 -0.49207,0.01 -0.23391,0.8108 0.31834,0.9913 0.25369,0.083 0.58439,0.022 0.73497,-0.1349 z m -3.80212,-0.5255 c 0.67009,-0.4941 1.05666,-0.8962 0.8591,-0.8934 -0.41137,0.01 -2.36807,1.5018 -2.19298,1.6766 0.0636,0.063 0.66384,-0.289 1.33388,-0.7832 z m -1.75951,0.6994 c 0.0826,-0.372 -0.7736,-1.0949 -1.05748,-0.8928 -0.11203,0.08 0.0649,0.3819 0.39302,0.6715 0.32819,0.2897 0.62717,0.3892 0.66446,0.2213 z m 8.45518,-1.2339 c 0.54225,-0.2394 0.82534,-0.433 0.6291,-0.4301 -0.19632,0 -0.80049,0.201 -1.34276,0.4403 -0.54228,0.2394 -0.82533,0.433 -0.6291,0.4301 0.19631,0 0.80048,-0.201 1.34276,-0.4403 z m 11.77089,-0.1471 c 0.0181,-0.081 -0.25669,-0.2856 -0.61054,-0.4541 -0.35389,-0.1684 -0.6582,-0.2398 -0.67625,-0.1584 -0.0181,0.081 0.2567,0.2856 0.61059,0.4541 0.35384,0.1684 0.65815,0.2397 0.6762,0.1584 z m -5.96308,-0.3778 c 0.75613,-0.3214 1.13387,-0.5809 0.8395,-0.5767 -0.29441,0.01 -1.15347,0.2718 -1.90997,0.592 -0.7561,0.3214 -1.13388,0.5809 -0.83947,0.5767 0.29437,-0.01 1.15347,-0.2719 1.90994,-0.592 z m -11.31591,-1.9018 c 0.52758,-0.4938 0.82232,-0.8959 0.65501,-0.8935 -0.16722,0 -0.67737,0.4076 -1.1335,0.9003 -0.45614,0.4928 -0.7509,0.8949 -0.65504,0.8936 0.0959,0 0.60595,-0.4065 1.13353,-0.9004 z m 19.02492,0.023 c 0.48544,-0.1665 0.57222,-0.2614 0.23485,-0.2566 -0.29437,0.01 -0.88179,0.1265 -1.3053,0.272 -0.48541,0.1665 -0.57221,0.2615 -0.23482,0.2567 0.29437,-0.01 0.88179,-0.1266 1.30527,-0.2721 z m 4.97606,-0.7837 c 0.0393,-0.177 -2.04505,-1.3212 -2.39769,-1.3161 -0.16209,0 0.17541,0.329 0.75017,0.7261 0.96892,0.6694 1.58119,0.8886 1.64752,0.59 z m -13.56813,0.2312 c 0.0122,-0.055 -0.3832,-0.4828 -0.87852,-0.9516 -0.52841,-0.5001 -0.85086,-0.6474 -0.78025,-0.3564 0.1022,0.4211 1.59444,1.5978 1.65877,1.308 z m 9.11679,-0.7929 c -0.60765,-0.2281 -1.20785,-0.4086 -1.33378,-0.4011 -0.469,0.028 1.38856,0.8331 1.90302,0.8247 0.2945,-0.01 0.0381,-0.1954 -0.56924,-0.4236 z m -14.42319,-0.5397 c 0.80743,-0.3324 1.48276,-0.6704 1.5007,-0.7511 0.0292,-0.1318 -3.03163,0.9998 -3.45538,1.2774 -0.47902,0.3137 0.65745,0.01 1.95468,-0.5263 z m 40.53426,41.8279 c 0.16626,-0.2375 0.23526,-0.1687 0.17591,0.1755 -0.0539,0.3115 -0.17676,0.4873 -0.27361,0.3907 -0.0968,-0.096 -0.0528,-0.3514 0.0977,-0.5662 z m -5.68926,-3.1794 c 0.14408,-0.2047 0.1887,-0.038 0.0979,0.367 -0.0903,0.4066 -0.20813,0.5741 -0.26207,0.3722 -0.0538,-0.2019 0.02,-0.5345 0.16415,-0.7392 z m -3.47704,-0.9012 c 0.0147,-0.066 0.24862,-0.2186 0.5199,-0.3391 0.2713,-0.1205 0.35142,-0.1092 0.17789,0.025 -0.17344,0.134 -0.0784,0.4265 0.21138,0.6499 0.47264,0.3646 0.45165,0.3744 -0.20455,0.095 -0.40219,-0.1709 -0.71925,-0.3648 -0.70461,-0.4308 z m -0.70286,-1.2067 c 0.1404,-0.1 0.45055,-0.1146 0.6891,-0.033 0.26367,0.09 0.1636,0.1616 -0.25524,0.1817 -0.379,0.019 -0.57423,-0.049 -0.43386,-0.1486 z m 0.73984,-1.6561 c 0.16626,-0.2375 0.2353,-0.1686 0.17591,0.1756 -0.0539,0.3114 -0.17677,0.4873 -0.2736,0.3908 -0.0968,-0.097 -0.0528,-0.3515 0.0977,-0.5664 z m -4.17054,-0.9485 c 0.0543,-0.2448 0.77796,-0.393 0.88948,-0.1823 0.0724,0.1367 -0.10223,0.2518 -0.38795,0.2559 -0.28575,0.01 -0.51145,-0.029 -0.50154,-0.074 z m -0.24197,-1.609 c 0.0734,-0.5638 0.107,-0.5905 0.15813,-0.1265 0.0358,0.3237 0.22302,0.6958 0.41559,0.8271 0.2316,0.1575 0.17797,0.2004 -0.15813,0.1265 -0.27976,-0.062 -0.46677,-0.4337 -0.41559,-0.8271 z m -3.25588,-2.0672 c -0.25397,-0.5977 -0.23316,-0.6221 0.2235,-0.2618 0.27693,0.2184 0.47763,0.514 0.44594,0.6567 -0.1003,0.4517 -0.37978,0.2868 -0.66944,-0.3949 z m 0.19195,-1.7527 c 0.16626,-0.2375 0.23525,-0.1687 0.1759,0.1756 -0.0539,0.3114 -0.17677,0.4872 -0.27357,0.3907 -0.0968,-0.097 -0.0528,-0.3514 0.0977,-0.5663 z m -3.16352,-1.8461 c 0.14043,-0.1 0.45054,-0.1146 0.68912,-0.033 0.26368,0.09 0.16357,0.1616 -0.25523,0.1817 -0.37905,0.019 -0.57423,-0.049 -0.4339,-0.1486 z m -12.68979,-0.9541 c 0.0507,-0.2281 1.15343,-0.4267 1.25929,-0.2268 0.0639,0.1205 -0.19836,0.2427 -0.58253,0.2718 -0.38416,0.029 -0.68874,0.01 -0.67677,-0.045 z m -52.77248,-1.0241 c 1.89442,-0.8657 3.08863,-1.5917 3.29939,-2.006 0.26747,-0.5257 1.01014,-0.8215 3.90223,-1.5546 4.11562,-1.0431 9.0065,-2.4357 11.09767,-3.1597 2.68335,-0.9291 1.41143,-0.2488 -3.22919,1.7272 -7.77288,3.3097 -15.97871,6.2488 -17.67954,6.3323 -0.19786,0.01 0.97643,-0.5929 2.60944,-1.3392 z m 52.53985,0.069 c 0.45723,-0.077 0.85879,-0.2634 0.89239,-0.4147 0.0336,-0.1513 0.30195,-0.2785 0.59635,-0.2827 0.55722,-0.01 0.63031,0.3395 0.14418,0.6857 -0.15494,0.1102 -0.77271,0.1895 -1.37296,0.1759 -0.83371,-0.018 -0.8951,-0.058 -0.25996,-0.1642 z m -53.78879,-2.4542 0.23863,-1.0748 0.56657,0.7685 c 0.31163,0.4227 0.83549,0.7667 1.16415,0.7646 0.51587,-0.01 0.5158,0.036 -0.001,0.2901 -0.32939,0.1619 -0.96062,0.3015 -1.40275,0.3103 -0.68732,0.014 -0.76925,-0.1399 -0.56524,-1.0587 z m 1.79227,-1.9016 c 0.46918,-1.485 1.33848,-2.7197 1.10045,-1.563 -0.0952,0.465 0.0778,0.662 0.5768,0.6549 0.81149,-0.011 0.78973,0.5006 -0.0689,1.6216 -0.40598,0.5301 -0.81743,0.7485 -1.31052,0.6957 -0.62675,-0.067 -0.66486,-0.2474 -0.29782,-1.4092 z m 4.487,0.1571 c 0.44903,-0.3712 1.36561,-1.0958 2.03678,-1.6105 0.6712,-0.5145 1.58359,-1.5222 2.02756,-2.2393 0.72828,-1.1763 0.76659,-1.2023 0.39191,-0.2663 -0.29749,0.7432 -0.28776,0.9103 0.0341,0.589 0.60532,-0.6042 0.82268,-1.6781 0.49749,-2.458 -0.3605,-0.8646 -0.76247,-1.0689 -2.02971,-1.0317 -0.92223,0.027 -0.98117,0.066 -0.41687,0.2755 0.63626,0.2361 0.6324,0.2449 -0.12109,0.2757 -0.42807,0.017 -1.09274,0.1274 -1.47704,0.2442 -0.38436,0.1168 0.53713,-0.6677 2.04765,-1.7435 1.51053,-1.0758 2.88563,-1.8621 3.05579,-1.7473 0.17015,0.1147 1.17221,0.2875 2.22681,0.3839 1.05459,0.096 1.94638,0.2026 1.98175,0.2358 0.0661,0.062 -3.56219,5.4421 -4.95123,7.3417 -0.6499,0.8888 -1.09597,1.1456 -2.73298,1.5731 -2.63512,0.6882 -3.06255,0.7973 -3.2377,0.827 -0.0825,0.014 0.2177,-0.2782 0.66675,-0.6493 z m -1.62996,0.08 c 0.66129,-0.769 0.62517,-2.3495 -0.0534,-2.3398 -0.76894,0.011 -0.50582,-0.4914 1.03172,-1.9696 1.80747,-1.7379 3.03566,-2.2128 3.85404,-1.4905 0.32783,0.2893 0.5588,0.6717 0.5133,0.8499 -0.0449,0.1782 -0.19478,0.093 -0.33156,-0.1883 -0.13683,-0.2817 -0.47404,-0.5091 -0.7493,-0.5051 -0.33672,0.01 -0.27401,0.2558 0.19166,0.767 0.66165,0.7262 0.65857,0.7999 -0.0698,1.6683 -0.68963,0.8223 -4.42904,3.8154 -4.77283,3.8203 -0.0782,0 0.0957,-0.2744 0.38619,-0.6122 z m -3.38614,-2.0316 c 0.52268,-0.4751 0.9815,-0.8641 1.01959,-0.8647 0.038,-3e-4 -0.25642,0.501 -0.65449,1.1145 -0.39805,0.6136 -0.80367,1.382 -0.90137,1.7076 -0.13188,0.439 -0.20819,0.3743 -0.29585,-0.2509 -0.0932,-0.6642 0.0832,-1.026 0.83212,-1.7065 z m 37.26023,-0.7919 c 0.15742,-0.1644 0.44675,-0.3012 0.64302,-0.3039 0.19632,0 0.22808,0.1294 0.0707,0.2937 -0.15742,0.1644 -0.44675,0.3011 -0.64302,0.3039 -0.19632,0 -0.22806,-0.1293 -0.0707,-0.2937 z m -17.14458,-0.482 c 0.0168,-0.076 0.42401,-0.2877 0.90497,-0.4713 0.83973,-0.3206 0.84289,-0.3151 0.0798,0.1358 -0.83535,0.4937 -1.03491,0.5617 -0.98466,0.3355 z m 24.11824,-19.3715 c 1.99949,-1.3567 2.69804,-1.5401 2.04796,-0.5376 -0.40121,0.6186 -2.63441,1.7404 -3.45635,1.7361 -0.19555,0 0.43834,-0.5404 1.40839,-1.1985 z m 12.77061,-0.8312 -0.85634,-0.3 1.23188,-0.3142 c 1.43499,-0.366 1.41918,-0.3758 1.42921,0.8936 0.007,0.904 -0.0271,0.9402 -0.47033,0.4978 -0.26293,-0.2624 -0.86342,-0.6121 -1.33442,-0.7772 z m -8.43432,0.1873 c 0.66052,-0.3315 1.37774,-0.6061 1.59386,-0.6103 0.21615,-0.01 1.14817,-0.417 2.07119,-0.9175 1.16265,-0.6304 1.64928,-0.7796 1.58403,-0.4857 -0.12599,0.5674 -1.27598,1.3621 -2.02585,1.3999 -0.33211,0.017 -1.30079,0.2862 -2.15273,0.5983 -2.0572,0.7541 -2.55705,0.7613 -1.0705,0.015 z"
           style="fill:#000000;stroke-width:0.324297" />
      </g>
    </g>
  </g>
</svg>
