<?xml version="1.0" encoding="UTF-8" standalone="no"?>
<svg
   xmlns:dc="http://purl.org/dc/elements/1.1/"
   xmlns:cc="http://creativecommons.org/ns#"
   xmlns:rdf="http://www.w3.org/1999/02/22-rdf-syntax-ns#"
   xmlns:svg="http://www.w3.org/2000/svg"
   xmlns="http://www.w3.org/2000/svg"
   xmlns:sodipodi="http://sodipodi.sourceforge.net/DTD/sodipodi-0.dtd"
   xmlns:inkscape="http://www.inkscape.org/namespaces/inkscape"
   width="210mm"
   height="297mm"
   viewBox="0 0 210 297"
   version="1.1"
   id="svg872"
   inkscape:version="1.0 (4035a4fb49, 2020-05-01)"
   sodipodi:docname="Projectbehuizingvooraan.svg">
  <defs
     id="defs866">
    <rect
       id="rect838"
       height="174.625"
       width="118.68452"
       y="102.05357"
       x="3.0238095" />
  </defs>
  <sodipodi:namedview
     id="base"
     pagecolor="#ffffff"
     bordercolor="#666666"
     borderopacity="1.0"
     inkscape:pageopacity="0.0"
     inkscape:pageshadow="2"
     inkscape:zoom="0.35"
     inkscape:cx="719.60267"
     inkscape:cy="560"
     inkscape:document-units="mm"
     inkscape:current-layer="layer1-1"
     inkscape:document-rotation="0"
     showgrid="false"
     inkscape:window-width="1350"
     inkscape:window-height="728"
     inkscape:window-x="0"
     inkscape:window-y="0"
     inkscape:window-maximized="0" />
  <metadata
     id="metadata869">
    <rdf:RDF>
      <cc:Work
         rdf:about="">
        <dc:format>image/svg+xml</dc:format>
        <dc:type
           rdf:resource="http://purl.org/dc/dcmitype/StillImage" />
        <dc:title></dc:title>
      </cc:Work>
    </rdf:RDF>
  </metadata>
  <g
     inkscape:label="Laag 1"
     inkscape:groupmode="layer"
     id="layer1">
    <g
       inkscape:label="Laag 1"
       id="layer1-1"
       transform="translate(2.9446805,-126.99534)">
      <path
         id="path1416"
         d="m 18.392163,176.70982 c -0.334735,-0.23917 -1.143187,-0.55642 -1.796559,-0.70501 -1.403799,-0.31925 -4.117534,-2.25143 -5.032283,-3.58298 -0.355685,-0.51775 -0.672246,-0.8404 -0.703465,-0.71697 -0.03114,0.12344 -0.159375,-0.0641 -0.284782,-0.41667 -0.125413,-0.35257 -0.386653,-0.58645 -0.5805317,-0.51978 -0.193881,0.0667 -0.319248,-0.0405 -0.278586,-0.23817 0.04067,-0.19771 -0.09315,-0.30198 -0.2973677,-0.23172 -0.204204,0.0702 -0.253905,-0.0503 -0.110532,-0.26743 0.143423,-0.21731 -0.108745,-0.90916 -0.5603627,-1.53741 -0.4516202,-0.62825 -0.7872467,-1.30701 -0.7458374,-1.50834 0.04141,-0.20134 -0.2434267,-0.79798 -0.6329722,-1.32583 -0.8617447,-1.16775 -2.4968722,-5.51758 -2.3473608,-6.24456 0.1965328,-0.9556 0.6585858,-0.74084 2.7224568,1.26533 4.0471267,3.93398 5.0419507,4.78813 5.7475157,4.93458 0.39429,0.0819 0.761111,0.39583 0.815153,0.69776 0.05403,0.30192 0.433192,0.75636 0.842553,1.00985 0.961587,0.59552 5.383951,0.91554 6.56363,0.47501 0.48419,-0.18082 1.141401,-0.18602 1.460474,-0.0118 0.343506,0.18777 0.872377,0.13383 1.296596,-0.13216 0.394057,-0.24714 0.881248,-0.43542 1.082648,-0.41846 0.201401,0.017 0.557905,0.0533 0.792218,0.0806 0.234337,0.0273 0.483483,-0.22954 0.553688,-0.57089 0.08202,-0.39882 0.404426,-0.6016 0.901969,-0.56727 0.643762,0.0444 0.796217,-0.12571 0.904219,-1.00896 0.107981,-0.88304 0.24685,-1.0381 0.822655,-0.91859 1.048622,0.21769 2.109919,-0.18188 2.246452,-0.84575 0.07344,-0.3571 0.559253,-0.66965 1.222105,-0.78623 1.107931,-0.19488 2.35143,-1.1828 1.667485,-1.32476 -0.814175,-0.16901 -0.05732,-0.91902 1.476946,-1.46358 1.817803,-0.64518 3.045719,-1.39988 2.253241,-1.38486 -1.135945,0.0215 -0.415144,-0.86876 1.240297,-1.53188 1.33924,-0.53647 1.677088,-0.79408 1.264477,-0.9642 -0.849007,-0.35 -0.656653,-0.56725 1.591022,-1.79698 1.847133,-1.01057 1.964186,-1.13236 1.110272,-1.15521 -1.206383,-0.0323 -1.162815,-0.19088 0.465518,-1.69436 0.731111,-0.67508 1.544207,-1.6272 1.806875,-2.11582 0.462486,-0.86033 0.441298,-0.89595 -0.670618,-1.12676 -0.631505,-0.13109 -1.117247,-0.38882 -1.079421,-0.57274 0.03782,-0.18391 0.798105,-0.81811 1.689505,-1.4093 0.891405,-0.59121 2.142796,-1.42628 2.780869,-1.85573 l 1.160133,-0.78078 -0.983167,-0.94558 c -1.907474,-1.83454 -1.114529,-2.14697 3.804322,-1.49889 1.621643,0.21373 3.054074,0.2807 3.183155,0.14898 0.129082,-0.13171 -0.150251,-0.70847 -0.620742,-1.28169 -0.470492,-0.57321 -0.815453,-1.2366 -0.766587,-1.4742 0.107815,-0.52425 0.49376,-0.55935 4.364137,-0.39688 1.669107,0.07 3.200373,0.0703 3.402807,7.6e-4 0.202432,-0.0697 0.500954,-0.77277 0.663362,-1.56244 0.253273,-1.2315 0.421937,-1.45438 1.185187,-1.56627 0.489445,-0.0717 1.851503,0.1608 3.026815,0.51667 2.377339,0.72001 2.654371,0.58597 3.081524,-1.49098 0.263087,-1.27922 1.040902,-1.37176 2.80745,-0.33405 1.65807,0.97397 2.493316,0.89531 2.646254,-0.2492 0.217498,-1.62764 1.979565,-0.80687 5.294073,2.46598 0.431495,0.42607 0.601904,0.43013 0.972389,0.0232 0.700942,-0.76996 1.363104,-0.42478 2.949514,1.53748 1.273177,1.57485 1.537941,1.76375 1.988069,1.41843 0.829283,-0.6362 1.288389,-0.34999 3.149942,1.96376 0.966452,1.20118 1.876805,2.05494 2.027352,1.90133 0.236027,-0.24087 0.598781,0.56749 0.552997,1.2323 -0.0084,0.12116 0.06641,0.33909 0.166131,0.48423 0.252709,0.36786 0.266842,-0.51432 0.01843,-1.14949 -0.1124,-0.28736 0.677838,0.21606 1.756043,1.11883 1.078209,0.9027 2.058115,1.66157 2.177556,1.68637 0.119442,0.0247 0.249422,-0.6271 0.28881,-1.44864 0.06318,-1.31633 0.145726,-1.47819 0.695218,-1.36302 0.342958,0.0718 1.021311,0.48757 1.507478,0.92378 0.486177,0.43623 1.493724,1.32263 2.239014,1.96976 l 1.35504,1.17663 0.0509,-0.99278 c 0.0586,-1.14397 0.40518,-1.16406 1.75912,-0.10201 1.00586,0.78899 1.06652,0.68295 0.68522,-1.19785 -0.11475,-0.56599 -0.0203,-0.61472 0.63896,-0.32952 0.42549,0.18405 1.03683,0.50921 1.35852,0.72255 0.63234,0.41935 0.5842,0.65715 0.70194,-3.47077 0.0537,-1.87296 0.68839,-1.4827 2.88087,1.77136 3.28188,4.87095 7.16853,12.96464 10.78984,22.46903 1.59495,4.1861 1.58643,4.40094 -0.34855,8.78072 -0.70887,1.6045 -1.30174,2.96989 -1.31748,3.03424 -0.0156,0.0642 -0.34787,-0.0492 -0.73802,-0.25231 -0.39012,-0.20313 -1.00094,-0.47879 -1.35734,-0.61268 -2.22879,-0.8373 -5.08524,-2.53611 -8.89599,-5.29065 -4.33033,-3.13011 -4.36973,-3.15043 -7.05677,-3.63865 -3.741322,-0.6797 -7.970137,-2.55495 -11.81962,-5.24115 l -3.172175,-2.21359 -1.857414,0.47131 -1.857424,0.47132 -1.872322,-1.27812 c -1.869921,-1.27644 -1.874808,-1.27788 -3.803596,-1.10503 -1.062205,0.0952 -2.499228,0.27472 -3.193394,0.39896 l -1.26212,0.2259 0.431268,1.58774 0.431261,1.58774 1.25019,-0.57045 c 0.687593,-0.31374 1.683825,-0.48042 2.213831,-0.3704 0.967998,0.20094 3.355246,1.78021 3.583189,2.37046 0.172142,0.44572 -0.966243,1.85468 -1.42426,1.76276 -0.208891,-0.0422 -0.518177,0.19676 -0.687203,0.53043 -0.378228,0.74668 -1.359461,0.5915 -1.778173,-0.28122 -0.253428,-0.5282 -0.735262,-0.71571 -2.624068,-1.0212 -2.200771,-0.35592 -2.373766,-0.4432 -3.54629,-1.788 -1.205303,-1.38244 -2.978066,-4.38328 -2.877712,-4.87123 0.02779,-0.13507 0.930786,-0.5165 2.006686,-0.84762 1.075903,-0.33112 2.574043,-0.93341 3.329218,-1.33846 l 1.373021,-0.7364 -1.05976,0.0618 c -1.756456,0.10236 -8.759744,1.89497 -8.010534,2.05049 0.943669,0.19588 1.68847,0.68799 1.611045,1.06447 -0.03505,0.17038 -0.787434,0.86549 -1.671978,1.54469 -0.884549,0.67919 -1.829061,1.50099 -2.098912,1.82619 -0.449439,0.54165 -0.40567,0.59682 0.521168,0.65681 0.5693,0.0368 0.981638,0.21221 0.942637,0.40185 -0.03804,0.18498 0.213197,0.49072 0.558316,0.6794 0.683445,0.37365 0.698256,1.31511 0.0186,1.18235 -0.303704,-0.0594 -0.308118,0.0219 -0.01584,0.29446 0.676362,0.63081 -0.125098,1.00879 -1.446588,0.68221 -0.984778,-0.24337 -1.918746,-0.0702 -4.425617,0.82024 -1.747587,0.6208 -3.90415,1.47906 -4.792365,1.90723 -0.888216,0.42818 -1.702559,0.76032 -1.809653,0.73809 -0.107088,-0.0222 -0.08118,-0.5924 0.05756,-1.26704 0.169534,-0.82435 0.990715,-2.13129 2.503785,-3.98489 l 2.251507,-2.75824 -1.70018,0.71545 c -0.935099,0.3935 -2.103956,1.05523 -2.597457,1.47051 -0.995304,0.83754 -7.271599,5.11345 -11.01023,7.50107 -2.357823,1.50577 -5.238178,3.03352 -7.009217,3.71771 -0.487367,0.18828 -1.645616,0.68609 -2.573881,1.10625 -2.16054,0.97791 -6.094777,1.84418 -7.635274,1.68121 -3.666009,-0.38787 -6.357852,-0.88194 -6.894683,-1.2655 z m 1.569215,-0.70038 c 0.260812,0.0542 0.440304,0.26327 0.398869,0.46474 -0.05104,0.24817 0.449495,0.4141 1.552039,0.51451 2.27086,0.20682 3.624204,-0.0505 3.982235,-0.75739 0.393804,-0.77744 0.947355,-0.66029 1.002425,0.2117 0.0587,0.93142 0.270193,0.92106 2.613421,-0.12798 1.12554,-0.50389 2.238779,-0.87624 2.473862,-0.82745 0.27696,0.0575 0.522472,-0.37342 0.697428,-1.22412 0.315813,-1.53558 1.06254,-1.46146 1.034162,0.10272 -0.0175,0.96436 0.0011,0.95691 1.806708,-0.72377 1.003411,-0.93399 1.9004,-2.0678 1.993316,-2.51959 0.26357,-1.28156 1.10049,-0.81546 1.08636,0.60502 l -0.01228,1.23347 0.906779,-0.90503 c 0.584227,-0.58307 0.964761,-0.75488 1.069772,-0.48297 0.113035,0.2927 0.260538,0.27422 0.481265,-0.0602 0.186025,-0.28189 0.16398,-0.42925 -0.05302,-0.35458 -0.204204,0.0702 -0.351826,0.0331 -0.327999,-0.0828 0.08025,-0.39019 1.573523,-1.84014 1.838482,-1.78514 0.144407,0.03 0.320314,-0.22632 0.390905,-0.56955 0.183745,-0.89343 0.921625,-1.03445 0.975079,-0.18635 0.02474,0.39245 0.174988,0.74054 0.333892,0.77353 0.498703,0.10355 2.989976,-2.85504 3.183858,-3.78105 0.119235,-0.56985 0.363251,-0.84651 0.687078,-0.7793 0.320407,0.0665 0.442538,0.42548 0.337506,0.99199 -0.155477,0.83854 -0.122004,0.8269 0.604021,-0.20986 0.422741,-0.60369 0.903134,-1.06968 1.067544,-1.03556 0.164413,0.0341 0.343565,-0.15497 0.398117,-0.42023 0.05653,-0.27484 0.400066,-0.41981 0.798692,-0.33707 0.384725,0.0798 1.703547,-0.41417 2.930709,-1.09786 3.346063,-1.86419 7.290906,-2.93467 7.082628,-1.92197 -0.02879,0.14 -0.88229,0.75486 -1.896648,1.3663 -1.130495,0.68146 -2.444928,1.89531 -3.396195,3.13629 -2.719875,3.54826 -2.724576,3.5403 1.18477,2.00641 1.921247,-0.75382 3.970111,-1.64872 4.55303,-1.98868 0.582918,-0.33997 0.776499,-0.48836 0.43018,-0.32977 -0.759445,0.34779 -1.438796,0.24718 -1.346947,-0.19941 0.135423,-0.65846 2.014505,-2.81289 3.654032,-4.18946 0.927956,-0.77913 1.699579,-1.47684 1.714724,-1.55047 0.01515,-0.0737 -0.451457,-0.28055 -1.036887,-0.45985 -0.706684,-0.21639 -1.062806,-0.52535 -1.059629,-0.91912 0.0038,-0.46294 0.927592,-0.80455 4.20988,-1.55661 2.312789,-0.52992 4.436764,-0.91541 4.719937,-0.85664 0.283173,0.0588 0.637705,-0.0184 0.787862,-0.17171 0.150149,-0.1532 0.715995,-0.18659 1.257434,-0.0742 2.17631,0.45177 0.02296,2.14036 -4.706067,3.69037 -0.771889,0.25297 -1.425559,0.56757 -1.452603,0.69907 -0.109567,0.53279 3.018571,4.68453 3.668471,4.86887 2.911948,0.8259 5.657075,0.74226 4.687253,-0.14285 -0.238394,-0.21757 -0.154369,-0.34189 0.274442,-0.40606 0.339901,-0.0507 0.561319,-0.23932 0.492018,-0.41876 -0.198522,-0.51404 -0.746068,-0.50512 -0.852816,0.014 -0.127785,0.62132 -1.61622,1.05046 -1.81933,0.52453 -0.09452,-0.24476 -0.348007,-0.31169 -0.702728,-0.18565 -0.305185,0.1085 -0.731346,0.1629 -0.947011,0.12096 -0.51649,-0.10119 -1.338649,-2.26399 -1.341755,-3.53144 -0.0024,-1.00176 4.35e-4,-1.00296 3.561295,-1.48516 1.960069,-0.26544 3.810933,-0.43131 4.113026,-0.36859 0.302096,0.0627 1.293585,0.62976 2.203294,1.26011 l 1.65404,1.14608 2.649036,-0.77105 c 1.456978,-0.42408 2.781727,-0.64996 2.943888,-0.50195 0.16218,0.14796 0.292323,0.0716 0.288877,-0.16817 -0.0033,-0.24049 0.343152,-0.41657 0.76987,-0.3913 1.305903,0.0774 0.717044,0.8997 -0.91986,1.28458 l -1.514196,0.35603 2.247516,1.66388 c 2.623604,1.94227 6.678719,3.9096 10.131516,4.91532 l 2.44092,0.71096 -2.36832,-2.06092 c -1.302574,-1.1335 -3.011706,-2.55999 -3.798072,-3.16999 -1.708562,-1.3254 -1.694975,-2.04579 0.05284,-2.80255 0.73483,-0.31816 1.00767,-0.35273 0.665667,-0.0844 -0.318741,0.2501 -0.531085,0.51889 -0.471867,0.5973 0.418771,0.55453 4.802822,3.64471 7.010102,4.94119 l 2.67936,1.57378 -0.57857,-3.52965 c -0.31823,-1.9413 -0.66301,-3.97186 -0.76619,-4.51234 -0.32787,-1.71753 -0.14788,-1.87174 1.96309,-1.68188 1.08373,0.0974 2.2527,0.0249 2.59769,-0.16116 0.55552,-0.29967 1.07757,0.33437 4.56382,5.54384 3.33932,4.98982 3.87738,5.97973 3.54663,6.52494 -0.21442,0.35351 -0.64209,1.53325 -0.95035,2.62166 -0.53704,1.89625 -0.59776,1.97137 -1.45327,1.79802 -0.7137,-0.14452 -0.45288,0.18485 1.30001,1.64203 1.20605,1.0026 2.33751,1.72574 2.51429,1.60702 0.38607,-0.25927 2.36268,-4.71307 2.59673,-5.85105 0.26128,-1.27044 -3.75176,-11.50393 -7.60835,-19.40178 -1.78848,-3.6626 -6.04804,-10.29094 -5.91273,-9.20084 0.0431,0.3473 0.0144,1.41891 -0.0638,2.38136 -0.12943,1.59311 -0.21079,1.7562 -0.90805,1.82002 -0.55758,0.051 -0.90431,-0.17071 -1.27488,-0.81541 -0.46109,-0.80215 -0.46646,-0.74295 -0.0572,0.62893 0.64929,2.1761 0.36126,2.22776 -2.36867,0.42486 -0.48305,-0.31902 -0.55969,-0.26279 -0.48727,0.35748 0.14856,1.27225 -0.40169,1.40245 -1.57283,0.37209 -0.59526,-0.5237 -1.77578,-1.53889 -2.623384,-2.25596 l -1.541104,-1.30377 -0.175501,1.82686 c -0.115882,1.20623 -0.298432,1.80134 -0.537315,1.75177 -0.198987,-0.0413 -0.42617,-0.2418 -0.504849,-0.44551 -0.07868,-0.20373 -0.300392,-0.31627 -0.492694,-0.25011 -0.192303,0.0661 -0.316384,-0.0414 -0.275717,-0.23919 0.04067,-0.1977 -0.07984,-0.30656 -0.267768,-0.24191 -0.523316,0.18007 -1.359896,-0.45499 -1.035487,-0.78602 0.157618,-0.16083 0.108733,-0.23123 -0.108687,-0.15644 -0.481094,0.16552 -3.613083,-1.52056 -3.444263,-1.85419 0.142358,-0.28135 -2.708145,-3.89554 -3.143707,-3.98596 -0.165119,-0.0342 -0.206227,0.32195 -0.09135,0.79159 0.128254,0.52433 0.805827,1.24852 1.755518,1.8763 0.850661,0.56229 1.447652,1.0846 1.326656,1.16068 -0.121004,0.0761 -0.735467,-0.20391 -1.365546,-0.62198 -1.654079,-1.0978 -1.684435,-1.00278 -0.154269,0.48279 1.427527,1.38591 1.774071,1.97776 0.625442,1.06823 -1.30855,-1.03618 -2.265733,-2.16529 -2.035096,-2.40065 0.128293,-0.13092 0.08403,-0.37418 -0.09825,-0.54058 -0.182332,-0.16641 -0.504008,-0.13042 -0.714826,0.08 -0.236097,0.23554 -0.355897,0.23916 -0.311932,0.009 0.03954,-0.20513 -0.742544,-0.80664 -1.737334,-1.3366 -0.994787,-0.52997 -2.004155,-1.20333 -2.24304,-1.49638 -0.238882,-0.29306 -0.939217,-0.7062 -1.556288,-0.91812 -0.617054,-0.21199 -2.018235,-0.93841 -3.113703,-1.61443 l -1.991741,-1.2292 -1.832749,0.30894 c -1.008011,0.16994 -2.559194,0.59046 -3.447072,0.93454 -1.437172,0.5569 -1.870268,0.56489 -3.946593,0.0728 -1.282744,-0.30401 -2.4095,-0.50378 -2.503687,-0.44497 -0.09428,0.0593 -0.35121,0.7927 -0.570937,1.62979 -0.364484,1.38858 -0.48523,1.52073 -1.377229,1.50745 -0.537759,-0.008 -1.005506,0.12057 -1.039476,0.28575 -0.03397,0.16516 -0.192591,0.1809 -0.352468,0.0348 -0.255957,-0.23361 -3.768036,-0.47765 -5.138103,-0.35703 -0.353777,0.031 -0.218638,0.39106 0.451015,1.20112 0.924674,1.11852 0.932361,1.17336 0.2334,1.66388 -0.563524,0.39549 -1.338108,0.42247 -3.515408,0.12249 -1.535942,-0.21165 -3.095557,-0.3393 -3.465803,-0.28373 -0.581377,0.0873 -0.520312,0.23768 0.44782,1.10304 l 1.120992,1.00199 -1.455904,0.82874 c -0.800744,0.45579 -1.482127,0.95625 -1.514182,1.11212 -0.03207,0.15586 -0.650081,0.67896 -1.373393,1.16243 -1.165741,0.77923 -1.226865,0.87697 -0.538158,0.8606 1.526856,-0.0363 0.806379,2.32309 -1.22848,4.02295 -0.962765,0.80427 -0.99615,0.88266 -0.364741,0.85649 1.194915,-0.0496 0.595698,1.03008 -1.146528,2.0657 -0.884004,0.5255 -1.45031,0.98803 -1.258456,1.02785 0.792119,0.16443 0.0506,1.08366 -1.334133,1.65388 -1.084674,0.44666 -1.514177,0.82466 -1.598104,1.40652 -0.08587,0.59533 -0.570275,0.99853 -1.923572,1.60109 -1.048501,0.46685 -1.675971,0.9266 -1.492787,1.09379 0.40174,0.36666 -1.372964,1.94396 -2.280723,2.02704 -0.355952,0.0326 -0.702541,0.32839 -0.770197,0.65735 -0.08013,0.38958 -0.634101,0.69976 -1.588943,0.88964 -0.990038,0.19686 -1.436807,0.45425 -1.376208,0.79277 0.100765,0.56299 -1.059303,1.50676 -1.690915,1.37565 -0.22615,-0.047 -0.549122,0.18696 -0.717721,0.51981 -0.16861,0.33283 -0.601807,0.63189 -0.962683,0.66455 -0.360868,0.0326 -1.126215,0.1911 -1.70075,0.35206 -0.574533,0.16095 -1.310991,0.16379 -1.636564,0.006 -0.325573,-0.15753 -0.935275,-0.14617 -1.354931,0.0254 -0.419634,0.17148 -1.992517,0.21798 -3.495301,0.10332 -2.332274,-0.17793 -2.869232,-0.31582 -3.66731,-0.94186 -0.514238,-0.40338 -0.905986,-0.87438 -0.870552,-1.04668 0.03543,-0.17229 -0.287889,-0.3864 -0.718501,-0.47578 -0.430608,-0.0894 -1.222047,-0.63229 -1.758754,-1.20644 -2.5596491,-2.73828 -5.7537659,-5.59056 -5.5553389,-4.96078 0.4301967,1.3654 1.6916406,4.18647 2.3222434,5.19344 0.3565169,0.5693 0.7513484,1.40555 0.8774014,1.85834 0.1260517,0.45278 0.5360527,1.03587 0.9111154,1.29573 0.3750607,0.25987 0.6500287,0.62761 0.6110347,0.81721 -0.120744,0.58709 2.878906,4.07566 4.374684,5.08769 0.780844,0.52832 2.085057,1.0987 2.898254,1.2675 0.945584,0.1963 1.458274,0.45377 1.422313,0.7143 -0.04497,0.32591 -0.0058,0.33402 0.19526,0.0405 0.138317,-0.20176 0.464879,-0.32255 0.725692,-0.2684 z m 28.778039,-27.21518 c 0.311411,-0.11406 0.716826,-0.17617 0.900928,-0.13796 0.184102,0.0383 0.07994,0.16281 -0.231465,0.27692 -0.311405,0.11406 -0.716822,0.17616 -0.900925,0.13794 -0.184102,-0.0383 -0.07994,-0.16282 0.231462,-0.2769 z m -0.136462,-1.27536 c 1.120459,-1.02561 2.010148,-1.45085 1.290844,-0.61699 -0.25386,0.29428 -0.864429,0.75147 -1.356824,1.01596 l -0.895257,0.48089 z m 1.5675,1.10543 c 0.01429,-0.0696 0.277476,-0.16401 0.584853,-0.21003 0.320475,-0.048 0.443732,0.0339 0.288985,0.19176 -0.259407,0.2647 -0.927392,0.27866 -0.873838,0.0183 z m 3.311168,-0.13916 c 0.833715,-0.59506 1.039753,-0.65175 0.960027,-0.26409 -0.02762,0.1343 -0.430262,0.3738 -0.894762,0.53224 -0.841545,0.28704 -0.841773,0.28607 -0.06526,-0.26815 z m 5.609227,-2.4843 c 0.05291,-0.23626 1.624027,-0.87985 4.092398,-1.67621 2.164925,-0.69845 1.227533,-0.12886 -1.495756,0.90888 -1.458,0.55559 -2.62649,0.9009 -2.596642,0.76733 z m -3.864453,-2.52385 c 0.877672,-0.57792 1.650767,-1.03934 1.717991,-1.02538 0.350183,0.0728 -1.821925,1.68884 -2.509806,1.86741 -0.510751,0.1326 -0.221979,-0.1745 0.791815,-0.84203 z m 9.866661,-0.25577 c 0.193897,-0.098 0.494709,-0.2996 0.668476,-0.4479 0.1803,-0.1539 0.268476,-0.0278 0.205351,0.29404 -0.06122,0.31341 -0.358362,0.5123 -0.668481,0.44793 -0.306835,-0.0637 -0.399254,-0.19598 -0.205346,-0.29407 z m 1.501042,0.0929 c 0.325647,-0.25133 1.099407,-0.57705 1.719467,-0.72386 l 1.127382,-0.26693 -0.97494,0.49785 c -0.536216,0.27379 -1.309976,0.59952 -1.71947,0.72385 -0.677687,0.20575 -0.691374,0.18501 -0.152439,-0.23091 z m -6.252545,-1.71854 c 0.05036,-0.24482 1.082421,-0.80857 3.920826,-2.14173 0.77808,-0.36545 0.857985,-0.36382 0.392829,0.008 -0.900108,0.71958 -4.376476,2.43911 -4.313647,2.13367 z m 22.610905,4.56396 c -0.07404,-0.19168 0.100237,-0.29979 0.387243,-0.24021 0.28702,0.0596 0.551609,-0.0364 0.587978,-0.21318 0.03638,-0.17684 0.212023,-0.29123 0.390349,-0.25422 0.461567,0.0958 -0.13053,0.89149 -0.730186,0.98124 -0.275456,0.0413 -0.561355,-0.082 -0.635384,-0.27363 z m 3.817783,0.13318 c -0.418584,-0.63812 -0.609406,-1.12874 -0.424063,-1.09026 0.385885,0.0801 1.585275,1.99888 1.344205,2.15044 -0.08748,0.0549 -0.501567,-0.42207 -0.920142,-1.06018 z m 1.358353,1.04897 c 0.08321,-0.40456 1.204907,-1.00786 1.385399,-0.74514 0.07118,0.10367 -0.226753,0.3884 -0.662111,0.63279 -0.435364,0.24437 -0.760839,0.29493 -0.723288,0.11229 z m -7.449046,-2.81266 c -0.408279,-0.34827 -0.591698,-0.60193 -0.407598,-0.56371 0.184101,0.0383 0.668782,0.35441 1.077062,0.70268 0.408278,0.34826 0.5917,0.60193 0.407597,0.56371 -0.1841,-0.0383 -0.668782,-0.35442 -1.077061,-0.70268 z m -11.050797,-2.27032 c 0.01819,-0.0884 0.36617,-0.25309 0.773304,-0.36594 0.407131,-0.11288 0.725363,-0.13283 0.70718,-0.0444 -0.01819,0.0884 -0.366171,0.25309 -0.773304,0.36594 -0.407134,0.11287 -0.725365,0.13284 -0.70718,0.0444 z m 5.794279,0.67631 c -0.574675,-0.47259 -0.818911,-0.81236 -0.542758,-0.75503 0.276151,0.0574 0.972278,0.49089 1.546953,0.96348 0.574667,0.47262 0.818911,0.81238 0.542757,0.75506 -0.276157,-0.0574 -0.972284,-0.4909 -1.546952,-0.96351 z m 11.509006,0.0424 c -0.284175,-0.61213 -0.38827,-1.08634 -0.231321,-1.05374 0.156944,0.0325 0.463016,0.5487 0.680169,1.14691 0.217155,0.59823 0.321243,1.07242 0.231321,1.05376 -0.08992,-0.0187 -0.395994,-0.5348 -0.680169,-1.14693 z m -17.974257,-3.39591 c -0.386152,-0.26177 -0.427017,-0.37675 -0.110543,-0.31105 0.276155,0.0574 0.777784,0.2911 1.114734,0.51951 0.386155,0.26176 0.427018,0.37675 0.110531,0.31106 -0.276154,-0.0574 -0.777784,-0.29111 -1.11473,-0.51952 z m -4.358955,-1.71561 c 0.03959,-0.19251 2.503464,-1.01625 2.834292,-0.94757 0.152117,0.0315 -0.308232,0.31315 -1.022996,0.62575 -1.204933,0.52695 -1.878081,0.64656 -1.811296,0.32182 z m 12.711299,2.6817 c 0.01223,-0.0594 0.571076,-0.43691 1.241906,-0.83892 0.715673,-0.42885 1.083938,-0.52516 0.891181,-0.23306 -0.278953,0.42272 -2.197892,1.38708 -2.133087,1.07198 z m -8.264803,-2.46969 c 0.672601,-0.12975 1.317531,-0.21089 1.43318,-0.18036 0.430698,0.11381 -1.672079,0.62294 -2.154235,0.52167 -0.276025,-0.058 0.04855,-0.21156 0.721055,-0.34131 z m 13.852786,2.02779 c -0.618387,-0.49338 -1.109569,-0.9689 -1.091515,-1.05669 0.02946,-0.14324 2.4293,1.59242 2.709143,1.95937 0.316332,0.4148 -0.624137,-0.11005 -1.617628,-0.90268 z M 26.49933,176.63322 c -0.0541,-0.27867 -0.149093,-0.21894 -0.242181,0.15226 -0.08425,0.33592 -0.04419,0.54225 0.08901,0.45849 0.133211,-0.0837 0.202128,-0.35859 0.153164,-0.61075 z m 6.74969,-2.3075 c -0.0474,-0.24032 -0.160558,-0.0753 -0.251492,0.36686 -0.09091,0.44207 -0.05213,0.63869 0.08618,0.43693 0.138321,-0.20178 0.212709,-0.56348 0.165312,-0.80379 z m 3.673687,-0.31894 c 0.01475,-0.0716 -0.140045,-0.27366 -0.344013,-0.44863 -0.203965,-0.17497 -0.284358,-0.17779 -0.178679,-0.006 0.105701,0.17155 -0.110837,0.46085 -0.481226,0.64282 -0.604283,0.29695 -0.58869,0.31098 0.151831,0.13666 0.453881,-0.10686 0.837317,-0.25293 0.852075,-0.32469 z m 1.186501,-1.1376 c -0.08926,-0.12993 -0.37562,-0.20126 -0.63634,-0.15862 -0.288142,0.0473 -0.224484,0.13985 0.162287,0.23623 0.349983,0.0873 0.563333,0.0521 0.474067,-0.0777 z m 0.01904,-1.86782 c -0.0541,-0.27867 -0.149094,-0.21894 -0.242181,0.15226 -0.08423,0.33593 -0.04417,0.54224 0.08901,0.4585 0.133212,-0.0837 0.202129,-0.3586 0.153153,-0.61076 z m 4.349003,-0.24379 c 0.05473,-0.2661 -0.564282,-0.5515 -0.76093,-0.35084 -0.127565,0.13016 -0.01264,0.28222 0.255418,0.33786 0.268052,0.0556 0.495554,0.0614 0.505517,0.013 z m 0.925649,-1.64188 c 0.174994,-0.60382 0.155016,-0.63785 -0.09452,-0.16097 -0.174052,0.33263 -0.511904,0.68886 -0.750774,0.79158 -0.286973,0.12344 -0.254905,0.17805 0.09452,0.16098 0.290874,-0.0142 0.628711,-0.37039 0.750778,-0.79159 z m 3.970121,-1.58011 c 0.4988,-0.58042 0.489706,-0.60974 -0.09756,-0.31445 -0.356213,0.17911 -0.673765,0.45262 -0.705679,0.60781 -0.101012,0.49112 0.234334,0.36864 0.803238,-0.29336 z m 0.578243,-1.87047 c -0.0541,-0.27867 -0.149087,-0.21894 -0.24218,0.15227 -0.08423,0.33591 -0.04417,0.54223 0.08901,0.45849 0.133212,-0.0837 0.202129,-0.35859 0.153152,-0.61076 z m 3.787032,-1.36502 c -0.08926,-0.12993 -0.375621,-0.20126 -0.636339,-0.15862 -0.288141,0.0473 -0.224489,0.13987 0.162285,0.23623 0.349983,0.0872 0.563334,0.0521 0.474065,-0.0777 z m 12.39563,1.28211 c 0.05102,-0.24809 -0.904189,-0.65443 -1.090788,-0.46403 -0.112437,0.11477 0.08209,0.28998 0.43225,0.3895 0.350148,0.0995 0.646511,0.13301 0.658545,0.0745 z m 50.273514,8.41528 c -1.41364,-1.24746 -2.22664,-2.22273 -2.24615,-2.69454 -0.0248,-0.59873 -0.59783,-1.04218 -3.01101,-2.33003 -3.4341,-1.8327 -7.44886,-4.17074 -9.10967,-5.30512 -2.131132,-1.45566 -1.224941,-0.51432 2.30067,2.38989 5.90529,4.86446 12.38,9.41852 13.94982,9.81176 0.18267,0.0452 -0.66508,-0.79665 -1.88366,-1.87196 z m -49.64016,-9.37354 c -0.398463,-0.16264 -0.696802,-0.4303 -0.662962,-0.59484 0.03384,-0.16452 -0.164421,-0.34605 -0.440573,-0.40337 -0.522709,-0.10851 -0.742304,0.2424 -0.433234,0.6923 0.09849,0.14334 0.647563,0.33739 1.220166,0.43114 0.795354,0.13025 0.870089,0.1007 0.316603,-0.12523 z m 51.85288,7.09988 0.24035,-1.16866 -0.86797,0.70313 c -0.4774,0.38672 -1.12111,0.6529 -1.43048,0.5915 -0.4858,-0.096 -0.50273,-0.0548 -0.12438,0.30429 0.24089,0.22875 0.77643,0.48847 1.19013,0.57716 0.64286,0.13827 0.78701,-0.008 0.99248,-1.0074 z m -0.86837,-2.31415 c 0.20047,-1.63989 -0.0853,-3.08956 -0.3618,-1.83511 -0.11212,0.50413 -0.36032,0.6795 -0.82841,0.58233 -0.76122,-0.15801 -0.96261,0.3824 -0.63761,1.71106 0.15367,0.62822 0.44754,0.93098 0.93598,0.96437 0.62092,0.0423 0.73499,-0.1396 0.89184,-1.42265 z m -4.30484,-0.64216 c -0.26318,-0.46949 -0.81462,-1.39339 -1.2254,-2.05312 -0.41078,-0.6597 -0.83563,-1.87934 -0.94412,-2.71028 -0.17796,-1.36317 -0.20286,-1.39731 -0.25468,-0.34942 -0.0411,0.83198 -0.12272,1.00525 -0.28742,0.61084 -0.30976,-0.74171 -0.0496,-1.90578 0.5953,-2.66423 0.71502,-0.84081 1.1831,-0.98258 2.36359,-0.71579 0.85906,0.19413 0.89784,0.24558 0.27427,0.36349 -0.70312,0.13297 -0.70328,0.14288 -0.005,0.31061 0.39663,0.0952 0.97661,0.32992 1.28886,0.52139 0.31225,0.19152 -0.21784,-0.79607 -1.17797,-2.19457 -0.96014,-1.39847 -1.91784,-2.46934 -2.12823,-2.37973 -0.2104,0.0896 -1.23147,0.0905 -2.26904,0.003 -1.03756,-0.0885 -1.9256,-0.13781 -1.97339,-0.10934 -0.0893,0.0532 1.0054,6.34109 1.49382,8.58078 0.22852,1.04791 0.53846,1.39705 1.89895,2.13918 2.19,1.19461 2.54628,1.38583 2.69877,1.44844 0.0717,0.0294 -0.085,-0.33059 -0.34817,-0.80009 z m 1.50458,0.37646 c -0.29123,-0.92436 0.42771,-2.57349 1.06433,-2.44135 0.72133,0.14974 0.69052,-0.42375 -0.12072,-2.24869 -0.95366,-2.14533 -1.90754,-2.86368 -2.99326,-2.25425 -0.43491,0.24414 -0.81875,0.60325 -0.85299,0.79805 -0.0346,0.19471 0.14339,0.13286 0.39468,-0.13766 0.2513,-0.2705 0.66818,-0.44796 0.92639,-0.39437 0.31586,0.0656 0.14788,0.31718 -0.51334,0.76894 -0.93945,0.64184 -0.96845,0.7195 -0.65703,1.76016 0.29489,0.98532 2.5288,4.79298 2.85129,4.85993 0.0734,0.0152 0.0286,-0.30462 -0.0994,-0.71076 z m 4.07765,-1.51935 c -0.28769,-0.59156 -0.55234,-1.08163 -0.58807,-1.08905 -0.0357,-0.008 0.0251,0.57092 0.13504,1.2852 0.11001,0.71427 0.16004,1.59209 0.11118,1.95074 -0.0658,0.48361 0.0344,0.42946 0.38807,-0.20966 0.37576,-0.67904 0.36597,-1.0897 -0.0462,-1.93723 z m -34.839398,-7.52855 c -0.07742,-0.20045 -0.291382,-0.39572 -0.475483,-0.43394 -0.184101,-0.0383 -0.271393,0.0945 -0.193979,0.29496 0.07742,0.20045 0.291379,0.39573 0.475479,0.43395 0.184102,0.0383 0.271395,-0.0946 0.193983,-0.29497 z m 16.397467,2.57751 c 0.0169,-0.082 -0.27575,-0.37755 -0.650327,-0.65634 -0.653997,-0.48677 -0.65931,-0.4817 -0.134124,0.12798 0.574851,0.66731 0.733841,0.7744 0.784441,0.52836 z M 84.207907,138.04541 c -1.300123,-1.78063 -1.880245,-2.09831 -1.700795,-0.93136 0.110755,0.72021 1.733358,2.29675 2.511319,2.44006 0.184815,0.0347 -0.179779,-0.64485 -0.810524,-1.5087 z m -11.698362,-3.16664 0.938637,-0.1604 -1.027068,-0.55052 c -1.196471,-0.64129 -1.177213,-0.64882 -1.736742,0.67908 -0.398455,0.94565 -0.381844,0.98971 0.228414,0.60602 0.361962,-0.22758 1.080505,-0.48595 1.596759,-0.57418 z m 7.882895,1.71255 c -0.480047,-0.466 -1.038305,-0.88261 -1.240572,-0.92581 -0.202269,-0.0432 -0.90342,-0.64324 -1.558116,-1.33348 -0.824651,-0.86937 -1.21951,-1.11319 -1.285239,-0.79359 -0.126899,0.61702 0.614627,1.65621 1.306284,1.83065 0.306318,0.0774 1.104383,0.53347 1.773448,1.01378 1.615662,1.15983 2.084563,1.25716 1.004195,0.20845 z"
         style="fill:#000000;stroke-width:0.334987" />
      <text
         id="text834"
         y="153.45833"
         x="182.94048"
         style="font-size:25.4px;line-height:1.25;font-family:'Microsoft Himalaya';-inkscape-font-specification:'Microsoft Himalaya';stroke-width:0.264583"
         xml:space="preserve"><tspan
           style="font-size:25.4px;stroke-width:0.264583"
           y="153.45833"
           x="182.94048"
           id="tspan832"
           sodipodi:role="line" /></text>
      <text
         style="font-size:12.7px;line-height:1.25;font-family:'Microsoft Himalaya';-inkscape-font-specification:'Microsoft Himalaya';white-space:pre;shape-inside:url(#rect838);"
         id="text836"
         xml:space="preserve" />
      <rect
         style="fill:none;stroke:#ff0000;stroke-width:0.462637"
         id="rect1461"
         width="131.57309"
         height="55.97784"
         x="-3.7193139"
         y="127.7326" />
    </g>
  </g>
</svg>
