<?xml version="1.0" encoding="UTF-8" standalone="no"?>
<svg
   xmlns:dc="http://purl.org/dc/elements/1.1/"
   xmlns:cc="http://creativecommons.org/ns#"
   xmlns:rdf="http://www.w3.org/1999/02/22-rdf-syntax-ns#"
   xmlns:svg="http://www.w3.org/2000/svg"
   xmlns="http://www.w3.org/2000/svg"
   xmlns:sodipodi="http://sodipodi.sourceforge.net/DTD/sodipodi-0.dtd"
   xmlns:inkscape="http://www.inkscape.org/namespaces/inkscape"
   sodipodi:docname="project1.svg"
   inkscape:version="1.0 (4035a4fb49, 2020-05-01)"
   id="svg2154"
   version="1.1"
   viewBox="0 0 210 297"
   height="297mm"
   width="210mm">
  <defs
     id="defs2148">
    <rect
       x="3.0238095"
       y="102.05357"
       width="118.68452"
       height="174.625"
       id="rect838" />
  </defs>
  <sodipodi:namedview
     inkscape:window-maximized="0"
     inkscape:window-y="0"
     inkscape:window-x="0"
     inkscape:window-height="728"
     inkscape:window-width="1350"
     showgrid="false"
     inkscape:document-rotation="0"
     inkscape:current-layer="layer1"
     inkscape:document-units="mm"
     inkscape:cy="445.71429"
     inkscape:cx="697.07929"
     inkscape:zoom="0.35"
     inkscape:pageshadow="2"
     inkscape:pageopacity="0.0"
     borderopacity="1.0"
     bordercolor="#666666"
     pagecolor="#ffffff"
     id="base" />
  <metadata
     id="metadata2151">
    <rdf:RDF>
      <cc:Work
         rdf:about="">
        <dc:format>image/svg+xml</dc:format>
        <dc:type
           rdf:resource="http://purl.org/dc/dcmitype/StillImage" />
        <dc:title />
      </cc:Work>
    </rdf:RDF>
  </metadata>
  <g
     id="layer1"
     inkscape:groupmode="layer"
     inkscape:label="Laag 1">
    <path
       style="fill:#000000;stroke-width:0.516772"
       d="m 32.93786,227.62158 c -0.569162,-0.26124 -1.864408,-0.49129 -2.878327,-0.51125 -2.178447,-0.0429 -6.79063,-2.1503 -8.552713,-3.90797 -0.685159,-0.68345 -1.252826,-1.079 -1.261479,-0.87901 -0.0086,0.2 -0.255803,-0.0478 -0.549219,-0.55044 -0.293419,-0.50273 -0.752016,-0.77934 -1.019106,-0.6147 -0.26709,0.16464 -0.485619,0.0398 -0.485619,-0.27767 0,-0.31736 -0.230172,-0.43514 -0.511494,-0.26171 -0.281321,0.17342 -0.391748,0.004 -0.245394,-0.37639 0.146357,-0.38042 -0.438409,-1.36497 -1.299477,-2.18786 -0.861065,-0.82288 -1.565575,-1.76061 -1.565575,-2.08382 0,-0.32322 -0.604175,-1.15073 -1.34261,-1.83892 -1.633558,-1.52239 -5.3838461,-7.69665 -5.3838461,-8.86366 0,-1.53401 0.7504643,-1.35105 4.4217931,1.078 7.199248,4.76319 8.934482,5.76024 10.025127,5.76024 0.609483,0 1.249018,0.36616 1.421191,0.81372 0.172171,0.44755 0.872809,1.02601 1.556972,1.28548 1.607106,0.6095 8.260771,-0.31112 9.875313,-1.36636 0.662673,-0.43312 1.635392,-0.65117 2.161595,-0.48458 0.566493,0.17927 1.334093,-0.0728 1.88189,-0.61785 0.508836,-0.5064 1.173678,-0.952 1.477426,-0.99024 0.303748,-0.0382 0.843317,-0.0964 1.199043,-0.12894 0.355726,-0.0328 0.646774,-0.50789 0.646774,-1.05588 0,-0.64022 0.416136,-1.05543 1.164195,-1.16161 0.96791,-0.13733 1.142053,-0.448 1.032869,-1.84233 -0.109161,-1.394 0.04944,-1.67711 0.939505,-1.67711 1.620936,0 3.072468,-0.95432 3.072468,-2.02004 0,-0.57323 0.624915,-1.20967 1.572036,-1.601 1.583076,-0.6541 3.125334,-2.57247 2.068107,-2.57247 -1.258532,0 -0.36517,-1.39655 1.743321,-2.72526 2.498155,-1.57424 4.088417,-3.12857 2.91816,-2.85219 -1.677465,0.39615 -0.880323,-1.20482 1.371663,-2.7548 1.821835,-1.25393 2.244147,-1.75852 1.580594,-1.88854 -1.365353,-0.2675 -1.146433,-0.66346 1.810782,-3.27501 2.430229,-2.14617 2.566624,-2.37109 1.293737,-2.13338 -1.798282,0.33586 -1.782047,0.0778 0.17352,-2.75731 0.878034,-1.27299 1.793139,-2.99869 2.033563,-3.8349 0.423321,-1.47234 0.381053,-1.52039 -1.337722,-1.52039 -0.976165,0 -1.774848,-0.24155 -1.774848,-0.53679 0,-0.29524 0.933741,-1.5146 2.074978,-2.70966 1.14124,-1.19508 2.741801,-2.88066 3.5568,-3.74572 l 1.481823,-1.57284 -1.745831,-1.14155 c -3.387138,-2.21478 -2.306865,-2.94919 5.182853,-3.52344 2.469221,-0.18922 4.613201,-0.5439 4.764402,-0.78793 0.151207,-0.24403 -0.438757,-1.04271 -1.311018,-1.77485 -0.872265,-0.73213 -1.585933,-1.64323 -1.585933,-2.02465 0,-0.84156 0.561452,-1.01893 6.348767,-2.00572 2.495789,-0.42557 4.765969,-0.91442 5.044842,-1.08633 0.278875,-0.17186 0.507047,-1.3498 0.507047,-2.61747 0,-1.97689 0.182086,-2.37394 1.27948,-2.79012 0.703717,-0.2669 2.793849,-0.34418 4.644737,-0.17186 3.743899,0.34873 4.113725,0.0538 4.113725,-3.28028 0,-2.05349 1.124882,-2.44455 4.060153,-1.41151 2.75502,0.96958 3.96928,0.58156 3.84705,-1.22938 -0.17381,-2.57535 2.68867,-1.87485 8.60025,2.10464 0.76959,0.51805 1.02346,0.46985 1.44862,-0.27507 0.80438,-1.40941 1.89127,-1.08962 4.84138,1.42443 2.36763,2.01768 2.81773,2.22387 3.37975,1.54838 1.03543,-1.2445 1.80331,-0.95058 5.26848,2.01663 1.79898,1.54043 3.40887,2.56391 3.58522,2.27929 0.27647,-0.44623 1.06071,0.68234 1.19553,1.72047 0.0246,0.18921 0.20185,0.50084 0.39393,0.69244 0.48679,0.48555 0.23877,-0.87714 -0.32315,-1.77562 -0.25424,-0.40649 1.07076,0.11607 2.94443,1.1613 1.87366,1.04519 3.55773,1.90035 3.74236,1.90035 0.18463,0 0.17857,-1.04516 -0.0135,-2.32256 -0.3077,-2.04677 -0.23466,-2.32234 0.61507,-2.32065 0.53033,0.001 1.66275,0.42428 2.51649,0.94048 0.85375,0.51622 2.61768,1.55886 3.91986,2.31698 l 2.36759,1.37843 -0.22728,-1.54471 c -0.2619,-1.77991 0.24576,-1.92161 2.57676,-0.71921 1.73173,0.89327 1.78932,0.71063 0.65062,-2.06313 -0.34268,-0.83471 -0.21749,-0.93991 0.84677,-0.71152 0.68691,0.14747 1.69234,0.45262 2.2343,0.67824 1.06527,0.44352 1.06642,0.82502 -0.0176,-5.56778 -0.49147,-2.90069 0.56847,-2.50268 4.81093,1.80644 6.35045,6.45026 14.58007,17.66885 22.84642,31.14409 3.64083,5.93502 3.69369,6.26851 2.16046,13.62984 -0.56169,2.69676 -1.02431,4.98834 -1.02804,5.09243 -0.004,0.10397 -0.53068,0.0355 -1.171,-0.15255 -0.6403,-0.18805 -1.62986,-0.41725 -2.19903,-0.50948 -3.55946,-0.57679 -8.31204,-2.27931 -14.80127,-5.30223 -7.37401,-3.43509 -7.43861,-3.45378 -11.57095,-3.34666 -5.75371,0.14922 -12.59462,-1.38634 -19.12043,-4.29169 l -5.37761,-2.39417 -2.60989,1.31923 -2.6099,1.31923 -3.16538,-1.36936 c -3.16131,-1.36759 -3.16899,-1.36821 -5.97569,-0.48569 -1.54568,0.48602 -3.62131,1.22165 -4.61252,1.63479 l -1.8022,0.75113 1.12344,2.3066 1.12343,2.3066 1.67946,-1.2778 c 0.92369,-0.70276 2.34977,-1.27775 3.16904,-1.27775 1.49631,0 5.51688,1.66846 6.03476,2.50432 0.3911,0.63121 -0.86696,3.16417 -1.57399,3.16903 -0.32253,0.002 -0.7082,0.46854 -0.85704,1.03628 -0.33306,1.27044 -1.83504,1.34511 -2.72186,0.13537 -0.53675,-0.73221 -1.30823,-0.86691 -4.2015,-0.73358 -3.37113,0.15528 -3.6542,0.0763 -5.80247,-1.61938 -2.20834,-1.74316 -5.75137,-5.79658 -5.75137,-6.57989 0,-0.21682 1.2224,-1.09263 2.71645,-1.94625 1.49405,-0.85363 3.53139,-2.25968 4.52743,-3.12461 l 1.81096,-1.57254 -1.55226,0.43372 c -2.57273,0.71884 -12.408429,5.71691 -11.250319,5.71691 1.458703,0 2.712897,0.51959 2.712897,1.12392 0,0.27353 -0.903471,1.58416 -2.007717,2.91249 -1.104247,1.32836 -2.253912,2.89541 -2.554807,3.48234 -0.501142,0.97754 -0.419435,1.04848 0.972879,0.84463 0.855197,-0.12523 1.519967,0.0137 1.519967,0.3174 0,0.29696 0.465677,0.68736 1.03484,0.86756 1.12712,0.35683 1.43612,1.80153 0.388064,1.81434 -0.468357,0.006 -0.450072,0.13226 0.06629,0.45842 1.195026,0.75502 0.122107,1.59307 -1.936547,1.5126 -1.534119,-0.0599 -2.865937,0.50502 -6.310825,2.67718 -2.401495,1.51426 -5.336891,3.5248 -6.523111,4.46787 -1.186217,0.94307 -2.2922,1.71467 -2.457744,1.71467 -0.165541,0 -0.300983,-0.88609 -0.300983,-1.9691 0,-1.32329 0.818909,-3.59784 2.496861,-6.93513 l 2.496856,-4.96603 -2.302352,1.64484 c -1.266298,0.90466 -2.797354,2.29698 -3.402347,3.09404 -1.220163,1.60753 -9.220978,10.19639 -14.035481,15.06707 -3.036335,3.07176 -6.840617,6.34434 -9.257551,7.96368 -0.665112,0.44562 -2.230421,1.58219 -3.478457,2.52571 -2.904811,2.19603 -8.473138,4.78704 -10.806592,5.02844 -5.55306,0.57447 -9.694318,0.67409 -10.607105,0.25516 z m 2.112798,-1.57977 c 0.403155,0 0.733011,0.2646 0.733011,0.58801 0,0.39839 0.792625,0.49388 2.457744,0.29611 3.429573,-0.40734 5.357407,-1.23612 5.67268,-2.43872 0.346775,-1.32276 1.203124,-1.31932 1.55063,0.006 0.371009,1.41519 0.681379,1.33166 3.835337,-1.03225 1.514964,-1.13547 3.051798,-2.0645 3.415182,-2.0645 0.428118,0 0.660698,-0.7419 0.660698,-2.10751 0,-2.46506 1.129611,-2.58959 1.564435,-0.17244 0.268091,1.49028 0.293403,1.47286 2.457744,-1.69168 1.202774,-1.75861 2.186858,-3.79084 2.186858,-4.51609 0,-2.05728 1.382832,-1.60716 1.794977,0.58427 l 0.357883,1.90292 1.068354,-1.68313 c 0.688329,-1.0844 1.200082,-1.47052 1.438664,-1.08545 0.256815,0.4145 0.469853,0.33891 0.695097,-0.24659 0.18983,-0.49344 0.112232,-0.71324 -0.186701,-0.52894 -0.281321,0.17342 -0.511496,0.16328 -0.511496,-0.0226 0,-0.62637 1.771672,-3.33589 2.18124,-3.33589 0.22322,0 0.40586,-0.45079 0.40586,-1.00179 0,-1.4342 1.050899,-1.88712 1.388724,-0.59851 0.156331,0.59629 0.485204,1.08418 0.730834,1.08418 0.770882,0 3.562114,-5.35105 3.567206,-6.83867 0.0031,-0.91541 0.28042,-1.41934 0.780983,-1.41934 0.495278,0 0.785779,0.51361 0.802793,1.41934 0.02519,1.34069 0.07126,1.31209 0.831467,-0.51612 0.442647,-1.06452 1.012746,-1.93547 1.266886,-1.93547 0.254146,0 0.462082,-0.34838 0.462082,-0.7742 0,-0.44118 0.465089,-0.77418 1.081274,-0.77418 0.5947,0 2.399203,-1.18209 4.010003,-2.62685 4.392113,-3.93938 9.913897,-6.84819 9.913897,-5.2225 0,0.22476 -1.077833,1.44411 -2.395177,2.70965 -1.468169,1.41044 -3.046703,3.69931 -4.078573,5.91388 -2.950337,6.33199 -2.959734,6.32124 2.368142,2.71036 2.618388,-1.77457 5.382946,-3.80711 6.14346,-4.5168 0.760519,-0.70967 1.002258,-0.99999 0.537197,-0.64516 -1.019831,0.77814 -2.05763,0.84037 -2.05763,0.12348 0,-1.05701 2.128841,-4.97441 4.13971,-7.61768 1.138132,-1.49608 2.069327,-2.81685 2.069327,-2.93505 0,-0.11821 -0.754816,-0.28765 -1.677377,-0.3766 -1.113622,-0.10729 -1.735767,-0.46915 -1.851114,-1.07638 -0.135602,-0.71394 1.129837,-1.5351 5.766481,-3.74192 3.26711,-1.55499 6.29834,-2.82726 6.73606,-2.82726 0.43772,0 0.93975,-0.23227 1.11564,-0.51614 0.17588,-0.28387 1.00456,-0.51612 1.8415,-0.51612 3.36409,0 0.68662,3.28787 -5.85151,7.18551 -1.06718,0.63618 -1.94032,1.32941 -1.94032,1.54051 0,0.85527 5.90327,6.24741 6.92294,6.32351 4.56873,0.34092 8.61284,-0.66518 6.90523,-1.7179 -0.41975,-0.25878 -0.33309,-0.47702 0.28305,-0.71286 0.4884,-0.18688 0.75918,-0.54784 0.60173,-0.80196 -0.45103,-0.72795 -1.26004,-0.5392 -1.26004,0.29399 0,0.99742 -2.07574,2.13379 -2.5372,1.389 -0.21475,-0.3466 -0.61095,-0.36866 -1.09839,-0.0613 -0.41936,0.26454 -1.03454,0.48454 -1.36705,0.48889 -0.79654,0.01 -2.6748,-3.05772 -3.06584,-5.00804 -0.30907,-1.54149 -0.30515,-1.54426 4.82675,-3.42465 2.82484,-1.03507 5.51815,-1.88193 5.98512,-1.88193 0.46697,0 2.10973,0.55614 3.65055,1.23587 l 2.80152,1.23585 3.69207,-2.03367 c 2.03065,-1.11852 3.9257,-1.88966 4.21123,-1.71362 0.28554,0.17595 0.45517,0.0175 0.37698,-0.35121 -0.0782,-0.36921 0.38171,-0.751 1.02202,-0.84846 1.95957,-0.29823 1.33732,1.15599 -0.97202,2.27166 l -2.13622,1.03204 3.83921,1.84335 c 4.48164,2.15177 11.09311,3.88465 16.51849,4.32953 l 3.8354,0.31449 -4.13936,-2.41602 c -2.27665,-1.3288 -5.24535,-2.97877 -6.59711,-3.66659 -2.93703,-1.49448 -3.13653,-2.60791 -0.77613,-4.33156 0.99237,-0.72467 1.3863,-0.8651 0.96111,-0.34266 -0.39628,0.48692 -0.62912,0.96861 -0.51742,1.07041 0.7899,0.71987 8.23137,4.07631 11.89892,5.36692 l 4.45195,1.56664 -1.9339,-5.24921 c -1.06365,-2.88706 -2.19389,-5.90303 -2.51163,-6.70214 -1.00974,-2.53946 -0.78991,-2.83441 2.39745,-3.21675 1.63633,-0.19628 3.34719,-0.68152 3.8019,-1.07829 0.73218,-0.6389 1.69942,0.17049 8.45607,7.07652 6.47187,6.61494 7.57135,7.96698 7.24726,8.9121 -0.21011,0.61276 -0.48442,2.56573 -0.60956,4.3399 -0.21801,3.09102 -0.28513,3.22609 -1.60627,3.23262 -1.10212,0.006 -0.615,0.4293 2.4279,2.11251 2.09365,1.15814 3.99148,1.90988 4.21737,1.67059 0.4933,-0.52256 2.06567,-8.01113 2.06567,-9.83793 0,-2.03941 -9.0694,-16.51197 -17.19474,-27.43865 -3.76809,-5.06721 -12.10377,-13.91063 -11.57079,-12.2756 0.16975,0.52092 0.454,2.1799 0.63153,3.68663 0.29385,2.49405 0.22296,2.77112 -0.79126,3.09221 -0.81105,0.25677 -1.39268,0.0261 -2.13861,-0.84795 -0.92811,-1.0876 -0.91803,-0.99473 0.10698,0.98655 1.62604,3.14275 1.21478,3.31434 -3.38199,1.41111 -0.81338,-0.33677 -0.90986,-0.22572 -0.61337,0.70608 0.60813,1.91124 -0.16791,2.28752 -2.21825,1.07552 -1.04214,-0.61603 -3.10177,-1.8017 -4.57697,-2.63479 l -2.68217,-1.51472 0.29682,2.86865 c 0.19597,1.89409 0.10681,2.86866 -0.26246,2.86866 -0.3076,0 -0.70552,-0.23605 -0.88427,-0.52454 -0.17874,-0.2885 -0.54175,-0.39093 -0.80667,-0.22761 -0.26491,0.16327 -0.48167,0.0373 -0.48167,-0.28011 0,-0.31736 -0.21182,-0.44646 -0.47072,-0.28685 -0.72091,0.44445 -2.15475,-0.2659 -1.77475,-0.87922 0.18463,-0.29799 0.0907,-0.39073 -0.20883,-0.2061 -0.66275,0.40858 -5.81995,-1.1863 -5.6714,-1.7539 0.12527,-0.47863 -5.20251,-5.13193 -5.87579,-5.13193 -0.25524,0 -0.20757,0.56155 0.10594,1.24789 0.35,0.76626 1.57529,1.66464 3.1746,2.32763 1.43253,0.59383 2.47681,1.20717 2.32063,1.36296 -0.15617,0.15586 -1.15249,-0.0788 -2.21404,-0.52117 -2.78686,-1.16152 -2.80289,-1.00552 -0.0815,0.79259 2.53884,1.67746 3.23304,2.47793 1.2529,1.44472 -2.25583,-1.17708 -4.0191,-2.60951 -3.74894,-3.04555 0.15027,-0.24255 0.0106,-0.60293 -0.31047,-0.80085 -0.32104,-0.19792 -0.78695,-0.0398 -1.03536,0.35144 -0.27819,0.43811 -0.45469,0.48196 -0.45957,0.11412 -0.004,-0.32842 -1.34675,-1.00456 -2.98309,-1.50254 -1.63634,-0.49799 -3.33802,-1.21209 -3.78151,-1.58692 -0.44349,-0.37483 -1.60769,-0.78707 -2.5871,-0.91611 -0.97941,-0.12914 -3.27812,-0.79974 -5.10825,-1.49044 l -3.3275,-1.25587 -2.62283,1.06136 c -1.44255,0.58375 -3.613939,1.72693 -4.825301,2.54039 -1.960789,1.31669 -2.600408,1.46741 -5.828564,1.37338 -1.994342,-0.0581 -3.725651,-0.006 -3.847348,0.11509 -0.121697,0.12134 -0.278976,1.33263 -0.349495,2.69162 -0.116984,2.25428 -0.255689,2.49632 -1.58211,2.76094 -0.799642,0.15956 -1.453887,0.50699 -1.453887,0.77213 0,0.26514 -0.230356,0.34006 -0.5119,0.16639 -0.450676,-0.27784 -5.731686,0.46886 -7.726017,1.0924 -0.514989,0.16093 -0.204895,0.67194 1.034838,1.70506 1.711842,1.42652 1.73996,1.50848 0.853319,2.48706 -0.714837,0.78896 -1.854918,1.07806 -5.174197,1.31205 -2.341542,0.16503 -4.692569,0.46692 -5.224507,0.67081 -0.835277,0.32015 -0.698889,0.53219 1.000193,1.55507 l 1.967353,1.18437 -1.905677,1.74117 c -1.048121,0.95764 -1.905678,1.94587 -1.905678,2.19609 0,0.2502 -0.756726,1.25304 -1.681615,2.22855 -1.490612,1.57222 -1.551426,1.74224 -0.53542,1.49694 2.252478,-0.54382 1.903738,3.31882 -0.594634,6.58617 -1.182072,1.5459 -1.207663,1.67726 -0.279587,1.43518 1.75634,-0.45815 1.197179,1.39548 -1.06989,3.5467 -1.150307,1.09152 -1.848825,1.9846 -1.552259,1.9846 1.224437,0 0.405408,1.65221 -1.47358,2.97261 -1.471827,1.03431 -1.993308,1.75355 -1.940325,2.67616 0.05421,0.94399 -0.540982,1.71955 -2.363506,3.07973 -1.412048,1.05383 -2.202086,1.96218 -1.879543,2.16103 0.707359,0.43607 -1.442706,3.4316 -2.763109,3.84964 -0.517762,0.16386 -0.941384,0.73009 -0.941384,1.25817 0,0.62538 -0.7267,1.27994 -2.084342,1.87744 -1.407693,0.61951 -1.99155,1.15853 -1.798495,1.66035 0.32104,0.83453 -1.111005,2.65827 -2.087335,2.65827 -0.349576,0 -0.757061,0.46334 -0.905524,1.02965 -0.14847,0.56631 -0.699508,1.16518 -1.224542,1.33079 -0.525034,0.16562 -1.611334,0.65413 -2.413999,1.08555 -0.802663,0.4314 -1.893586,0.67113 -2.42427,0.53268 -0.530684,-0.1385 -1.431093,0.0739 -2.000908,0.47217 -0.569818,0.39811 -2.887419,0.97238 -5.150229,1.27614 -3.51181,0.47143 -4.349886,0.43074 -5.723901,-0.27803 -0.885337,-0.45667 -1.609702,-1.05661 -1.609702,-1.3332 0,-0.27657 -0.544604,-0.50287 -1.21023,-0.50287 -0.665626,0 -2.004449,-0.5829 -2.975163,-1.29532 -4.629529,-3.39773 -10.2343986,-6.76817 -9.7482183,-5.862 1.0540618,1.96462 3.7842583,5.90469 5.0261343,7.25345 0.702109,0.76253 1.542407,1.92381 1.867331,2.58061 0.324923,0.65681 1.110524,1.42348 1.745779,1.7037 0.635254,0.2802 1.155009,0.75849 1.155009,1.06284 0,0.94245 5.510576,5.35465 8.036606,6.43472 1.31867,0.56383 3.426055,1.02516 4.683075,1.02516 1.46166,0 2.300216,0.23254 2.326341,0.64515 0.03268,0.51612 0.09305,0.51612 0.301828,0 0.143541,-0.35483 0.590834,-0.64515 0.993991,-0.64515 z m 34.365296,-51.09646 c 0.426871,-0.27518 1.008968,-0.50031 1.293549,-0.50031 0.284581,0 0.168162,0.22513 -0.258711,0.50031 -0.42687,0.27517 -1.008967,0.5003 -1.293548,0.5003 -0.284582,0 -0.168163,-0.22513 0.25871,-0.5003 z m -0.591153,-1.91987 c 1.348364,-1.93707 2.53766,-2.87609 1.725539,-1.36243 -0.286615,0.5342 -1.052382,1.43319 -1.701706,1.99776 l -1.180587,1.02647 z m 2.660832,1.2009 c 0,-0.11158 0.36135,-0.34116 0.803003,-0.51023 0.460462,-0.17634 0.668155,-0.0897 0.486882,0.20286 -0.303859,0.49043 -1.289885,0.72539 -1.289885,0.30737 z m 4.866328,-1.27243 c 1.054543,-1.18258 1.342709,-1.33569 1.342709,-0.71339 0,0.21559 -0.523888,0.713 -1.164194,1.10537 -1.160061,0.71086 -1.160693,0.70945 -0.178507,-0.39198 z m 7.558153,-5.61735 c 0.0063,-0.38064 2.139338,-1.8736 5.555856,-3.88851 2.996516,-1.76719 1.780513,-0.59069 -1.940325,1.87731 -1.992065,1.32133 -3.619055,2.22637 -3.615531,2.0112 z m -6.498498,-2.6506 c 1.124933,-1.17022 2.130351,-2.12768 2.234264,-2.12768 0.541305,0 -2.186057,3.18235 -3.151387,3.67711 -0.716755,0.36735 -0.382285,-0.19773 0.917123,-1.54943 z m 14.549196,-3.54702 c 0.257557,-0.2129 0.642055,-0.61935 0.854442,-0.90322 0.220374,-0.29454 0.389565,-0.12836 0.394087,0.3871 0.0047,0.50207 -0.375073,0.90322 -0.854446,0.90322 -0.474298,0 -0.651638,-0.1742 -0.394083,-0.3871 z m 2.253607,-0.33664 c 0.406143,-0.49099 1.453917,-1.23975 2.328388,-1.66393 l 1.589944,-0.77124 -1.29355,1.07802 c -0.711452,0.5929 -1.759227,1.34166 -2.328389,1.66394 -0.941932,0.53333 -0.968542,0.5058 -0.296393,-0.30679 z m -9.793277,-0.64756 c 1.5e-5,-0.39301 1.358144,-1.59078 5.159571,-4.55036 1.042068,-0.8113 1.161021,-0.83432 0.584803,-0.11314 -1.114998,1.3955 -5.74439,5.15382 -5.744374,4.6635 z M 119.333,159.95515 c -0.16821,-0.27146 0.0572,-0.49359 0.50084,-0.49359 0.44367,0 0.80667,-0.23225 0.80667,-0.51612 0,-0.28387 0.22553,-0.51612 0.50118,-0.51612 0.71348,0 0.0783,1.41419 -0.78332,1.744 -0.39576,0.15157 -0.85718,0.0533 -1.02537,-0.21817 z m 5.70041,-1.01509 c -0.8151,-0.84864 -1.24758,-1.543 -0.96108,-1.543 0.59649,0 2.95959,2.57077 2.64842,2.88115 -0.11295,0.11255 -0.87225,-0.4895 -1.68734,-1.33815 z m 2.33356,1.18082 c 0,-0.64941 1.47897,-1.9367 1.82665,-1.58991 0.13714,0.13675 -0.21774,0.67042 -0.78864,1.1858 -0.57091,0.51538 -1.03801,0.69723 -1.03801,0.40411 z m -11.90066,-1.94962 c -0.71145,-0.40569 -1.06071,-0.73762 -0.77613,-0.73762 0.28458,0 1.09952,0.33193 1.81097,0.73762 0.71145,0.40567 1.06071,0.7376 0.77613,0.7376 -0.28458,0 -1.09952,-0.33193 -1.81097,-0.7376 z m -17.07485,0.0363 c 0,-0.14201 0.465678,-0.50667 1.03484,-0.81052 0.569162,-0.30384 1.03484,-0.43631 1.03484,-0.29438 0,0.14201 -0.465678,0.50666 -1.03484,0.81052 -0.569162,0.30385 -1.03484,0.43632 -1.03484,0.29438 z m 8.79614,-0.81054 c -0.99604,-0.54393 -1.46171,-0.98897 -1.03484,-0.98897 0.42687,0 1.59106,0.44504 2.5871,0.98897 0.99603,0.54396 1.46171,0.989 1.03484,0.989 -0.42688,0 -1.59107,-0.44504 -2.5871,-0.989 z m 17.07485,-3.61287 c -0.60792,-0.8516 -0.90682,-1.54838 -0.66421,-1.54838 0.2426,0 0.85371,0.69678 1.35803,1.54838 0.50432,0.8516 0.80321,1.54838 0.66421,1.54838 -0.139,0 -0.75011,-0.69678 -1.35803,-1.54838 z m -27.681958,0.51612 c -0.652281,-0.2796 -0.74792,-0.44357 -0.258711,-0.44357 0.426871,0 1.241808,0.19961 1.81097,0.44357 0.65228,0.2796 0.74792,0.44357 0.258709,0.44357 -0.426871,0 -1.241808,-0.19959 -1.810968,-0.44357 z m -6.985167,-1.24822 c 0,-0.30903 3.401502,-2.36465 3.912888,-2.36465 0.235136,0 -0.361469,0.58062 -1.32579,1.29031 -1.62563,1.19636 -2.587098,1.59563 -2.587098,1.07434 z m 19.661945,0.0663 c 0,-0.0954 0.7134,-0.85515 1.58533,-1.68844 0.93022,-0.88897 1.4468,-1.15493 1.2501,-0.64363 -0.28466,0.73994 -2.83543,2.83791 -2.83543,2.33207 z m -13.005439,-1.16091 c 0.957563,-0.4147 1.888919,-0.74575 2.069679,-0.73569 0.673189,0.0375 -2.288903,1.49343 -3.034569,1.4916 -0.426871,-0.001 0.0074,-0.34122 0.96489,-0.75591 z m 21.154809,-1.30526 c -1.06718,-0.56196 -1.94033,-1.13707 -1.94033,-1.27798 0,-0.22995 4.08692,1.67525 4.61366,2.15075 0.59543,0.53752 -0.95882,0.03 -2.67333,-0.87277 z m -72.473379,74.2605 c -0.16517,-0.41173 -0.287781,-0.28942 -0.312607,0.31182 -0.02247,0.5441 0.09981,0.84893 0.271758,0.67743 0.171937,-0.17147 0.190319,-0.61668 0.04085,-0.98925 z m 9.302776,-5.70963 c -0.143541,-0.35484 -0.260981,-0.0646 -0.260981,0.64516 0,0.70966 0.117434,0.99999 0.260981,0.64515 0.143542,-0.35485 0.143542,-0.93548 0,-1.29031 z m 5.34894,-1.66511 c 0,-0.11509 -0.291048,-0.37653 -0.646774,-0.58073 -0.355726,-0.2042 -0.475763,-0.18278 -0.26675,0.0476 0.209011,0.23034 -0.0238,0.74492 -0.517419,1.14347 -0.805304,0.65027 -0.777915,0.66689 0.26675,0.16191 0.640307,-0.3095 1.164193,-0.657 1.164193,-0.77219 z m 1.412127,-2.13057 c -0.171937,-0.17147 -0.618213,-0.1898 -0.991723,-0.0408 -0.412761,0.16484 -0.290159,0.28705 0.312611,0.31182 0.545443,0.0224 0.851047,-0.0997 0.679112,-0.27109 z m -0.541252,-2.88171 c -0.16517,-0.41173 -0.287779,-0.28942 -0.312603,0.31182 -0.02245,0.5441 0.09981,0.84893 0.271758,0.67743 0.171937,-0.17147 0.190319,-0.61668 0.04083,-0.98925 z m 6.373003,-1.76522 c 0,-0.42716 -1.004689,-0.66872 -1.235036,-0.29695 -0.149427,0.24118 0.06731,0.43854 0.481667,0.43854 0.414349,0 0.753369,-0.0638 0.753369,-0.14163 z m 0.871666,-2.82357 c 0.07533,-0.98554 0.03534,-1.03156 -0.189204,-0.21763 -0.156605,0.56774 -0.548863,1.22413 -0.871667,1.45863 -0.3878,0.28174 -0.323605,0.35558 0.189205,0.21764 0.42687,-0.1149 0.819121,-0.77119 0.871666,-1.45864 z m 5.403881,-3.70148 c 0.562496,-1.05301 0.540071,-1.09525 -0.240508,-0.45294 -0.473465,0.3896 -0.860842,0.91218 -0.860842,1.16128 0,0.78838 0.459795,0.49266 1.10135,-0.70834 z m 0.286945,-3.06449 c -0.16517,-0.41174 -0.287778,-0.28945 -0.312605,0.31182 -0.02245,0.54407 0.09981,0.84891 0.271759,0.67743 0.171936,-0.17147 0.190319,-0.61668 0.04083,-0.98925 z m 5.19803,-3.31182 c -0.171936,-0.17147 -0.618214,-0.18981 -0.991723,-0.0408 -0.412761,0.16483 -0.290158,0.28707 0.312609,0.31182 0.545443,0.0224 0.851047,-0.0997 0.679114,-0.27107 z m 18.767245,-1.9876 c 0,-0.39824 -1.539977,-0.71856 -1.758556,-0.3658 -0.13169,0.21255 0.210114,0.42022 0.759562,0.46152 0.549448,0.0414 0.998994,-0.002 0.998994,-0.0958 z m 77.095538,-3.1109 c -2.47606,-1.46877 -3.97867,-2.71043 -4.15145,-3.43058 -0.21928,-0.91385 -1.20402,-1.41343 -5.17419,-2.62494 -5.64977,-1.72403 -12.31444,-4.04054 -15.12244,-5.25623 -3.60321,-1.55998 -1.97279,-0.40034 4.13937,2.94413 10.23764,5.60188 21.2248,10.54389 23.67194,10.64761 0.28458,0.0117 -1.22886,-1.01394 -3.36323,-2.27999 z m -76.448764,1.43321 c -0.640307,-0.12309 -1.164195,-0.43979 -1.164195,-0.70392 0,-0.26412 -0.349257,-0.48022 -0.77613,-0.48022 -0.807987,0 -1.026545,0.61042 -0.431181,1.20429 0.189713,0.18922 1.062864,0.31247 1.940325,0.2738 1.218817,-0.0536 1.320589,-0.12309 0.431181,-0.29395 z m 79.035874,-5.64082 v -1.87603 l -1.07239,1.35991 c -0.58983,0.74795 -1.46297,1.36347 -1.94033,1.36782 -0.74947,0.008 -0.762,0.0763 -0.0917,0.50822 0.42687,0.27519 1.3,0.50389 1.94033,0.50822 0.99522,0.008 1.16419,-0.26434 1.16419,-1.86814 z m -1.99292,-3.28521 c -0.20281,-2.58879 -1.0685,-4.7293 -1.09588,-2.70965 -0.0117,0.81196 -0.32701,1.16127 -1.05057,1.16127 -1.17668,0 -1.31046,0.89638 -0.42356,2.83804 0.41934,0.91808 0.94731,1.29029 1.6816,1.18558 0.93341,-0.13323 1.04707,-0.44981 0.88841,-2.47524 z m -6.57766,0.3871 c -0.53332,-0.6387 -1.6325,-1.88488 -2.44263,-2.76927 -0.81011,-0.88437 -1.81181,-2.6263 -2.226,-3.87093 -0.67944,-2.04179 -0.72676,-2.08641 -0.48409,-0.45653 0.19262,1.29403 0.12457,1.58683 -0.23984,1.03226 -0.68536,-1.04291 -0.65466,-2.91819 0.0702,-4.29198 0.80365,-1.52299 1.45436,-1.89084 3.28576,-1.85737 1.33273,0.0244 1.4059,0.0911 0.51742,0.47196 -1.00182,0.42941 -0.99904,0.44472 0.087,0.47984 0.61703,0.0199 1.54839,0.19583 2.06967,0.39082 0.52131,0.19507 -0.56564,-1.15599 -2.41542,-3.00218 -1.84977,-1.8462 -3.59606,-3.18881 -3.88064,-2.9836 -0.28458,0.20522 -1.79804,0.53284 -3.36324,0.72803 -1.56519,0.1952 -2.89668,0.40323 -2.95887,0.4623 -0.11616,0.11021 3.42385,9.44115 4.83079,12.73319 0.65827,1.54028 1.2242,1.97876 3.46738,2.68652 3.61088,1.13927 4.19735,1.31979 4.44252,1.36747 0.11519,0.0224 -0.22679,-0.48183 -0.76012,-1.12053 z m 2.34529,0.0987 c -0.71358,-1.33004 -0.15058,-4.09874 0.8335,-4.09874 1.115,0 0.89449,-0.8731 -0.86457,-3.42342 -2.0679,-2.99807 -3.70102,-3.79919 -5.12478,-2.51392 -0.57031,0.51483 -1.02986,1.1904 -1.02121,1.50122 0.008,0.31085 0.25307,0.15879 0.54313,-0.33805 0.29007,-0.49677 0.85397,-0.90322 1.25311,-0.90322 0.48825,0 0.31595,0.44105 -0.52657,1.34788 -1.19704,1.28837 -1.21634,1.41723 -0.43737,2.91983 0.73758,1.42273 5.21025,6.57093 5.70874,6.57093 0.11342,0 -0.0505,-0.47812 -0.36398,-1.06251 z m 5.58182,-3.64229 c -0.60686,-0.8188 -1.14861,-1.48871 -1.20383,-1.48871 -0.0551,0 0.21116,0.87097 0.59202,1.93548 0.38083,1.0645 0.72267,2.39998 0.75961,2.96773 0.0499,0.7656 0.18187,0.65019 0.51139,-0.44679 0.35004,-1.16551 0.21031,-1.7946 -0.65919,-2.96771 z m -53.94432,-0.45645 c -0.17589,-0.28387 -0.55262,-0.51612 -0.8372,-0.51612 -0.28458,0 -0.37352,0.23225 -0.19764,0.51612 0.17589,0.28387 0.55262,0.51612 0.8372,0.51612 0.28458,0 0.37352,-0.23225 0.19764,-0.51612 z m 25.09486,-1.27216 c 0,-0.13187 -0.52389,-0.49314 -1.1642,-0.80266 -1.11795,-0.5404 -1.12429,-0.53088 -0.15981,0.2399 1.05567,0.84366 1.32401,0.9577 1.32401,0.56276 z m -28.82612,-33.32102 c -2.47032,-2.3259 -3.4272,-2.62958 -2.80537,-0.89033 0.38377,1.07338 3.26994,2.98202 4.46695,2.95402 0.28458,-0.006 -0.46313,-0.93532 -1.66158,-2.06369 z m -18.30814,-1.13661 1.34261,-0.54692 -1.69046,-0.5193 c -1.969273,-0.60493 -1.943019,-0.62268 -2.367648,1.60052 -0.302385,1.5832 -0.26432,1.64574 0.523389,0.85999 0.467221,-0.46604 1.453672,-1.09347 2.192109,-1.39429 z m 12.20842,0.11724 c -0.85374,-0.56401 -1.80837,-1.02699 -2.1214,-1.02886 -0.31303,-0.002 -1.53543,-0.70161 -2.71645,-1.55501 -1.4876,-1.07492 -2.14731,-1.32409 -2.14731,-0.81105 0,0.99049 1.41614,2.35342 2.4947,2.40094 0.47769,0.0211 1.79988,0.46834 2.9382,0.99398 2.74882,1.26929 3.47364,1.26929 1.55226,0 z"
       id="path1416" />
    <text
       xml:space="preserve"
       style="font-size:25.4px;line-height:1.25;font-family:'Microsoft Himalaya';-inkscape-font-specification:'Microsoft Himalaya';stroke-width:0.264583"
       x="182.94048"
       y="153.45833"
       id="text834"><tspan
         sodipodi:role="line"
         id="tspan832"
         x="182.94048"
         y="153.45833"
         style="font-size:25.4px;stroke-width:0.264583">figuurtje maken om voor behuizing te plakken</tspan></text>
    <text
       xml:space="preserve"
       id="text836"
       style="line-height:1.25;font-family:'Microsoft Himalaya';font-size:12.7px;-inkscape-font-specification:'Microsoft Himalaya';white-space:pre;shape-inside:url(#rect838);" />
  </g>
</svg>
