<?xml version="1.0" encoding="UTF-8" standalone="no"?>
<svg
   xmlns:dc="http://purl.org/dc/elements/1.1/"
   xmlns:cc="http://creativecommons.org/ns#"
   xmlns:rdf="http://www.w3.org/1999/02/22-rdf-syntax-ns#"
   xmlns:svg="http://www.w3.org/2000/svg"
   xmlns="http://www.w3.org/2000/svg"
   xmlns:sodipodi="http://sodipodi.sourceforge.net/DTD/sodipodi-0.dtd"
   xmlns:inkscape="http://www.inkscape.org/namespaces/inkscape"
   width="440mm"
   height="290mm"
   viewBox="0 0 440 290"
   version="1.1"
   id="svg1823"
   inkscape:version="1.0 (4035a4fb49, 2020-05-01)"
   sodipodi:docname="projectdoosje.svg">
  <defs
     id="defs1817">
    <marker
       style="overflow:visible"
       refY="0.0"
       refX="0.0"
       orient="auto"
       id="DistanceX">
      <path
         id="path2386"
         style="stroke:#000000; stroke-width:0.5"
         d="M 3,-3 L -3,3 M 0,-5 L  0,5" />
    </marker>
    <pattern
       y="0"
       x="0"
       height="8"
       width="8"
       patternUnits="userSpaceOnUse"
       id="Hatch">
      <path
         id="path2389"
         linecap="square"
         stroke-width="0.25"
         stroke="#000000"
         d="M8 4 l-4,4" />
      <path
         id="path2391"
         linecap="square"
         stroke-width="0.25"
         stroke="#000000"
         d="M6 2 l-4,4" />
      <path
         id="path2393"
         linecap="square"
         stroke-width="0.25"
         stroke="#000000"
         d="M4 0 l-4,4" />
    </pattern>
  </defs>
  <sodipodi:namedview
     id="base"
     pagecolor="#ffffff"
     bordercolor="#666666"
     borderopacity="1.0"
     inkscape:pageopacity="0.0"
     inkscape:pageshadow="2"
     inkscape:zoom="0.7"
     inkscape:cx="614.62878"
     inkscape:cy="778.50035"
     inkscape:document-units="mm"
     inkscape:current-layer="layer1"
     inkscape:document-rotation="0"
     showgrid="false"
     inkscape:window-width="1350"
     inkscape:window-height="728"
     inkscape:window-x="0"
     inkscape:window-y="0"
     inkscape:window-maximized="0" />
  <metadata
     id="metadata1820">
    <rdf:RDF>
      <cc:Work
         rdf:about="">
        <dc:format>image/svg+xml</dc:format>
        <dc:type
           rdf:resource="http://purl.org/dc/dcmitype/StillImage" />
        <dc:title></dc:title>
      </cc:Work>
    </rdf:RDF>
  </metadata>
  <g
     inkscape:label="Laag 1"
     inkscape:groupmode="layer"
     id="layer1">
    <g
       id="g2436"
       transform="matrix(0.26458333,0,0,0.26458333,103.27381,-212.7619)">
      <g
         id="g2410"
         inkscape:label="OpenJsCad">
        <path
           id="path2398"
           style="fill:none;stroke:#000000"
           d="m -359.05512,1446.6869 v 34.8879 h 34.96407 v -11.3386 h 33.75462 v 11.3386 h 34.96406 v -11.3386 h 33.75462 v 11.3386 h 34.96406 v -11.3386 h 33.75462 v 11.3386 h 34.96407 v -11.3386 h 33.754613 v 11.3386 h 34.964066 v -11.3386 h 33.754617 v 11.3386 h 34.359342 v -35.4927 H 7.559055 v -34.2832 h 11.338583 v -35.4927 H 7.559055 v -34.2832 h 11.338583 v -35.4927 H 7.559055 v -34.2832 h 11.338583 v -35.4926 H 7.559055 v -34.2833 h 11.338583 v -35.4926 H 7.559055 v -34.2833 h 11.338583 v -35.4926 H 7.559055 v -34.2833 h 11.338583 v -34.8879 h -34.964066 v 11.3386 h -33.754617 v -11.3386 h -34.964066 v 11.3386 h -33.754619 v -11.3386 h -34.96406 v 11.3386 h -33.75462 v -11.3386 h -34.96407 v 11.3386 h -33.75461 v -11.3386 h -34.96407 v 11.3386 h -33.75462 v -11.3386 h -34.35934 v 35.4927 h 11.33858 v 34.2832 h -11.33858 v 35.4927 h 11.33858 v 34.2832 h -11.33858 v 35.4927 h 11.33858 v 34.2832 h -11.33858 v 35.4926 h 11.33858 v 34.2833 h -11.33858 v 35.4926 h 11.33858 v 34.2833 h -11.33858 v 35.4926 h 11.33858 v 34.2833 z" />
        <path
           id="path2400"
           style="fill:none;stroke:#000000"
           d="m -359.05512,938.98583 v 35.37638 h 11.33858 v 23.43307 h 22.41604 v 11.33862 h 34.96407 v -11.33862 h 33.75461 v 11.33862 h 34.96407 v -11.33862 h 33.75462 v 11.33862 h 34.96406 v -11.33862 h 33.75462 v 11.33862 h 34.964063 v -11.33862 h 33.754617 v 11.33862 h 34.964066 V 997.79528 H 7.559055 V 974.96693 H 18.897638 V 939.59055 H 7.559055 V 905.42362 H 18.897638 V 870.04724 H 7.559055 v -23.43307 h -22.416034 v -11.33858 h -34.964066 v 11.33858 h -33.754617 v -11.33858 h -34.964068 v 11.33858 h -33.75461 v -11.33858 h -34.96407 v 11.33858 h -33.75462 v -11.33858 h -34.96406 v 11.33858 h -33.75462 v -11.33858 h -34.96407 v 11.33858 h -23.02076 v 22.82835 h -11.33858 v 35.37638 h 11.33858 v 34.16693 z" />
        <path
           id="path2402"
           style="fill:none;stroke:#000000"
           d="M 72.566929,1028.0315 H 49.133858 v 34.2832 H 37.795276 v 35.4927 h 11.338582 v 34.2832 H 37.795276 v 35.4927 h 11.338582 v 34.2832 H 37.795276 v 35.4927 h 11.338582 v 34.2832 H 37.795276 v 35.4927 h 11.338582 v 34.2832 H 37.795276 v 35.4927 h 11.338582 v 34.2832 H 37.795276 v 35.4927 h 11.338582 v 34.8879 h 24.037796 v -11.3386 h 34.166926 v 11.3386 h 35.37638 v -11.3386 h 34.16693 v 11.3386 h 23.43307 v -34.2832 h 11.33858 v -35.4927 h -11.33858 v -34.2832 h 11.33858 v -35.4927 h -11.33858 v -34.2832 h 11.33858 v -35.4927 h -11.33858 v -34.2832 h 11.33858 v -35.4927 h -11.33858 v -34.2832 h 11.33858 v -35.4927 h -11.33858 v -34.2832 h 11.33858 v -35.4927 h -11.33858 v -34.8879 h -24.0378 v 11.3386 h -34.16692 v -11.3386 h -35.37638 v 11.3386 H 72.566929 Z" />
        <path
           id="path2404"
           style="fill:none;stroke:#000000"
           d="m 265.32283,1028.0315 h -23.43307 v 34.2832 h -11.33858 v 35.4927 h 11.33858 v 34.2832 h -11.33858 v 35.4927 h 11.33858 v 34.2832 h -11.33858 v 35.4927 h 11.33858 v 34.2832 h -11.33858 v 35.4927 h 11.33858 v 34.2832 h -11.33858 v 35.4927 h 11.33858 v 34.2832 h -11.33858 v 35.4927 h 11.33858 v 34.8879 h 24.0378 v -11.3386 h 34.16693 v 11.3386 h 35.37638 v -11.3386 h 34.16692 v 11.3386 h 23.43308 v -34.2832 h 11.33858 v -35.4927 h -11.33858 v -34.2832 h 11.33858 v -35.4927 h -11.33858 v -34.2832 h 11.33858 v -35.4927 h -11.33858 v -34.2832 h 11.33858 v -35.4927 h -11.33858 v -34.2832 h 11.33858 v -35.4927 h -11.33858 v -34.2832 h 11.33858 v -35.4927 h -11.33858 v -34.8879 h -24.0378 v 11.3386 h -34.16693 v -11.3386 h -35.37638 v 11.3386 h -34.16693 z" />
        <path
           id="path2406"
           style="fill:none;stroke:#000000"
           d="m 457.66643,1028.0315 h -34.35934 v 35.4927 h 11.33858 v 34.2832 h -11.33858 v 35.4927 h 11.33858 v 34.2832 h -11.33858 v 35.4927 h 11.33858 v 34.2832 h -11.33858 v 35.4926 h 11.33858 v 34.2833 h -11.33858 v 35.4926 h 11.33858 v 34.2833 h -11.33858 v 35.4926 h 11.33858 v 34.2833 h -11.33858 v 34.8879 h 34.96406 v -11.3386 h 33.75462 v 11.3386 h 34.96406 v -11.3386 h 33.75462 v 11.3386 h 34.96407 v -11.3386 h 33.75461 v 11.3386 h 34.96407 v -11.3386 h 33.75462 v 11.3386 h 34.96406 v -11.3386 h 33.75462 v 11.3386 h 34.35934 v -35.4927 h -11.33858 v -34.2832 h 11.33858 v -35.4927 h -11.33858 v -34.2832 h 11.33858 v -35.4927 h -11.33858 v -34.2832 h 11.33858 v -35.4926 h -11.33858 v -34.2833 h 11.33858 v -35.4926 h -11.33858 v -34.2833 h 11.33858 v -35.4926 h -11.33858 v -34.2833 h 11.33858 v -34.8879 h -34.96406 v 11.3386 h -33.75462 v -11.3386 h -34.96407 v 11.3386 h -33.75461 v -11.3386 h -34.96407 v 11.3386 h -33.75462 v -11.3386 h -34.96406 v 11.3386 h -33.75462 v -11.3386 h -34.96407 v 11.3386 h -33.75461 z" />
        <path
           id="path2408"
           style="fill:none;stroke:#000000"
           d="m 49.133858,974.36221 v 23.43307 h 22.416035 v 11.33862 h 34.964067 v -11.33862 h 33.75462 v 11.33862 h 34.96406 v -11.33862 h 33.75462 v 11.33862 h 34.96406 v -11.33862 h 33.75462 v 11.33862 h 34.96407 v -11.33862 h 33.75461 v 11.33862 h 34.96407 v -11.33862 h 23.02076 v -22.82835 h 11.33858 v -35.37638 h -11.33858 v -34.16693 h 11.33858 v -35.37638 h -11.33858 v -23.43307 h -22.41604 v -11.33858 h -34.96406 v 11.33858 h -33.75462 v -11.33858 h -34.96406 v 11.33858 h -33.75462 v -11.33858 h -34.96407 v 11.33858 H 175.83737 V 835.27559 H 140.8733 v 11.33858 H 107.11868 V 835.27559 H 72.154617 v 11.33858 H 49.133858 v 22.82835 H 37.795276 v 35.37638 h 11.338582 v 34.16693 H 37.795276 v 35.37638 z" />
      </g>
      <g
         id="g2414"
         inkscape:label="0" />
    </g>
    <g
       id="g2503"
       transform="translate(0.34017857,-2.4568452)">
      <path
         id="path2444"
         d="m 224.01523,151.59951 80.37989,0.69384"
         style="fill:none;stroke:#000000;stroke-width:0.32672px;stroke-linecap:butt;stroke-linejoin:miter;stroke-opacity:1" />
      <path
         style="fill:none;stroke:#000000;stroke-width:0.326721px;stroke-linecap:butt;stroke-linejoin:miter;stroke-opacity:1"
         d="m 224.14135,155.59342 80.37989,0.69384"
         id="path2444-9" />
      <path
         style="fill:none;stroke:#000000;stroke-width:0.217956px;stroke-linecap:butt;stroke-linejoin:miter;stroke-opacity:1"
         d="m 304.2836,152.34254 0.12612,3.99391"
         id="path2467-6" />
      <path
         id="path2467-6-8"
         d="m 224.01523,151.59951 0.12612,3.99391"
         style="fill:none;stroke:#000000;stroke-width:0.217956px;stroke-linecap:butt;stroke-linejoin:miter;stroke-opacity:1" />
    </g>
    <g
       id="g2510"
       transform="translate(-71.072128,92.930896)">
      <path
         id="path2507"
         d="m 252.09794,16.618779 v 18.189502 l 14.41432,0.343197 0.3432,-18.532699 z"
         style="fill:none;stroke:#000000;stroke-width:0.240238px;stroke-linecap:butt;stroke-linejoin:miter;stroke-opacity:1" />
    </g>
    <text
       xml:space="preserve"
       style="font-size:12.7px;line-height:1.25;font-family:'Microsoft Himalaya';-inkscape-font-specification:'Microsoft Himalaya';stroke-width:0.264583"
       x="-126.88823"
       y="204.78793"
       id="text2514"
       transform="rotate(-90)"><tspan
         sodipodi:role="line"
         id="tspan2512"
         x="-126.88823"
         y="204.78793"
         style="stroke-width:0.264583">USB</tspan></text>
    <text
       xml:space="preserve"
       style="font-size:12.7px;line-height:1.25;font-family:'Microsoft Himalaya';-inkscape-font-specification:'Microsoft Himalaya';stroke-width:0.264583"
       x="55.5625"
       y="210.91072"
       id="text2518"><tspan
         sodipodi:role="line"
         id="tspan2516"
         x="55.5625"
         y="210.91072"
         style="stroke-width:0.264583">nog blokjes maken om leds op te lijmen</tspan><tspan
         id="tspan1433"
         sodipodi:role="line"
         x="55.5625"
         y="226.78572"
         style="stroke-width:0.264583">opening voor on/off </tspan></text>
  </g>
</svg>
