<?xml version="1.0" encoding="UTF-8" standalone="no"?>
<svg
   xmlns:dc="http://purl.org/dc/elements/1.1/"
   xmlns:cc="http://creativecommons.org/ns#"
   xmlns:rdf="http://www.w3.org/1999/02/22-rdf-syntax-ns#"
   xmlns:svg="http://www.w3.org/2000/svg"
   xmlns="http://www.w3.org/2000/svg"
   xmlns:sodipodi="http://sodipodi.sourceforge.net/DTD/sodipodi-0.dtd"
   xmlns:inkscape="http://www.inkscape.org/namespaces/inkscape"
   sodipodi:docname="projectgecko.svg"
   inkscape:version="1.0 (4035a4fb49, 2020-05-01)"
   id="svg3471"
   version="1.1"
   viewBox="0 0 210 297"
   height="297mm"
   width="210mm">
  <defs
     id="defs3465" />
  <sodipodi:namedview
     inkscape:window-maximized="0"
     inkscape:window-y="0"
     inkscape:window-x="0"
     inkscape:window-height="728"
     inkscape:window-width="1350"
     showgrid="false"
     inkscape:document-rotation="0"
     inkscape:current-layer="layer1"
     inkscape:document-units="mm"
     inkscape:cy="560"
     inkscape:cx="400"
     inkscape:zoom="0.35"
     inkscape:pageshadow="2"
     inkscape:pageopacity="0.0"
     borderopacity="1.0"
     bordercolor="#666666"
     pagecolor="#ffffff"
     id="base" />
  <metadata
     id="metadata3468">
    <rdf:RDF>
      <cc:Work
         rdf:about="">
        <dc:format>image/svg+xml</dc:format>
        <dc:type
           rdf:resource="http://purl.org/dc/dcmitype/StillImage" />
        <dc:title></dc:title>
      </cc:Work>
    </rdf:RDF>
  </metadata>
  <g
     id="layer1"
     inkscape:groupmode="layer"
     inkscape:label="Laag 1">
    <path
       id="path4049"
       d="m 27.605894,153.52625 -1.06601,-1.06601 0.21056,-3.25552 c 0.1158,-1.79053 0.2698,-4.68426 0.34223,-6.43051 0.104,-2.50746 0.40082,-3.94984 1.41176,-6.86029 1.04739,-3.01538 1.28008,-4.18571 1.28008,-6.4382 0,-1.60008 -0.14773,-2.7529 -0.35278,-2.7529 -0.19402,0 -0.35338,0.11906 -0.35411,0.26458 -7.1e-4,0.14552 -1.39514,2.24896 -3.09869,4.6743 -2.56101,3.64614 -3.40072,4.57632 -4.84935,5.37178 -0.96361,0.52912 -2.25082,1.05951 -2.86047,1.17864 -0.60965,0.11913 -1.63298,0.75777 -2.27406,1.4192 -1.783021,1.83961 -3.853402,1.46594 -5.086162,-0.91795 -1.5753007,-3.04629 0.003,-6.41876 5.693892,-12.16694 3.22817,-3.26064 4.47428,-4.79651 5.42326,-6.68436 1.18546,-2.35827 1.23208,-2.59856 1.23197,-6.35 -10e-5,-3.35194 -0.11805,-4.15997 -0.8407,-5.7592 -1.13294,-2.50724 -2.24199,-3.34264 -6.17867,-4.65415 -1.83709,-0.61203 -3.946122,-1.55204 -4.686732,-2.08891 C 9.9931413,99.879864 8.5346913,97.352724 7.9231113,94.721984 l -0.42737,-1.83833 -2.87853,-0.10194 -2.8785302,-0.10195 -0.1066899,-2.05824 c -0.1339201,-2.58371 0.2362299,-3.05704 2.39072,-3.05704 h 1.6684801 l 0.20702,-3.19542 c 0.36754,-5.67307 1.60136,-7.18746 8.6126527,-10.57128 6.03574,-2.91298 7.20553,-3.17662 15.09726,-3.40245 6.36866,-0.18224 6.78125,-0.23683 8.27688,-1.09503 1.21834,-0.69908 2.32272,-0.96639 4.88645,-1.1827 3.8086,-0.32135 4.74435,-0.83856 6.94776,-3.8402 1.19356,-1.62596 1.26483,-1.84545 0.77677,-2.39253 -1.02479,-1.14871 -5.26644,-9.321694 -6.32473,-12.186754 -1.37751,-3.72924 -2.02446,-8.79721 -2.04192,-15.99568 -0.0157,-6.45298 0.13309,-7.94549 1.06607,-10.69629 0.36194,-1.06716 0.89948,-2.81652 1.19454,-3.88748 0.68979,-2.50369 1.9979,-4.42875 5.40185,-7.94953 3.18262,-3.2918604 4.33899,-3.8442404 10.98555,-5.2475704 6.81879,-1.43971 11.74725,-1.97858 20.17144,-2.20552 12.06202,-0.32494 20.809866,0.54584 36.324646,3.61583 8.62025,1.70574 9.53007,2.00366 11.53793,3.7781104 0.73615,0.65057 2.08512,1.46053 2.99771,1.79991 2.06781,0.76898 3.73097,2.60609 4.02521,4.44621 0.122,0.76291 0.99634,2.70309 1.94298,4.31151 l 1.72117,2.9244 -0.007,6.70359 c -0.009,9.24612 -0.87486,15.86452 -2.6344,20.13987 -1.43721,3.49214 -4.90105,10.221804 -6.74495,13.104284 -0.65854,1.02946 -1.19735,1.93252 -1.19735,2.00678 0,0.41838 2.56039,0.90961 4.74102,0.90961 4.11695,0 7.24152,1.04032 11.42979,3.80553 1.67047,1.10289 2.24855,1.27474 5.11527,1.52064 3.27142,0.2806 4.49117,0.6124 7.99448,2.17466 1.06715,0.47589 2.8134,1.06922 3.88055,1.31853 2.80164,0.65451 4.73389,2.16948 6.00089,4.70497 0.58007,1.16082 1.05838,2.36304 1.06291,2.6716 0.005,0.30856 0.44109,1.35144 0.97014,2.31753 l 0.9619,1.75651 2.92499,-0.11191 c 3.46357,-0.13253 3.95616,0.14166 3.94936,2.19833 -0.009,2.79593 -0.19881,3.04361 -2.32939,3.04361 h -1.89913 v 1.9578 c 0,3.91675 -1.41684,4.98945 -6.05566,4.5848 -1.57833,-0.13768 -3.2696,-0.40237 -3.75838,-0.58821 -0.48878,-0.18583 -2.26122,-1.68097 -3.93875,-3.32252 l -3.05006,-2.98465 h -2.40282 c -1.32156,0 -3.78364,-0.32418 -5.47131,-0.72039 -4.60885,-1.08204 -5.66191,-0.39985 -5.66191,3.66785 0,2.64857 0.88383,5.665766 2.27305,7.759706 0.66282,0.99904 1.52042,2.55249 1.90578,3.4521 0.38537,0.89962 1.11337,2.28943 1.61778,3.08846 1.41168,2.23626 3.62554,6.79534 3.87649,7.98301 0.33015,1.5625 -0.38886,5.97502 -1.24805,7.65916 -0.67998,1.33288 -0.7066,1.62145 -0.30428,3.29851 0.51519,2.14753 0.272,3.52026 -0.66713,3.76585 -0.96732,0.25296 -2.7077,-0.98131 -3.37929,-2.39657 -0.31882,-0.67186 -0.785,-1.22158 -1.03594,-1.22158 -1.29811,0 -4.8708,-2.27125 -6.11853,-3.88972 -0.73128,-0.94856 -1.43605,-1.73143 -1.56615,-1.73969 -0.13011,-0.008 -0.34187,0.46444 -0.47058,1.05047 -0.13989,0.63692 -0.78971,1.51207 -1.61553,2.17571 -1.36245,1.09489 -1.38151,1.14329 -1.38151,3.5082 0,2.0445 -0.105,2.45418 -0.7123,2.7792 -1.15507,0.61817 -2.46557,-0.29036 -3.85783,-2.67453 -0.68789,-1.17797 -2.0819,-2.90416 -3.0978,-3.83597 -1.76148,-1.6157 -3.62096,-4.71556 -3.62096,-6.03638 0,-0.41695 -0.42438,-0.16813 -1.43222,0.83971 -3.67832,3.67831 -6.7836,2.2553 -7.425,-3.40254 -0.16892,-1.49005 -0.21376,-3.21497 -0.0996,-3.83315 0.19577,-1.06056 0.13756,-1.13709 -1.03175,-1.35645 -2.51642,-0.47209 -3.90074,-2.79818 -4.51479,-7.58629 -0.45172,-3.52232 -0.0547,-7.759696 0.95295,-10.171396 0.27372,-0.65511 0.49768,-1.33047 0.49768,-1.5008 0,-0.1748 -10.77052,-0.3097 -24.726406,-0.3097 h -24.72605 l -1.82015,1.54304 c -1.00109,0.84867 -2.95333,2.265 -4.33833,3.14739 -4.24955,2.707426 -4.73263,3.682646 -3.21446,6.489266 0.87268,1.61332 2.5401,3.4621 6.86378,7.61032 2.3395,2.24457 3.02,3.15216 3.77207,5.0308 1.10971,2.77199 1.12259,3.16744 0.17396,5.34229 -0.68931,1.58032 -0.71253,1.9017 -0.31768,4.39659 0.46942,2.96615 0.16641,4.18752 -1.03889,4.18752 -1.18545,0 -1.78641,-0.41088 -2.83936,-1.94129 -0.76725,-1.11516 -1.34574,-1.56201 -2.23915,-1.72962 -0.66255,-0.12429 -1.844,-0.68915 -2.62545,-1.25523 l -1.42083,-1.02924 -0.12013,5.18255 -0.12013,5.18255 -1.45761,2.64584 c -1.07113,1.94429 -1.99317,3.06676 -3.47741,4.23333 -1.2842,1.00934 -2.2951,2.16566 -2.77572,3.175 -0.57894,1.21581 -0.97508,1.61287 -1.69195,1.69584 -1.48927,0.17236 -2.06934,-0.98648 -1.82163,-3.63917 0.13588,-1.45507 0.0705,-2.27388 -0.19457,-2.43772 -0.25781,-0.15934 -0.39916,0.077 -0.39916,0.66739 0,2.67562 -3.61976,7.42472 -6.96737,9.14114 -0.91317,0.46822 -1.14652,0.80614 -1.14652,1.66033 0,1.81228 -0.55287,2.43719 -2.15622,2.43719 -1.11617,0 -1.65735,-0.23151 -2.49185,-1.06601 z m 3.59847,-0.54445 c 0.18922,-0.4977 0.34404,-1.26623 0.34404,-1.70783 0,-0.59936 0.44327,-1.04417 1.74849,-1.75456 1.04729,-0.57 2.52123,-1.88261 3.67538,-3.27308 1.61289,-1.94315 2.01705,-2.72068 2.48016,-4.77141 0.49224,-2.17969 0.49542,-2.58843 0.0288,-3.70522 -0.75467,-1.80619 -0.65893,-5.76024 0.21487,-8.8743 0.90445,-3.22326 0.70816,-5.53493 -0.70847,-8.34342 -0.5532,-1.09672 -0.7472,-1.74628 -0.44754,-1.49849 0.29091,0.24056 0.89899,1.23113 1.35129,2.20127 1.04852,2.24899 1.08078,5.05185 0.1084,9.4173 -0.8398,3.77019 -0.65443,5.28991 1.08521,8.89694 0.9357,1.94011 1.03822,2.44832 0.83784,4.15326 -0.18838,1.60282 -0.12849,1.98097 0.34237,2.16166 0.56278,0.21596 0.68383,0.0777 1.9939,-2.27819 0.28516,-0.5128 1.42399,-1.66651 2.53073,-2.5638 1.56695,-1.27042 2.3075,-2.22885 3.34648,-4.33109 l 1.33424,-2.69965 -0.0576,-5.49627 c -0.0495,-4.72683 -0.18264,-5.92693 -0.95077,-8.57262 -1.0607,-3.65332 -1.44466,-4.43598 -4.1588,-8.47712 -1.14025,-1.69775 -1.99162,-3.08681 -1.89193,-3.08681 0.0997,0 1.11657,1.17702 2.25975,2.61559 1.97732,2.48825 2.36608,3.28234 4.66813,9.53523 1.04273,2.83231 2.80516,4.65964 5.25648,5.45005 1.55905,0.50271 2.07478,0.87139 2.62586,1.87716 0.74318,1.35636 1.78778,2.18953 2.32719,1.85616 0.45292,-0.27992 0.42771,-1.96998 -0.0582,-3.89958 -0.3452,-1.37092 -0.29947,-1.80876 0.35278,-3.37826 0.99677,-2.3985 0.94529,-3.59162 -0.26404,-6.11885 -0.80311,-1.67831 -1.85898,-2.9044 -5.0985,-5.9204 -3.2892,-3.06227 -4.30327,-4.24584 -5.20214,-6.07172 -1.68935,-3.43155 -1.14241,-4.557726 3.76795,-7.758456 3.81153,-2.48448 6.23099,-4.73181 7.98112,-7.41331 1.32012,-2.02265 1.37004,-2.20284 1.12393,-4.05694 -0.14165,-1.06716 -0.27255,-2.32118 -0.29088,-2.78672 -0.0196,-0.49871 -0.3232,-0.95954 -0.73889,-1.12174 -1.19704,-0.46705 -4.74066,-0.35429 -5.78154,0.18397 -1.55512,0.80418 -4.69165,4.46104 -5.9789,6.97075 -1.98115,3.86256 -3.75351,5.2204 -6.81407,5.2204 -2.32187,0 -4.27499,-1.15788 -6.10336,-3.61831 -0.88334,-1.1887 -3.06928,-3.74313 -4.85766,-5.67652 -2.47018,-2.67046 -3.71818,-3.72885 -5.19308,-4.40408 -1.0678,-0.48886 -1.73689,-0.95703 -1.48685,-1.04038 0.91547,-0.30515 4.86082,2.02677 6.85659,4.05264 1.10729,1.12398 2.26158,2.40079 2.56509,2.83735 0.7501,1.07892 0.96829,1.01474 2.09952,-0.61763 1.02525,-1.47943 1.59236,-1.7328 5.57384,-2.49013 1.76465,-0.33566 2.34722,-0.67033 4.23333,-2.43189 1.4837,-1.38571 3.37839,-2.63852 5.89126,-3.89538 2.03729,-1.019 4.12554,-2.15063 4.64056,-2.51475 0.51503,-0.36411 1.12564,-0.66203 1.35693,-0.66203 0.23129,0 1.79428,1.29312 3.47332,2.8736 3.49432,3.28919 6.58051,5.66315 8.87723,6.82854 2.40572,1.2207 9.34698,3.2766 12.45734,3.6897 4.43231,0.58866 11.25978,0.44898 14.91364,-0.30512 4.886156,-1.00842 10.710406,-3.77451 14.969986,-7.10965 1.15507,-0.90438 1.36113,-0.94917 2.82537,-0.6141 l 1.57944,0.36143 3.34824,-2.51592 c 4.86995,-3.65934 6.06402,-4.05108 12.41432,-4.07274 3.01189,-0.0103 5.33332,0.13019 5.53809,0.3351 0.23503,0.23517 -1.43482,0.35277 -5.00914,0.35277 -5.28745,0 -5.39432,0.0155 -7.71742,1.11605 -3.4074,1.61429 -6.51083,3.82686 -7.73177,5.51233 -0.58459,0.80701 -1.72043,2.66201 -2.52409,4.12223 -0.80365,1.46022 -1.96756,3.36932 -2.58645,4.24245 -1.45235,2.04896 -3.49246,6.13422 -3.96385,7.9375 -1.02147,3.90755 -1.12247,5.273376 -0.65222,8.819436 0.63002,4.75093 1.41518,6.20591 3.70303,6.86205 0.82307,0.23606 1.1132,0.18574 1.26892,-0.22005 0.37241,-0.97051 0.20703,-3.23904 -0.50261,-6.89407 -0.787,-4.05346 -0.88141,-6.121446 -0.34398,-7.534996 0.50007,-1.31528 0.71869,-0.93464 0.36469,0.63495 -0.16061,0.7121 -0.21263,1.99903 -0.1156,2.859836 0.1684,1.49403 0.2266,1.56296 1.28164,1.51759 1.06967,-0.046 1.11247,0.009 1.33005,1.71636 0.12366,0.97014 0.33859,2.11337 0.47764,2.54051 0.19009,0.58393 0.0258,0.987 -0.66222,1.62464 -0.87979,0.81536 -0.92336,1.04364 -1.13108,5.92616 -0.20887,4.90991 -0.18768,5.13072 0.63968,6.66564 1.11063,2.06042 2.30317,2.26224 4.39851,0.74439 1.7931,-1.29891 2.67964,-3.46786 3.2647,-7.98713 0.46052,-3.55724 0.0598,-9.23847 -0.86809,-12.3064 -0.5754,-1.902546 -0.42507,-2.675896 0.20394,-1.049096 1.19717,3.096256 1.45676,5.902406 1.22017,13.189896 l -0.23478,7.23195 1.09473,2.17113 c 0.72553,1.43891 1.75445,2.73474 3.05087,3.84231 1.32405,1.13117 2.22129,2.27075 2.77673,3.52669 0.49552,1.12046 1.11263,1.94819 1.5578,2.08948 1.27151,0.40356 1.55346,-0.094 1.34653,-2.37597 -0.18381,-2.02717 -0.14583,-2.15682 0.91596,-3.12662 0.60925,-0.55646 1.21556,-1.01175 1.34737,-1.01175 0.40047,0 1.01422,-2.1401 1.01422,-3.53652 0,-0.72301 -0.37743,-2.16802 -0.83874,-3.21111 -0.89227,-2.01758 -1.44829,-4.45115 -1.80331,-7.89264 -0.32198,-3.12123 -1.12629,-5.64962 -2.72226,-8.55756 -1.54482,-2.814726 -1.61687,-3.893556 -0.0995,-1.48991 1.96384,3.11093 2.96952,6.30958 3.71359,11.81136 0.32073,2.37153 0.82854,4.06773 2.00669,6.70277 2.31317,5.17363 4.42497,7.46043 7.96185,8.62161 0.91447,0.30023 1.61205,0.87197 2.19971,1.80289 1.00855,1.59763 2.22799,2.40451 2.63607,1.74422 0.1454,-0.23526 0.041,-1.28312 -0.23202,-2.32857 -0.47743,-1.82829 -0.46171,-1.97411 0.41203,-3.82103 0.66172,-1.39876 0.95819,-2.71624 1.09175,-4.85161 0.20538,-3.28372 0.74922,-1.84969 -4.5885,-12.09926 -1.11025,-2.13191 -2.22872,-4.11629 -2.4855,-4.40973 -0.99323,-1.13503 -1.9503,-3.55423 -2.32368,-5.873596 -1.00084,-6.2169 1.21906,-8.60686 6.50498,-7.00332 0.95247,0.28894 2.98697,0.52535 4.52111,0.52535 1.53414,0 3.1361,0.17894 3.55991,0.39766 0.4238,0.21871 2.12374,1.71172 3.77763,3.31781 3.23316,3.13972 3.65971,3.32459 7.98649,3.46154 2.6427,0.0836 3.49459,-0.64078 3.78638,-3.21978 0.28078,-2.48177 0.12028,-2.95991 -2.3931,-7.12904 -1.06059,-1.75928 -2.03888,-3.71001 -2.17397,-4.33497 -0.41068,-1.89975 -1.84696,-4.39413 -3.06398,-5.32121 -0.63342,-0.48251 -1.94542,-1.0709 -2.91556,-1.30752 -0.97014,-0.23663 -3.24406,-1.05605 -5.05316,-1.82093 -2.59261,-1.09615 -4.09056,-1.48235 -7.07259,-1.82344 -3.31473,-0.37915 -3.98965,-0.57471 -5.44919,-1.5789 -0.91623,-0.63038 -2.73419,-1.64682 -4.03991,-2.25875 -2.03741,-0.95484 -2.92429,-1.14576 -6.2546,-1.34642 -3.41951,-0.20603 -5.80605,-0.76752 -6.58116,-1.54837 -0.12713,-0.12808 0.369,-1.13643 1.10253,-2.24078 3.72881,-5.61383 7.77213,-14.257334 8.60845,-18.402464 0.77223,-3.82755 1.36428,-12.18586 1.22443,-17.28611 l -0.12091,-4.40972 -1.33075,-1.94028 c -0.73191,-1.06715 -1.6415,-2.97845 -2.02131,-4.24732 -0.82551,-2.75787 -1.61712,-3.68477 -4.07546,-4.77197 -1.01817,-0.45027 -2.38287,-1.28188 -3.03268,-1.848 -1.59013,-1.38535 -2.98379,-2.0540804 -4.88563,-2.3443304 -0.87313,-0.13325 -3.81,-0.70509 -6.52639,-1.27075 -7.92835,-1.65101 -15.68272,-2.75086 -23.812526,-3.37746 -11.32495,-0.87288 -21.74337,-0.1813 -32.6334,2.16622 -4.83502,1.04226 -7.36389,2.07616 -8.68931,3.5525004 -0.50791,0.56573 -1.85702,2.06048 -2.99804,3.32166 -2.24083,2.47683 -2.67463,3.33374 -4.30926,8.51238 -1.44186,4.56793 -1.80532,11.53707 -0.98411,18.86973 0.70131,6.2621 1.70536,9.13615 5.65833,16.196704 3.2968,5.88854 3.24695,5.38055 0.80892,8.24381 -2.25202,2.6448 -2.87479,2.95995 -6.37174,3.22444 -2.66271,0.20139 -3.60063,0.44004 -5.30618,1.35017 -2.06646,1.10273 -2.0858,1.10556 -7.57834,1.10822 -7.56675,0.004 -9.20209,0.32515 -14.8552,2.92037 -7.3238727,3.36222 -8.8130227,5.15062 -8.8174827,10.58939 -0.002,2.27632 0.43412,4.2046 2.54686,11.26431 0.9754897,3.25961 2.6189707,4.763316 6.6500427,6.084476 4.44557,1.457 5.13426,1.85795 6.293,3.66369 1.16898,1.8217 2.13375,5.3453 2.14181,7.8225 0.007,2.3038 -0.90817,5.50701 -2.21458,7.74704 -0.62238,1.06715 -2.89644,3.68653 -5.05348,5.82083 -3.860241,3.81956 -5.392502,6.01972 -5.932432,8.51832 -0.40992,1.89697 1.0478,4.35807 2.581301,4.35807 0.19695,0 0.802701,-0.46721 1.346111,-1.03824 0.55752,-0.58587 2.06399,-1.43867 3.45746,-1.95726 1.3582,-0.50545 2.97974,-1.41328 3.60342,-2.0174 0.62369,-0.60411 2.55467,-3.25554 4.29108,-5.89205 l 3.15711,-4.79366 -0.36944,-2.19521 -0.36944,-2.19522 -1.84028,1.93063 c -1.01215,1.06185 -2.01875,1.93063 -2.23688,1.93063 -0.43255,0 -1.47307,-1.7987 -1.47307,-2.54642 0,-0.25563 0.43657,-1.09696 0.97014,-1.8696 0.88197,-1.27714 0.97014,-1.69264 0.97014,-4.57186 0,-2.69467 0.0891,-3.18469 0.59761,-3.28526 0.39558,-0.0782 0.83755,0.33649 1.30733,1.22678 0.64365,1.21977 0.71216,1.26288 0.73603,0.46303 0.0607,-2.03308 0.67662,0.43991 1.54123,6.18786 1.60386,10.66266 1.60244,10.94529 -0.0811,16.12002 -1.22511,3.76566 -1.45529,4.93254 -1.45529,7.37739 0,1.59731 -0.17912,3.78689 -0.39805,4.86572 -0.53735,2.64795 -0.0736,4.96613 1.1137,5.5669 1.34207,0.67909 2.08974,0.54175 2.46808,-0.45335 z m 0.84179,-16.07927 c -0.52279,-0.84588 -0.15211,-2.48453 0.84817,-3.74944 0.57193,-0.72325 1.10056,-1.6325 1.17473,-2.02055 0.21553,-1.12773 2.1085,-0.96394 2.68172,0.23203 0.54684,1.14094 0.0982,2.60426 -0.89521,2.91954 -0.36969,0.11733 -1.18001,0.84529 -1.80073,1.61768 -1.17977,1.46807 -1.59271,1.6738 -2.00868,1.00074 z m -14.96164,-7.00147 c 0,-0.41486 0.50397,-1.02852 1.23131,-1.49931 0.71009,-0.45962 1.39367,-1.28232 1.61486,-1.94352 0.3172,-0.94818 0.56382,-1.14653 1.4256,-1.14653 1.12295,0 1.61851,0.68171 1.13005,1.55454 -0.16592,0.29648 -1.14467,1.25862 -2.17499,2.13809 -2.02115,1.72522 -3.22683,2.06027 -3.22683,0.89673 z m 15.70596,-2.25688 c -1.41715,-1.41715 -1.48608,-3.03775 -0.23919,-5.6231 1.1957,-2.47921 1.89589,-3.24086 2.6968,-2.93353 0.3771,0.14471 0.53365,0.71809 0.53365,1.95455 0,1.68925 0.10792,1.90416 1.57526,3.13699 0.56741,0.47672 0.71459,1.76509 0.27044,2.36734 -0.33408,0.453 -3.0992,1.94027 -3.60732,1.94027 -0.21291,0 -0.76625,-0.37913 -1.22964,-0.84252 z m 11.28238,-3.03668 c -0.13318,-0.21548 -0.13679,-1.29944 -0.008,-2.4088 0.22546,-1.94258 0.19329,-2.05338 -0.87146,-3.00208 -0.60806,-0.54178 -1.04597,-1.1638 -0.97315,-1.38227 0.2642,-0.79261 1.93475,-1.75207 2.65341,-1.52398 1.23862,0.39313 1.61069,1.97723 1.26954,5.40505 -0.27656,2.77873 -0.38322,3.09794 -1.06772,3.19549 -0.41825,0.0596 -0.86942,-0.0679 -1.00259,-0.28341 z m -13.3476,-8.35043 c -0.12935,-0.12935 -0.23518,-0.83754 -0.23518,-1.57375 0,-0.91121 -0.23973,-1.56192 -0.75088,-2.03812 -0.96828,-0.90209 -0.68181,-1.59206 1.02188,-2.46122 0.75003,-0.38264 1.57095,-0.94543 1.82427,-1.25066 0.25331,-0.30522 0.75863,-0.55495 1.12292,-0.55495 0.53936,0 0.66236,0.26637 0.66236,1.4343 0,0.78887 0.14,1.70168 0.31109,2.02848 0.44255,0.84524 -0.14079,2.13438 -1.13723,2.51323 -0.4648,0.17671 -1.1666,0.73003 -1.55955,1.22959 -0.7636,0.97076 -0.89292,1.03986 -1.25968,0.6731 z m 8.65582,-2.6772 c -0.20219,-0.24362 -0.47533,-0.87211 -0.60698,-1.39664 -0.13164,-0.52453 -0.46191,-1.1384 -0.73391,-1.36414 -0.56802,-0.47141 -0.65756,-1.59278 -0.15214,-1.90515 0.18833,-0.11639 0.78364,0.008 1.32292,0.27591 0.60577,0.30121 1.31756,0.38757 1.86244,0.22597 1.36374,-0.40445 1.67108,-0.3743 2.26786,0.22247 0.88281,0.88281 0.66668,1.83888 -0.55898,2.47269 -0.61234,0.31666 -1.43602,0.87636 -1.83041,1.24378 -0.84373,0.78606 -1.07745,0.81955 -1.5708,0.22511 z m 10.02035,-0.11507 c -0.36049,-0.93943 -0.24029,-1.80333 0.31504,-2.26421 0.29104,-0.24154 0.52916,-0.8166 0.52916,-1.27791 0,-0.54135 0.20464,-0.83875 0.57712,-0.83875 0.48362,0 0.54077,0.26518 0.35278,1.63673 -0.12339,0.90021 -0.22434,2.01146 -0.22434,2.46945 0,0.97091 -1.20091,1.18377 -1.54976,0.27469 z m 91.166356,-2.94917 c -0.60319,-1.12708 0.87146,-2.13726 3.11997,-2.13726 1.66941,0 2.01857,0.4036 1.47806,1.7085 -0.36246,0.87507 -0.57036,0.96286 -2.34063,0.98845 -1.4719,0.0213 -2.01908,-0.11439 -2.2574,-0.55969 z m -12.12306,-0.25578 c -0.12935,-0.12935 -0.23518,-0.51818 -0.23518,-0.86406 0,-0.34589 -0.50243,-1.09843 -1.1165,-1.67234 l -1.1165,-1.04346 1.55747,-1.78076 c 0.92366,-1.05607 1.86075,-1.78722 2.30271,-1.79664 0.68424,-0.0146 0.76569,0.23628 0.99521,3.065 0.23505,2.89682 0.204,3.11813 -0.51973,3.70417 -0.8029,0.65015 -1.46734,0.78823 -1.86748,0.38809 z m -83.772986,-3.01037 c -0.23283,-0.23283 -0.42333,-0.69622 -0.42333,-1.02974 0,-0.33353 -0.25329,-1.05584 -0.56286,-1.60514 -0.44166,-0.78368 -0.48152,-1.20763 -0.18512,-1.96887 0.51112,-1.31268 1.42555,-1.22625 2.60006,0.24575 0.95132,1.19227 1.25918,2.91208 0.75601,4.22332 -0.25237,0.65765 -1.57994,0.7395 -2.18476,0.13468 z m 92.770286,-2.31069 c -0.17453,-0.33955 -0.4234,-1.94427 -0.55302,-3.56604 -0.25749,-3.221446 -0.005,-3.930486 1.39708,-3.930486 0.44986,0 0.91604,-0.15875 1.03596,-0.35278 0.3293,-0.53283 1.48515,-0.42278 1.70986,0.16281 0.10882,0.28357 0.0491,1.42928 -0.13262,2.54603 -0.21338,1.311086 -0.20762,2.153286 0.0163,2.377186 0.61897,0.61897 0.36879,1.18727 -0.68425,1.55436 -0.56705,0.19767 -1.20764,0.68946 -1.42353,1.09284 -0.47936,0.8957 -0.94469,0.93524 -1.36577,0.11608 z m -26.61073,-1.70903 c -0.11535,-0.11535 0.078,-0.6829 0.42973,-1.26122 0.52149,-0.85753 0.56848,-1.2395 0.25476,-2.070656 -0.47957,-1.27052 0.0306,-2.92524 0.95681,-3.10362 0.57189,-0.11013 0.626,0.0422 0.4373,1.2313 -0.11845,0.74634 -0.31712,2.071346 -0.4415,2.944476 -0.28576,2.00609 -0.96003,2.93679 -1.6371,2.25972 z m -82.517316,-2.07289 c -0.40881,-0.89725 0.0501,-1.950716 0.84981,-1.950716 0.19316,0 0.89362,-0.47625 1.55657,-1.05833 0.66296,-0.58209 1.3586,-1.05834 1.54588,-1.05834 0.64139,0 1.75162,1.41068 1.75162,2.22563 0,1.229826 -0.708,1.875876 -2.53747,2.315466 -2.34721,0.56399 -2.71894,0.50838 -3.16641,-0.47371 z m -7.82025,-1.293206 c -0.07,-0.26462 -0.32614,-1.03675 -0.56925,-1.71584 -1.05429,-2.9451 -0.86144,-3.32557 1.95205,-3.85118 1.1435,-0.21363 1.98073,-0.62622 2.50312,-1.23352 0.4317,-0.50189 0.87191,-0.91253 0.97823,-0.91253 0.3768,0 0.18134,1.24934 -0.35699,2.28172 -0.30027,0.57585 -0.46146,1.38362 -0.3582,1.79505 0.2074,0.82634 -0.22844,1.49189 -1.56094,2.38368 -0.48507,0.32463 -1.23719,0.84753 -1.67136,1.16199 -0.63932,0.463036 -0.81361,0.480276 -0.91666,0.0906 z m -4.58513,-0.8927 c -0.12935,-0.12935 -0.23519,-0.67561 -0.23519,-1.2139 0,-0.53829 -0.16102,-1.07823 -0.35782,-1.19986 -0.62802,-0.38814 -1.758931,-2.93235 -1.756491,-3.95158 0.003,-1.31168 4.267551,-5.74669 5.525641,-5.74669 0.94381,0 1.38895,0.73828 0.93463,1.5501 -0.16455,0.29405 -1.17003,1.14302 -2.23438,1.88661 -2.14668,1.49974 -2.57166,2.65169 -1.05324,2.85497 1.22014,0.16333 1.61353,0.62406 1.08086,1.26589 -0.29005,0.34949 -0.36051,1.011 -0.20544,1.92881 0.334,1.97693 -0.71922,3.605 -1.69857,2.62565 z m 26.3835,-0.9835 c -1.49974,-1.49974 -1.07043,-2.08262 2.07039,-2.81102 2.93818,-0.68141 3.4137,-0.69117 3.4137,-0.0701 0,0.54897 -3.59955,3.74702 -4.21744,3.74702 -0.22041,0 -0.7904,-0.38966 -1.26665,-0.86591 z m 8.72964,-2.73242 c -0.8004,-0.80041 -0.47835,-2.00356 0.75221,-2.81021 0.64655,-0.42383 1.43882,-1.22932 1.7606,-1.78999 0.6903,-1.20278 1.29719,-0.99507 1.29719,0.44396 0,0.62955 -0.33168,1.33413 -0.86208,1.83127 -0.47415,0.44441 -1.02584,1.24459 -1.22599,1.77816 -0.38771,1.03361 -1.03088,1.23785 -1.72193,0.54681 z m 75.977716,-1.61572 c -0.10962,-0.34537 -0.86278,-0.86131 -1.6737,-1.14653 -0.81092,-0.28522 -1.52506,-0.67734 -1.58696,-0.87136 -0.0619,-0.19403 0.20197,-0.86872 0.58641,-1.49931 0.94866,-1.55611 2.61244,-1.59988 4.04332,-0.10636 0.5481,0.57209 1.33186,1.08803 1.74169,1.14653 1.10002,0.15701 1.20253,1.80983 0.15764,2.54169 -1.11265,0.77933 -3.01246,0.74174 -3.2684,-0.0647 z m 8.3026,-0.40009 c -0.33716,-0.21349 -0.42271,-0.65916 -0.27159,-1.41476 0.20024,-1.00123 0.10585,-1.15781 -1.02214,-1.69571 -1.80911,-0.86271 -1.55925,-1.91481 0.55122,-2.32105 0.87312,-0.16806 1.73831,-0.45029 1.92264,-0.62718 0.64485,-0.61882 2.33169,-0.33267 3.20867,0.54431 0.99793,0.99792 1.11556,2.08165 0.297,2.73615 -0.3129,0.25019 -1.21129,1.05019 -1.99642,1.7778 -1.48704,1.37809 -1.86874,1.52007 -2.68938,1.00044 z m -16.7985,-0.75035 c -0.13566,-0.42743 -0.6471,-0.80377 -1.2585,-0.92605 -0.63464,-0.12692 -1.02788,-0.42601 -1.02456,-0.77925 0.0184,-1.95531 4.09309,-3.77485 5.27209,-2.35424 0.42064,0.50684 0.26536,1.35597 -0.72893,3.98584 -0.39409,1.04237 -1.93669,1.09267 -2.2601,0.0737 z M 10.098451,91.150104 c -0.6211097,-0.40399 -1.2132497,-4.72611 -0.7973597,-5.81999 0.178,-0.46817 0.7003297,-0.94577 1.1607297,-1.06132 0.501341,-0.12583 1.080071,-0.71965 1.442901,-1.48051 0.761181,-1.5962 1.777821,-1.55858 1.936481,0.0717 0.09,0.92486 -0.10787,1.27523 -1.18357,2.0957 -1.221061,0.93135 -1.277901,1.0633 -1.039991,2.41437 0.50415,2.86305 0.41295,3.89078 -0.35396,3.98884 -0.38806,0.0496 -0.912411,-0.0443 -1.165231,-0.20876 z m 18.043243,-3.77895 c -0.12096,-0.31524 0.0702,-0.75793 0.45205,-1.04712 0.63558,-0.48129 0.63085,-0.50144 -0.12017,-0.51222 -0.42998,-0.006 -1.32837,0.24943 -1.99641,0.568 -2.75581,1.31415 -3.24687,-0.66446 -0.5732,-2.30959 0.97014,-0.59693 1.76389,-1.22834 1.76389,-1.40312 0,-0.17479 -0.43657,-0.42675 -0.97014,-0.55991 -1.1478,-0.28646 -2.20486,-1.16349 -2.20486,-1.82933 0,-0.26097 0.0397,-0.47376 0.0882,-0.47286 0.40521,0.008 4.29222,1.76823 4.61404,2.09005 0.40668,0.40668 0.45774,0.55797 0.54533,1.61591 0.0242,0.29293 0.78633,0.88824 1.69351,1.32292 1.94921,0.93398 2.17382,1.37681 1.19486,2.35578 -0.92341,0.9234 -4.15228,1.054 -4.48709,0.18149 z m 134.639336,-0.1608 c -0.20808,-0.38881 -0.34772,-1.0635 -0.31032,-1.49931 0.16641,-1.939 -0.11675,-2.77643 -1.4658,-4.33514 -1.56662,-1.81009 -1.46353,-2.63086 0.33044,-2.63086 1.3884,0 2.31458,0.81825 3.16576,2.79687 1.13325,2.63432 1.351,4.81089 0.56786,5.67625 -0.81151,0.89672 -1.80567,0.89332 -2.28794,-0.008 z m -18.81409,-1.99772 c -0.12935,-0.12935 -0.23518,-0.5232 -0.23518,-0.87522 0,-0.68602 0.68415,-0.93439 2.99861,-1.08862 l 1.41111,-0.094 v -2.42266 c 0,-2.09605 0.10357,-2.49194 0.76822,-2.9365 0.85695,-0.57318 1.46631,-0.36944 3.55331,1.18805 0.93749,0.69963 1.14653,1.09676 1.14653,2.17823 0,1.51712 -0.49847,2.16927 -1.65806,2.16927 -0.66636,0 -0.81139,0.18917 -0.81139,1.05833 0,1.01185 -0.0666,1.05834 -1.51694,1.05834 -0.83432,0 -1.70314,-0.1862 -1.93071,-0.41377 -0.3165,-0.3165 -0.62723,-0.3165 -1.32188,0 -1.0098,0.4601 -2.04518,0.53702 -2.40362,0.17858 z m -57.737986,-1.11253 c -0.29104,-0.13188 -0.96502,-0.5354 -1.49774,-0.8967 -0.66721,-0.45251 -1.32582,-0.59673 -2.11667,-0.46349 -1.03062,0.17364 -1.25636,0.0451 -2.20642,-1.25671 -1.36448,-1.86962 -2.00942,-2.11377 -1.71664,-0.64985 0.13273,0.66364 0.0726,1.08669 -0.15434,1.08669 -0.20442,0 -0.64164,0.26996 -0.97159,0.59991 -0.5647,0.56471 -0.64901,0.54284 -1.43631,-0.37245 -0.84203,-0.97891 -0.95201,-1.46934 -0.84807,-3.78156 0.0612,-1.36241 -0.68153,-2.30595 -1.55226,-1.97182 -0.3386,0.12993 -0.55127,0.82768 -0.62185,2.04021 -0.059,1.01351 -0.26602,1.89442 -0.46005,1.95758 -0.19403,0.0632 -0.82903,-0.7889 -1.41111,-1.89346 -1.2108,-2.2976 -1.75753,-2.64624 -2.08758,-1.33121 -0.38898,1.54981 -1.06022,0.95692 -2.40734,-2.12637 -0.39488,-0.9038 -0.65431,-1.05833 -1.77669,-1.05833 -1.16539,0 -1.43441,-0.17985 -2.37467,-1.5875 -1.27848,-1.91401 -2.28874,-4.52854 -2.61447,-6.76615 -0.38167,-2.62192 -2.44455,-4.59429 -2.91672,-2.78873 -0.0972,0.37162 -0.58063,0.77706 -1.07434,0.90097 -0.68858,0.17282 -1.14004,-0.005 -1.93844,-0.76387 -1.27734,-1.21398 -2.15207,-2.82403 -1.89635,-3.49045 0.32706,-0.85231 0.79037,-0.55116 1.35209,0.87884 0.29732,0.75688 0.88005,1.55784 1.29497,1.7799 0.72902,0.39016 0.74691,0.35278 0.53198,-1.11158 -0.27977,-1.90609 -2.47725,-5.640994 -4.9484,-8.410474 l -1.89821,-2.12736 v -2.61167 c 0,-1.43643 0.14559,-2.70166 0.32352,-2.81163 0.17794,-0.10997 0.59454,0.63473 0.92578,1.65488 1.26405,3.89297 3.27037,7.12349 6.7632,10.889934 1.86926,2.01569 4.17227,4.85551 5.11779,6.31072 3.61436,5.56266 8.97375,9.60223 17.03221,12.83777 4.49199,1.80357 6.40194,2.21141 11.88699,2.53821 6.66402,0.39706 12.334186,-0.61559 17.753086,-3.17055 2.68608,-1.26646 3.86758,-2.13306 7.58472,-5.56314 7.73101,-7.13399 11.92374,-12.05305 14.47003,-16.976754 1.09751,-2.12224 2.0267,-2.93003 1.86735,-1.62339 -0.0331,0.27091 -0.16509,1.56738 -0.29344,2.88104 -0.2475,2.533194 -1.46485,4.650724 -2.45518,4.270694 -0.30636,-0.11756 -0.83643,0.43575 -1.45306,1.51677 -1.18787,2.08246 -2.23465,3.28935 -2.85298,3.28935 -0.25594,0 -0.91894,0.91281 -1.47334,2.02847 -2.22596,4.4795 -2.56207,5.02709 -3.0856,5.02709 -0.35677,0 -0.47843,-0.21301 -0.3526,-0.61737 0.10566,-0.33954 0.0616,-0.82507 -0.098,-1.07893 -0.37607,-0.59841 -2.17977,1.40895 -3.36159,3.74116 -0.46433,0.91632 -1.17313,2.0614 -1.5751,2.54461 l -0.73086,0.87858 -0.0118,-0.79375 c -0.0184,-1.24314 -0.54648,-0.94532 -1.80704,1.01909 -1.15432,1.79887 -2.71324,3.47883 -3.22816,3.47883 -0.14751,0 -0.26819,-0.47114 -0.26819,-1.04697 0,-0.93608 -0.0841,-1.01639 -0.79375,-0.75831 -0.43657,0.15876 -1.31101,0.98708 -1.94321,1.84071 -2.43545,3.28847 -2.69549,3.49235 -4.45438,3.49235 -0.89547,0 -1.62814,-0.0703 -1.62814,-0.15623 0,-0.0859 0.3327,-0.72008 0.73931,-1.40923 0.63437,-1.07519 0.66332,-1.28217 0.20395,-1.45845 -0.66348,-0.2546 -1.472506,0.1682 -3.394546,1.77402 -1.67853,1.40237 -2.47002,1.56967 -2.72963,0.57694 -0.19867,-0.7597 -1.08706,-1.07908 -3.02116,-1.08613 -1.15309,-0.004 -1.32292,0.10113 -1.32292,0.8205 0,1.3122 -2.83311,2.14911 -4.58611,1.35475 z m 55.833346,-2.78392 c -0.2391,-0.086 -0.60046,-0.77182 -0.80302,-1.52409 -0.20256,-0.75226 -0.77872,-1.8555 -1.28034,-2.45165 -0.84236,-1.00109 -1.0699,-1.07916 -2.97816,-1.0219 -2.37904,0.0714 -3.23388,-0.42228 -3.07644,-1.77664 0.13079,-1.12513 1.12994,-1.33218 3.63381,-0.75301 1.15147,0.26634 2.29739,0.87521 3.30047,1.75366 1.31814,1.15436 1.48307,1.44566 1.16017,2.04901 -0.30791,0.57534 -0.21839,0.8518 0.49189,1.51907 0.47756,0.44865 0.8683,1.00674 0.8683,1.24021 0,0.58017 -0.78577,1.15627 -1.31668,0.96534 z m -20.22026,-0.65194 c -0.62453,-0.75252 -0.0837,-2.1696 1.18989,-3.11789 0.81151,-0.60422 1.50276,-0.74159 3.73163,-0.74159 2.45614,0 2.86864,0.10146 4.03769,0.99313 2.0659,1.57574 0.67571,2.56212 -2.55318,1.81154 -2.08694,-0.48513 -2.44546,-0.41786 -4.2329,0.79421 -1.41653,0.96055 -1.57632,0.97971 -2.17313,0.2606 z m -80.861266,-1.47388 c -1.50936,-1.66782 -0.23092,-2.31225 3.95951,-1.99592 2.92299,0.22066 3.13441,0.28728 2.81371,0.88651 -0.50986,0.95267 -1.30232,1.26898 -3.86281,1.54184 -2.00461,0.21363 -2.37563,0.1585 -2.91041,-0.43243 z m 112.854146,-1.44952 c -0.32424,-0.35828 -1.26165,-0.85092 -2.08315,-1.09476 -2.69426,-0.79973 -3.21322,-1.7816 -0.94166,-1.7816 1.7498,0 4.79261,1.25173 5.0015,2.05748 0.38396,1.481 -0.89718,2.01173 -1.97669,0.81888 z m -65.040466,-1.05944 c -2.20963,-0.64504 -2.87933,-2.76648 -1.4119,-4.47248 0.67359,-0.78308 0.93984,-0.87746 1.6757,-0.59395 2.26406,0.87227 3.78902,1.24867 4.80236,1.18536 0.98286,-0.0614 1.12284,0.0506 1.2638,1.01098 0.34945,2.38097 -2.92288,3.86469 -6.32996,2.87009 z m -61.40525,-0.80807 c -0.79814,-0.51108 -2.01,-0.81219 -3.88055,-0.9642 -2.00166,-0.16266 -2.71997,-0.35247 -2.71997,-0.71873 0,-0.70656 2.12849,-1.38428 4.4464,-1.41575 2.40524,-0.0327 3.84388,1.00727 3.84388,2.77854 0,1.26994 -0.15932,1.30012 -1.68976,0.32014 z m 7.95605,-0.8555 c -0.94395,-0.51218 -1.59398,-1.90605 -1.19213,-2.55627 0.11094,-0.1795 1.03869,-0.33613 2.06168,-0.34809 1.023,-0.0119 2.47779,-0.28251 3.23288,-0.60125 1.21171,-0.51149 1.43416,-0.51827 1.89468,-0.0578 0.46051,0.46052 0.44428,0.58523 -0.13818,1.06225 -0.36297,0.29726 -1.34965,1.10587 -2.19263,1.7969 -1.68421,1.38064 -2.22738,1.48497 -3.6663,0.70422 z m 64.730226,-0.51712 c -0.917236,-0.36868 -1.002106,-0.94565 -0.288896,-1.9639 0.277656,-0.39642 0.555476,-1.5033 0.617356,-2.45974 0.11107,-1.71662 0.0989,-1.73935 -0.945816,-1.76808 -1.86366,-0.0513 -1.95443,-0.1087 -1.8724,-1.18524 0.0583,-0.76483 -0.17232,-1.23571 -0.87634,-1.78949 -0.52548,-0.41335 -0.95543,-0.99402 -0.95543,-1.29038 0,-0.85129 2.29943,-2.93773 3.23762,-2.93773 1.303406,0 2.406836,0.95774 2.406836,2.0891 0,0.54491 0.34569,1.43023 0.76822,1.96738 0.7096,0.90211 0.72306,1.00964 0.17639,1.40938 -0.79346,0.58019 -0.74554,0.81305 0.19505,0.9478 0.65676,0.0941 0.79272,0.34608 0.82221,1.52384 0.0194,0.77611 0.16015,1.92069 0.31272,2.5435 0.24042,0.98144 0.13444,1.27536 -0.79507,2.20487 -1.12931,1.1293 -1.51399,1.22658 -2.80245,0.70869 z m -21.453186,-0.60637 c -1.03047,-1.15436 -2.27111,-3.29238 -2.27111,-3.91386 0,-0.84211 0.68724,-1.466 1.61486,-1.466 1.30086,0 1.66774,-0.80883 0.95074,-2.09606 l -0.62532,-1.12264 1.32293,-1.12468 c 0.72761,-0.61857 1.32292,-1.40249 1.32291,-1.74204 -2e-5,-0.94156 1.16546,-1.90386 2.64115,-2.18071 1.12373,-0.21081 1.46846,-0.11485 2.25319,0.62724 0.50956,0.48187 1.32335,0.92931 1.80842,0.99431 2.00374,0.26852 0.90944,3.11231 -1.2012,3.12162 -2.52878,0.0112 -3.49953,0.9321 -2.65193,2.51586 0.35973,0.67216 0.30685,0.87448 -0.37231,1.42444 -0.43539,0.35255 -1.1709,0.64099 -1.63447,0.64099 -0.99553,0 -1.12202,0.85557 -0.29998,2.02919 0.48913,0.69834 0.48824,0.88071 -0.009,1.84238 -0.63798,1.23371 -1.96244,1.4429 -2.84882,0.44996 z m -28.9169,-1.67569 c -0.31842,-1.01922 -0.51244,-1.41701 -1.04818,-2.14894 -0.50161,-0.68531 -0.46177,-0.83596 0.55979,-2.11666 0.60492,-0.75837 1.50011,-2.16594 1.98932,-3.12795 l 0.88947,-1.7491 0.66242,0.81804 c 0.87426,1.07967 0.83638,1.5118 -0.21953,2.50377 -0.75811,0.71221 -0.88195,1.13783 -0.88195,3.03126 0,1.21149 -0.0964,2.45381 -0.21413,2.76072 -0.27184,0.70842 -1.51845,0.72912 -1.73721,0.0289 z m 21.47237,-0.44862 c -0.53051,-0.33752 -2.94047,-4.87308 -2.94047,-5.534 0,-0.95055 1.56081,-2.32723 2.87573,-2.53649 1.11229,-0.17701 1.36988,-0.0804 1.88613,0.70752 0.32886,0.50189 0.76896,2.13143 0.97801,3.6212 0.36754,2.61923 0.35347,2.73022 -0.42592,3.36134 -0.84599,0.68504 -1.68365,0.8193 -2.37348,0.38043 z m 38.883716,-0.51182 c -0.77309,-1.10375 -0.6834,-2.17519 0.27907,-3.33402 0.45553,-0.54846 1.05206,-1.47152 1.32561,-2.05123 0.56393,-1.19509 1.29092,-1.4677 2.15546,-0.80826 0.97276,0.74198 0.35612,4.54767 -0.95935,5.92072 -1.20466,1.2574 -2.05325,1.34005 -2.80079,0.27279 z m 3.41446,-8.75384 c -1.42668,-0.57316 -1.63424,-1.94036 -0.66309,-4.36768 0.47219,-1.1802 1.06086,-2.145824 1.30815,-2.145824 0.2473,0 0.76522,1.001504 1.15094,2.225564 0.66053,2.09613 0.66765,2.29615 0.12239,3.43958 -0.62109,1.30243 -0.70062,1.33759 -1.91839,0.84836 z m -37.254766,-2.70415 c -0.12252,-0.12253 -0.22277,-0.92897 -0.22277,-1.7921 0,-1.32328 0.18474,-1.742694 1.17833,-2.675234 0.64809,-0.60825 1.27811,-1.38372 1.40005,-1.72327 0.29145,-0.81159 1.73725,-0.7954 2.48222,0.0278 1.1597,1.28145 0.54866,2.879084 -1.50111,3.924804 -0.74569,0.38042 -1.44579,0.92618 -1.55577,1.21279 -0.24145,0.62921 -1.46983,1.33635 -1.78095,1.02523 z m -8.32949,-2.2078 c -0.92331,-1.809844 -0.89857,-2.337174 0.16922,-3.606164 0.54945,-0.65299 0.88195,-1.48548 0.88195,-2.20822 0,-0.64572 0.32972,-1.57926 0.74366,-2.10549 0.67737,-0.86114 0.88967,-0.92461 2.38125,-0.71191 2.07581,0.296 2.39873,0.59604 1.87608,1.74312 -0.33292,0.73069 -0.30811,1.06517 0.12841,1.73139 0.51717,0.78929 0.4784,0.8851 -0.87816,2.17058 -0.78057,0.73967 -1.59289,1.871074 -1.80515,2.514234 -0.73796,2.23602 -2.47766,2.47104 -3.49726,0.47246 z m 50.286326,-0.57861 c -0.12663,-0.50453 -0.56442,-1.369344 -0.97287,-1.921804 -0.70526,-0.95391 -0.71294,-1.04977 -0.15265,-1.90488 0.48756,-0.74411 0.86498,-0.90043 2.17413,-0.90043 0.87129,0 1.90435,0.19844 2.29569,0.44098 0.58367,0.36173 0.76877,0.34896 1.03007,-0.071 0.23266,-0.37395 0.0592,-0.6697 -0.64316,-1.09685 -2.58923,-1.57461 -4.27729,-5.22305 -4.47875,-9.68003 l -0.12756,-2.82222 0.33352,2.11666 c 0.79346,5.03562 2.48053,8.57999 4.63201,9.73143 0.90826,0.48609 4.46072,-1.41765 6.16447,-3.30349 5.57819,-6.1744 4.06083,-16.99006 -3.01295,-21.47612 -1.9427,-1.23203 -2.17037,-1.23678 -3.55205,-0.0742 -1.47843,1.24402 -3.07325,4.49856 -3.72675,7.60518 -0.53304,2.534 -0.86773,3.40934 -0.86773,2.26943 0,-2.58685 2.10026,-8.9047 3.18258,-9.57361 0.20558,-0.12706 0.7487,-0.81298 1.20693,-1.52427 0.89885,-1.39525 4.02152,-3.4584 3.60956,-2.38484 -0.18791,0.48967 -0.10959,0.51853 0.50891,0.18751 0.65046,-0.34811 0.70527,-0.31014 0.49746,0.34462 -0.26261,0.82742 -0.0908,0.89852 0.89552,0.37064 0.76937,-0.41175 0.90912,-0.014 0.2414,0.68707 -0.36062,0.37861 -0.28077,0.41434 0.4382,0.19605 0.81637,-0.24785 0.84157,-0.2213 0.35278,0.37165 -0.49046,0.59497 -0.46016,0.62207 0.44374,0.39694 0.53358,-0.13289 0.97014,-0.0971 0.97014,0.0796 0,0.17669 -0.41789,0.42614 -0.92863,0.55433 -0.65618,0.16469 -1.48441,-0.0481 -2.82296,-0.72538 -2.50941,-1.26964 -2.80275,-0.87131 -0.3696,0.50188 3.4001,1.91889 6.36468,6.34506 6.81897,10.18085 0.18428,1.55594 0.34356,1.81589 1.48832,2.42883 0.94324,0.50504 1.31253,0.95398 1.39769,1.69916 0.18034,1.57798 -0.23338,2.67976 -1.16573,3.10458 -0.77345,0.3524 -0.84873,0.5846 -0.79682,2.45764 0.0657,2.36862 -0.26123,2.85775 -2.37259,3.55015 -1.1623,0.38117 -1.59562,0.81405 -2.57754,2.57487 -1.39125,2.49486 -2.12292,3.13401 -4.49195,3.92394 -0.97013,0.32349 -2.28535,1.041374 -2.92269,1.595304 -1.46317,1.27168 -2.3947,1.30268 -2.69911,0.0898 z M 88.651374,55.73147 c -0.79417,-0.48073 -1.01131,-0.86912 -1.01131,-1.80889 0,-1.5051 0.70324,-2.12271 2.07418,-1.8216 0.709,0.15572 1.61468,-0.0157 2.81828,-0.53349 2.06906,-0.89009 3.29834,-0.66649 4.39245,0.79894 0.73488,0.9843 0.65561,2.04022 -0.24563,3.27166 -0.45166,0.61714 -0.92368,0.705564 -3.76652,0.705564 -2.46118,0 -3.49564,-0.148614 -4.26145,-0.612184 z M 104.9262,54.92121 c 0,-0.4913 -0.23812,-1.46319 -0.52916,-2.15975 -0.29105,-0.69657 -0.52918,-1.54318 -0.52918,-1.88138 0,-0.85444 1.27014,-2.38291 2.5152,-3.02675 l 1.04178,-0.53873 1.05917,2.33595 c 1.18882,2.62189 1.1323,3.27254 -0.36088,4.15459 -0.57053,0.33702 -1.13706,0.92699 -1.25895,1.31105 -0.14085,0.44376 -0.53444,0.69829 -1.07981,0.69829 -0.6831,0 -0.85817,-0.18223 -0.85817,-0.89327 z M 59.906224,52.83022 c -0.82904,-0.86524 -2.58776,-2.1213 -3.90828,-2.79126 -2.58967,-1.31387 -3.01371,-1.79256 -3.63644,-4.10519 -0.26153,-0.97125 -1.02371,-2.16066 -2.14284,-3.34397 -2.0668,-2.18534 -2.27987,-3.58281 -0.86429,-5.66878 0.82593,-1.21707 0.84344,-1.34237 0.32718,-2.34071 -1.02626,-1.98457 0.3127,-5.565 2.08898,-5.58604 0.54823,-0.006 0.95418,-0.41252 1.41793,-1.41815 0.91652,-1.98748 3.80419,-5.02924 5.50075,-5.79429 0.78881,-0.3557 1.43419,-0.78137 1.43419,-0.94593 0,-0.428 -0.0943,-0.39952 -2.06873,0.62485 -1.2249,0.6355 -2.06126,0.85372 -2.67839,0.69884 -1.21275,-0.30438 -1.14823,-0.86717 0.0728,-0.63516 0.90089,0.17118 0.93257,0.13888 0.44374,-0.45258 -0.48854,-0.59111 -0.46317,-0.61772 0.35278,-0.36999 0.71897,0.21828 0.79882,0.18256 0.4382,-0.19606 -0.71136,-0.74687 -0.50942,-1.03599 0.46486,-0.66557 0.81181,0.30865 0.88265,0.27135 0.68249,-0.35929 -0.17148,-0.54027 -0.0951,-0.65448 0.32889,-0.49177 0.30373,0.11655 0.55224,0.0376 0.55224,-0.17535 0,-0.213 0.79375,0.10114 1.76389,0.69807 0.97013,0.59693 1.76388,1.20864 1.76388,1.35934 0,0.15071 0.49535,0.89115 1.10077,1.64544 1.44757,1.80349 2.27465,3.77063 2.94029,6.99318 0.5819,2.81715 0.6652,3.61181 0.34506,3.29167 -0.11,-0.11 -0.42461,-1.2735 -0.69912,-2.58555 -0.71174,-3.40174 -2.27916,-6.55456 -3.85685,-7.75792 l -1.31196,-1.00068 -1.54734,0.82086 c -3.42908,1.81912 -6.18423,5.95447 -6.91821,10.38392 -0.72457,4.37264 0.8944,9.22545 4.01321,12.02954 2.11702,1.90338 4.6614,3.14941 5.50373,2.69528 1.95875,-1.05602 3.70019,-4.51046 4.47525,-8.8774 l 0.52888,-2.97981 -0.15499,2.85657 c -0.0897,1.6536 -0.45971,3.67099 -0.87857,4.79049 -0.79454,2.12361 -2.79725,4.70518 -3.92873,5.06431 -0.79682,0.25289 -2.43926,-0.30324 -3.93294,-1.33171 -1.15222,-0.79335 -1.2274,-0.56098 -0.25865,0.79951 1.04525,1.46792 2.82106,1.95172 5.13037,1.39773 2.193,-0.52609 2.86321,-0.34171 3.34278,0.91965 0.46008,1.2101 -0.47626,3.44812 -1.67022,3.99213 -1.75122,0.7979 -2.95411,0.48423 -4.5566,-1.18822 z m 53.130006,-2.3956 c -0.43017,-0.70552 -0.69956,-1.7745 -0.70037,-2.77914 -7.1e-4,-0.89794 -0.24309,-2.21125 -0.53859,-2.91847 -0.63556,-1.52111 -0.26104,-2.5556 1.04376,-2.88308 1.70583,-0.42814 3.08171,1.2483 3.57952,4.36146 0.20949,1.31004 0.11577,1.60437 -0.86724,2.72397 -0.60616,0.69038 -1.10211,1.5672 -1.10211,1.94851 0,1.03844 -0.62816,0.83722 -1.41497,-0.45325 z M 86.358444,47.4443 c -1.01107,-0.84068 -1.54059,-1.94725 -1.54059,-3.21944 0,-1.98459 0.2298,-2.16871 2.70676,-2.16871 1.25318,0 2.62525,-0.18806 3.04906,-0.41792 0.42381,-0.22985 1.83762,-0.42829 3.1418,-0.44097 1.99946,-0.0194 2.49443,0.1001 3.15695,0.76245 0.89454,0.8943 1.01988,2.92234 0.23907,3.86826 -0.82568,1.00029 -3.3726,1.91138 -5.15181,1.84292 -0.92058,-0.0354 -2.38816,0.0399 -3.26128,0.16733 -1.24247,0.18137 -1.75104,0.0958 -2.33996,-0.39392 z M 127.1991,44.26101 c 0.0345,-3.01489 -0.22977,-6.58182 -0.52287,-7.05607 -0.12384,-0.20037 -0.30322,-0.97402 -0.39863,-1.71922 -0.0954,-0.74521 -0.47199,-1.75869 -0.83684,-2.25218 -0.69428,-0.93906 -1.18706,-3.52461 -0.67176,-3.52461 0.1641,0 0.56878,0.49359 0.89931,1.09688 0.33052,0.60329 1.03462,1.75422 1.56467,2.55764 0.66891,1.0139 0.96568,1.92476 0.97014,2.97758 0.004,0.83425 0.26195,2.01096 0.57426,2.61491 0.46297,0.89528 0.49555,1.33942 0.17639,2.40466 -0.2153,0.71862 -0.39146,1.67376 -0.39146,2.12254 0,1.02395 -0.75623,3.15912 -1.11889,3.15912 -0.14939,0 -0.25933,-1.07156 -0.24432,-2.38125 z M 66.654294,45.944 c -0.26942,-0.43594 0.27982,-1.46981 1.97767,-3.72271 2.16632,-2.87451 3.19002,-5.49215 3.44865,-8.81831 0.33738,-4.33893 1.58242,-5.3307 5.24553,-4.17851 1.88301,0.59228 1.9558,0.5902 2.43859,-0.0699 0.92769,-1.26835 0.89166,-2.22678 -0.20779,-5.52694 -1.73962,-5.22172 -2.53623,-6.02758 -8.23284,-8.32843 -0.53358,-0.21551 -0.97014,-0.61386 -0.97014,-0.88523 0,-0.71072 3.14421,-0.3264 4.05694,0.49588 0.38806,0.3496 1.18181,0.74556 1.76389,0.87991 2.49192,0.57516 5.40457,2.94202 6.6977,5.44267 0.29551,0.57145 0.70518,2.2461 0.91039,3.72145 0.34208,2.45947 0.31263,2.78492 -0.35431,3.91529 -0.90595,1.53548 -0.90604,1.92877 -7e-4,3.7031 1.00593,1.97177 0.79771,2.81868 -0.88769,3.61058 -1.37693,0.64697 -3.7331,0.66561 -6.18886,0.049 -0.61386,-0.15414 -1.25729,0.031 -2.11667,0.60894 -1.18966,0.80011 -1.23859,0.91993 -1.34095,3.28394 -0.12267,2.83285 -0.54657,3.46153 -3.45666,5.12651 -1.9435,1.11196 -2.44617,1.2371 -2.7826,0.69276 z m -10.70759,-3.72806 c -0.22518,-0.4942 -0.40941,-1.28567 -0.40941,-1.75883 0,-0.47315 -0.18633,-1.55694 -0.41406,-2.40841 -0.34981,-1.3079 -0.32244,-1.7412 0.17639,-2.7924 0.32475,-0.68436 0.59045,-1.96301 0.59045,-2.84146 0,-0.88992 0.21622,-1.81341 0.48828,-2.08547 0.26856,-0.26856 0.81258,-1.12395 1.20894,-1.90088 0.39636,-0.77693 0.97038,-1.61985 1.2756,-1.87317 0.48542,-0.40285 0.55496,-0.31671 0.55496,0.68752 0,0.63145 -0.34665,1.70897 -0.77033,2.39449 -1.15566,1.8699 -1.84378,6.20725 -1.76036,11.0959 0.0427,2.50485 -0.25841,2.97965 -0.94046,1.48271 z m 54.020346,-5.08645 c -0.94353,-0.5753 -1.31646,-0.62664 -2.23236,-0.30736 -0.80066,0.27911 -1.33707,0.27512 -1.9731,-0.0147 -0.48159,-0.21943 -1.47547,-0.30174 -2.21518,-0.18346 -1.20946,0.1934 -1.41828,0.10694 -2.11925,-0.87747 -1.22989,-1.72721 -1.30367,-3.20808 -0.27209,-5.46132 l 0.89668,-1.95862 -0.6972,-0.88635 c -0.87863,-1.11698 -0.68972,-1.48174 2.22348,-4.29351 2.80901,-2.7112 5.18622,-4.3795 6.69835,-4.70082 0.94458,-0.20072 1.15925,-0.40389 1.09007,-1.03171 -0.12126,-1.10059 0.66162,-1.26933 2.71886,-0.58602 1.28213,0.42586 1.777,0.7722 1.777,1.24366 0,0.67776 -0.34433,0.84221 -2.53637,1.21133 -0.82055,0.13818 -1.61744,0.59449 -2.15606,1.2346 -0.46992,0.55847 -1.23355,1.06901 -1.69696,1.13453 -0.74574,0.10544 -0.84255,0.30152 -0.84255,1.70656 0,1.58741 -3e-5,1.58745 -2.11667,2.64583 -2.7281,1.36413 -2.89634,2.12563 -0.90876,4.1132 1.15957,1.15957 1.60778,1.39525 2.31956,1.21972 0.48524,-0.11966 1.28724,-0.31701 1.78222,-0.43853 1.08047,-0.26528 2.46155,0.85206 3.20245,2.59088 0.65205,1.53029 0.59171,2.58775 -0.20194,3.5391 -0.81059,0.97165 -1.28293,0.98896 -2.74018,0.10043 z m 26.9044,0.0183 c -0.11346,-0.18358 -0.35474,-1.50466 -0.53619,-2.93574 -0.18144,-1.43108 -0.49645,-3.04005 -0.70003,-3.5755 -0.94579,-2.48762 -0.12778,-3.86024 1.39375,-2.33872 0.62333,0.62333 0.70556,1.17593 0.70556,4.74168 0,3.64512 -0.29158,5.03301 -0.86309,4.10828 z M 88.507954,35.95564 c -1.5642,-0.86383 -1.27971,-3.01096 0.52242,-3.94288 0.98593,-0.50985 1.22376,-0.49956 3.1006,0.13405 2.38456,0.80503 3.19488,1.74713 2.70338,3.14307 -0.32245,0.91583 -0.41883,0.94545 -3.07641,0.94545 -1.50894,0 -2.97143,-0.12586 -3.24999,-0.27969 z m -43.93399,-1.16423 c -0.38783,-0.46732 -0.36219,-1.48725 0.15224,-6.056 0.66317,-5.88971 0.92739,-6.7876 1.99734,-6.7876 0.8156,0 1.08705,0.88118 1.0324,3.35139 -0.0214,0.97014 0.0693,2.34401 0.20166,3.05305 0.19038,1.01978 0.0573,1.6095 -0.63679,2.82222 -0.4826,0.84319 -1.06613,2.12838 -1.29673,2.85598 -0.461,1.45453 -0.74905,1.60569 -1.45012,0.76096 z m 69.524466,-5.33666 c 0,-1.10727 -0.24069,-1.60459 -1.25005,-2.5829 -1.56966,-1.52138 -1.53484,-2.66309 0.11043,-3.62038 1.4725,-0.85676 2.71993,-0.56528 3.42625,0.8006 0.75347,1.45704 0.6646,2.37904 -0.44046,4.56986 -1.21353,2.40587 -1.84617,2.69126 -1.84617,0.83282 z M 69.829984,26.54233 c -0.11706,-0.18941 -0.30429,-1.11662 -0.41608,-2.06048 -0.2202,-1.85924 0.21353,-3.07161 1.39976,-3.91263 0.67599,-0.47928 0.67784,-0.51323 0.053,-0.97014 -0.35615,-0.26042 -1.3915,-0.47349 -2.3008,-0.47349 -1.75842,0 -2.6831,-0.63514 -2.31629,-1.59101 0.35086,-0.91434 1.25266,-1.00307 3.25998,-0.32076 2.46663,0.83844 3.46142,1.87855 3.44116,3.59798 -0.0269,2.28533 -0.56659,5.0527 -1.08679,5.57289 -0.57634,0.57634 -1.72034,0.66501 -2.03391,0.15764 z m 18.54124,-0.93792 c -0.98217,-1.24863 -0.954,-2.79442 0.0626,-3.43472 1.34775,-0.84888 4.53849,-1.04664 6.19472,-0.38395 1.49833,0.59951 2.03465,1.43406 1.66668,2.59343 -0.22794,0.71816 -1.14784,1.07651 -2.83431,1.10411 -0.58209,0.01 -1.45521,0.24419 -1.94028,0.52148 -1.32919,0.75983 -2.33763,0.63164 -3.1494,-0.40035 z m 40.014706,-3.84863 c -0.97014,-0.47147 -2.39889,-0.86101 -3.175,-0.86564 -0.77612,-0.005 -2.00643,-0.10682 -2.73403,-0.22709 -1.08428,-0.17922 -1.32292,-0.36582 -1.32292,-1.03445 0,-0.99054 1.2214,-1.91412 2.53134,-1.91412 0.52978,0 1.35333,-0.17774 1.83011,-0.39497 0.6922,-0.31539 1.03122,-0.27985 1.68259,0.17639 0.87753,0.61464 2.65462,0.74888 3.42777,0.25892 0.34928,-0.22134 0.0676,-0.52651 -1.05833,-1.14643 -1.68576,-0.92817 -2.34742,-2.42169 -1.07288,-2.42169 0.37779,0 0.87799,0.23026 1.11155,0.51168 0.23356,0.28142 1.26386,0.9853 2.28955,1.56416 2.7842,1.57131 3.07861,3.05053 0.5259,2.64234 -1.6015,-0.25609 -1.78633,0.19454 -0.83464,2.0349 0.63459,1.22717 0.62997,1.23954 -0.5559,1.48835 -0.53925,0.11313 -1.56574,-0.14778 -2.64511,-0.67235 z M 96.547704,20.49446 c -0.24253,-0.2484 -0.44097,-0.72587 -0.44097,-1.06104 0,-0.66684 1.57882,-2.07172 2.32822,-2.07172 0.25805,0 0.6391,-0.3175 0.84678,-0.70555 0.20768,-0.38806 0.62479,-0.70556 0.926906,-0.70556 0.30211,0 0.95295,0.3175 1.44628,0.70556 0.49334,0.38805 1.32722,0.70555 1.85306,0.70555 0.52585,0 1.2485,0.32311 1.60588,0.71801 0.63308,0.69954 0.62989,0.73791 -0.12414,1.49193 -0.57803,0.57804 -1.24208,0.78877 -2.62359,0.8326 -1.01732,0.0323 -2.643426,0.1674 -3.613566,0.30028 -1.24267,0.1702 -1.89419,0.10813 -2.20486,-0.21006 z m -10.90788,-1.69049 c -2.76772,-0.2271 -2.74572,-0.21758 -3.08925,-1.33603 -0.25635,-0.83461 0.79502,-2.2229 1.68343,-2.2229 0.26097,0 0.76183,-0.3175 1.11301,-0.70556 0.93838,-1.0369 1.866,-0.87177 2.65969,0.47344 0.38259,0.64844 1.09162,1.35941 1.57561,1.57993 0.50819,0.23155 0.87997,0.69699 0.87997,1.10166 0,0.72022 -1.00501,1.47529 -1.82889,1.37404 -0.25529,-0.0314 -1.60239,-0.15044 -2.99357,-0.26458 z m -33.39512,-2.38301 c -0.62427,-0.62427 -0.0815,-1.62977 1.5287,-2.83189 0.97014,-0.72427 1.76389,-1.44406 1.76389,-1.59952 0,-0.44758 2.2177,-1.68063 3.02531,-1.68208 0.40274,-7.5e-4 1.11712,0.41601 1.5875,0.92609 0.47039,0.51007 1.37118,1.1472 2.00177,1.41584 1.21697,0.51844 1.46054,1.34973 0.7723,2.63571 -0.62418,1.1663 -1.87134,1.42022 -3.68109,0.74949 -1.51305,-0.56078 -1.70842,-0.56002 -3.32141,0.0129 -1.77388,0.63003 -3.26861,0.78186 -3.67697,0.3735 z m 42.35568,-1.03598 c -0.13545,-0.13545 -1.241,-0.34141 -2.45677,-0.45769 -1.96501,-0.18794 -2.22329,-0.30173 -2.32577,-1.02459 -0.26677,-1.88187 1.98022,-2.36291 5.40694,-1.15751 1.57111,0.55266 1.76389,0.73281 1.76389,1.64835 0,0.88657 -0.14724,1.04231 -1.07101,1.1328 -0.58906,0.0577 -1.18183,-0.006 -1.31728,-0.14136 z m 11.961186,-0.53881 c -0.39629,-0.23312 -1.34288,-0.29599 -2.38165,-0.1582 -2.0461,0.27143 -3.13429,-0.19414 -3.13429,-1.34095 0,-1.41401 1.03927,-1.98254 3.6241,-1.98254 1.95374,0 2.49381,0.13764 3.31643,0.84522 0.86419,0.74335 0.9401,0.96617 0.62974,1.84866 -0.39182,1.11415 -1.06241,1.37131 -2.05433,0.78781 z m 7.88963,-0.86602 c -2.92488,-0.93099 -3.58712,-1.52521 -3.29995,-2.96104 0.17209,-0.86047 0.0708,-0.98838 -0.94356,-1.1912504 -0.62499,-0.125 -1.4964,-0.22727 -1.93645,-0.22727 -0.7256,0 -1.22837,-0.58937 -1.22837,-1.43996 0,-0.57349 3.03027,-0.34545 5.51909,0.41534 3.78894,1.15821 7.88647,3.9047304 7.88647,5.2862104 0,1.2873 -2.18828,1.33035 -5.99723,0.11797 z m -36.247936,0.32946 c -0.53023,-0.21848 -0.58159,-2.0232 -0.084,-2.95289 0.36341,-0.67903 2.32434,-1.3978204 3.82309,-1.4013804 1.13386,-0.003 3.1256,0.9854104 3.39349,1.6835104 0.12108,0.31555 -0.0713,0.96242 -0.42842,1.4408 -0.52265,0.70002 -1.00572,0.88624 -2.49436,0.96151 -1.01539,0.0513 -2.27876,0.17364 -2.80748,0.27176 -0.52872,0.0981 -1.15974,0.0966 -1.40228,-0.003 z m -14.1993,-2.94513 c -0.81258,-1.5183104 0.72449,-2.8920004 4.34841,-3.8862104 1.51497,-0.41563 3.31284,-0.98898 3.99527,-1.27412 1.98337,-0.8287 6.82576,0.18276 6.82576,1.42575 0,0.91006 -1.45019,1.38453 -4.99544,1.63439 -3.02833,0.21343 -3.66344,0.38307 -5.70177,1.5229704 -2.5979,1.45283 -3.9128,1.62254 -4.47223,0.57722 z m 28.3986,-0.90096 c -1.16416,-0.28919 -2.91041,-0.6104404 -3.88055,-0.7138904 -2.86477,-0.30548 -3.20949,-0.43895 -3.65411,-1.41479 -0.50576,-1.11002 -0.0332,-1.90489 1.13966,-1.917 0.41281,-0.004 1.44258,-0.32176 2.28839,-0.70555 2.15621,-0.97841 2.92984,-0.88419 4.16131,0.50678 0.85156,0.96186 1.41558,1.24827 2.79894,1.42134 2.4324,0.30432 3.36425,0.63142 3.80662,1.3362 1.031446,1.6433204 -2.68793,2.4736804 -6.66026,1.4869104 z m -41.1653,76.162214 c 0.97753,-1.90075 4.29306,-5.34493 5.88899,-6.11751 1.38153,-0.66879 1.9184,-0.7339 4.24977,-0.51544 2.21146,0.20724 2.75655,0.38448 3.18274,1.03492 0.28284,0.43167 0.48028,1.08686 0.43876,1.45596 -0.0415,0.3691 0.0559,1.66329 0.21659,2.87596 l 0.29209,2.20486 9.56763,-0.0251 9.56763,-0.025 -3.26916,-0.68653 c -5.03599,-1.05756 -9.78024,-3.05933 -13.01437,-5.49123 -1.40439,-1.05603 -6.67585,-5.69831 -7.91564,-6.97085 -0.43052,-0.4419 -9.81137,4.76044 -11.15922,6.18857 -1.86931,1.98064 -3.10521,2.65345 -5.74022,3.12489 -3.24693,0.58092 -3.76043,0.85566 -4.57175,2.44597 -0.39595,0.77614 -0.71983,1.45718 -0.71971,1.51341 1.2e-4,0.0562 2.8061,0.0767 6.23551,0.0454 l 6.23529,-0.0568 z m 63.499986,-0.0314 c 0.37778,-0.53358 1.40892,-2.27828 2.29143,-3.87712 l 1.60456,-2.90697 -1.12088,-0.29118 c -1.01033,-0.26246 -1.47317,-0.0591 -4.69263,2.06189 -3.77521,2.48712 -7.6322,4.2771 -11.42132,5.3005 l -2.293066,0.61933 7.472536,0.0319 7.4725,0.0319 0.68687,-0.97014 z"
       style="fill:#0000ff;fill-opacity:1;stroke-width:0.352778" />
    <path
       id="path4057"
       d="M -0.52503143,0.00422294 V 157.23404 L 41.787704,158.2735 v 20.51303 H 138.86122 V 158.2735 l 40.52217,-1.03946 V 0.00422294 Z"
       style="fill:none;stroke:#ff0000;stroke-width:0.264583px;stroke-linecap:butt;stroke-linejoin:miter;stroke-opacity:1" />
  </g>
</svg>
