<?xml version="1.0" encoding="UTF-8" standalone="no"?>
<svg
   xmlns:dc="http://purl.org/dc/elements/1.1/"
   xmlns:cc="http://creativecommons.org/ns#"
   xmlns:rdf="http://www.w3.org/1999/02/22-rdf-syntax-ns#"
   xmlns:svg="http://www.w3.org/2000/svg"
   xmlns="http://www.w3.org/2000/svg"
   xmlns:sodipodi="http://sodipodi.sourceforge.net/DTD/sodipodi-0.dtd"
   xmlns:inkscape="http://www.inkscape.org/namespaces/inkscape"
   width="800mm"
   height="400mm"
   viewBox="0 0 800 400"
   version="1.1"
   id="svg7484"
   inkscape:version="1.0 (4035a4fb49, 2020-05-01)"
   sodipodi:docname="Triboprojectversie7.svg">
  <defs
     id="defs7478">
    <rect
       id="rect950"
       height="93.360123"
       width="99.407738"
       y="85.422623"
       x="6.8035712" />
    <rect
       id="rect944"
       height="19.654762"
       width="76.351189"
       y="172.35715"
       x="109.23512" />
    <rect
       id="rect900"
       height="18.142857"
       width="21.166668"
       y="84.666664"
       x="16.252975" />
  </defs>
  <sodipodi:namedview
     id="base"
     pagecolor="#ffffff"
     bordercolor="#666666"
     borderopacity="1.0"
     inkscape:pageopacity="0.0"
     inkscape:pageshadow="2"
     inkscape:zoom="0.35"
     inkscape:cx="718.80954"
     inkscape:cy="494.77209"
     inkscape:document-units="mm"
     inkscape:current-layer="layer1"
     inkscape:document-rotation="0"
     showgrid="true"
     inkscape:window-width="1350"
     inkscape:window-height="728"
     inkscape:window-x="0"
     inkscape:window-y="0"
     inkscape:window-maximized="0" />
  <metadata
     id="metadata7481">
    <rdf:RDF>
      <cc:Work
         rdf:about="">
        <dc:format>image/svg+xml</dc:format>
        <dc:type
           rdf:resource="http://purl.org/dc/dcmitype/StillImage" />
        <dc:title></dc:title>
      </cc:Work>
    </rdf:RDF>
  </metadata>
  <g
     inkscape:label="Laag 1"
     inkscape:groupmode="layer"
     id="layer1">
    <text
       transform="matrix(1.5015792,-0.07738802,0.03423144,0.66420131,0,0)"
       id="text886"
       y="139.64438"
       x="22.372345"
       style="font-size:24.2011px;line-height:1.25;font-family:'Microsoft Himalaya';-inkscape-font-specification:'Microsoft Himalaya';stroke-width:0.50419"
       xml:space="preserve"><tspan
         id="tspan894"
         style="font-style:normal;font-variant:normal;font-weight:normal;font-stretch:normal;font-family:'Franklin Gothic Medium';-inkscape-font-specification:'Franklin Gothic Medium, ';stroke-width:0.50419"
         y="139.64438"
         x="22.372345"
         sodipodi:role="line" /><tspan
         id="tspan896"
         style="stroke-width:0.50419"
         y="169.89575"
         x="22.372345"
         sodipodi:role="line" /></text>
    <text
       style="font-size:12.7px;line-height:1.25;font-family:'Microsoft Himalaya';-inkscape-font-specification:'Microsoft Himalaya';white-space:pre;shape-inside:url(#rect900);"
       id="text898"
       xml:space="preserve" />
    <text
       id="text906"
       y="85.422623"
       x="12.851191"
       style="font-size:12.7px;line-height:1.25;font-family:'Microsoft Himalaya';-inkscape-font-specification:'Microsoft Himalaya';stroke-width:0.264583"
       xml:space="preserve"><tspan
         style="stroke-width:0.264583"
         y="85.422623"
         x="12.851191"
         id="tspan904"
         sodipodi:role="line" /></text>
    <text
       transform="scale(0.82406559,1.2134956)"
       id="text910"
       y="75.457069"
       x="8.714776"
       style="font-size:15.4114px;line-height:1.25;font-family:'Microsoft Himalaya';-inkscape-font-specification:'Microsoft Himalaya';stroke-width:0.32107"
       xml:space="preserve"><tspan
         sodipodi:role="line"
         id="tspan934"
         style="font-style:normal;font-variant:normal;font-weight:normal;font-stretch:normal;font-family:'Segoe Script';-inkscape-font-specification:'Segoe Script';stroke-width:0.32107"
         y="75.457069"
         x="8.714776" /><tspan
         sodipodi:role="line"
         id="tspan936"
         style="stroke-width:0.32107"
         y="94.721321"
         x="8.714776" /><tspan
         sodipodi:role="line"
         id="tspan926"
         style="stroke-width:0.32107"
         y="113.98557"
         x="8.714776" /></text>
    <text
       style="font-size:12.7px;line-height:1.25;font-family:'Microsoft Himalaya';-inkscape-font-specification:'Microsoft Himalaya';white-space:pre;shape-inside:url(#rect944);"
       id="text942"
       xml:space="preserve" />
    <text
       style="font-size:12.7px;line-height:1.25;font-family:'Microsoft Himalaya';-inkscape-font-specification:'Microsoft Himalaya';white-space:pre;shape-inside:url(#rect950);"
       id="text948"
       xml:space="preserve" />
    <text
       transform="scale(1.4891357,0.67153047)"
       id="text1016"
       y="159.91685"
       x="19.143766"
       style="font-size:21.5952px;line-height:1.25;font-family:'Microsoft Himalaya';-inkscape-font-specification:'Microsoft Himalaya';stroke-width:0.449898"
       xml:space="preserve"><tspan
         id="tspan1024"
         style="font-style:normal;font-variant:normal;font-weight:normal;font-stretch:normal;font-family:'MS Gothic';-inkscape-font-specification:'MS Gothic';stroke-width:0.449898"
         y="159.91685"
         x="19.143766"
         sodipodi:role="line" /></text>
    <g
       transform="translate(-136.82738,-71.059523)"
       id="g1681">
      <g
         transform="matrix(0.72647241,0.02609107,-0.02567576,0.73822371,116.34957,69.243942)"
         style="stroke:#0000ff;stroke-opacity:1"
         id="g1192-8-0">
        <path
           id="path938-0-2"
           d="M 126.69761,56.394047 C 127.07559,61.307738 136.336,53.9372 136.336,53.9372 l 2.45685,-4.157736 -3.96875,-2.645834 v 0 0 L 123.6738,43.731843 121.59493,42.786905 110.82261,49.96845 90.033926,38.629166 84.364283,53.748214 74.158926,60.173808"
           style="fill:none;stroke:#0000ff;stroke-width:0.264583px;stroke-linecap:butt;stroke-linejoin:miter;stroke-opacity:1" />
        <path
           d="m 99.029769,54.239578 a 3.5907733,1.7008935 0 0 1 -3.590774,1.700894 3.5907733,1.7008935 0 0 1 -3.590773,-1.700894 3.5907733,1.7008935 0 0 1 3.590773,-1.700893 3.5907733,1.7008935 0 0 1 3.590774,1.700893"
           style="fill:none;stroke:#0000ff;stroke-width:1.9;stroke-opacity:1"
           id="path949-3-2" />
        <path
           id="path951-6-4"
           d="m 85.422617,54.806548 8.693452,10.205357 12.473211,-2.645833 -5.66964,-8.693454 15.11905,5.291666"
           style="fill:none;stroke:#0000ff;stroke-width:0.264583px;stroke-linecap:butt;stroke-linejoin:miter;stroke-opacity:1" />
        <path
           id="path955-9-5"
           d="m 75.370006,72.296405 19.10977,-4.142676 26.860594,-2.138156"
           style="fill:none;stroke:#0000ff;stroke-width:0.264583px;stroke-linecap:butt;stroke-linejoin:miter;stroke-opacity:1" />
        <path
           id="path961-1-7"
           d="m 73.098215,64.411954 c -0.984123,-0.285657 -0.739474,-0.427587 -1.202714,0.267272 -0.124849,0.187275 -0.554101,0.420468 -0.668174,0.534538 -0.01548,0.01548 -0.0335,1.536612 0.133636,1.870887 0.03984,0.07968 0.187584,-0.03984 0.267269,0 0.05635,0.02817 0.07729,0.105463 0.133636,0.133636 0.352726,0.176363 0.776531,0.133633 1.202711,0.133633 0.178181,0 0.712721,0 0.53454,0 -0.08909,0 -0.267269,0.08909 -0.267269,0 0,-0.367985 0.305009,-0.03774 0.400905,-0.133633 0.16733,-0.167331 0.29831,-0.329351 0.400905,-0.534541 0.07105,-0.142097 -0.07105,-0.125171 0,-0.267269 0.05634,-0.112691 0.210923,-0.15458 0.267268,-0.267271 0.160356,-0.320712 0,-1.181804 0,-1.202711 0,-0.08909 0.063,-0.204274 0,-0.267269 -0.0315,-0.0315 -0.102137,0.0315 -0.133635,0 -0.08761,-0.08761 -0.200319,-0.333954 -0.267269,-0.400905 -0.191596,-0.191595 -0.536115,0.08049 -0.801809,0.133633 z"
           style="fill:none;stroke:#0000ff;stroke-width:0.264583px;stroke-linecap:butt;stroke-linejoin:miter;stroke-opacity:1" />
        <path
           id="path963-4-8"
           d="m 92.87616,50.647576 c -0.862666,0.153651 -1.331997,0.331911 -2.004521,0.668173 -0.556156,0.278077 0.14286,-0.0092 -0.133635,0.267269 -0.04455,0.04454 -0.35636,0.08909 -0.400905,0.133636 -0.063,0.06299 0.03984,0.187584 0,0.267268 -0.03727,0.07454 -0.364747,0.498383 -0.400904,0.534541 -0.0315,0.0315 -0.102138,-0.0315 -0.133634,0 -0.131807,0.131805 -0.169881,0.437147 -0.267271,0.534537 -0.276495,0.276495 0.01082,-0.422521 -0.267269,0.133636 -0.03984,0.07968 0.03984,0.187585 0,0.267269 -0.09839,0.196784 -0.177305,0.177305 -0.267269,0.267269 -0.135649,0.135649 -0.0498,0.634129 -0.133636,0.801809 -0.15046,0.300919 -0.30875,1.387023 -0.133633,1.737252 0.118613,0.23723 0.28229,0.430945 0.400902,0.668173 0.07096,0.141925 0.0145,0.415414 0.133636,0.53454 0.0315,0.0315 0.102137,-0.0315 0.133636,0 0.09259,0.09259 0.04104,0.575583 0.133633,0.668174 0.146486,0.146486 0.623917,0.446024 0.801809,0.801809 0.04085,0.08171 0.25545,0.394994 0.267269,0.400905 0.267271,0.133633 0.200454,-0.06682 0.400905,0 0.152368,0.05079 0.243414,0.23577 0.400904,0.267269 0.268243,0.05365 0.927539,-0.137589 1.202714,0 0.866357,0.433178 2.103091,-0.06047 3.073598,0.133633 0.547455,0.109492 0.461762,0.09725 0.80181,0.267271 0.359174,0.179586 2.80136,-0.197969 2.939965,-0.267271 0.03984,-0.01992 -0.0315,-0.102135 0,-0.133633 0.06682,-0.06682 0.334087,0.06682 0.400904,0 0.276492,-0.276495 -0.422521,0.01082 0.133634,-0.267269 0.07969,-0.03984 0.204278,0.06299 0.267268,0 0.0315,-0.0315 0,-0.08909 0,-0.133636 0.0445,-0.04454 0.0891,-0.08909 0.13364,-0.133636 0.20478,-0.204779 0.41704,-0.283408 0.53454,-0.400904 0.056,-0.056 0.0931,-0.319913 0.13363,-0.400905 0.10193,-0.203851 0.30125,-0.335235 0.4009,-0.534538 0.075,-0.150085 0.0315,-0.699682 0.13364,-0.801809 0.0315,-0.0315 0.10214,0.0315 0.13363,0 0.063,-0.063 -0.0398,-0.187584 0,-0.267269 0.0282,-0.05635 0.10547,-0.07729 0.13364,-0.133636 0.0749,-0.149717 0.0463,-1.331004 0,-1.469982 -0.063,-0.188987 -0.20428,-0.345551 -0.26727,-0.534538 -0.0252,-0.07558 0.0537,-0.347231 0,-0.400904 -0.0315,-0.0315 -0.11372,0.03984 -0.13364,0 -0.0398,-0.07968 0.0282,-0.182751 0,-0.267269 -0.0461,-0.138422 -0.20098,-0.26833 -0.26726,-0.400905 -0.12723,-0.25445 -5.3e-4,-0.668898 -0.26727,-1.069078 -0.26024,-0.390358 -0.5396,-0.737521 -0.935448,-0.935445 -0.556155,-0.278077 0.142858,0.0092 -0.133634,-0.267269 -0.106306,-0.106304 -0.572158,-0.171251 -0.668176,-0.267269 -0.178178,-0.178181 0.283483,-0.12823 -0.133633,-0.267268 -0.186264,-0.06209 -0.656815,-0.122278 -0.801809,-0.267272 -0.029,-0.029 -0.10758,-0.254241 -0.133636,-0.267269 -0.183081,-0.09154 -0.483719,-0.04141 -0.668173,-0.133633 -0.112689,-0.05635 -0.147743,-0.227428 -0.267269,-0.267271 -0.222075,-0.07403 -0.714163,0 -0.935442,0 -0.720723,0 -1.18187,0.0376 -1.870888,0.267271 -0.106799,0.0356 -0.459157,-0.07538 -0.53454,0 -0.0315,0.0315 0.0315,0.102135 0,0.133633 -0.197032,0.197035 -1.656061,0.801809 -1.870884,0.801809"
           style="fill:none;stroke:#0000ff;stroke-width:0.264583px;stroke-linecap:butt;stroke-linejoin:miter;stroke-opacity:1" />
        <path
           id="path965-0-0"
           d="m 132.56568,58.532026 c 2.80633,-1.069078 4.82866,-3.536492 4.82866,-3.536492 l 5.99576,-5.417036 -2.00452,-0.935445 -1.87089,-2.004521 3.74177,-3.608139 -11.22531,0.400905"
           style="fill:none;stroke:#0000ff;stroke-width:0.264583px;stroke-linecap:butt;stroke-linejoin:miter;stroke-opacity:1" />
        <path
           id="path967-2-0"
           d="m 114.92589,50.113035 2.80634,3.875408 -7.48355,1.069078"
           style="fill:none;stroke:#0000ff;stroke-width:0.264583px;stroke-linecap:butt;stroke-linejoin:miter;stroke-opacity:1" />
        <path
           id="path969-3-1"
           d="m 121.51934,48.191964 -3.11894,8.469175"
           style="fill:none;stroke:#0000ff;stroke-width:0.264583px;stroke-linecap:butt;stroke-linejoin:miter;stroke-opacity:1" />
        <path
           id="path971-3-4"
           d="m 130.6948,47.70761 3.29776,2.941199 -2.09505,3.47327 -9.08716,1.737251"
           style="fill:none;stroke:#0000ff;stroke-width:0.264583px;stroke-linecap:butt;stroke-linejoin:miter;stroke-opacity:1" />
        <path
           id="path973-7-5"
           d="m 127.75483,47.841246 -1.73725,3.207234 -3.34087,2.00452"
           style="fill:none;stroke:#0000ff;stroke-width:0.264583px;stroke-linecap:butt;stroke-linejoin:miter;stroke-opacity:1" />
        <path
           sodipodi:nodetypes="ccc"
           id="path975-9-3"
           d="m 148.33459,47.573976 c -0.19691,18.570937 -8.37659,18.675823 -8.55262,18.575232 -2.37295,5.299952 -4.22872,4.910908 -6.28084,6.681737"
           style="fill:none;stroke:#0000ff;stroke-width:0.264583px;stroke-linecap:butt;stroke-linejoin:miter;stroke-opacity:1" />
        <path
           id="path977-1-4"
           d="m 143.65737,53.320269 -4.00904,9.755339"
           style="fill:none;stroke:#0000ff;stroke-width:0.264583px;stroke-linecap:butt;stroke-linejoin:miter;stroke-opacity:1" />
        <path
           id="path979-2-3"
           d="m 128.13393,62.366072 -2.24998,6.322195 -4.94449,2.138156"
           style="fill:none;stroke:#0000ff;stroke-width:0.264583px;stroke-linecap:butt;stroke-linejoin:miter;stroke-opacity:1" />
        <path
           id="path981-4-0"
           d="m 132.56568,64.679226 -6.28083,7.082642"
           style="fill:none;stroke:#0000ff;stroke-width:0.264583px;stroke-linecap:butt;stroke-linejoin:miter;stroke-opacity:1" />
        <path
           id="path985-8-7"
           d="m 136.97563,59.601105 -2.53906,2.672693 -3.60814,-1.069078"
           style="fill:none;stroke:#0000ff;stroke-width:0.264583px;stroke-linecap:butt;stroke-linejoin:miter;stroke-opacity:1" />
        <path
           sodipodi:nodetypes="cc"
           id="path989-3-5"
           d="m 153.0118,49.311226 c 2.13807,13.045488 -9.14414,19.32006 -9.48806,18.976139"
           style="fill:none;stroke:#0000ff;stroke-width:0.264583px;stroke-linecap:butt;stroke-linejoin:miter;stroke-opacity:1" />
        <path
           sodipodi:nodetypes="cc"
           id="path991-8-4"
           d="m 157.28811,51.182112 c -1.47482,15.560607 -8.36625,17.792129 -8.41899,17.37252"
           style="fill:none;stroke:#0000ff;stroke-width:0.264583px;stroke-linecap:butt;stroke-linejoin:miter;stroke-opacity:1" />
        <path
           sodipodi:nodetypes="cc"
           id="path995-3-4"
           d="m 160.36172,51.182113 c 0.67387,7.844658 -1.82227,6.588618 -1.87089,6.548104"
           style="fill:none;stroke:#0000ff;stroke-width:0.264583px;stroke-linecap:butt;stroke-linejoin:miter;stroke-opacity:1" />
        <path
           sodipodi:nodetypes="cccccc"
           id="path997-6-9"
           d="m 142.11905,71.437499 c 3.67647,1.126178 3.81011,-1.011978 3.81011,-1.011978 l 1.14757,5.269981 4.49172,4.057473 v 0 0"
           style="fill:none;stroke:#0000ff;stroke-width:0.264583px;stroke-linecap:butt;stroke-linejoin:miter;stroke-opacity:1" />
        <path
           id="path999-5-1"
           d="m 139.24742,72.296405 c 4.14268,3.073601 5.61266,6.1472 5.61266,6.1472 l 6.81538,4.276312"
           style="fill:none;stroke:#0000ff;stroke-width:0.264583px;stroke-linecap:butt;stroke-linejoin:miter;stroke-opacity:1" />
        <path
           sodipodi:nodetypes="ccc"
           id="path1001-9-5"
           d="m 136.842,75.102738 c 2.59146,4.995254 4.1874,6.236179 4.54358,6.013563 1.66334,1.714591 3.31906,3.452043 6.02513,2.038459"
           style="fill:none;stroke:#0000ff;stroke-width:0.264583px;stroke-linecap:butt;stroke-linejoin:miter;stroke-opacity:1" />
        <path
           sodipodi:nodetypes="cc"
           id="path1003-2-0"
           d="m 159.69354,62.006529 c 5.84974,3.469718 5.04212,9.15856 4.67722,14.699824"
           style="fill:none;stroke:#0000ff;stroke-width:0.264583px;stroke-linecap:butt;stroke-linejoin:miter;stroke-opacity:1" />
        <path
           style="fill:none;stroke:#0000ff;stroke-width:0.264583px;stroke-linecap:butt;stroke-linejoin:miter;stroke-opacity:1"
           d="m 162.40587,58.450936 c 2.97704,5.932029 5.04212,9.15856 4.67722,14.699824"
           id="path1003-8-8-6"
           sodipodi:nodetypes="cc" />
        <path
           sodipodi:nodetypes="cc"
           id="path1020-4-7"
           d="m 169.1816,68.287364 c 2.02644,3.875408 1.48359,7.750815 -0.4009,11.626223"
           style="fill:none;stroke:#0000ff;stroke-width:0.264583px;stroke-linecap:butt;stroke-linejoin:miter;stroke-opacity:1" />
        <path
           sodipodi:nodetypes="cccc"
           id="path1022-7-0"
           d="m 157.04911,73.894343 c 13.58811,9.345743 13.88286,13.783171 13.73612,13.636427 0.96411,2.389545 -0.52496,5.330855 -1.64089,5.640361 l -1.70089,0.566962"
           style="fill:none;stroke:#0000ff;stroke-width:0.264583px;stroke-linecap:butt;stroke-linejoin:miter;stroke-opacity:1" />
        <path
           id="path1024-1-6"
           d="m 159.159,85.392613 c -2.93996,1.336347 -3.81079,4.565717 -3.81079,4.565717 v 0 l -4.91369,1.511908 v 0 0 l -2.50084,3.811347 -0.53454,1.069078 -2.25628,3.435051 v 0 l -3.35638,0.306726"
           style="fill:none;stroke:#0000ff;stroke-width:0.264583px;stroke-linecap:butt;stroke-linejoin:miter;stroke-opacity:1" />
        <path
           sodipodi:nodetypes="csc"
           id="path1026-5-1"
           d="m 163.28571,87.501488 c -2.01449,4.765929 -3.27262,0.944635 -6.53213,5.374672 -3.20091,4.350385 -8.15172,6.013564 -8.15172,6.013564"
           style="fill:none;stroke:#0000ff;stroke-width:0.264583px;stroke-linecap:butt;stroke-linejoin:miter;stroke-opacity:1" />
        <path
           id="path1028-1-9"
           d="m 163.70258,50.246671 c -0.13363,5.479026 -4.14267,-0.801809 0,5.479026 4.14268,6.280832 20.71339,15.902535 20.71339,15.902535 0,0 1.20271,-4.142677 11.62623,11.626225 10.42351,15.768902 11.62622,26.326043 11.62622,26.326043"
           style="fill:none;stroke:#0000ff;stroke-width:0.264583px;stroke-linecap:butt;stroke-linejoin:miter;stroke-opacity:1" />
        <path
           sodipodi:nodetypes="cccccccccc"
           id="path1030-0-3"
           d="m 169.44888,57.062044 14.69982,3.608139 6.28084,4.677216 10.28987,3.207235 0.26727,3.875407 5.61266,7.617182 2.27179,5.879928 4.73683,9.013655 0.87583,8.626134 -0.4009,7.21628"
           style="fill:none;stroke:#0000ff;stroke-width:0.264583px;stroke-linecap:butt;stroke-linejoin:miter;stroke-opacity:1" />
        <path
           id="path1032-2-5"
           d="m 172.52248,60.002009 c 5.07812,1.336347 -0.53454,-1.469983 5.21175,1.336347 5.7463,2.80633 6.81538,5.34539 9.75534,4.677217 2.93997,-0.668174 3.4745,2.939965 4.40995,3.474503 0.93544,0.53454 4.14268,2.405425 4.67722,2.405425 0.53453,0 1.73725,1.469982 1.87088,2.271792 0.13364,0.801809 -1.46998,1.336347 3.0736,5.479026 4.54358,4.142676 -0.59414,4.216188 5.7463,9.755338 6.34044,5.539147 2.93996,1.202711 3.8754,9.621702"
           style="fill:none;stroke:#0000ff;stroke-width:0.264583px;stroke-linecap:butt;stroke-linejoin:miter;stroke-opacity:1" />
        <path
           sodipodi:nodetypes="cssscsc"
           id="path1034-2-5"
           d="m 179.60512,65.614668 c 9.2208,4.142677 11.09169,5.211755 13.09621,8.018087 2.00452,2.806329 -0.26727,-1.737254 5.47902,7.349911 5.7463,9.087164 10.42351,11.358953 9.88898,12.428032 -0.53454,1.069078 0.8018,8.151722 0.8018,8.151722 0,0 -0.53454,-1.06908 0,0 0.53454,1.06908 2.00453,8.41899 2.00453,8.41899"
           style="fill:none;stroke:#0000ff;stroke-width:0.264583px;stroke-linecap:butt;stroke-linejoin:miter;stroke-opacity:1" />
        <path
           sodipodi:nodetypes="csssccc"
           id="path1040-9-6"
           d="m 174.25973,87.798038 c 8.78363,5.603595 5.62989,10.828723 8.41899,11.759859 3.32724,1.110793 4.54358,7.617183 4.81085,8.018083 0.26727,0.40091 2.6727,4.67722 2.80633,6.68174 0.13364,2.00452 0.26727,3.87541 0.26727,3.87541 l 1.73725,-0.4009 0.13364,7.61718"
           style="fill:none;stroke:#0000ff;stroke-width:0.264583px;stroke-linecap:butt;stroke-linejoin:miter;stroke-opacity:1" />
        <path
           id="path1042-2-0"
           d="m 173.59156,91.807082 c 0.93544,3.875407 2.40542,-0.668174 2.53906,3.741772 0.13363,4.409948 1.20271,-0.534538 2.40542,4.543586 1.20272,5.07812 2.6727,1.06908 3.20724,5.74629 0.53454,4.67722 2.93996,0.93544 3.20723,5.21176 0.26727,4.27631 1.46998,0.66817 2.00452,4.40994 0.53454,3.74178 2.40543,10.02261 2.40543,10.02261"
           style="fill:none;stroke:#0000ff;stroke-width:0.264583px;stroke-linecap:butt;stroke-linejoin:miter;stroke-opacity:1" />
        <path
           sodipodi:nodetypes="csssccc"
           id="path1044-5-3"
           d="m 171.31976,95.415221 c 2.53907,2.405424 0.26727,4.543579 2.40543,5.345389 2.13816,0.80181 1.74377,6.1813 1.93647,5.63968 1.47811,-4.15449 3.27529,6.52108 3.80982,6.38745 0.53454,-0.13363 3.74178,2.40543 3.74178,2.40543 l 2.27179,4.54358 0.80181,3.74177"
           style="fill:none;stroke:#0000ff;stroke-width:0.264583px;stroke-linecap:butt;stroke-linejoin:miter;stroke-opacity:1" />
        <path
           sodipodi:nodetypes="cc"
           id="path1046-3-2"
           d="m 177.73423,73.23185 c -1.17302,8.395889 -4.81085,7.61718 -4.81085,7.61718"
           style="fill:none;stroke:#0000ff;stroke-width:0.264583px;stroke-linecap:butt;stroke-linejoin:miter;stroke-opacity:1" />
        <path
           sodipodi:nodetypes="cc"
           id="path1048-5-8"
           d="m 180.13966,75.503641 c -1.07054,3.382486 -2.5392,5.968739 -4.67721,7.216278"
           style="fill:none;stroke:#0000ff;stroke-width:0.264583px;stroke-linecap:butt;stroke-linejoin:miter;stroke-opacity:1" />
        <path
           id="path1050-8-3"
           d="m 186.34226,74.083332 0.0945,1.6064"
           style="fill:none;stroke:#0000ff;stroke-width:0.264583px;stroke-linecap:butt;stroke-linejoin:miter;stroke-opacity:1" />
        <path
           id="path1052-3-3"
           d="m 188.42113,75.784225 -0.75595,2.078868"
           style="fill:none;stroke:#0000ff;stroke-width:0.264583px;stroke-linecap:butt;stroke-linejoin:miter;stroke-opacity:1" />
        <path
           id="path1054-6-8"
           d="m 189.64955,77.863093 -0.18899,1.889882"
           style="fill:none;stroke:#0000ff;stroke-width:0.264583px;stroke-linecap:butt;stroke-linejoin:miter;stroke-opacity:1" />
        <path
           sodipodi:nodetypes="cc"
           id="path1056-8-0"
           d="m 193.33482,81.359374 c 0.61527,4.139687 -0.94437,3.024263 -0.94494,3.023809"
           style="fill:none;stroke:#0000ff;stroke-width:0.264583px;stroke-linecap:butt;stroke-linejoin:miter;stroke-opacity:1" />
        <path
           id="path1058-6-8"
           d="m 196.73661,86.462051 c -0.66146,2.267858 -2.83483,0.18899 -2.83483,0.18899 l -0.0945,-0.09449"
           style="fill:none;stroke:#0000ff;stroke-width:0.264583px;stroke-linecap:butt;stroke-linejoin:miter;stroke-opacity:1" />
        <path
           style="fill:none;stroke:#0000ff;stroke-width:0.264583px;stroke-linecap:butt;stroke-linejoin:miter;stroke-opacity:1"
           d="m 198.27904,88.246971 c -0.66146,2.267858 -2.83483,0.18899 -2.83483,0.18899 l -0.0945,-0.09449"
           id="path1058-8-7-0" />
        <path
           sodipodi:nodetypes="ccc"
           style="fill:none;stroke:#0000ff;stroke-width:0.264583px;stroke-linecap:butt;stroke-linejoin:miter;stroke-opacity:1"
           d="m 199.12948,90.231347 c -1.02806,3.550958 -2.94059,0.559167 -2.83483,0.18899 l -0.0945,-0.09449"
           id="path1058-1-0-8" />
      </g>
      <path
         style="fill:none;stroke:#0000ff;stroke-width:0.193882px;stroke-linecap:butt;stroke-linejoin:miter;stroke-opacity:1"
         d="m 259.69316,143.32899 c -1.44273,3.35367 -2.47852,0.12073 -2.47859,0.12051"
         id="path1194-4-8"
         sodipodi:nodetypes="cc" />
      <path
         style="fill:none;stroke:#0000ff;stroke-width:0.193882px;stroke-linecap:butt;stroke-linejoin:miter;stroke-opacity:1"
         d="m 260.45142,145.24203 c 1.46001,4.79464 -2.01664,0.8422 -2.02232,0.83535"
         id="path1196-4-5"
         sodipodi:nodetypes="cc" />
      <path
         style="fill:none;stroke:#0000ff;stroke-width:0.193882px;stroke-linecap:butt;stroke-linejoin:miter;stroke-opacity:1"
         d="m 261.7814,148.50266 c -1.19051,2.37712 -1.66867,0.57107 -1.66937,0.56865"
         id="path1198-1-3"
         sodipodi:nodetypes="cc" />
      <path
         style="fill:none;stroke:#0000ff;stroke-width:0.193882px;stroke-linecap:butt;stroke-linejoin:miter;stroke-opacity:1"
         d="m 262.13506,150.19164 c 0.8407,4.83902 -2.09325,0.90283 -2.09339,0.90264"
         id="path1200-9-6"
         sodipodi:nodetypes="cc" />
      <path
         style="fill:none;stroke:#0000ff;stroke-width:0.193882px;stroke-linecap:butt;stroke-linejoin:miter;stroke-opacity:1"
         d="m 263.24212,153.93318 c -1.16985,0.0398 0.55789,2.56282 -1.31329,2.18787 -2.97006,-0.59514 -1.5425,-1.10307 -1.5425,-1.10307"
         id="path1202-1-3"
         sodipodi:nodetypes="csc" />
      <path
         style="fill:none;stroke:#0000ff;stroke-width:0.193882px;stroke-linecap:butt;stroke-linejoin:miter;stroke-opacity:1"
         d="m 262.28976,157.60076 c 0.25104,2.66312 -1.72831,0.28714 -0.72215,2.97739 1.00616,2.69024 -1.42875,1.55512 -0.91353,2.55145 0.51521,0.99633 0.0701,3.91383 0.0701,3.91383 l -1.2866,1.42053 -0.63824,4.517"
         id="path1204-7-0" />
      <path
         style="fill:none;stroke:#0000ff;stroke-width:0.193882px;stroke-linecap:butt;stroke-linejoin:miter;stroke-opacity:1"
         d="m 264.98642,157.13884 -1.58545,2.10826 0.86815,0.72962 -1.75671,3.07993 0.70416,1.49204 c 0,0 -0.9749,2.3397 -1.06054,2.82554 -0.0856,0.48584 -1.38921,2.39468 -1.38921,2.39468 l -0.0648,3.83915"
         id="path1206-1-6" />
      <path
         style="fill:none;stroke:#0000ff;stroke-width:0.193882px;stroke-linecap:butt;stroke-linejoin:miter;stroke-opacity:1"
         d="m 266.76397,157.41222 -0.58,2.84281 -0.99432,2.89777 -1.07752,3.31386 -1.41348,3.09226 -0.004,2.09519 -0.70759,2.55885"
         id="path1208-9-9" />
      <path
         style="fill:none;stroke:#0000ff;stroke-width:0.193882px;stroke-linecap:butt;stroke-linejoin:miter;stroke-opacity:1"
         d="m 268.32103,158.09674 -0.68819,2.00079 0.35851,1.54947 -1.03871,2.19773 0.0153,1.53713 -1.94567,2.58423 -0.33524,1.73408 -0.59285,1.23591 -0.21494,2.22732"
         id="path1210-7-5" />
      <path
         style="fill:none;stroke:#0000ff;stroke-width:0.193882px;stroke-linecap:butt;stroke-linejoin:miter;stroke-opacity:1"
         d="m 269.3199,160.99626 -0.55817,2.21499 0.72844,0.79445 -1.53622,2.66878 -0.76168,2.13783 -1.14688,1.35572 -0.75926,2.06808"
         id="path1212-1-7" />
      <path
         style="fill:none;stroke:#0000ff;stroke-width:0.193882px;stroke-linecap:butt;stroke-linejoin:miter;stroke-opacity:1"
         d="m 242.34508,136.21036 0.58386,0.9988 -1.11049,0.30934 -1.56433,-0.47525"
         id="path1214-7-4" />
      <path
         style="fill:none;stroke:#0000ff;stroke-width:0.193882px;stroke-linecap:butt;stroke-linejoin:miter;stroke-opacity:1"
         d="m 245.10796,135.82067 c 0.58551,1.48053 0.005,1.87086 -0.62682,2.21253"
         id="path1216-5-8"
         sodipodi:nodetypes="cc" />
      <path
         sodipodi:nodetypes="cc"
         id="path1216-3-3-9"
         d="m 247.54166,136.2348 c 0.58552,1.48053 0.005,1.87085 -0.62681,2.21253"
         style="fill:none;stroke:#0000ff;stroke-width:0.193882px;stroke-linecap:butt;stroke-linejoin:miter;stroke-opacity:1" />
      <path
         sodipodi:nodetypes="cc"
         id="path1216-37-6-4"
         d="m 249.36602,137.13846 c 1.44617,1.8068 0.11674,1.91308 -0.62681,2.21253"
         style="fill:none;stroke:#0000ff;stroke-width:0.193882px;stroke-linecap:butt;stroke-linejoin:miter;stroke-opacity:1" />
      <path
         sodipodi:nodetypes="cc"
         id="path1216-2-3-2"
         d="m 254.21301,144.01765 c 3.07395,4.88099 0.83219,3.00074 -0.62682,2.21252"
         style="fill:none;stroke:#0000ff;stroke-width:0.193882px;stroke-linecap:butt;stroke-linejoin:miter;stroke-opacity:1" />
      <path
         sodipodi:nodetypes="csc"
         id="path1216-1-8-4"
         d="m 250.9529,138.94157 c 0.14582,0.36872 0.0703,0.73591 0.23776,0.91939 1.33285,1.45989 -0.36336,1.05123 -0.86458,1.29314"
         style="fill:none;stroke:#0000ff;stroke-width:0.193882px;stroke-linecap:butt;stroke-linejoin:miter;stroke-opacity:1" />
      <path
         sodipodi:nodetypes="cc"
         id="path1216-4-6-6"
         d="m 252.56961,141.86328 c 2.73255,0.11877 0.70234,2.04161 -0.62681,2.21253"
         style="fill:none;stroke:#0000ff;stroke-width:0.193882px;stroke-linecap:butt;stroke-linejoin:miter;stroke-opacity:1" />
      <path
         sodipodi:nodetypes="cc"
         id="path1216-46-2-2"
         d="m 256.30368,149.12156 c 1.63693,1.63762 0.56138,1.95393 -0.62681,2.21253"
         style="fill:none;stroke:#0000ff;stroke-width:0.193882px;stroke-linecap:butt;stroke-linejoin:miter;stroke-opacity:1" />
      <path
         style="fill:none;stroke:#0000ff;stroke-width:0.193882px;stroke-linecap:butt;stroke-linejoin:miter;stroke-opacity:1"
         d="m 252.80657,157.25474 2.54551,1.90738 -1.17115,2.05329 2.07541,3.56678 -1.76399,3.2892 -1.61214,2.87559"
         id="path1284-0-8" />
      <path
         style="fill:none;stroke:#0000ff;stroke-width:0.193882px;stroke-linecap:butt;stroke-linejoin:miter;stroke-opacity:1"
         d="m 256.45403,155.43551 1.97692,2.44573 -0.48952,2.21745 0.94166,0.59258 -1.15174,1.49522 1.42775,2.42601 -2.86235,3.24975 0.18725,2.52114"
         id="path1288-4-0" />
      <g
         style="stroke:#0000ff;stroke-opacity:1"
         id="g3038-3-1"
         transform="matrix(0.72647241,0.02609107,-0.02567576,0.73822371,153.97911,75.816052)">
        <path
           style="fill:none;stroke:#0000ff;stroke-width:0.264583px;stroke-linecap:butt;stroke-linejoin:miter;stroke-opacity:1"
           d="m 46.869048,29.104166 14.174107,-5.291666 4.724702,0.566964 13.796131,-3.96875 -2.834822,4.157738 4.535715,-1.133928 0.188986,3.590774 6.425597,-1.322917 -2.267858,3.779761 3.02381,3.023809 h 15.686014 l 3.40178,3.401788 -4.91369,3.212795 4.15774,1.889882 16.25298,0.377976 -0.56697,2.456847 2.07887,0.944938 -3.2128,3.401787 h 14.3631 l -1.88988,2.456845 5.85863,0.188989 -2.45685,4.157736 17.38691,6.992559 1.32291,3.590774 -4.91369,0.566965 5.85864,7.748511 7.55952,6.614583 -4.34673,-0.944938 3.02381,7.9375 5.85863,5.669643 -4.34672,0.566962 0.94494,5.291667 6.42559,6.04762 -6.42559,0.37798 6.80357,13.60714 -5.66964,-0.94494 2.83482,14.55208 -3.77976,-1.13393 -0.18899,13.60715 -3.2128,-1.32292 -3.77976,7.55952 1.13393,9.26042 -3.59078,-0.94494 -4.7247,9.82738 -2.07887,0.37798 -7.18155,12.47321 -0.75595,-1.5119 -9.63839,15.30803 -1.51191,-1.32292 -9.82738,11.52828 -0.75595,-3.02381 -10.39434,11.1503 -0.56697,-1.32292 -8.31547,4.91369 0.18898,-1.32292 -12.095234,6.99256 -0.18899,-2.45684 -8.693451,2.64583 -1.889882,0.75595 -1.889879,-1.88988 c -17.383773,1.57852 -23.659182,-5.30648 -30.805059,-11.52827 11.182637,3.516 22.521914,4.83902 34.206844,1.32291 9.701391,-2.26785 18.394843,-6.80357 26.080361,-13.60714 l 12.85119,-16.06399 c 8.86767,-12.78819 14.23202,-25.57639 20.22172,-38.36458 l -3.02381,-1.88988 -4.34672,2.45685 -2.45685,-0.56697 -5.48065,3.77976 -2.07887,-0.94494 -8.31548,5.48066 h -0.56696 l -8.31548,1.5119 -1.70089,-2.83482 -0.37798,-0.75595 c -3.97779,-0.36894 -5.701818,-2.99163 -7.748509,-5.29167 l 6.236609,2.26786 -0.566966,-2.26786 c -7.79542,-2.35721 -7.15699,-7.52571 -9.449406,-11.71726 2.251749,2.8143 4.408862,5.75478 8.126489,6.61458 -2.333843,-6.86657 -0.431857,-13.73313 1.133928,-20.5997 0.737905,4.50514 -0.529648,9.81246 2.456845,13.41816 l 2.45685,-8.88244 0.37797,8.69345 2.83482,0.94494 1.88988,-6.4256 1.13393,6.80357 -0.56696,4.53572 14.93006,-6.80357 12.47321,-3.96875 7.37054,-0.18899"
           id="path8061-8-1"
           sodipodi:nodetypes="ccccccccccccccccccccccccccccccccccccccccccccccccccccccccccccccccccccccccccccccccccccccccccc" />
        <path
           style="fill:none;stroke:#0000ff;stroke-width:0.264583px;stroke-linecap:butt;stroke-linejoin:miter;stroke-opacity:1"
           d="m 132.85863,129.45684 c -1.14736,-6.12153 -0.22824,-11.94785 -4.53571,-18.52083 -2.33085,-2.41832 -4.66171,-5.36063 -6.99256,-10.77232 l -6.61459,-12.662202 c -6.46329,4.296625 -13.3186,7.795181 -20.788688,9.071428 -5.482913,1.722144 -8.117205,2.749798 -9.071427,3.968754 l -4.157739,1.70089 -0.18899,3.2128"
           id="path8063-0-1"
           sodipodi:nodetypes="cccccccc" />
        <path
           style="fill:none;stroke:#0000ff;stroke-width:0.264583px;stroke-linecap:butt;stroke-linejoin:miter;stroke-opacity:1"
           d="m 76.729166,109.23512 -0.18899,-3.96875 -9.63839,6.99256 -3.779763,0.75595 v 0 l 6.992559,-7.55952 -13.418155,5.10267 12.095239,-6.61458 -11.150298,1.13393 13.229166,-5.10268 15.119048,-7.9375 2.645834,-2.078868 8.504464,-8.882441 9.26042,-4.724701"
           id="path8065-5-0"
           sodipodi:nodetypes="cccccccccccccc" />
        <path
           style="fill:none;stroke:#0000ff;stroke-width:0.264583px;stroke-linecap:butt;stroke-linejoin:miter;stroke-opacity:1"
           d="m 76.729166,109.23512 3.779758,-3.77976"
           id="path8067-4-1" />
        <path
           style="fill:none;stroke:#0000ff;stroke-width:0.264583px;stroke-linecap:butt;stroke-linejoin:miter;stroke-opacity:1"
           d="M 97.139878,81.075889 87.312499,79.18601 78.808034,68.41369 C 72.363257,70.908899 67.777222,69.686623 63.31101,68.224701 L 55.751489,65.578867 C 47.562004,67.891462 39.37252,67.811641 31.183035,67.657738 26.696648,67.887732 22.568202,67.043904 19.087797,64.255951 L 16.81994,60.665177 c 0,0 -0.566964,-5.858629 -0.566964,-6.614584 0,-0.755951 0.566964,-3.401784 0.566964,-3.401784 2.561857,-2.498749 4.91202,-6.055972 7.9375,-6.236608 2.309934,-6.21521 5.138785,-9.835835 7.9375,-13.607142 l 4.346726,-2.078869 9.827382,0.377976"
           id="path8069-9-5"
           sodipodi:nodetypes="ccccccccsccccc" />
      </g>
      <path
         style="fill:none;stroke:#0000ff;stroke-width:0.193882px;stroke-linecap:butt;stroke-linejoin:miter;stroke-opacity:1"
         d="m 269.3782,168.97182 0.68502,5.45727 -1.13653,1.93469 -2.36428,0.90284 -0.26077,7.49758 -1.3101,1.33581 -1.52586,-0.84501 -1.1232,9.936 -1.39003,0.83905 -2.12208,-0.47131 -2.10189,7.33268 -1.59106,1.02938 -1.13411,-0.92971 -2.81234,8.19615 -2.44078,0.30744 -5.87335,9.56784 -2.14954,0.31791 -4.17593,5.48023 -2.34713,0.40958 -5.24041,5.34322 -1.03702,-0.92622 -5.1296,4.9521 -3.10319,-0.21023 -4.579,3.09515 -8.40737,1.37723 -1.53273,-0.6477 -10.49515,-0.0806"
         id="path3070-6-9" />
      <path
         style="fill:none;stroke:#0000ff;stroke-width:0.193882px;stroke-linecap:butt;stroke-linejoin:miter;stroke-opacity:1"
         d="m 255.15374,175.99519 c 0.61855,1.85309 1.88266,1.47912 2.14268,2.81016 1.77662,9.09466 -3.861,6.97842 -3.86106,6.9784"
         id="path3072-9-7"
         sodipodi:nodetypes="csc" />
      <path
         style="fill:none;stroke:#0000ff;stroke-width:0.193882px;stroke-linecap:butt;stroke-linejoin:miter;stroke-opacity:1"
         d="m 257.85934,175.9663 c 2.33383,2.23803 3.04706,5.0682 1.44554,8.74417"
         id="path3074-8-8"
         sodipodi:nodetypes="cc" />
      <path
         style="fill:none;stroke:#0000ff;stroke-width:0.193882px;stroke-linecap:butt;stroke-linejoin:miter;stroke-opacity:1"
         d="m 253.15885,188.14443 -1.78079,3.68952 -1.08404,3.22065 c 0,0 0.1108,-0.39112 -0.49914,0.37718 -0.60994,0.7683 -0.8144,1.05729 -0.8144,1.05729 l 0.35059,1.09912 -5.36837,6.22761 0.31627,2.08564 -3.29978,2.64721 -0.0755,2.17035 -5.72239,5.22714 -2.97664,4.53554 -2.1907,1.50174 -1.15368,2.42795 -4.2044,3.5037 -5.69493,4.43791 -12.28279,3.80622"
         id="path3076-1-2" />
      <path
         style="fill:none;stroke:#0000ff;stroke-width:0.193882px;stroke-linecap:butt;stroke-linejoin:miter;stroke-opacity:1"
         d="m 187.73004,235.97257 c -0.51066,0.0233 -1.09618,-0.0349 -0.15198,1.57494"
         id="path3078-8-0"
         sodipodi:nodetypes="cc" />
      <path
         style="fill:none;stroke:#0000ff;stroke-width:0.193882px;stroke-linecap:butt;stroke-linejoin:miter;stroke-opacity:1"
         d="m 191.1941,236.98596 c -1.98631,1.1983 -0.52744,2.21717 -0.46724,2.25506"
         id="path3080-9-8"
         sodipodi:nodetypes="cc" />
      <path
         style="fill:none;stroke:#0000ff;stroke-width:0.193882px;stroke-linecap:butt;stroke-linejoin:miter;stroke-opacity:1"
         d="m 194.47976,237.20273 c -1.14676,0.72358 -3.28468,0.54764 -2.59962,2.07971"
         id="path3082-1-2"
         sodipodi:nodetypes="cc" />
      <path
         style="fill:none;stroke:#0000ff;stroke-width:0.193882px;stroke-linecap:butt;stroke-linejoin:miter;stroke-opacity:1"
         d="m 195.99108,237.40518 c -3.36775,1.32719 -2.67566,2.2495 -2.65502,2.27526"
         id="path3084-7-7"
         sodipodi:nodetypes="cc" />
      <path
         style="fill:none;stroke:#0000ff;stroke-width:0.193882px;stroke-linecap:butt;stroke-linejoin:miter;stroke-opacity:1"
         d="m 198.23769,237.09076 c -2.46411,1.64541 -1.7136,2.33676 -1.68591,2.35946"
         id="path3086-8-9"
         sodipodi:nodetypes="cc" />
      <path
         sodipodi:nodetypes="cssc"
         id="path3086-2-4-4"
         d="m 200.63809,237.05428 c -0.32947,0.23981 -0.50804,0.7415 -0.81038,0.69471 -0.88102,-0.13634 -0.35804,0.36526 -0.64533,0.41989 -1.60234,0.30469 -0.2666,1.22587 -0.2302,1.24485"
         style="fill:none;stroke:#0000ff;stroke-width:0.193882px;stroke-linecap:butt;stroke-linejoin:miter;stroke-opacity:1" />
      <path
         style="fill:none;stroke:#0000ff;stroke-width:0.193882px;stroke-linecap:butt;stroke-linejoin:miter;stroke-opacity:1"
         d="m 202.23178,236.83911 c -2.14273,1.93236 -1.26431,2.56667 -1.25591,2.57244"
         id="path3103-1-2"
         sodipodi:nodetypes="cc" />
      <path
         sodipodi:nodetypes="csc"
         id="path3103-8-6-6"
         d="m 204.58645,236.74477 c -0.41148,0.36849 -1.19325,0.6758 -1.40425,0.95939 -0.82659,1.11103 0.14258,1.60799 0.14834,1.61306"
         style="fill:none;stroke:#0000ff;stroke-width:0.193882px;stroke-linecap:butt;stroke-linejoin:miter;stroke-opacity:1" />
      <path
         style="fill:none;stroke:#0000ff;stroke-width:0.193882px;stroke-linecap:butt;stroke-linejoin:miter;stroke-opacity:1"
         d="m 205.58797,236.76209 c -1.81338,2.13531 -0.76738,2.49113 -0.76707,2.49123"
         id="path3141-4-2"
         sodipodi:nodetypes="cc" />
      <path
         style="fill:none;stroke:#0000ff;stroke-width:0.193882px;stroke-linecap:butt;stroke-linejoin:miter;stroke-opacity:1"
         d="m 206.64043,237.24438 c -0.65085,2.62261 0.30765,2.33229 0.3077,2.33228"
         id="path3143-6-3"
         sodipodi:nodetypes="cc" />
      <path
         style="fill:none;stroke:#0000ff;stroke-width:0.193882px;stroke-linecap:butt;stroke-linejoin:miter;stroke-opacity:1"
         d="m 212.13536,235.76254 c -1.07252,3.44336 1.40759,2.81659 1.4087,2.81632"
         id="path3145-8-4"
         sodipodi:nodetypes="cc" />
      <path
         style="fill:none;stroke:#0000ff;stroke-width:0.193882px;stroke-linecap:butt;stroke-linejoin:miter;stroke-opacity:1"
         d="m 213.03483,235.05403 c 0.62883,-0.18636 1.26708,-0.38748 1.09414,0.68134 l -0.003,1.48153"
         id="path3147-5-1"
         sodipodi:nodetypes="ccc" />
      <path
         style="fill:none;stroke:#0000ff;stroke-width:0.193882px;stroke-linecap:butt;stroke-linejoin:miter;stroke-opacity:1"
         d="m 218.63026,233.47703 c 0.84523,3.07202 2.30988,2.05847 2.30988,2.05847"
         id="path3149-8-6"
         sodipodi:nodetypes="cc" />
      <path
         style="fill:none;stroke:#0000ff;stroke-width:0.193882px;stroke-linecap:butt;stroke-linejoin:miter;stroke-opacity:1"
         d="m 220.37037,232.35422 c 0.34324,0.42033 0.0233,1.33622 0.25693,1.61922 1.06712,1.29283 1.70287,0.723 1.70287,0.723"
         id="path3151-5-3"
         sodipodi:nodetypes="csc" />
      <path
         style="fill:none;stroke:#0000ff;stroke-width:0.193882px;stroke-linecap:butt;stroke-linejoin:miter;stroke-opacity:1"
         d="m 224.74319,229.59739 c 0.57226,0.76266 1.30959,1.21753 2.70629,0.4429 0,0 -3.67388,3.62154 0,0 0.44698,-0.44061 1.25407,-0.27166 1.59273,-0.61565 2.44485,-2.4834 1.84358,-3.16256 1.84358,-3.16256"
         id="path3153-2-6"
         sodipodi:nodetypes="ccssc" />
      <path
         style="fill:none;stroke:#0000ff;stroke-width:0.193882px;stroke-linecap:butt;stroke-linejoin:miter;stroke-opacity:1"
         d="m 233.30669,223.73147 c 5.47511,-2.09888 4.14901,-3.30812 4.14899,-3.30814"
         id="path3155-4-2"
         sodipodi:nodetypes="cc" />
      <path
         style="fill:none;stroke:#0000ff;stroke-width:0.193882px;stroke-linecap:butt;stroke-linejoin:miter;stroke-opacity:1"
         d="m 238.97488,217.26769 c 0.8912,0.17768 1.14395,-1.03882 1.15591,-1.09441"
         id="path3157-1-2"
         sodipodi:nodetypes="cc" />
      <path
         style="fill:none;stroke:#0000ff;stroke-width:0.193882px;stroke-linecap:butt;stroke-linejoin:miter;stroke-opacity:1"
         d="m 240.13079,216.17328 c 0.11131,0.99176 0,0 0,0"
         id="path3159-8-5" />
      <path
         style="fill:none;stroke:#0000ff;stroke-width:0.193882px;stroke-linecap:butt;stroke-linejoin:miter;stroke-opacity:1"
         d="m 243.37637,212.28944 c -3.00367,4.79979 -4.10363,3.40883 -4.10388,3.40853"
         id="path3161-9-7"
         sodipodi:nodetypes="cc" />
      <path
         style="fill:none;stroke:#0000ff;stroke-width:0.193882px;stroke-linecap:butt;stroke-linejoin:miter;stroke-opacity:1"
         d="m 248.40445,204.66675 c -1.21792,1.04347 -2.14794,2.29729 -2.2348,4.16709"
         id="path3163-9-3"
         sodipodi:nodetypes="cc" />
      <path
         style="fill:none;stroke:#0000ff;stroke-width:0.193882px;stroke-linecap:butt;stroke-linejoin:miter;stroke-opacity:1"
         d="m 254.18537,193.56457 c -2.96756,5.67179 -2.16124,6.24402 -2.16124,6.24402 l -1.88522,2.50045"
         id="path3165-2-4" />
      <path
         style="fill:none;stroke:#ff0000;stroke-width:0.264583px;stroke-linecap:butt;stroke-linejoin:miter;stroke-opacity:1"
         d="m 160.3026,85.02394 -9.5626,43.26543 45.97037,71.09368 -25.65788,16.57072 v 43.22781 h 81.67864 v -21.84587 l 31.64364,-53.98882 v -46.5049 L 268.87313,110.11504 241.61165,84.4894 Z"
         id="path1476"
         sodipodi:nodetypes="cccccccccccc" />
      <path
         style="fill:none;stroke:#0000fa;stroke-width:0.264583px;stroke-linecap:butt;stroke-linejoin:miter;stroke-opacity:1"
         d="m 189.49409,101.69605 4.81085,3.0736 4.27632,-1.06907 3.8754,-2.53906 5.47903,1.73725"
         id="path1575" />
      <path
         style="fill:none;stroke:#0000ff;stroke-width:0.264583px;stroke-linecap:butt;stroke-linejoin:miter;stroke-opacity:1"
         d="m 192.96859,99.424261 4.00905,1.336349 2.40542,-1.202713"
         id="path1577" />
      <path
         style="fill:none;stroke:#0000ff;stroke-width:0.264583px;stroke-linecap:butt;stroke-linejoin:miter;stroke-opacity:1"
         d="m 201.39833,99.57402 4.66647,-2.287915 0.66818,1.737254 h 3.20723 l -2.00452,1.758741 5.47366,-0.54528 0.005,1.99377 4.12097,0.95305"
         id="path1579"
         sodipodi:nodetypes="cccccccc" />
    </g>
    <g
       transform="translate(4.6408333,-133.82246)"
       id="g1710">
      <g
         aria-label="JORAN"
         id="text1686"
         style="font-size:50.8px;line-height:1.25;font-family:'BadaBoom BB';-inkscape-font-specification:'BadaBoom BB';stroke-width:0.264583">
        <path
           d="m 203.46222,248.1886 q 0.47129,0.19844 0.44649,0.34726 l -0.12402,0.62012 -0.66973,0.12403 q -0.29766,-0.42168 -0.22324,-0.84336 l 0.0248,-0.12403 q 0.0992,0 0.5457,-0.12402 z m -4.8121,1.43867 q 1.41386,0.12402 1.26503,0.71934 -0.5457,1.24023 -0.89296,1.24023 h -0.91778 q 0.0744,-0.32246 -0.22324,-0.74414 l 0.0496,-0.24805 q 0.32246,-0.89296 0.71934,-0.96738 z m 4.73769,1.33945 0.0992,0.22325 -0.0744,0.39687 -0.27286,0.59531 q 6.02754,0.24805 5.8043,1.31465 0.76895,0.22324 0.99219,0.22324 2.20762,0 3.44785,-1.0914 h 0.12402 q 4.39043,0 4.2416,0.74414 -0.14882,0.74414 3.05098,0.84336 h 0.5209 q -0.0496,0.24805 0.17363,0.24805 l -0.0248,0.12402 q -1.16582,0.84336 -1.19063,0.94258 0.19844,0.14882 0.34727,0.14882 7.54062,0.34727 7.46621,0.69454 l -0.0496,0.14882 q -0.0248,0.19844 -0.27285,0.19844 -2.60449,0 -9.40098,0.99219 -0.5457,0.84336 -1.33945,0.84336 -0.27285,0 -1.38906,-0.12403 l -2.03399,0.47129 -0.0248,0.12403 q -0.0248,0.24804 0.19843,0.24804 -0.12402,0.5209 -1.56269,0.59532 -2.87734,-0.24805 -4.46484,-0.24805 h -2.85254 q -0.0744,0 -0.91778,0.74414 h -3.99355 l -0.22324,-0.14883 q -0.4961,1.01699 -1.19063,3.64629 -3.59668,7.46621 -4.66328,7.46621 -0.91777,1.0666 -2.33164,3.59668 -1.6123,1.61231 -2.33164,4.93613 -1.38906,3.39825 -2.77813,3.39825 -0.79375,0.96738 -2.23242,5.53144 -0.76894,1.48828 -1.95957,5.03535 -4.21679,7.73907 -6.54844,7.73907 -3.89433,2.28203 -4.2416,2.28203 l -0.79375,0.12402 q -1.21543,0 -4.11757,-1.33945 -1.26504,-2.55489 -0.39688,-6.62285 -0.29766,0 0,-1.81075 l 0.0248,-0.12402 q 0.0744,-0.37207 1.19063,-2.03398 0.24805,-0.47129 0.34727,-0.96739 0.12402,-0.5705 0.5457,-3.7207 0.42168,-1.46348 0.84336,-1.46348 0.29765,0 0.29765,1.5627 0.12403,0 0.34727,0.14883 0.0744,-0.34727 0.5209,-1.24024 l 0.27285,-1.90996 2.40605,-7.11894 q 0.5209,-0.71934 0.66973,-0.71934 l 0.19844,0.37207 -1.83555,8.65684 q 0.22324,0.79375 -0.29765,3.86953 1.26503,1.83554 0.66972,4.68808 0.27285,0 -0.22324,2.28204 h 0.24805 q 0.69453,-0.79375 0.74414,-1.06661 -0.0248,-0.96738 0.0248,-1.21543 1.98438,-5.10976 7.16856,-15.52773 0.59531,-2.75332 2.30683,-5.43223 0.27285,-1.36425 1.90996,-3.49746 1.09141,-5.10976 5.45703,-8.68164 l 0.0248,-0.19844 q -0.22324,0 -0.19844,-0.14882 -1.33945,0.59531 -2.97656,0.59531 -3.59668,-2.53008 -4.53926,-3.49746 -0.69453,-0.94258 -0.57051,-1.53789 0.19844,-0.4961 0.39688,-1.33946 -1.0666,-0.44648 -0.91777,-1.0914 1.0914,-0.27285 1.19062,-0.71934 -3.02617,-1.04179 -2.92695,-1.53789 0.49609,-0.24805 0.84336,-0.24805 h 0.37207 q 1.46347,0.44649 2.23242,0.44649 1.48828,0 5.68027,-0.59531 2.13321,0 2.87735,0.99218 1.90996,0.34727 2.90214,0.34727 2.03399,-0.59531 2.33164,-0.59531 0.71934,0 1.33946,0.94258 h 0.39687 q 3.47266,-0.47129 3.54707,-0.84336 0.59532,-1.06661 1.36426,-1.06661 z m -26.4418,0.62012 h 0.74414 l 0.0248,0.59531 -0.0248,0.0992 q -0.0496,0.24805 -0.32246,0.24805 h -0.52089 q -0.24805,0 -0.17364,-0.34727 z m 1.61231,3.22461 q 1.38906,0.19844 1.28984,0.62012 l -0.14883,0.69453 q -1.11621,0.49609 -1.41386,0.49609 -0.62012,-0.24804 -0.62012,-0.59531 0.19844,-0.99219 0.89297,-1.21543 z m 16.3959,14.68438 q -0.0496,0.19843 -0.37207,0.49609 l -0.0248,0.0992 h 0.12403 q 0.0496,-0.14883 0.34726,-0.44649 l 0.0248,-0.14882 z m -26.11934,17.11523 -0.0496,0.24805 h 0.12403 l 0.0496,-0.24805 z"
           style="font-style:normal;font-variant:normal;font-weight:normal;font-stretch:normal;font-size:50.8px;font-family:'Another Danger Slanted - Demo';-inkscape-font-specification:'Another Danger Slanted - Demo, Normal';font-variant-ligatures:normal;font-variant-caps:normal;font-variant-numeric:normal;font-variant-east-asian:normal;stroke-width:0.264583"
           id="path1692" />
        <path
           d="m 214.50031,254.88586 h 0.44648 q 0.66973,0.74415 1.36426,0.74415 h 1.09141 q 0.84336,0 2.6293,1.98437 h 0.12402 q 0.74414,-0.22324 1.01699,-0.22324 0.57051,0 0.76895,0.5457 -0.0744,0.24805 -0.96739,1.41387 1.0666,2.18281 0.84336,3.175 l -0.0248,0.19844 -0.57051,0.12402 h -0.22324 q -0.47129,0 -0.81856,-0.22324 -0.59531,0.17363 -0.69453,0.64492 0.96738,1.09141 1.61231,1.09141 0.14882,-0.42168 0.42168,-0.42168 h 0.66972 q 0.94258,0.14882 0.79375,0.86816 -0.0496,0.19844 -0.86816,0.99219 1.93476,1.66191 0.84336,6.8709 0.5209,1.0666 0.39687,1.6371 -1.21543,2.65411 -1.95957,5.13457 -0.62011,0.84336 -1.26504,2.82774 l 0.76895,-0.5457 h 0.12402 l -0.0248,0.0992 q -0.59531,2.85254 -6.74688,9.17774 -4.98574,4.26641 -7.54062,5.13457 -4.61367,2.23242 -5.55625,2.50527 -0.89297,0 -0.99219,0.0992 -2.72851,0 -6.07715,-2.28203 -4.44004,-4.19199 -2.70371,-12.32793 l 0.0992,-0.5457 q 0.12402,-0.59531 0.44648,-1.53789 l 0.0248,-0.0992 h -0.12402 q -1.14102,2.28203 -1.36426,2.28203 l -0.14883,-0.32246 0.19844,-0.86817 1.81074,-4.48964 q 0.76894,-2.6045 0.99219,-2.6045 l 0.12402,-0.5457 q -0.39687,-0.84336 -0.47129,-0.86816 1.71152,-3.37344 1.76113,-3.62149 h -0.5457 q -0.22324,0 -0.17363,-0.19843 l 0.0248,-0.12403 q 1.88516,-2.95176 4.56407,-5.55625 1.6371,-1.01699 1.78593,-1.76113 l -0.0248,-0.42168 q 1.0914,-1.36426 4.19199,-3.27422 0.94258,-0.99219 4.83691,-2.18281 1.46348,-1.41387 4.66329,-1.41387 l 0.12402,-0.5457 q 0.0496,-0.22324 0.37207,-0.22324 l 0.0248,-0.12403 z m 3.77031,9.4754 -0.14883,0.22324 0.84336,1.0914 -0.0744,0.44649 q -0.42168,0.0992 -0.47129,0.0992 l -0.0248,0.12402 q 0.34726,0.44648 0.19843,1.09141 l -0.0992,0.5457 h -0.44648 q -0.81855,-1.5875 -1.68672,-2.85254 -1.41387,0.22324 -1.90996,0.22324 -0.27285,0 -1.46348,-0.76894 -0.19843,0.79375 -3.79511,4.48965 -1.21543,1.83554 -4.26641,4.14238 -3.00137,3.32383 -3.59668,6.10195 -1.0666,4.26641 -1.76113,4.26641 l -0.71934,0.76894 q 0.0744,0.39688 -0.14883,2.28203 0.57051,3.05098 2.0836,3.05098 0.99219,0.5457 2.05879,0.5457 0.34726,0 3.84472,-1.19062 1.71153,0 2.67891,-1.21543 1.38906,-0.89297 2.97656,-3.27422 0.86817,-2.95176 1.68672,-3.81992 2.48047,-3.42305 2.82774,-5.10977 0.42167,-0.76894 1.53789,-1.53789 0.62011,-0.89297 0.84336,-1.95957 0.22324,-1.0666 0.44648,-3.59668 0.14883,-0.19843 0.19844,-0.44648 h 0.32246 q 0.12402,0 0.69453,0.86816 h 0.0992 q 0.22324,0 0.27285,-0.22324 -0.32246,-2.33164 -2.28203,-4.14238 -0.32246,0 -0.71934,-0.22324 z m -11.31094,6.44921 -0.0248,0.22325 q 0.19844,0 0.24805,-0.22325 z m 13.02247,12.22871 -0.0496,0.22325 h 0.0992 l 0.0496,-0.22325 z"
           style="font-style:normal;font-variant:normal;font-weight:normal;font-stretch:normal;font-size:50.8px;font-family:'Another Danger Slanted - Demo';-inkscape-font-specification:'Another Danger Slanted - Demo, Normal';font-variant-ligatures:normal;font-variant-caps:normal;font-variant-numeric:normal;font-variant-east-asian:normal;stroke-width:0.264583"
           id="path1694" />
        <path
           d="m 239.35461,255.20833 q 1.24023,0.22324 4.71289,0.32246 3.42304,0.86816 5.90351,2.45566 3.24942,2.75332 3.29903,3.79512 0.34726,0 0.74414,0.89297 0.96738,0.69453 1.01699,2.35644 0.12402,2.70371 -0.0248,3.44785 -0.69453,3.19981 -6.67246,9.35137 l -5.97793,4.46484 q -0.24804,0.37207 -2.35644,1.24024 -0.19844,0.5209 -3.27422,1.56269 -0.39688,0.24805 -0.42168,0.32246 1.46348,1.06661 3.62148,3.34864 0.57051,0 0.79375,0.66972 0.32247,0 0.99219,2.00918 0.14883,0 0.91778,1.66192 0.5457,0 1.93476,0.79375 1.43867,0 1.71152,1.33945 0.29766,0.62012 1.28985,1.5627 -0.0496,0.79375 -0.0496,0.86816 -0.27285,0.12402 -0.39688,0.12402 l -0.0248,0.0992 q 0.0248,0.34727 1.66191,2.13321 l -0.0496,0.22324 q -0.0248,0.19843 -1.11621,0.32246 -0.0744,0.76894 0.96739,1.46347 -0.0744,0.42168 1.28984,1.66192 0.24805,1.16582 0.5209,1.46348 0.49609,0 1.04179,1.11621 h -0.59531 q 0.0744,-0.27286 -2.1084,-2.13321 -1.95957,-3.00136 -4.04316,-3.00136 0.0248,-0.12403 -0.19844,-0.12403 l 0.0248,-0.0992 q 0.44648,0 0.49609,-0.22324 -1.43867,0 -2.33164,-1.11621 -0.5209,-0.64492 -1.46348,-0.79375 0.0744,-0.32246 -0.17363,-0.32246 h -0.0992 l -0.22324,0.44648 h -0.34727 q -0.86816,-1.71152 -3.91914,-4.11757 -0.5457,-1.017 -2.48047,-1.017 -1.43867,-0.66972 -2.23242,-2.10839 -0.22324,0 -1.21543,-0.89297 -0.27285,0 -2.6541,-2.35645 -1.28984,-0.89297 -2.03398,-0.89297 h -0.34727 q -0.44648,0.12403 -1.90996,2.35645 -0.47129,0 -0.84336,1.78594 l -0.17363,0.89296 0.0992,1.11622 -0.0248,0.0992 q -0.22324,1.11622 -2.97656,4.68809 -0.32246,0 -0.64492,-0.22324 -1.86035,3.39824 -2.15801,3.44785 -0.39687,-0.66973 -0.5457,-0.66973 -0.59532,0 -0.71934,0.57051 -0.17363,0.89297 -3.1998,4.11758 -1.24024,2.23242 -1.41387,2.23242 l -0.0248,-0.44648 q 0.0744,-0.32246 3.62149,-6.02754 l 0.47129,-1.11621 q -0.0744,-0.71934 0.14883,-1.78594 h 0.22324 q -0.14883,-0.94258 -0.0744,-1.21543 0.0992,-0.5457 1.43868,-4.56406 l -0.27286,0.0992 h -0.34726 l 0.0496,-0.22325 q 1.01699,-2.33164 3.49746,-6.57324 l 0.57051,-1.56269 q -0.94258,-0.42168 -1.68672,-1.43868 l 0.29765,-0.79375 0.14883,-0.76894 0.17364,-0.22324 q -2.43086,-0.64493 -2.40606,-0.79375 0.12402,0 0.37207,-0.0992 0.96738,0.0992 1.61231,0.0992 h 0.47129 q 0.17363,0 0.42167,-0.32246 -2.90214,-0.94258 -4.31601,-2.23243 h 0.34726 q 1.61231,0.66973 4.29122,0.66973 l 0.0248,-0.12402 q 0.0496,-0.22325 0.17363,-0.22325 v -0.5457 l 0.0992,-0.44648 q 0.19844,-0.89297 1.43867,-1.33946 l 0.44649,-0.44648 0.0248,-0.0992 q -0.32246,-0.59531 -0.24804,-1.01699 0.0992,-0.22324 0.27285,-0.22324 -0.0992,0.49609 1.01699,0.79375 l 0.12402,-0.57051 q 0.19844,-0.91777 -0.47129,-2.77813 l 0.0992,-0.44648 h 0.34727 q 0.91777,2.90215 1.83555,2.90215 0.74414,-1.0418 1.6371,-4.36563 0.0992,-0.47129 0.84336,-1.21543 l 0.14883,-0.66972 q 0.19844,-0.96739 0.94258,-1.78594 0.0496,-0.19844 -0.0744,-0.66973 1.48828,-2.1084 4.7625,-3.22461 1.78593,-0.0744 1.88515,-0.5705 l 0.0248,-0.0992 q -0.5209,0 -0.66973,-0.12403 l -1.5875,0.22325 q -1.09141,-0.22325 -2.08359,-0.54571 l 0.0248,-0.22324 0.32246,-0.34727 h -0.71933 q -1.48828,0.44649 -3.96875,0.57051 -0.44649,-0.12402 -0.79375,-0.12402 l 0.0744,-0.32246 q 0.47129,0 0.79375,-0.44649 -0.37207,-0.42168 -0.34727,-0.5705 -4.09277,0.89296 -5.75468,1.78593 -1.21543,0.89297 -1.83555,0.89297 -0.24805,0 -0.44648,-0.0992 -2.15801,1.11621 -2.45567,1.11621 l 0.0744,-0.34726 q 9.42578,-4.68809 11.53418,-4.68809 l -0.0744,-0.22324 q 0.12403,0 3.29903,-1.21543 h 0.0992 q -0.0248,0.22324 -0.89296,0.44649 l -0.0248,0.0992 0.5457,0.12403 q 1.43868,-1.11621 4.2168,-1.11621 2.1084,-0.44649 4.91133,-0.57051 l 0.0248,-0.0992 q -0.34726,0 -0.29765,-0.22324 z m -7.41661,3.57187 -0.0248,0.0992 h 0.57051 l 0.0248,-0.0992 z m 9.37618,2.55488 q -0.0744,0 -0.66973,-0.0992 -1.66191,0.14883 -1.76113,0.54571 l -0.17364,0.79375 q 0.14883,1.01699 -0.17363,2.55488 -0.47129,2.1084 -1.38906,2.1084 -0.34727,0.89297 -0.79375,0.89297 l -0.0992,0.57051 q -0.0496,0.22324 -2.35644,3.34863 l -0.0744,0.32246 q 0,0.0744 -0.19844,1.46348 -0.29765,0.66972 -2.20761,2.77812 -0.37207,0.5457 -0.57051,1.5627 0.69453,0.32246 1.78594,0.32246 2.85254,-0.44649 6.07714,-1.5627 0.12403,-0.59531 1.46348,-1.43867 1.0666,-0.32246 2.6293,-1.33945 1.28984,0 2.6541,-2.00918 0.5457,-0.54571 2.05879,-3.12539 l -0.0744,-0.22325 q 0.22325,-0.42168 0.29766,-0.76894 -0.5209,-4.86172 -3.00137,-6.25078 -0.5705,-0.14883 -0.5209,-0.32246 l 0.17364,-0.22325 q -0.22324,0 -0.99219,-0.34726 -1.63711,0.44648 -2.08359,0.44648 z m -11.36055,1.24024 h 0.34727 v 0.5457 l -0.0248,0.12402 -0.59531,0.0992 v -0.5457 q 0.0744,-0.22324 0.27285,-0.22324 z m 8.30957,0.44648 q 0.0744,0.19844 0.0496,0.32246 h 0.12402 l 0.0744,-0.32246 z m -17.14004,6.44922 h 0.34727 q 0.22324,0.0496 0.17363,0.22324 l -0.0496,0.34727 q -0.0496,0.22324 -0.29766,0.22324 h -0.22324 q -0.24804,0 -0.19844,-0.22324 z m -1.56269,3.47266 q 0.74414,0.32246 0.62011,0.99218 l -0.0744,0.34727 -0.84336,0.0992 h -0.47129 q -0.17363,-0.79375 -0.14883,-0.99219 0.76895,-0.44648 0.91778,-0.44648 z m 22.7955,1.66191 -0.0496,0.22324 q 0.24805,-0.0992 0.37207,-0.0992 l 0.0248,-0.12402 z m 5.01055,3.34863 -0.14883,0.22325 -0.0248,0.0992 h 0.0992 q 0.0248,-0.0992 0.19843,-0.32246 z m -34.50332,0.0992 h 0.22324 q 0.24805,0.0496 0.19844,0.22324 l -0.0744,0.34727 q -0.0496,0.22324 -0.27286,0.22324 h -0.34726 v -0.57051 q 0.0744,-0.22324 0.27285,-0.22324 z m 33.41191,0.66973 -0.0496,0.22324 h 0.12403 l 0.0496,-0.22324 z m -32.09726,2.45566 q 0.62012,0 0.91777,0.66973 l -0.0744,0.34727 q -0.86817,0.44648 -1.14102,0.44648 h -0.22324 q -0.17363,0 -0.29766,-0.34727 l 0.19844,-0.89296 z m 0.84336,16.9416 h 0.12402 l -0.0992,0.44649 h -0.12402 z"
           style="font-style:normal;font-variant:normal;font-weight:normal;font-stretch:normal;font-size:50.8px;font-family:'Another Danger Slanted - Demo';-inkscape-font-specification:'Another Danger Slanted - Demo, Normal';font-variant-ligatures:normal;font-variant-caps:normal;font-variant-numeric:normal;font-variant-east-asian:normal;stroke-width:0.264583"
           id="path1696" />
        <path
           d="m 279.0421,243.27727 q 0.14883,0 0.39688,0.39688 -0.29766,0.44648 -0.49609,0.49609 h -0.39688 v -0.49609 l 0.0744,-0.29766 q 0.0496,0 0.42168,-0.0992 z m -3.1998,1.98438 q 0.69453,0 0.5457,0.69453 l -0.0992,0.39687 -0.19843,0.4961 h -0.79375 q -0.47129,-0.54571 -0.42168,-0.79375 0.24804,-0.79375 0.96738,-0.79375 z m 3.42305,0.19843 h 0.0992 q 0.32246,0 -0.34727,3.47266 0.49609,0 0.39687,0.49609 l -0.0248,0.0992 q -0.0496,0.22324 -0.5457,0.29766 l -0.0744,0.29765 q -0.19843,0.94258 0.22325,1.28985 l -0.0248,0.0992 q -0.59531,1.38906 -0.62012,1.48828 -0.12402,2.90215 -0.5209,4.86172 l -0.0744,0.29765 q -0.42168,1.95957 -1.88516,4.26641 -0.47128,1.21543 -1.26503,4.06797 0.0248,2.18281 -0.0992,2.77812 l -0.0496,0.19844 q -0.14883,0.74414 -1.53789,2.08359 l -0.22325,0.59532 -0.17363,2.6789 -0.34726,1.68672 q -0.0992,0.47129 -0.32246,0.99219 l -0.12403,1.5875 q -0.69453,1.38906 -1.83554,5.35781 1.81074,0.74414 1.6123,1.68672 l -0.14883,0.69453 q 1.19063,0 1.0418,0.69453 v 0.0992 q -0.42168,0.0496 -0.47129,0.29766 -0.0496,0.29765 1.24023,0.29765 h 0.89297 l 0.47129,0.0992 -0.0992,0.39688 q -1.56269,0.19844 -3.05097,0.89297 -3.77032,0.62011 -4.04317,0.79375 -0.17363,0 -0.29765,0.49609 l -0.27286,1.28984 q 0.19844,1.36426 0.0744,1.98438 -0.0992,0.42168 -2.20762,5.65547 -1.71152,1.51308 -2.18281,3.77031 -0.57051,1.5875 -1.0418,1.5875 -0.29765,0 -0.0248,-1.28984 h -0.19844 q -0.62012,0.64492 -1.66191,3.67109 -1.63711,2.48047 -2.43086,4.36563 h -0.29766 l 0.0496,-0.19844 q 0.39687,-1.90996 2.25723,-5.95313 -0.0744,-0.59531 0.17363,-1.78593 0.49609,-1.38907 0.59531,-1.88516 0.0744,-0.32246 -0.29765,-1.78594 0.79375,-1.93476 0.99218,-2.87734 0.22324,-1.0418 0.27285,-2.18281 l -0.5705,0.39687 h -0.0992 v -0.49609 q 0.17363,-0.84336 1.66191,-5.45703 -0.5209,-0.0992 -0.76894,-0.0992 -2.77813,0.39687 -3.175,0.39687 l 0.0248,-0.0992 q -0.22324,-0.59531 -1.0666,-0.59531 h -0.0992 q -2.05879,0.39688 -2.18281,0.99219 -0.96738,1.0666 -1.63711,2.57969 -2.38125,1.38906 -3.00137,2.87734 -0.17363,0.81855 -1.33945,1.5875 -0.19844,0 -0.14883,-0.19844 l 0.12402,-0.59531 0.19844,-0.49609 h -0.39687 q -1.78594,2.75332 -4.2168,4.96093 -0.94258,1.38907 -1.31465,1.48828 h -0.0992 v -0.49609 q 0.39688,-0.44648 1.48828,-2.28203 2.1084,-2.00918 2.57969,-4.16719 0.96738,-1.28984 1.0666,-1.78594 -0.12402,-1.0914 -0.17363,-1.0914 1.38906,-2.30684 1.48828,-2.77813 -0.32246,0 -2.03398,-0.69453 h -0.0992 q -2.77813,0.4961 -2.92695,1.19063 l -1.21543,0.0992 h -1.98438 q -0.17363,0 -1.41387,-0.79375 h -2.48047 v -0.4961 q 0.47129,0 0.81856,-0.59531 l -0.86816,-0.0992 q -0.12403,0 -1.017,0.0992 -0.0744,0 -0.76894,-0.0992 -1.11621,0.19844 -2.33164,0.19844 h -1.68672 l 0.0496,-0.19844 q 0.12402,-0.57051 5.58105,-1.09141 2.92696,-0.81855 3.1502,-1.28984 0.0744,-0.32246 3.10058,-0.59531 l 0.37207,-0.29766 -0.12402,-0.29765 0.0496,-0.29766 q 5.87871,-0.49609 8.11113,-0.79375 0.86817,-0.42168 1.95957,-2.67891 1.53789,-2.08359 1.61231,-2.48047 0.0992,-0.39687 0.0744,-1.28984 1.66192,-2.80293 5.87871,-8.92969 0.4961,-0.62011 1.51309,-3.37343 0.64492,-0.39688 1.46347,-2.28204 0.99219,-0.79375 2.23243,-3.96875 0.74414,-0.79375 2.45566,-1.78593 0.17363,-0.54571 1.53789,-1.09141 0.22324,-1.0418 2.00918,-2.87734 1.81074,-3.6711 2.6541,-3.6711 0.69453,0.19844 0.84336,0.19844 0.74414,-0.24805 1.14102,-2.08359 l 0.42168,-0.0992 q 0.19843,0.42168 0.14883,1.5875 0.39687,0 1.51308,-3.37344 z m -2.57969,14.48594 -0.0992,0.39688 h 0.0992 q 0.17363,-0.34727 0.19844,-0.39688 z m -10.61641,11.70781 q -2.45566,4.93614 -3.22461,6.25078 -0.84336,0.64493 -2.82773,3.96875 -0.66973,0.71934 -1.0666,1.28985 h 0.39687 q 0.94258,-0.42168 3.99356,-0.59531 v -0.4961 l 0.34726,-1.5875 q 0.39688,-1.88515 1.76114,-5.55625 l 0.66972,-3.07578 0.14883,-0.19844 z m 7.66465,12.89844 h 0.89297 q 0.0496,0.64492 0,0.89297 l -0.0496,0.29766 q -0.69453,0.19843 -0.94258,0.19843 h -0.49609 l 0.0496,-0.69453 0.0248,-0.0992 q 0.47129,-0.39687 0.5209,-0.59531 z m -30.03847,0.39688 -0.0248,0.0992 h 0.19844 l 0.0248,-0.0992 z m 32.2957,2.08359 h 0.59531 l -0.0248,0.49609 -0.0496,0.29766 h -0.59532 q -0.19843,0 -0.14882,-0.29766 z m -38.5961,2.28203 -0.0496,0.19844 h 0.0992 l 0.0496,-0.19844 z m 23.14278,5.45703 v 0.0992 h 0.19844 v -0.0992 z m -11.70781,1.88516 -0.0248,0.19844 h 0.0992 l 0.0248,-0.19844 z"
           style="font-style:normal;font-variant:normal;font-weight:normal;font-stretch:normal;font-size:50.8px;font-family:'Another Danger Slanted - Demo';-inkscape-font-specification:'Another Danger Slanted - Demo, Normal';font-variant-ligatures:normal;font-variant-caps:normal;font-variant-numeric:normal;font-variant-east-asian:normal;stroke-width:0.264583"
           id="path1698" />
        <path
           d="m 312.60285,239.1845 0.0248,0.86816 q -1.86035,5.10977 -2.75332,7.31738 -0.22324,1.5379 -0.44648,2.6293 -0.86817,2.03399 -1.09141,3.05098 l -0.0992,0.44648 0.0744,2.28203 q -2.33164,6.8461 -2.67891,8.40879 v 0.0992 h 0.0992 q 0.44648,-0.57051 0.47129,-0.64492 h 0.0992 q 0.22324,0.0248 0.17363,0.22324 -2.03398,5.60586 -4.11758,9.59942 -4.11758,9.07851 -4.2416,9.69863 -0.0744,0.39687 -0.0496,1.76113 -2.08359,4.66328 -2.20762,5.23379 l -0.34726,1.63711 q -0.0992,0.5457 -1.14102,1.31465 l -0.37207,1.73633 q -1.04179,0.81855 -2.30683,2.08359 -0.64492,0 -1.19063,0.96738 -0.0992,0 -1.76113,1.09141 h -0.19844 l -1.0418,-0.32246 q -1.6123,0.22324 -1.68671,0.22324 l 0.12402,-0.5457 q 0.0496,-0.17364 -0.24805,-0.32246 -0.66972,0 -1.36426,1.19062 -0.71933,0.99219 -1.51308,0.99219 l -0.0496,-0.22324 0.37207,-0.76895 q -0.39688,-0.14883 -0.37207,-0.32246 l 0.0992,-0.44648 q 0.0744,-0.19844 0.27285,-0.19844 h 0.42168 l 0.29766,0.19844 q 1.11621,-1.66192 1.26503,-2.38125 h -0.0992 q -0.76895,0.64492 -0.91778,0.64492 h -0.22324 q -0.19844,0 -0.17363,-0.22324 l 0.0496,-0.22325 q 1.28984,-1.38906 1.38906,-1.83554 -0.39688,-1.5875 -2.1332,-4.36563 -0.29766,-1.01699 -0.66973,-4.04316 -0.84336,-1.73633 -0.5209,-3.175 -0.69453,-2.77813 -1.0914,-3.05098 -1.51309,3.44785 -3.02618,4.46484 -1.11621,0.62012 -1.63711,3.07579 -0.0496,0.22324 0.27286,1.28984 -2.1084,4.26641 -3.10059,4.26641 -0.47129,0 -1.76113,2.62929 l -0.62012,0.42168 h -0.22324 v -0.5457 l 0.0992,-0.42168 h -0.44649 q -3.81992,6.17637 -3.99355,6.97012 h -0.22324 q -0.22325,0 -0.17364,-0.22325 l 0.0496,-0.19843 q 0.81856,-1.83555 3.19981,-8.40879 l -0.27286,-1.21543 q 0.76895,-1.5627 1.41387,-3.59668 h -0.0992 q -0.42168,0.22324 -0.71933,0.22324 l 0.0248,-0.0992 q 0.22324,-1.0418 1.61231,-3.49746 0.14882,-0.64492 2.20761,-4.68809 0.0496,-0.27285 -0.17363,-1.21542 l 4.29121,-8.40879 q 0.0496,-0.71934 0.14883,-1.19063 l 0.0744,-0.32246 q 0.0496,-0.27285 1.78594,-3.27422 0.57051,-2.72851 1.33945,-2.72851 l 4.48965,-3.72071 0.0496,-0.76894 0.12403,-0.54571 0.5705,-0.0992 q -0.14882,0.64492 0.71934,0.76894 0.12402,-0.57051 0.59531,-1.86035 l -0.19844,-0.5457 0.0496,-0.22325 q 0.39688,-0.64492 1.017,-0.64492 0.74414,0 0.5705,0.86817 -0.49609,0.79375 -0.5457,0.99218 l -0.0992,0.42168 -0.0992,1.09141 h 0.19844 q 0.14883,-0.42168 0.42168,-0.42168 h 0.32246 q 0.0496,0.81855 0.0248,0.96738 1.26504,-0.66972 2.40605,-2.60449 h 0.32246 v 0.5457 l -0.0248,0.0992 q -2.18282,3.64629 -2.6045,5.55625 -0.0992,0 -0.12402,0.12403 -0.0248,0.59531 -0.0992,0.96738 l -0.0248,0.12402 -0.81856,1.73633 q -0.0496,0.32246 0.96739,2.72852 1.48828,6.84609 0.59531,11.03808 0.39687,2.67891 0.44648,5.55625 h 0.12403 q 3.10058,-7.4414 4.14238,-8.28476 1.5875,-1.36426 3.96875,-7.86309 l 0.14883,-0.66973 0.22324,-2.05879 q 2.97656,-6.27558 3.10059,-6.87089 0.27285,-1.31465 2.53007,-4.26641 0.74414,-1.51309 2.38125,-6.00273 0.42168,-0.64493 0.57051,-0.64493 h 0.0992 q 0.0744,0.69454 0.0248,0.96739 l -0.22324,0.99218 q 0.47129,0 1.66192,-3.7207 2.95175,-6.15156 3.07578,-6.77168 0.47129,-0.86816 0.74414,-0.86816 z m -5.63067,10.0459 -0.0992,0.44648 h 0.0992 l 0.0992,-0.44648 z m -19.52128,4.04316 h 0.42168 q 0.22324,0 0.19843,0.64492 -0.47129,0.32246 -0.84336,0.32246 h -0.0992 l 0.0496,-0.19843 z m 4.34082,1.09141 h 0.5457 v 0.5457 l -0.0248,0.0992 q -0.0496,0.22324 -0.27285,0.22324 h -0.42168 q -0.22324,0 -0.17363,-0.22324 l 0.0992,-0.42168 q 0.0744,-0.22324 0.24805,-0.22324 z m -7.9127,1.31464 h 0.99219 q 0.0496,0.69454 0,0.96739 l -0.0744,0.32246 q -0.24804,0.44648 -0.84336,0.44648 -0.39687,-0.44648 -0.66972,-0.44648 l 0.19844,-0.96738 q 0.0248,-0.17364 0.39687,-0.32247 z m 21.87773,9.05372 q -0.0496,0.24804 -0.22324,0.42168 h 0.22324 l 0.0992,-0.42168 z m -16.22226,11.55898 -0.0496,0.22324 q 0.0744,0.22324 0.0496,0.32246 h 0.0992 l 0.0496,-0.22324 q -0.0496,-0.19844 -0.0496,-0.32246 z m -19.5957,11.58379 -0.0496,0.19844 h 0.12402 l 0.0496,-0.19844 z m 16.12304,12.42715 h 0.89297 q 0.0992,1.04179 0.0744,1.0914 -0.19844,0.47129 -0.66973,0.66973 h -0.12402 q -0.96739,0 -0.79375,-0.89297 0.5705,-0.64492 0.62011,-0.86816 z m -3.6959,1.53789 h 0.42168 v 0.5457 l -0.0496,0.22324 -0.5705,0.0992 h -0.19844 q 0.0496,-0.24805 -0.0248,-0.44648 0.24805,-0.42168 0.42168,-0.42168 z"
           style="font-style:normal;font-variant:normal;font-weight:normal;font-stretch:normal;font-size:50.8px;font-family:'Another Danger Slanted - Demo';-inkscape-font-specification:'Another Danger Slanted - Demo, Normal';font-variant-ligatures:normal;font-variant-caps:normal;font-variant-numeric:normal;font-variant-east-asian:normal;stroke-width:0.264583"
           id="path1700" />
      </g>
      <path
         style="fill:none;stroke:#000000;stroke-width:0.264583px;stroke-linecap:butt;stroke-linejoin:miter;stroke-opacity:1"
         d="m 279.38703,314.08004 v 7.46226 H 197.7084 v -7.46226 l -39.21757,-9.39278 -0.24579,-66.01558 160.60751,0.0108 0.26725,65.18689 z"
         id="path1688"
         sodipodi:nodetypes="ccccccccc" />
    </g>
  </g>
</svg>
