<?xml version="1.0" encoding="UTF-8" standalone="no"?>
<svg
   xmlns:dc="http://purl.org/dc/elements/1.1/"
   xmlns:cc="http://creativecommons.org/ns#"
   xmlns:rdf="http://www.w3.org/1999/02/22-rdf-syntax-ns#"
   xmlns:svg="http://www.w3.org/2000/svg"
   xmlns="http://www.w3.org/2000/svg"
   xmlns:sodipodi="http://sodipodi.sourceforge.net/DTD/sodipodi-0.dtd"
   xmlns:inkscape="http://www.inkscape.org/namespaces/inkscape"
   width="210mm"
   height="297mm"
   viewBox="0 0 210 297"
   version="1.1"
   id="svg5919"
   inkscape:version="1.0 (4035a4fb49, 2020-05-01)"
   sodipodi:docname="Triboprojectzijkantdoosje.svg">
  <defs
     id="defs5913" />
  <sodipodi:namedview
     id="base"
     pagecolor="#ffffff"
     bordercolor="#666666"
     borderopacity="1.0"
     inkscape:pageopacity="0.0"
     inkscape:pageshadow="2"
     inkscape:zoom="0.35"
     inkscape:cx="548.22683"
     inkscape:cy="521.05835"
     inkscape:document-units="mm"
     inkscape:current-layer="layer1"
     inkscape:document-rotation="0"
     showgrid="false"
     inkscape:window-width="1350"
     inkscape:window-height="728"
     inkscape:window-x="0"
     inkscape:window-y="0"
     inkscape:window-maximized="0" />
  <metadata
     id="metadata5916">
    <rdf:RDF>
      <cc:Work
         rdf:about="">
        <dc:format>image/svg+xml</dc:format>
        <dc:type
           rdf:resource="http://purl.org/dc/dcmitype/StillImage" />
        <dc:title></dc:title>
      </cc:Work>
    </rdf:RDF>
  </metadata>
  <g
     inkscape:label="Laag 1"
     inkscape:groupmode="layer"
     id="layer1">
    <g
       id="g7063"
       transform="translate(26.458333,45.357143)">
      <path
         sodipodi:nodetypes="ccsccssscsscc"
         id="path6954"
         d="m 131.49661,142.45466 -12.82894,1.87088 c 0,0 -8.55263,8.01809 -13.63075,10.15624 -5.078118,2.13816 -7.483543,6.94901 -7.483543,6.94901 l -0.80181,5.61266 c 0,0 -13.898015,10.42352 -12.027128,13.63075 1.870887,3.20724 -1.069077,6.68174 10.423513,6.1472 11.492588,-0.53454 8.285358,-0.53454 17.105248,0 8.81989,0.53454 12.02713,-1.60362 12.02713,-1.60362 0,0 3.20113,-2.67434 1.33635,4.27631 -3.00724,11.20895 10.67711,2.41568 9.88897,17.10525 -1.17531,21.90578 -13.63075,26.72695 -13.63075,26.72695 h -4.54358"
         style="fill:none;stroke:#000000;stroke-width:0.264583px;stroke-linecap:butt;stroke-linejoin:miter;stroke-opacity:1" />
      <path
         id="path6956"
         d="m 131.49661,142.45466 v 0 0 l -4.27632,3.74177 8.8199,1.06908 -0.80181,4.27631 7.21628,3.47451 h 6.949 l -4.27631,7.21627 2.40543,1.87089 5.61266,-0.53454 -2.13816,3.4745 5.61266,1.06908 -2.67269,2.93997 11.22532,4.27631 -2.6727,3.74177 14.16528,5.61266 -1.87088,3.20724 7.21628,2.93996"
         style="fill:none;stroke:#000000;stroke-width:0.264583px;stroke-linecap:butt;stroke-linejoin:miter;stroke-opacity:1" />
      <path
         sodipodi:nodetypes="cscsccscccccccccc"
         id="path6960"
         d="m 151.27455,196.4431 c -8.55262,0.53454 -9.08716,2.40543 -7.21628,4.00904 1.87089,1.60362 4.00905,11.49259 4.00905,11.49259 0,0 -1.60362,7.75082 -1.33635,8.01809 0.26727,0.26727 -8.28536,10.42351 -8.28536,10.42351 l -10.95805,7.21628 c 0.0256,0.0256 -1.23063,4.91656 -8.55262,2.67269 -3.96703,-1.21572 -5.34539,4.81086 -5.34539,4.81086 l -0.80181,-6.1472 v 0 l -4.81086,5.61265 1e-5,-5.34539 -5.07812,2.40543 1.87088,-3.4745 -4.27631,-0.26727 5.34539,-1.87089 11.49259,-2.6727"
         style="fill:none;stroke:#000000;stroke-width:0.264583px;stroke-linecap:butt;stroke-linejoin:miter;stroke-opacity:1" />
      <path
         id="path6962"
         d="m 148.06732,211.94473 7.21627,3.74177 1.33635,-1.87088 5.87993,6.68174 0.80181,-1.87089 6.68174,4.81085 1.33634,-0.80181 7.75082,5.34539"
         style="fill:none;stroke:#000000;stroke-width:0.264583px;stroke-linecap:butt;stroke-linejoin:miter;stroke-opacity:1" />
      <path
         id="path6964"
         d="m 147.26551,206.33207 6.34765,5.54585 2.00452,-1.53681 4.27631,4.27632 h 2.07134 l 4.94449,4.14268 2.47224,0.53453 6.28083,4.07586"
         style="fill:none;stroke:#000000;stroke-width:0.264583px;stroke-linecap:butt;stroke-linejoin:miter;stroke-opacity:1" />
      <path
         id="path6966"
         d="m 153.54634,178.93695 4.94449,2.80633 -1.46998,0.66817 0.53454,3.0736 12.56166,4.14268 -0.4009,3.8754 6.01356,2.6727 3.87541,0.53454"
         style="fill:none;stroke:#000000;stroke-width:0.264583px;stroke-linecap:butt;stroke-linejoin:miter;stroke-opacity:1" />
      <path
         sodipodi:nodetypes="cccsc"
         id="path6968"
         d="m 95.438988,184.45238 c 17.575892,-2.83482 18.331852,-3.77976 18.331852,-3.77976 7.48171,-2.62583 7.47623,-2.13253 8.69344,-3.40179 0,0 -9.07142,3.59078 0,0 9.07143,-3.59077 8.69346,-3.77976 8.69346,-3.77976"
         style="fill:none;stroke:#000000;stroke-width:0.264583px;stroke-linecap:butt;stroke-linejoin:miter;stroke-opacity:1" />
      <path
         sodipodi:nodetypes="csc"
         id="path6970"
         d="m 93.360119,179.72767 c 10.016371,-8.12648 7.981291,9.42862 9.638391,-8.50446 1.61531,-17.48087 15.875,-8.12649 15.875,-8.12649"
         style="fill:none;stroke:#000000;stroke-width:0.264583px;stroke-linecap:butt;stroke-linejoin:miter;stroke-opacity:1" />
      <path
         id="path6974"
         d="m 103.37649,173.86905 c 4.7247,1.88988 4.91369,1.88988 4.91369,1.88988"
         style="fill:none;stroke:#000000;stroke-width:0.264583px;stroke-linecap:butt;stroke-linejoin:miter;stroke-opacity:1" />
      <path
         sodipodi:nodetypes="ccccccc"
         id="path6978"
         d="m 108.29018,175.75893 h 5.10268 c 2.53908,-1.25992 7.16555,-1.85167 6.68336,-3.1116 2.36336,-1.85938 3.00812,-3.87106 2.19908,-2.55805 l 0.37797,-5.29166 c -0.93187,0.42892 -1.80149,-2.66343 -0.82126,-2.96592 5.92708,-1.68002 0.9137,-2.51847 19.22393,-5.15104"
         style="fill:none;stroke:#000000;stroke-width:0.264583px;stroke-linecap:butt;stroke-linejoin:miter;stroke-opacity:1" />
      <path
         id="path6980"
         d="m 118.87351,163.09672 3.77976,1.7009"
         style="fill:none;stroke:#000000;stroke-width:0.264583px;stroke-linecap:butt;stroke-linejoin:miter;stroke-opacity:1" />
      <path
         sodipodi:nodetypes="csc"
         id="path6982"
         d="m 116.66315,167.04345 c -5.15122,-4.38521 -21.503349,8.98366 -9.88898,5.87993 4.25039,-1.13584 9.07397,-1.78038 10.95806,-4.94448"
         style="fill:none;stroke:#000000;stroke-width:0.264583px;stroke-linecap:butt;stroke-linejoin:miter;stroke-opacity:1" />
      <path
         id="path6984"
         d="m 116.66315,167.04345 1.06908,0.93545"
         style="fill:none;stroke:#000000;stroke-width:0.264583px;stroke-linecap:butt;stroke-linejoin:miter;stroke-opacity:1" />
    </g>
    <g
       id="g7048"
       transform="translate(176.1369,-46.113095)">
      <path
         id="path6986"
         d="m -125.08214,120.00402 9.88897,10.42351 11.75986,4.81085 14.165289,7.48355 5.879931,4.54358 14.165283,3.74177 14.165286,0.80181 7.216275,-0.26727"
         style="fill:none;stroke:#000000;stroke-width:0.264583px;stroke-linecap:butt;stroke-linejoin:miter;stroke-opacity:1" />
      <path
         id="path6988"
         d="m -47.841246,151.54182 7.216277,-9.88897 c 0,0 -2.405424,-8.8199 -2.405424,-9.88898 0,-1.06907 -1.336347,-21.11429 -1.336347,-21.11429 l -13.096208,-12.027125 -9.354434,-11.225321 -5.078119,-1.870887 -8.819896,-9.888972 -2.939965,6.414469 -4.276312,-4.009044 -2.672694,5.612662 -11.492592,-1.33635 3.207236,10.156243 -12.561666,-0.801809 2.40542,8.819894 -3.4745,4.54358 -7.48355,1.60362 8.28536,4.81085 -1.87089,4.81085 0.80181,5.07813"
         style="fill:none;stroke:#000000;stroke-width:0.264583px;stroke-linecap:butt;stroke-linejoin:miter;stroke-opacity:1" />
      <path
         sodipodi:nodetypes="ccc"
         id="path6990"
         d="m -125.08214,120.00402 c -5.98622,8.88892 -17.58716,11.22732 -27.52876,15.50163 9.46052,21.36882 7.27689,22.93973 7.21628,22.98518"
         style="fill:none;stroke:#000000;stroke-width:0.264583px;stroke-linecap:butt;stroke-linejoin:miter;stroke-opacity:1" />
      <path
         id="path6992"
         d="m -145.39462,158.49083 c 5.87993,4.54358 5.87993,4.00904 5.87993,4.00904 l 10.95805,2.40543 -7.75082,2.13815 5.61266,4.27631 6.41447,1.33635 4.54358,3.20724 -6.68173,-0.80181 h -4.81086 l 1.06908,2.67269 5.61266,2.6727 4.54358,9.08716 -5.07812,-4.54358 -9.08716,-4.00904 -0.80181,5.87993 2.93996,11.75986 -14.96709,-17.63979 -1.60362,10.15624 -2.40542,-12.2944 -1.33635,-6.41447 c 0,0 0,-1.33634 0,0"
         style="fill:none;stroke:#000000;stroke-width:0.264583px;stroke-linecap:butt;stroke-linejoin:miter;stroke-opacity:1" />
      <path
         sodipodi:nodetypes="csccc"
         id="path6994"
         d="m -152.34363,172.38884 c -21.48737,-22.06501 -17.61375,-24.95052 -18.97613,-26.45968 -4.6657,-5.16838 -0.43063,-20.02379 1.60361,-18.4416 4.29698,-9.11426 11.06567,-10.81337 18.17433,-11.49259 -8.12381,-8.49252 -15.95992,-17.100112 -20.57975,-26.994218"
         style="fill:none;stroke:#000000;stroke-width:0.264583px;stroke-linecap:butt;stroke-linejoin:miter;stroke-opacity:1" />
      <path
         id="path6996"
         d="M -90.604368,83.655362 C -103.16604,76.973622 -110.64958,66.015573 -110.64958,66.015573 l -3.74178,9.621702 -14.16528,-11.759858 -2.40543,3.741772 -18.17432,-14.165284"
         style="fill:none;stroke:#000000;stroke-width:0.264583px;stroke-linecap:butt;stroke-linejoin:miter;stroke-opacity:1" />
      <path
         id="path6998"
         d="m -97.553377,77.508163 -0.801809,-9.087165 -4.543584,5.078121"
         style="fill:none;stroke:#000000;stroke-width:0.264583px;stroke-linecap:butt;stroke-linejoin:miter;stroke-opacity:1" />
      <path
         id="path7000"
         d="m -105.30419,97.553377 10.156238,6.013563 0.935445,-0.13363 15.234362,14.03164 6.147199,2.93997"
         style="fill:none;stroke:#000000;stroke-width:0.264583px;stroke-linecap:butt;stroke-linejoin:miter;stroke-opacity:1" />
      <path
         sodipodi:nodetypes="cc"
         id="path7002"
         d="m -98.622455,127.88847 c 9.982576,10.56145 11.213795,8.31224 11.225321,8.28535"
         style="fill:none;stroke:#000000;stroke-width:0.264583px;stroke-linecap:butt;stroke-linejoin:miter;stroke-opacity:1" />
      <path
         sodipodi:nodetypes="cc"
         id="path7004"
         d="m -87.397134,136.17382 c 8.38881,1.83065 10.28119,4.39837 10.289876,4.40995"
         style="fill:none;stroke:#000000;stroke-width:0.264583px;stroke-linecap:butt;stroke-linejoin:miter;stroke-opacity:1" />
      <path
         sodipodi:nodetypes="cc"
         id="path7006"
         d="m -66.149209,147.53278 c -3.003622,-1.5591 -5.880577,-2.97042 -10.958049,-6.94901"
         style="fill:none;stroke:#000000;stroke-width:0.264583px;stroke-linecap:butt;stroke-linejoin:miter;stroke-opacity:1" />
      <path
         id="path7008"
         d="m -66.149209,147.53278 c 11.091688,4.27631 11.091688,4.27631 11.091688,4.27631"
         style="fill:none;stroke:#000000;stroke-width:0.264583px;stroke-linecap:butt;stroke-linejoin:miter;stroke-opacity:1" />
      <path
         sodipodi:nodetypes="ccc"
         id="path7010"
         d="m -83.655362,122.81035 c -1.674225,14.56619 5.866761,14.43255 5.879931,14.43255 5.293921,-0.15079 4.811704,-0.71244 4.54358,-0.80181"
         style="fill:none;stroke:#000000;stroke-width:0.264583px;stroke-linecap:butt;stroke-linejoin:miter;stroke-opacity:1" />
      <path
         sodipodi:nodetypes="ccccsccccc"
         id="path7014"
         d="m -73.23185,136.44109 3.073601,1.46998 1.469982,1.20272 1.737252,-0.66818 c 0,0 2.672694,-0.53454 4.009043,0.13364 1.336347,0.66817 2.004521,1.46998 2.004521,1.46998 l 1.603615,-0.53454 0.267272,-1.60362 2.672694,0.13364 0.801809,-3.20723"
         style="fill:none;stroke:#000000;stroke-width:0.264583px;stroke-linecap:butt;stroke-linejoin:miter;stroke-opacity:1" />
      <path
         sodipodi:nodetypes="cc"
         id="path7016"
         d="m -55.592061,134.83748 c -1.788247,-3.0947 -3.728265,-5.98703 -7.617182,-6.28084"
         style="fill:none;stroke:#000000;stroke-width:0.264583px;stroke-linecap:butt;stroke-linejoin:miter;stroke-opacity:1" />
      <path
         sodipodi:nodetypes="cc"
         id="path7018"
         d="m -59.601105,129.49208 c -1.633342,-3.09999 -2.189591,-6.31966 -6.815372,-9.08716"
         style="fill:none;stroke:#000000;stroke-width:0.264583px;stroke-linecap:butt;stroke-linejoin:miter;stroke-opacity:1" />
      <path
         id="path7020"
         d="m -78.309972,124.01306 c 0.101394,0.72703 0.310759,2.85299 0.133636,3.20723 -0.05635,0.11269 -0.210923,0.15458 -0.267269,0.26727 -0.03943,0.0789 0,0.31109 0,0.40091 0,0.0445 0,0.17818 0,0.13363 0,-0.0891 0.063,-0.33026 0,-0.26727 -0.16061,0.16061 -0.133636,0.89531 -0.133636,0.66818 0,-0.0891 0,-0.35636 0,-0.26727 0,0.66817 0,1.33634 0,2.00452 0,0.82372 -0.227168,0.61474 0.133636,1.33635 0.02817,0.0563 0.10546,0.0773 0.133633,0.13363 0.03984,0.0797 -0.06299,0.20428 0,0.26727 0.0315,0.0315 0.102137,-0.0315 0.133636,0 0.063,0.063 -0.063,0.20427 0,0.26727 0.0315,0.0315 0.102137,-0.0315 0.133636,0 0.06299,0.063 -0.063,0.20427 0,0.26727 0.08761,0.0876 0.333952,0.20032 0.400904,0.26727 0.063,0.063 -0.063,0.20427 0,0.26727 0.0315,0.0315 0.102135,-0.0315 0.133633,0 0.056,0.056 0.09314,0.31991 0.133636,0.4009 0.523367,1.04674 -0.199308,-0.49941 0.400905,0.40091 0.09334,0.14001 0.18061,0.31424 0.267269,0.4009 0.124825,0.12483 0.543348,0.14245 0.668173,0.26727 0.0315,0.0315 -0.0315,0.10214 0,0.13364 0.07508,0.0751 0.571778,0.1015 0.668174,0.13363 0.08155,0.0272 0.319352,0.24009 0.400904,0.26727 0.08452,0.0282 0.204274,-0.063 0.267269,0 0.0315,0.0315 -0.0315,0.10214 0,0.13363 0.0891,0.0891 0.563025,-0.0526 0.668173,0 0.03984,0.0199 -0.0315,0.10214 0,0.13364 0.08909,0.0891 0.44545,-0.0891 0.534541,0 0.0315,0.0315 -0.0315,0.10214 0,0.13363 0.07573,0.0757 0.815319,0.18269 1.069078,0.26727 0.521176,0.17373 1.216075,-0.17372 1.737251,0 0.510128,0.17005 0.992098,0.10798 1.469983,0.26727 0.280633,0.0935 0.654809,-0.0935 0.935442,0 0.411755,0.13726 3.182628,0.48003 3.608139,0.26727 0.546849,-0.27342 0.531524,-1.19668 0.801809,-1.73725 0.03984,-0.0797 -0.03984,-0.18758 0,-0.26727 0.05635,-0.11269 0.210926,-0.15458 0.267269,-0.26727 0.03984,-0.0797 -0.03984,-0.18758 0,-0.26727 0.205129,-0.41026 0.797182,-2.01378 0.53454,-2.53906 -0.204517,-0.40903 -0.194624,-0.65652 -0.400904,-1.06908 -0.03984,-0.0797 0.03984,-0.18758 0,-0.26727 -0.05635,-0.11269 -0.210923,-0.15457 -0.267269,-0.26727 -0.15185,-0.30369 -0.102947,-0.74043 -0.267269,-1.06907 -0.05635,-0.11269 -0.210926,-0.15458 -0.267271,-0.26727 -0.03984,-0.0797 0.03984,-0.18759 0,-0.26727 -0.170971,-0.34194 -0.37414,-0.74828 -0.534538,-1.06908 -0.202507,-0.40501 -0.571061,-0.57106 -0.801809,-0.80181 -0.181695,-0.18169 -0.25849,-0.56445 -0.400905,-0.80181 0.11435,-0.61998 -0.287337,-0.1537 -0.400904,-0.26727 -0.09955,-0.0995 -0.19176,-0.45903 -0.267269,-0.53454 -0.0315,-0.0315 -0.09379,0.0199 -0.133636,0 -0.188643,-0.0943 -0.198348,-0.26306 -0.267269,-0.4009 -0.157657,-0.31532 -0.580305,-0.44667 -0.801809,-0.66817 -0.06682,-0.0668 -0.06682,-0.20046 -0.133633,-0.26727 -0.09259,-0.0926 -0.575585,-0.041 -0.668174,-0.13364 -0.0315,-0.0315 0.03984,-0.11371 0,-0.13363 -0.04895,-0.0245 -0.478324,0.0562 -0.53454,0 -0.0315,-0.0315 0.0315,-0.10214 0,-0.13364 -0.063,-0.063 -0.187584,0.0398 -0.267269,0 -0.08909,-0.0445 -0.267269,-0.23324 -0.267269,-0.13363 0,0.0445 0.178179,0 0.133633,0 -0.388104,0 -0.169476,-0.13364 -0.534537,-0.13364 -0.645729,0 -3.97328,-0.15151 -4.276312,0 -0.396473,0.19824 -0.883447,0.24994 -1.33635,0.40091 -0.275905,0.092 -0.30934,0.2883 -0.534538,0.4009 -0.07968,0.0398 -0.182753,-0.0282 -0.267269,0 -0.655253,0.21842 -1.153514,0.36401 -1.737254,0.80181 z"
         style="fill:none;stroke:#000000;stroke-width:0.264583px;stroke-linecap:butt;stroke-linejoin:miter;stroke-opacity:1" />
      <path
         id="path7022"
         d="m -70.856769,126.77661 c -0.736663,-0.74396 -0.805078,-0.10376 -1.447673,0.23441 -0.153604,0.0809 -0.09961,-0.14194 -0.222718,0.11721 -0.0166,0.0349 0.02625,0.0896 0,0.11722 -0.05579,0.0587 -0.261074,0.15758 -0.334079,0.23441 -0.112857,0.1188 0,0.98546 0,1.17211 0,0.51363 0.01977,1.0965 0.222718,1.52374 0.07457,0.15699 0.265664,0.16241 0.334079,0.23442 0.0525,0.0553 -0.0332,0.16453 0,0.23442 0.123112,0.25916 0.06911,0.0364 0.222719,0.11721 0.463452,0.24391 -0.119047,-0.008 0.11136,0.23443 0.0525,0.0553 0.170224,-0.0553 0.222718,0 0.02625,0.0276 -0.02625,0.0896 0,0.1172 0.120945,0.1273 0.819313,0.11722 1.447676,0.11722 0.400823,0 0.89305,0.0574 1.224952,-0.11722 0.131865,-0.0694 0.488506,-0.32508 0.5568,-0.46884 0.03374,-0.0711 0.06469,-0.30251 0.111358,-0.35163 0.230407,-0.24252 -0.009,0.37059 0.222718,-0.11721 0.0332,-0.0699 -0.05249,-0.17917 0,-0.23443 0.02625,-0.0276 0.08511,0.0276 0.111361,0 0.109731,-0.11549 0.05177,-0.74953 0.11136,-0.93767 0.05249,-0.16577 0.170222,-0.30309 0.222719,-0.46885 0.219087,-0.6918 -0.09055,-1.80581 -0.668158,-2.10979 -0.505977,-0.26628 -2.233593,0.23779 -2.44991,0.35164 z"
         style="fill:none;stroke:#000000;stroke-width:0.226198px;stroke-linecap:butt;stroke-linejoin:miter;stroke-opacity:1" />
      <path
         id="path7024"
         d="m -52.518463,147.66641 c 0.112014,-0.57383 -0.141703,-0.96772 -0.267269,-1.46998 -0.05008,-0.20032 0.06524,-0.47247 0,-0.66817 -0.165131,-0.4954 -0.133633,0.16289 -0.133633,-0.26727 0,-0.71902 -0.03956,-1.39086 0.267269,-2.00453 0.09208,-0.18416 0.31341,-0.17977 0.400905,-0.26726 0.168195,-0.1682 0.23301,-0.38378 0.534537,-0.53454 0.106908,-0.0535 0.293997,0.0534 0.400905,0 0.453263,-0.22663 0.357132,-0.32315 0.668173,-0.40091 0.393862,-0.0985 0.926648,0 1.33635,0 0.178178,0 0.356359,0 0.534538,0 0.04454,0 0.178181,0 0.133635,0 -0.08909,0 -0.356359,0 -0.267271,0 0.09658,0 0.670023,-0.0439 0.801809,0 0.219181,0.0731 0.658937,0.39167 0.801809,0.53454 0.05819,0.0582 0.07389,0.44492 0.133636,0.53454 0.162293,0.24344 0.284919,0.30257 0.400902,0.53454 0.05976,0.11953 -0.04226,0.27413 0,0.4009 0.0594,0.17818 0.181713,0.36343 0.267272,0.53454 0.08833,0.17667 0.256016,1.89339 0.133633,2.13816 -0.05635,0.11269 -0.210924,0.15458 -0.267269,0.26727 -0.118282,0.23656 0.198773,0.0457 -0.133636,0.26727 -0.447051,0.29803 -1.402289,0.4009 -2.138156,0.4009"
         style="fill:none;stroke:#000000;stroke-width:0.264583px;stroke-linecap:butt;stroke-linejoin:miter;stroke-opacity:1" />
      <path
         id="path7026"
         d="m -49.845766,144.19191 c -0.422511,-0.0888 -0.74757,0.0794 -0.935443,0.26727 -0.03537,0.0354 0,0.34588 0,0.4009 0,0.0891 -0.08909,0.26727 0,0.26727 0.04455,0 0,-0.17818 0,-0.13363 0,0.78346 0.04285,0.57739 0.400905,0.93544 0.04454,0.0446 0.08909,0.35636 0.133633,0.4009 0.131797,0.1318 0.769303,0.13364 1.069078,0.13364 0.08155,0 0.48247,0.0521 0.53454,0 0.361614,-0.36162 0.267269,-1.22813 0.267269,-1.73725 0,-0.047 -0.247054,-0.68839 -0.267269,-0.66818 -0.04454,0.0446 0.178179,0.17818 0.133634,0.13364 -0.113568,-0.11357 -0.400905,-0.42788 -0.400905,-0.26727 0,0.0445 0.178181,0 0.133636,0 -0.640787,0 -0.276829,-0.0496 -1.069078,0.26727 z"
         style="fill:none;stroke:#000000;stroke-width:0.264583px;stroke-linecap:butt;stroke-linejoin:miter;stroke-opacity:1" />
    </g>
    <text
       id="text1465"
       y="-3.7797618"
       x="259.29166"
       style="font-size:25.4px;line-height:1.25;font-family:'Microsoft Himalaya';-inkscape-font-specification:'Microsoft Himalaya';stroke-width:0.264583"
       xml:space="preserve"><tspan
         sodipodi:role="line"
         style="font-size:25.4px;stroke-width:0.264583"
         y="-3.7797618"
         x="259.29166"
         id="tspan1463">nog lijntjes in zetten?</tspan></text>
  </g>
</svg>
