<?xml version="1.0" encoding="UTF-8" standalone="no"?>
<svg
   xmlns:dc="http://purl.org/dc/elements/1.1/"
   xmlns:cc="http://creativecommons.org/ns#"
   xmlns:rdf="http://www.w3.org/1999/02/22-rdf-syntax-ns#"
   xmlns:svg="http://www.w3.org/2000/svg"
   xmlns="http://www.w3.org/2000/svg"
   xmlns:sodipodi="http://sodipodi.sourceforge.net/DTD/sodipodi-0.dtd"
   xmlns:inkscape="http://www.inkscape.org/namespaces/inkscape"
   width="210mm"
   height="297mm"
   viewBox="0 0 210 297"
   version="1.1"
   id="svg1480"
   inkscape:version="1.0.1 (3bc2e813f5, 2020-09-07)"
   sodipodi:docname="zakjegecko.svg">
  <defs
     id="defs1474">
    <pattern
       id="EMFhbasepattern"
       patternUnits="userSpaceOnUse"
       width="6"
       height="6"
       x="0"
       y="0" />
  </defs>
  <sodipodi:namedview
     id="base"
     pagecolor="#ffffff"
     bordercolor="#666666"
     borderopacity="1.0"
     inkscape:pageopacity="0.0"
     inkscape:pageshadow="2"
     inkscape:zoom="0.7"
     inkscape:cx="574.56741"
     inkscape:cy="611.37085"
     inkscape:document-units="mm"
     inkscape:current-layer="layer1"
     inkscape:document-rotation="0"
     showgrid="false"
     inkscape:window-width="1701"
     inkscape:window-height="1030"
     inkscape:window-x="128"
     inkscape:window-y="0"
     inkscape:window-maximized="0" />
  <metadata
     id="metadata1477">
    <rdf:RDF>
      <cc:Work
         rdf:about="">
        <dc:format>image/svg+xml</dc:format>
        <dc:type
           rdf:resource="http://purl.org/dc/dcmitype/StillImage" />
        <dc:title></dc:title>
      </cc:Work>
    </rdf:RDF>
  </metadata>
  <g
     inkscape:label="Laag 1"
     inkscape:groupmode="layer"
     id="layer1">
    <path
       style="fill:#000000;fill-opacity:1;fill-rule:nonzero;stroke:#f34949;stroke-width:0.872088;stroke-miterlimit:4;stroke-dasharray:none;stroke-opacity:1"
       d="m 188.27843,154.34636 c -0.16866,0.075 -0.33211,-0.0382 -0.74533,-0.54933 -1.07468,-1.34429 -1.6995,-2.58562 -4.2387,-8.2039 -2.84902,-6.33303 -4.00522,-8.39663 -5.91,-10.49901 -3.67796,-4.11784 -8.9892,-7.05673 -15.48493,-8.54353 -6.3338,-1.44972 -12.15093,-1.02011 -24.63669,1.82192 -6.41436,1.46698 -12.2085,2.37527 -17.79324,2.78233 -4.40886,0.31641 -8.8793,0.24001 -13.56352,-0.22618 -3.57163,-0.36304 -8.083939,-1.41478 -12.956995,-3.04148 -4.841194,-1.60044 -4.607283,-1.5469 -5.201269,-1.02008 -0.25971,0.22461 -0.941082,0.63675 -1.491283,0.88953 -1.761194,0.82776 -3.470991,1.76195 -3.508058,1.9239 -0.02059,0.09 0.490841,0.58575 1.146202,1.11449 1.693171,1.37224 2.760676,2.58234 3.30226,3.69099 0.102761,0.21289 0.192724,0.23348 0.751611,0.191 0.344475,-0.0158 0.941946,-0.14419 1.333257,-0.28186 0.387183,-0.11968 0.840695,-0.28098 1.023241,-0.33389 0.186654,-0.0709 0.50078,-0.0369 0.712587,0.0306 0.677041,0.26859 2.982011,1.78086 3.012795,1.97727 0.144189,0.94195 -1.88626,1.29147 -4.265546,0.76582 -1.331546,-0.30478 -2.036974,-0.20113 -2.849494,0.37035 -0.4546,0.33149 -0.567763,0.49494 -0.695439,1.05276 -0.205926,0.89968 -0.05286,1.38919 0.840794,2.86248 0.931162,1.55762 1.161195,2.53815 0.925795,3.98025 -0.165839,0.88992 -0.216723,1.02977 -0.461509,1.1063 -0.419053,0.0934 -0.783495,-0.21718 -1.025445,-0.89749 -0.133555,-0.4093 -0.39979,-0.73535 -0.768334,-1.028 -0.795199,-0.57968 -0.943717,-0.84091 -1.196308,-2.05384 -0.143746,-0.69568 -0.417573,-1.40219 -0.801956,-2.03933 -0.861781,-1.44705 -1.146654,-1.36077 -2.07988,0.56544 -0.361153,0.75054 -0.583354,1.05948 -0.973144,1.27324 -0.68547,0.43013 -2.936608,1.16468 -3.194152,1.04892 -0.153721,-0.073 -0.220488,-0.27771 -0.174116,-0.64582 0.01189,-0.30026 0.0084,-0.69872 -0.04446,-0.88125 -0.125318,-0.44529 0.0986,-1.34086 0.413413,-1.72327 0.153262,-0.17322 0.501426,-0.45333 0.784767,-0.6157 0.787811,-0.46353 1.742314,-1.32443 1.675531,-1.52908 -0.08065,-0.22675 -0.667276,-0.22851 -1.876109,0.006 -1.824279,0.35884 -2.830402,0.2043 -3.246667,-0.45907 -0.235872,-0.37592 -0.132475,-0.57949 0.59007,-1.17155 0.674213,-0.54634 1.267554,-0.6567 2.106556,-0.35104 1.032798,0.36894 1.44165,-0.0109 0.698913,-0.6543 -0.127475,-0.10496 -1.084625,-0.72166 -2.127621,-1.377 -1.042997,-0.65533 -2.123503,-1.39499 -2.384089,-1.66293 -1.017218,-0.93348 -1.462536,-2.37989 -1.046318,-3.28826 0.265973,-0.58296 2.853069,-3.77808 3.94134,-4.89242 0.513772,-0.50731 0.939097,-0.9591 0.943216,-0.9771 0.02883,-0.12596 -1.334567,-0.45696 -2.169005,-0.5343 -0.682244,-0.0804 -1.419545,-0.003 -2.552267,0.23008 -1.930726,0.41022 -4.647979,0.45105 -7.959468,0.10969 -3.221517,-0.32077 -5.473534,-0.0788 -10.562878,1.14233 -2.664991,0.63982 -3.612141,0.97219 -3.597825,1.24057 0.01539,0.0982 0.442046,0.38523 0.953027,0.63475 2.153413,1.09884 2.929104,1.59831 3.190133,2.11253 0.130515,0.25711 0.226562,0.58208 0.197731,0.70804 -0.02883,0.12595 -0.394541,0.64821 -0.814235,1.15811 -0.673765,0.79261 -0.803398,1.02805 -0.976377,1.78378 -0.197691,0.86371 -0.07149,1.80154 0.270386,1.87979 0.197932,0.0453 0.876297,1.05271 0.979502,1.51187 0.164343,0.60571 0.08305,0.79541 -0.513979,1.17003 l -0.530695,0.33301 -1.24465,-2.0081 c -1.332017,-2.12278 -1.58285,-2.35062 -2.192238,-1.92201 -0.203128,0.14287 -0.401699,0.51403 -0.630177,1.18131 -0.189897,0.58144 -0.439406,1.09242 -0.632778,1.2754 -1.555218,1.4998 -1.929607,1.81177 -2.008741,1.6611 -0.142869,-0.20313 -0.216207,-2.53016 -0.09677,-3.05197 0.127674,-0.55781 0.549966,-1.1618 1.006089,-1.41719 0.801678,-0.44141 1.151557,-1.30815 0.713627,-1.71137 -0.109474,-0.10083 -0.825113,-0.28353 -1.611205,-0.40662 -1.325899,-0.24667 -1.465723,-0.29765 -2.544715,-0.96118 -1.360166,-0.84155 -1.261962,-0.85694 -2.632041,0.49587 -1.265158,1.22533 -1.989867,2.15777 -2.900347,3.65365 -0.447004,0.71195 -1.059629,1.65111 -1.378517,2.05153 -0.305012,0.42253 -0.587914,0.83118 -0.608508,0.92116 -0.07825,0.34188 -1.213333,1.57804 -1.721917,1.89717 -0.327565,0.19014 -1.43514,0.56153 -2.482014,0.8332 -1.34973,0.35384 -1.967795,0.57217 -2.111304,0.78549 -1.006087,1.41719 -1.608756,1.73371 -2.778349,1.46601 -0.557806,-0.12768 -0.938275,-0.12007 -1.423666,0.015 -3.779283,1.1233 -5.792179,1.23066 -6.942061,0.38044 -0.486269,-0.35748 -1.009409,-1.21574 -1.121291,-1.88519 -0.162186,-0.94606 0.07277,-2.63444 0.568317,-4.05487 0.24084,-0.72127 0.501183,-1.36232 0.561882,-1.46205 0.05658,-0.0817 0.0351,-0.48431 -0.02235,-0.89512 -0.191896,-1.31267 0.07409,-1.89562 1.1977,-2.58527 0.65925,-0.39826 0.71583,-0.47999 1.007608,-1.34109 0.440482,-1.2626 1.28007,-2.94514 1.697165,-3.36096 0.197488,-0.20096 0.979656,-0.72258 1.763343,-1.16811 1.177587,-0.67728 1.525748,-0.95739 2.251972,-1.81373 1.045115,-1.25676 2.146611,-1.93253 4.508305,-2.73645 2.157051,-0.73715 3.106799,-1.1636 3.421568,-1.54602 0.363114,-0.42818 0.585074,-1.64611 0.459314,-2.33767 -0.07394,-0.33884 -0.321089,-0.83095 -0.555446,-1.13077 -1.406153,-1.79889 -1.737638,-2.25349 -1.986314,-2.82169 -0.145911,-0.35532 -0.354037,-0.687 -0.457879,-0.72971 -0.253425,-0.13379 -4.372039,-0.75453 -4.958675,-0.75625 -0.54653,-0.0115 -0.708034,0.19774 -1.122288,1.42846 -0.683919,2.07796 -0.878812,2.18484 -1.396113,0.72195 -0.189053,-0.49775 -0.380707,-0.9014 -0.46092,-0.88189 -0.06222,0.0236 -0.236076,0.28682 -0.382186,0.59424 -0.401258,0.76029 -0.785403,1.03215 -1.435778,0.97798 -0.426214,-0.0407 -0.611788,-0.14003 -0.818396,-0.39562 l -0.248234,-0.32193 0.355955,-0.56237 c 0.222202,-0.30893 0.567324,-0.74122 0.804919,-0.95195 0.241713,-0.22871 0.447442,-0.46567 0.463917,-0.53765 0.01648,-0.072 -0.172139,-0.32345 -0.414735,-0.58728 -0.530937,-0.57599 -0.700917,-1.2398 -0.503228,-2.1035 0.135913,-0.5938 0.10664,-0.71412 -0.173462,-1.06227 -0.876295,-1.05271 -1.080305,-1.40239 -1.158797,-1.96951 -0.09953,-0.72343 0.134151,-1.57889 0.481235,-1.68882 0.453522,-0.1613 1.12948,0.2775 1.969797,1.32194 0.707193,0.88146 1.063391,1.22809 1.104575,1.04816 0.0082,-0.036 -0.03535,-0.4247 -0.08046,-0.88949 -0.04922,-0.4468 -0.03927,-1.06943 0.02663,-1.35733 0.09885,-0.43185 0.225887,-0.5732 0.818795,-0.92984 1.105614,-0.69375 1.203821,-0.70916 1.396553,-0.47567 0.11512,0.15891 0.09085,0.51314 -0.119196,1.43082 -0.492705,2.23534 -0.378863,3.22715 0.392268,3.49834 0.319762,0.0921 0.809277,-0.0609 2.54987,-0.79872 3.232311,-1.38105 4.811841,-1.66335 6.228151,-1.14981 1.502157,0.55212 2.291083,1.49016 3.159821,3.73413 0.779852,2.05321 1.466014,2.77836 2.750288,2.95869 0.530049,0.0835 1.061189,-0.003 2.387285,-0.41934 0.95279,-0.27426 2.635723,-0.76013 3.784922,-1.06519 1.718921,-0.47764 2.265011,-0.71244 3.3845,-1.38408 1.875426,-1.1614 3.010309,-1.73484 4.663971,-2.34103 6.000708,-2.22444 11.957231,-2.84938 17.739501,-1.88569 2.808098,0.47232 5.113252,1.32186 9.843688,3.6544 0.904247,0.4342 1.950918,0.82527 3.036177,1.13048 l 1.652833,0.47299 1.272317,-1.09115 c 3.935751,-3.37878 7.279259,-5.24566 10.114867,-5.63813 1.294665,-0.196 2.271975,0.0845 4.980575,1.40511 1.39313,0.69759 2.19201,1.01301 2.77605,1.1088 l 0.79995,0.14525 -0.7293,-0.86758 c -0.89841,-1.03884 -1.04172,-1.48824 -0.67341,-2.10458 0.72839,-1.19671 1.84704,-0.78918 3.55951,1.326 l 0.67945,0.83724 0.11944,-0.52183 c 0.0659,-0.28789 0.0867,-1.04059 0.0427,-1.67557 -0.0846,-0.8715 -0.0495,-1.3558 0.15538,-2.08532 0.25425,-0.945417 0.25837,-0.963427 0.77564,-1.072267 0.28075,-0.0683 0.65406,-0.21008 0.83508,-0.33907 0.35791,-0.24 0.73014,-0.21161 0.88429,0.10771 0.0514,0.10646 0.0763,0.907477 0.035,1.750147 -0.0838,1.85551 0.09,3.16406 0.54944,3.96985 0.44554,0.78369 0.74167,0.8136 1.68686,0.15887 3.00684,-2.1333 4.30214,-2.74577 5.2738,-2.52337 0.21593,0.0494 0.56041,0.0336 0.72906,-0.0414 0.43965,-0.18342 0.78457,0.047 0.60812,0.4043 -0.50467,0.96386 -1.5669,2.70905 -1.79062,2.94189 -0.16714,0.1511 -0.56516,0.40086 -0.92871,0.58276 -3.02874,1.48444 -3.47098,1.76195 -3.99409,2.47542 -0.39607,0.57213 -0.36635,0.93872 0.15179,1.32242 0.39066,0.27878 0.44876,0.27314 1.24113,0.0379 0.77438,-0.23936 0.90444,-0.22852 1.6797,0.0247 0.47759,0.14716 0.97057,0.39259 1.1078,0.53762 0.22873,0.24172 0.3367,0.26643 1.09612,0.1751 0.87972,-0.12056 1.24935,0.002 1.29294,0.39063 0.0559,0.33472 -0.67896,0.98078 -1.45181,1.29623 -0.64429,0.25019 -0.93067,0.26039 -3.3841,0.0586 -1.99123,-0.15278 -3.21848,-0.16858 -4.70284,-0.0538 -3.43353,0.27454 -4.59336,0.0469 -7.81144,-1.44709 -0.94436,-0.42445 -2.08252,-0.9122 -2.55599,-1.07739 -1.10889,-0.36743 -1.17523,-0.3258 -2.4781,1.47794 -1.024078,1.41306 -2.460049,3.05377 -2.985106,3.44487 -0.176907,0.11101 -0.32606,0.26623 -0.342534,0.33821 -0.03707,0.16194 2.101399,1.40887 3.25343,1.91873 0.49711,0.2274 1.44666,0.46368 2.84453,0.72685 1.71201,0.29717 2.33354,0.47731 3.47583,0.94707 1.56177,0.62257 6.39949,1.82455 8.53207,2.10437 1.12232,0.14327 5.14185,0.28689 6.85189,0.2617 0.68485,-0.0137 4.20422,-0.24964 7.87014,-0.54674 0.34448,-0.0158 2.45818,-0.23268 4.70608,-0.45668 14.11672,-1.44616 23.25553,-1.24804 30.47146,0.64977 4.87523,1.28631 7.36792,2.5575 11.0426,5.61415 3.40174,2.84269 6.18997,6.13197 8.08048,9.53771 1.52411,2.77271 2.28381,5.16216 2.89701,9.18448 0.28426,1.9019 0.87161,4.63062 1.38523,6.35778 0.29379,1.033 0.20558,1.9975 -0.2022,2.20715 z"
       id="path2083" />
  </g>
</svg>
