<?xml version="1.0" encoding="UTF-8" standalone="no"?>
<svg
   xmlns:dc="http://purl.org/dc/elements/1.1/"
   xmlns:cc="http://creativecommons.org/ns#"
   xmlns:rdf="http://www.w3.org/1999/02/22-rdf-syntax-ns#"
   xmlns:svg="http://www.w3.org/2000/svg"
   xmlns="http://www.w3.org/2000/svg"
   xmlns:sodipodi="http://sodipodi.sourceforge.net/DTD/sodipodi-0.dtd"
   xmlns:inkscape="http://www.inkscape.org/namespaces/inkscape"
   sodipodi:docname="tekening doosje.svg"
   inkscape:version="1.0 (4035a4fb49, 2020-05-01)"
   id="svg1520"
   version="1.1"
   viewBox="0 0 315.26459 155.26459"
   height="155.26459mm"
   width="315.26459mm">
  <defs
     id="defs1514">
    <marker
       id="DistanceX"
       orient="auto"
       refX="0"
       refY="0"
       style="overflow:visible">
      <path
         d="M 3,-3 -3,3 M 0,-5 V 5"
         style="stroke:#000000;stroke-width:0.5"
         id="path2083" />
    </marker>
    <pattern
       id="Hatch"
       patternUnits="userSpaceOnUse"
       width="8"
       height="8"
       x="0"
       y="0">
      <path
         d="M8 4 l-4,4"
         stroke="#000000"
         stroke-width="0.25"
         linecap="square"
         id="path2086" />
      <path
         d="M6 2 l-4,4"
         stroke="#000000"
         stroke-width="0.25"
         linecap="square"
         id="path2088" />
      <path
         d="M4 0 l-4,4"
         stroke="#000000"
         stroke-width="0.25"
         linecap="square"
         id="path2090" />
    </pattern>
  </defs>
  <sodipodi:namedview
     inkscape:window-maximized="0"
     inkscape:window-y="0"
     inkscape:window-x="0"
     inkscape:window-height="728"
     inkscape:window-width="1350"
     inkscape:guide-bbox="true"
     showguides="true"
     fit-margin-bottom="0"
     fit-margin-right="0"
     fit-margin-left="0"
     fit-margin-top="0"
     showgrid="false"
     inkscape:document-rotation="0"
     inkscape:current-layer="g2107"
     inkscape:document-units="mm"
     inkscape:cy="315.44508"
     inkscape:cx="500.31713"
     inkscape:zoom="0.7"
     inkscape:pageshadow="2"
     inkscape:pageopacity="0.0"
     borderopacity="1.0"
     bordercolor="#666666"
     pagecolor="#ffffff"
     id="base">
    <sodipodi:guide
       id="guide2155"
       orientation="0.70710678,-0.70710678"
       position="-15.875001,173.40745" />
  </sodipodi:namedview>
  <metadata
     id="metadata1517">
    <rdf:RDF>
      <cc:Work
         rdf:about="">
        <dc:format>image/svg+xml</dc:format>
        <dc:type
           rdf:resource="http://purl.org/dc/dcmitype/StillImage" />
        <dc:title></dc:title>
      </cc:Work>
    </rdf:RDF>
  </metadata>
  <g
     transform="translate(26.852528,-93.968905)"
     id="layer1"
     inkscape:groupmode="layer"
     inkscape:label="Laag 1">
    <g
       transform="matrix(0.26458333,0,0,0.26458333,68.279763,-142.8988)"
       id="g2107"
       inkscape:label="OpenJsCad">
      <path
         id="path2095"
         style="fill:none;stroke:#ff0000;stroke-opacity:1"
         d="m -359.05512,1447.2155 v 34.3593 h 34.96407 v -11.3386 h 33.75462 v 11.3386 h 34.96406 v -11.3386 h 33.75462 v 11.3386 h 34.96406 v -11.3386 h 33.75462 v 11.3386 h 34.96407 v -11.3386 h 33.754613 v 11.3386 h 34.964066 v -11.3386 h 33.754617 v 11.3386 h 34.359342 v -34.9641 H 7.559055 v -33.7546 h 11.338583 v -34.964 H 7.559055 v -33.7547 h 11.338583 v -34.964 H 7.559055 v -33.7546 h 11.338583 v -34.9641 H 7.559055 v -33.7546 H 18.897638 V 1171.736 H 7.559055 v -33.7546 h 11.338583 v -34.3594 h -34.964066 v 11.3386 h -33.754617 v -11.3386 h -34.964066 v 11.3386 h -33.754619 v -11.3386 h -34.96406 v 11.3386 h -33.75462 v -11.3386 h -34.96407 v 11.3386 h -33.75461 v -11.3386 h -34.96407 v 11.3386 h -33.75462 v -11.3386 h -34.35934 v 34.9641 h 11.33858 v 33.7546 h -11.33858 v 34.9641 h 11.33858 v 33.7546 h -11.33858 v 34.9641 h 11.33858 v 33.7546 h -11.33858 v 34.9641 h 11.33858 v 33.7546 h -11.33858 v 34.964 h 11.33858 v 33.7547 z" />
      <path
         id="path2097"
         style="fill:none;stroke:#ff0000;stroke-opacity:1"
         d="m -359.05512,1008.5291 v 38.4 h 11.33858 v 26.4567 h 22.41604 v 11.3386 h 34.96407 v -11.3386 h 33.75461 v 11.3386 h 34.96407 v -11.3386 h 33.75462 v 11.3386 h 34.96406 v -11.3386 h 33.75462 v 11.3386 h 34.964063 v -11.3386 h 33.754617 v 11.3386 h 34.964066 v -11.3386 H 7.559055 v -25.8519 h 11.338583 v -38.4 H 7.559055 v -37.19059 h 11.338583 v -38.4 H 7.559055 v -26.4567 h -22.416034 v -11.33858 h -34.964066 v 11.33858 h -33.754617 v -11.33858 h -34.964068 v 11.33858 h -33.75461 v -11.33858 h -34.96407 v 11.33858 h -33.75462 v -11.33858 h -34.96406 v 11.33858 h -33.75462 v -11.33858 h -34.96407 v 11.33858 h -23.02076 v 25.85197 h -11.33858 v 38.4 h 11.33858 v 37.19052 z" />
      <path
         id="path2099"
         style="fill:none;stroke:#ff0000;stroke-opacity:1"
         d="M 75.590551,1103.622 H 49.133858 v 33.7547 H 37.795276 v 34.964 h 11.338582 v 33.7546 H 37.795276 v 34.9641 h 11.338582 v 33.7546 H 37.795276 v 34.9641 h 11.338582 v 33.7546 H 37.795276 v 34.9641 h 11.338582 v 33.7546 H 37.795276 v 34.9641 h 11.338582 v 34.3593 h 27.061418 v -11.3386 h 37.190554 v 11.3386 h 38.4 v -11.3386 h 37.19055 v 11.3386 h 26.45669 v -33.7546 h 11.33858 v -34.9641 h -11.33858 v -33.7546 h 11.33858 v -34.9641 h -11.33858 v -33.7546 h 11.33858 v -34.964 h -11.33858 v -33.7547 h 11.33858 v -34.964 h -11.33858 v -33.7546 h 11.33858 v -34.9641 h -11.33858 v -34.3594 h -27.06142 v 11.3386 H 151.1811 v -11.3386 h -38.4 v 11.3386 H 75.590551 Z" />
      <path
         id="path2101"
         style="fill:none;stroke:#ff0000;stroke-opacity:1"
         d="m 283.46457,1103.622 h -26.4567 v 33.7547 h -11.33858 v 34.964 h 11.33858 v 33.7546 h -11.33858 v 34.9641 h 11.33858 v 33.7546 h -11.33858 v 34.9641 h 11.33858 v 33.7546 h -11.33858 v 34.9641 h 11.33858 v 33.7546 h -11.33858 v 34.9641 h 11.33858 v 34.3593 h 27.06142 v -11.3386 h 37.19055 v 11.3386 h 38.4 v -11.3386 h 37.19055 v 11.3386 h 26.4567 v -33.7546 h 11.33858 v -34.9641 h -11.33858 v -33.7546 h 11.33858 v -34.9641 h -11.33858 v -33.7546 h 11.33858 v -34.964 h -11.33858 v -33.7547 h 11.33858 v -34.964 h -11.33858 v -33.7546 h 11.33858 v -34.9641 h -11.33858 v -34.3594 h -27.06142 v 11.3386 h -37.19055 v -11.3386 h -38.4 v 11.3386 h -37.19055 z" />
      <path
         id="path2103"
         style="fill:none;stroke:#ff0000;stroke-opacity:1"
         d="m 487.90265,1103.622 h -34.35934 v 34.9641 h 11.33858 v 33.7546 h -11.33858 v 34.9641 h 11.33858 v 33.7546 h -11.33858 v 34.9641 h 11.33858 v 33.7546 h -11.33858 v 34.9641 h 11.33858 v 33.7546 h -11.33858 v 34.964 h 11.33858 v 33.7547 h -11.33858 v 34.3593 h 34.96406 v -11.3386 h 33.75462 v 11.3386 h 34.96407 v -11.3386 h 33.75461 v 11.3386 h 34.96407 v -11.3386 h 33.75462 v 11.3386 h 34.96406 v -11.3386 h 33.75462 v 11.3386 h 34.96407 v -11.3386 h 33.75461 v 11.3386 h 34.35934 v -34.9641 h -11.33858 v -33.7546 h 11.33858 v -34.964 h -11.33858 v -33.7547 h 11.33858 v -34.964 h -11.33858 v -33.7546 h 11.33858 v -34.9641 h -11.33858 v -33.7546 h 11.33858 v -34.9641 h -11.33858 v -33.7546 h 11.33858 V 1103.622 H 796.532 v 11.3386 h -33.75462 v -11.3386 h -34.96407 v 11.3386 H 694.0587 v -11.3386 h -34.96407 v 11.3386 h -33.75462 v -11.3386 h -34.96406 v 11.3386 h -33.75462 v -11.3386 h -34.96406 v 11.3386 h -33.75462 z" />
      <path
         id="path2105"
         style="fill:none;stroke:#ff0000;stroke-opacity:1"
         d="m 49.133858,1046.9291 v 26.4567 h 22.416035 v 11.3386 h 34.964067 v -11.3386 h 33.75462 v 11.3386 h 34.96406 v -11.3386 h 33.75462 v 11.3386 h 34.96406 v -11.3386 h 33.75462 v 11.3386 h 34.96407 v -11.3386 h 33.75461 v 11.3386 h 34.96407 v -11.3386 h 23.02076 v -25.8519 h 11.33858 v -38.4 h -11.33858 v -37.19059 h 11.33858 v -38.4 h -11.33858 v -26.4567 h -22.41604 v -11.33858 h -34.96406 v 11.33858 h -33.75462 v -11.33858 h -34.96406 v 11.33858 h -33.75462 v -11.33858 h -34.96407 v 11.33858 H 175.83737 V 895.74803 H 140.8733 v 11.33858 H 107.11868 V 895.74803 H 72.154617 v 11.33858 H 49.133858 v 25.85197 H 37.795276 v 38.4 h 11.338582 v 37.19052 H 37.795276 v 38.4 z" />
      <text
         transform="scale(0.89854082,1.1129155)"
         id="text2151"
         y="921.25342"
         x="-329.48169"
         style="font-style:normal;font-weight:normal;font-size:85.0953px;line-height:1.25;font-family:sans-serif;fill:#0000ff;fill-opacity:1;stroke:none;stroke-width:2.12738;"
         xml:space="preserve"><tspan
           style="stroke-width:2.12738;fill:#0000ff;"
           y="921.25342"
           x="-329.48169"
           id="tspan2149"
           sodipodi:role="line">JORAN</tspan></text>
      <text
         xml:space="preserve"
         style="font-style:normal;font-weight:normal;font-size:85.0953px;line-height:1.25;font-family:sans-serif;fill:#0000ff;fill-opacity:1;stroke:none;stroke-width:2.12738"
         x="114.09464"
         y="919.96979"
         id="text2186"
         transform="scale(0.89854082,1.1129155)"><tspan
           sodipodi:role="line"
           id="tspan2184"
           x="114.09464"
           y="919.96979"
           style="fill:#0000ff;stroke-width:2.12738">JORAN</tspan></text>
    </g>
    <g
       transform="matrix(0.26458333,0,0,0.26458333,68.279763,-142.8988)"
       id="g2111"
       inkscape:label="0" />
  </g>
</svg>
